<svg width="80" height="80" viewBox="0 0 80 80" fill="none" xmlns="http://www.w3.org/2000/svg">
    <circle cx="40" cy="40" r="24" fill="#25B2FF"/>
    <circle cx="40" cy="40" r="30" stroke="#25B2FF" stroke-opacity=".2" stroke-width="12"/>
    <path d="M40.66 29.187a.884.884 0 0 0-1.086 0L27 38.99l1.088 1.376 1.537-1.2V50a1.753 1.753 0 0 0 1.75 1.75h17.5a1.754 1.754 0 0 0 1.75-1.75V39.176l1.537 1.198L53.25 39l-12.59-9.812zm1.215 20.812h-3.5v-7h3.5v7zm1.75 0v-7a1.752 1.752 0 0 0-1.75-1.75h-3.5a1.752 1.752 0 0 0-1.75 1.75v7h-5.25V37.804l8.75-6.817 8.75 6.826v12.186h-5.25z" fill="#fff"/>
</svg>
