<svg width="80" height="81" viewBox="0 0 80 81" fill="none" xmlns="http://www.w3.org/2000/svg">
    <circle cx="40" cy="40.5" r="24" fill="#29CB97"/>
    <path fill-rule="evenodd" clip-rule="evenodd" d="M52.258 31.5H33.827c-.39 0-.74.236-.888.597l-6.868 16.867a.958.958 0 0 0 .887 1.32H46.588a.958.958 0 0 0 .908-.653l2.465-7.332 2.443 7.33a.958.958 0 1 0 1.818-.607l-3.162-9.487a.96.96 0 0 0-.1-.21l2.207-6.561a.958.958 0 0 0-.909-1.264zm-6.36 16.867h-7.734l5.607-14.95h7.154L45.9 48.367zm-9.78 0 5.606-14.95H34.47l-6.088 14.95h7.735z" fill="#fff"/>
</svg>
