<svg width="24" height="24" viewBox="0 0 24 24" fill="none" xmlns="http://www.w3.org/2000/svg">
  <path d="M22 6.4C22.4971 6.4 22.9 5.99706 22.9 5.5C22.9 5.00294 22.4971 4.6 22 4.6L22 6.4ZM9 4.6C8.50294 4.6 8.1 5.00294 8.1 5.5C8.1 5.99706 8.50294 6.4 9 6.4L9 4.6ZM22 4.6L9 4.6L9 6.4L22 6.4L22 4.6Z" fill="white"/>
  <path d="M22 12.9C22.4971 12.9 22.9 12.4971 22.9 12C22.9 11.5029 22.4971 11.1 22 11.1L22 12.9ZM9 11.1C8.50294 11.1 8.1 11.5029 8.1 12C8.1 12.4971 8.50294 12.9 9 12.9L9 11.1ZM22 11.1L9 11.1L9 12.9L22 12.9L22 11.1Z" fill="white"/>
  <path d="M22 19.4C22.4971 19.4 22.9 18.9971 22.9 18.5C22.9 18.0029 22.4971 17.6 22 17.6L22 19.4ZM9 17.6C8.50294 17.6 8.1 18.0029 8.1 18.5C8.1 18.9971 8.50294 19.4 9 19.4L9 17.6ZM22 17.6L9 17.6L9 19.4L22 19.4L22 17.6Z" fill="white"/>
  <circle cx="3.5" cy="5.5" r="1.25" stroke="white" stroke-width="2.5"/>
  <circle cx="3.5" cy="12" r="1.25" stroke="white" stroke-width="2.5"/>
  <circle cx="3.5" cy="18.5" r="1.25" stroke="white" stroke-width="2.5"/>
</svg>
