<svg width="388" height="372" viewBox="0 0 388 372" fill="none" xmlns="http://www.w3.org/2000/svg">
  <ellipse cx="247.5" cy="268.5" rx="120.5" ry="103.5" fill="white" fill-opacity="0.05"/>
  <path d="M161.5 76L138 97L164.5 133.5L172 130L182 89L169.5 72.5L161.5 76Z" fill="#F1F5F9"/>
  <path d="M190.5 100.5L196 112.5L194 116C182 124.5 177.277 126.229 175 128C170.5 131.5 161.833 134.167 163.5 132C178.366 108.502 175.732 83.5323 173.022 77.6473C172.362 76.5589 172.173 76.2092 172.676 77.0002C172.791 77.1801 172.906 77.3963 173.022 77.6473C176.034 82.6136 188.86 102.961 190.5 100.5Z" fill="#D1DBE3"/>
  <path d="M220.837 264.391C217.079 270.351 218.099 271.037 215.704 279.681C214.574 290.86 218.173 297.089 219.535 278.531C221.572 266.841 222.627 263.499 229.786 259.929C230.676 263.955 253.017 281.868 263.538 271.594C270.913 264.392 276.298 259.086 274.965 250.811C273.632 242.536 258.666 228.209 249.719 231.553C240.771 234.897 230.847 248.516 220.837 264.391Z" fill="black" fill-opacity="0.26"/>
  <path fill-rule="evenodd" clip-rule="evenodd" d="M144.891 320.532L146.25 321.515C143.184 324.266 138.571 320.846 135.985 317.639C131.827 312.483 127.607 307.004 126.342 300.502C125.622 296.803 125.91 292.991 126.201 289.233L127.374 274.082C127.894 267.368 128.415 260.641 129.577 254.008C132.723 236.056 140.641 218.963 152.3 204.955L152.417 204.814C154.476 202.342 156.724 199.642 156.685 196.436C156.601 189.653 160.506 183.315 165.635 178.875C170.763 174.435 177.043 171.586 183.226 168.797C186.027 167.534 189.685 166.402 191.856 168.577C196.321 173.05 203.774 170.2 209.672 167.929C216.913 165.139 224.648 163.636 232.407 163.511C232.633 163.507 232.861 163.504 233.09 163.501C237.749 163.434 242.992 163.359 245.834 159.75C247.644 157.452 251.104 157.585 254.009 157.933L273.984 160.322C275.511 160.504 277.34 160.921 277.821 162.381C279.112 166.296 283.664 167.894 287.61 169.083C301.641 173.314 315.355 179.058 327.266 187.594C339.177 196.13 349.245 207.612 354.587 221.258C345.901 209.387 336.991 197.292 324.937 188.861C321.488 186.449 317.819 184.366 314.095 182.403C305.306 177.769 296.158 173.776 286.655 170.875C242.541 157.41 191.511 169.898 158.6 202.213C153.828 206.899 149.354 212.06 146.648 218.175L150.223 219.284C144.556 221.817 140.348 227.366 139.437 233.505C141.717 229.6 144.967 226.265 148.813 223.885C147.712 227.562 144.849 230.517 142.043 233.413C138.466 237.105 134.981 240.701 135.351 245.579C137.049 241.122 141.327 237.758 146.058 237.159C138.554 244.491 130.501 253.097 130.74 263.586C133.477 257.529 138.125 252.353 143.854 248.981L135.607 260.064C132.488 264.256 129.203 269.045 129.916 274.221C132.63 269.351 136.509 265.137 141.138 262.03C138.909 267.099 135.726 271.747 131.807 275.658C135.534 275.208 139.123 273.664 142.013 271.267C140.802 272.958 139.71 274.867 139.669 276.947C139.628 279.027 140.976 281.26 143.035 281.559C143.658 280.165 145.613 279.576 146.902 280.395C142.995 284.196 142.955 291.24 146.818 295.087C147.162 293.279 148.687 291.756 150.495 291.414C147.613 296.452 147.094 302.78 149.118 308.221C149.731 305.138 151.441 302.285 153.871 300.293C152.47 307.605 149.372 314.586 144.891 320.532ZM143.184 318.203C145.624 318.178 147.142 315.448 147.396 313.022C147.701 310.119 146.979 307.217 146.264 304.387L142.02 287.601C141.221 287.853 141.128 288.723 141.031 289.633C140.948 290.41 140.862 291.217 140.331 291.696C139.256 290.36 139.134 288.337 140.04 286.882C140.955 285.412 140.356 283.355 139.059 282.209C137.762 281.064 135.956 280.675 134.226 280.618C133.292 280.587 132.297 280.659 131.532 281.197C130.767 281.735 130.365 282.88 130.908 283.641C132.526 285.908 133.743 288.459 134.486 291.143C134.541 291.343 134.595 291.546 134.649 291.75C135.019 293.143 135.398 294.576 136.418 295.569C137.206 296.337 137.406 297.508 137.566 298.597L138.863 307.417C139.099 309.023 139.335 310.66 139.065 312.26C138.795 313.86 137.93 315.447 136.479 316.173L141.113 317.75C141.786 317.978 142.474 318.21 143.184 318.203ZM193.699 173.626C192.786 173.819 192.02 173.016 191.366 172.331L191.291 172.253C190.621 171.552 189.469 170.942 188.763 171.606C180.538 179.344 171.177 185.874 161.075 190.921C159.241 191.837 158.995 194.308 158.994 196.357C158.994 197.042 159.649 198.003 160.076 197.467C162.159 194.858 164.868 192.831 167.545 190.835C175.079 185.219 182.702 179.55 191.338 175.847C192.386 175.398 193.613 174.762 193.699 173.626ZM276.369 164.923C275.903 163.829 274.578 163.434 273.409 163.214C270.226 162.614 266.985 162.342 263.748 162.071C259.302 161.698 254.862 161.326 250.584 160.105C249.213 159.714 248.041 161.103 247.29 162.314C249.544 162.079 251.813 161.982 254.08 162.024C258.025 162.097 261.948 162.588 265.863 163.079C267.853 163.328 269.856 163.58 271.764 164.198C271.986 164.269 272.21 164.346 272.435 164.424C273.738 164.871 275.084 165.333 276.369 164.923ZM234.258 181.736C235.16 181.942 236.018 182.616 236.153 183.531C236.287 184.443 235.664 185.333 234.867 185.798C234.07 186.262 233.128 186.393 232.214 186.514L229.461 186.878C229.185 186.915 228.901 186.954 228.661 187.096C227.969 187.506 228.017 188.616 228.583 189.187C229.149 189.759 230.016 189.901 230.82 189.899C234.565 189.892 238.11 187.197 239.254 183.632C239.525 182.785 239.669 181.843 239.333 181.02C239.162 180.603 238.877 180.241 238.56 179.919C237.087 178.427 234.893 177.769 232.801 177.917C230.71 178.065 228.72 178.955 227.018 180.18C226.203 180.767 225.425 181.454 224.962 182.346C224.498 183.238 224.399 184.37 224.917 185.231C225.115 185.559 225.421 185.85 225.799 185.912C226.177 185.974 226.614 185.73 226.661 185.349C226.792 184.292 227.564 183.398 228.483 182.861C229.403 182.323 230.464 182.087 231.509 181.878C232.416 181.696 233.356 181.53 234.258 181.736ZM160.461 234.044C161.49 227.958 166.406 223.01 172.137 220.717C175.295 219.454 178.909 218.9 182.085 220.117C182.868 220.418 183.627 220.832 184.192 221.453C184.723 222.037 185.056 222.773 185.308 223.52C186.922 228.306 185.284 233.84 181.818 237.513C178.351 241.186 173.304 243.113 168.267 243.474C166.653 243.59 164.92 243.525 163.587 242.608C162.254 241.69 161.592 239.653 162.619 238.402C163.104 238.425 163.365 238.858 163.633 239.301C163.766 239.521 163.9 239.743 164.064 239.919C164.623 240.521 165.548 240.565 166.369 240.53C169.941 240.38 173.567 239.495 176.475 237.414C179.382 235.334 181.471 231.935 181.41 228.361C181.39 227.209 181.14 226.031 180.487 225.081C179.416 223.523 177.391 222.82 175.504 222.944C173.618 223.069 171.849 223.906 170.242 224.903C168.128 226.215 166.175 227.864 164.849 229.97C163.524 232.076 162.877 234.679 163.437 237.103C162.942 237.996 161.469 237.818 160.861 236.997C160.253 236.176 160.291 235.052 160.461 234.044ZM193.357 284.204C190.744 285.885 188.577 288.517 188.174 291.599C187.848 294.092 188.684 296.574 189.507 298.95C190.15 300.804 190.814 302.697 192.038 304.231C194.248 307.001 197.909 308.147 201.408 308.71C202.361 308.863 203.806 308.433 203.467 307.53C199.772 307.462 196.139 305.749 193.735 302.944C191.331 300.138 190.195 296.285 190.694 292.624C190.799 291.854 190.974 291.087 191.298 290.381C191.952 288.951 193.173 287.851 194.493 286.998C197.336 285.161 200.797 284.3 204.17 284.591C207.421 284.872 210.669 286.297 212.654 288.888C214.639 291.478 215.112 295.3 213.36 298.054C213.076 298.501 212.868 299.293 213.39 299.387C216.21 297.867 217.775 294.517 217.617 291.319C217.459 288.12 215.769 285.126 213.448 282.919C212.165 281.698 210.644 280.667 208.922 280.252C206.652 279.705 204.276 280.269 202.018 280.863C199.012 281.653 195.971 282.522 193.357 284.204ZM321.703 288.178C312.253 284.649 301.984 283.334 291.95 284.367C287.742 284.8 283.521 285.659 279.739 287.552C272.602 291.124 267.499 298.477 266.65 306.413C265.801 314.349 269.233 322.615 275.453 327.616C277.811 329.512 280.488 330.932 283.169 332.354L283.17 332.354L283.17 332.355L283.17 332.355L283.17 332.355L283.171 332.355L283.171 332.355L283.171 332.355L283.172 332.356L283.172 332.356L283.172 332.356L283.173 332.356L283.173 332.356L283.173 332.357L283.174 332.357L283.174 332.357L283.174 332.357L283.175 332.357C285.003 333.327 286.833 334.297 288.564 335.421C289.059 335.894 287.945 336.366 287.294 336.156C281.233 334.2 275.346 331.224 271.023 326.547C265.763 320.857 263.198 312.777 264.212 305.095C265.227 297.414 269.802 290.277 276.358 286.148C281.545 282.882 287.745 281.506 293.87 281.285C299.995 281.064 306.101 281.939 312.158 282.877C315.941 283.464 320.376 284.587 321.703 288.178ZM222.268 300.018C221.839 299.035 220.114 298.779 219.799 299.804C217.794 306.328 211.428 311.26 204.611 311.573C203.07 311.644 201.528 311.5 199.992 311.352C196.685 311.032 193.275 310.654 190.379 309.026C186.215 306.684 183.709 301.877 183.679 297.099C183.65 292.322 185.916 287.679 189.357 284.365C188.879 283.027 186.829 283.673 185.81 284.663C180.167 290.148 179.199 299.616 183.159 306.417C187.118 313.218 195.416 317.03 203.239 316.165C211.061 315.301 218.123 310.063 221.759 303.084C222.255 302.133 222.697 301.001 222.268 300.018ZM173.284 333.052C172.01 337.938 171.889 343.121 172.934 348.062C173.403 350.278 173.454 351.499 173.464 351.727C173.465 351.754 173.465 351.767 173.466 351.767C173.466 351.767 173.467 351.754 173.468 351.727C173.478 351.499 173.534 350.273 174.013 348.054C175.082 343.104 174.828 337.875 173.284 333.052ZM180.054 336.007C178.244 339.802 178.468 344.497 180.632 348.102C181.118 348.911 181.487 349.57 181.759 350.055L181.759 350.055C182.125 350.708 182.316 351.049 182.382 351.026C182.454 351.002 182.378 350.544 182.217 349.586L182.217 349.585L182.217 349.585L182.216 349.58L182.216 349.579C182.152 349.196 182.074 348.734 181.987 348.188L180.054 336.007ZM185.151 340.853C184.383 343.276 184.948 346.077 186.596 348.012C188.278 349.988 188.828 350.621 188.315 348.077C187.792 345.48 186.705 342.999 185.151 340.853ZM332.656 313.296C330.345 322.574 322.962 329.605 315.804 335.945C316.131 336.65 317.189 336.397 317.866 336.015C325.117 331.935 330.984 325.284 333.66 317.406C336.337 309.528 335.672 300.477 331.446 293.31C331.092 292.709 330.64 292.068 329.954 291.934C329.269 291.8 328.479 292.594 328.882 293.165C332.944 298.917 334.358 306.463 332.656 313.296ZM228.413 229.519C228.396 228.052 228.416 226.463 229.303 225.293C230.523 223.682 232.838 223.513 234.859 223.484C235.761 223.472 236.674 223.46 237.552 223.669C239.42 224.113 240.908 225.492 242.235 226.882C242.529 227.189 242.841 227.568 242.768 227.988C242.678 228.507 242.027 228.746 241.51 228.64C241.167 228.569 240.858 228.399 240.55 228.227L240.549 228.227C240.394 228.141 240.238 228.055 240.077 227.981C238.219 227.128 236.035 228.063 234.366 229.244C234.104 229.429 233.821 229.668 233.815 229.989C233.808 230.312 234.085 230.562 234.345 230.753C236.6 232.405 239.488 233.169 242.265 232.851C242.929 232.775 243.71 232.531 243.882 231.885C243.949 231.633 243.923 231.336 243.898 231.049C243.856 230.569 243.816 230.118 244.219 229.951C244.429 229.864 244.668 229.927 244.886 229.99C246.389 230.428 248.147 231.13 248.438 232.669C248.522 233.113 248.462 233.577 248.321 234.006C247.907 235.264 246.753 236.246 245.445 236.454C244.865 236.546 244.272 236.496 243.686 236.445C242.156 236.314 240.625 236.183 239.109 235.938C236.325 235.49 233.603 234.661 231.042 233.48C230.154 233.071 229.23 232.567 228.78 231.699C228.438 231.038 228.422 230.263 228.413 229.519ZM285.587 193.324C284.692 190.906 282.531 188.997 280.02 188.41C279.243 188.228 278.366 188.183 277.707 188.633C277.049 189.083 276.822 190.18 277.45 190.672C278.059 191.149 277.691 192.272 276.947 192.484C276.203 192.696 275.402 192.191 275.031 191.512C274.659 190.834 274.619 190.027 274.615 189.254C274.609 188.221 274.704 187.069 275.466 186.374C275.757 186.108 276.119 185.937 276.478 185.777C277.964 185.112 279.607 184.549 281.195 184.906C282.708 185.246 283.914 186.363 284.97 187.5C285.835 188.432 286.653 189.407 287.42 190.421C288.097 191.315 288.747 192.268 289.001 193.359C289.255 194.451 289.035 195.717 288.192 196.455C287.367 197.178 286.097 197.239 285.095 196.793C284.21 196.399 283.455 195.532 283.521 194.565C283.587 193.598 284.774 192.797 285.587 193.324ZM293.572 261.311C295.791 261.248 297.858 259.539 298.338 257.371C298.63 256.053 298.27 254.485 297.121 253.776C296.282 253.258 295.226 253.296 294.242 253.359C292.88 253.446 291.465 253.565 290.281 254.246C289.097 254.926 288.217 256.336 288.588 257.65C289.191 259.787 291.353 261.375 293.572 261.311ZM293.857 258.109C293.428 258.224 292.816 258.114 292.777 257.671C292.761 257.487 292.86 257.313 292.973 257.167C293.604 256.351 294.805 256.034 295.757 256.432C295.426 257.242 294.702 257.881 293.857 258.109ZM295.003 225.272C294.642 224.438 295.342 223.466 296.193 223.146C296.874 222.89 297.614 222.917 298.348 222.943C298.531 222.95 298.714 222.956 298.895 222.959C299.804 222.97 300.808 222.818 301.398 222.127C301.606 221.883 301.747 221.524 301.588 221.245C301.423 220.954 301.031 220.904 300.697 220.886C298.38 220.766 295.645 220.838 294.309 222.734C294.022 223.142 293.319 223.004 293.051 222.584C292.782 222.164 292.844 221.613 292.997 221.138C293.543 219.438 295.114 218.201 296.829 217.706C298.545 217.21 300.387 217.366 302.129 217.761C302.716 217.894 303.325 218.069 303.754 218.491C304.094 218.827 304.285 219.286 304.409 219.747C305.002 221.952 304.126 224.478 302.295 225.843C300.464 227.208 297.793 227.326 295.849 226.127C295.502 225.913 295.165 225.646 295.003 225.272ZM287.062 264.241C288.138 265.53 289.412 266.702 290.958 267.358C294.082 268.685 298.076 267.46 299.919 264.609C300.59 263.571 300.89 261.988 299.898 261.251C298.308 264.592 293.697 266.067 290.463 264.27C289.844 263.926 289.28 263.485 288.768 262.995C286.442 260.768 285.23 257.132 286.594 254.215C287.039 253.264 287.722 252.443 288.469 251.706C290.098 250.098 292.429 248.781 294.604 249.496C294.694 249.526 294.784 249.559 294.874 249.592C295.179 249.704 295.485 249.817 295.805 249.798C296.22 249.774 296.653 249.403 296.547 249.001C296.515 248.882 296.441 248.779 296.365 248.682C295.021 246.97 292.383 246.441 290.482 247.503C288.22 248.767 285.922 250.254 284.719 252.549C282.761 256.285 284.359 261.003 287.062 264.241ZM323.089 206.627C322.99 206.769 323.014 206.968 323.038 207.158C323.066 207.383 323.093 207.597 322.908 207.688C322.231 208.022 321.421 207.988 320.699 207.766C318.729 207.162 317.408 205.354 316.294 203.62C315.642 202.607 314.993 201.53 314.888 200.33C314.782 199.129 315.396 197.778 316.552 197.438C317.842 197.06 319.106 198.018 320.109 198.912C321.241 199.92 322.398 200.959 323.099 202.303C323.799 203.647 323.955 205.383 323.089 206.627ZM318.805 202.129C319.083 202.399 319.235 202.762 319.387 203.125C319.537 203.483 319.687 203.84 319.958 204.11C320.3 204.451 320.82 204.604 321.292 204.503C320.407 203.132 319.381 201.852 318.235 200.69C317.929 200.782 317.903 201.236 318.087 201.498C318.199 201.656 318.355 201.773 318.512 201.89C318.614 201.966 318.715 202.042 318.805 202.129ZM150.164 325.98C150.055 327.779 150.193 329.863 151.633 330.947C152.113 330.679 152.08 329.993 152.019 329.447C151.648 326.084 152.691 322.843 153.741 319.581C154.493 317.246 155.248 314.899 155.491 312.49C155.561 311.79 155.375 310.834 154.672 310.807C154.146 310.786 153.807 311.341 153.595 311.823C151.628 316.29 150.46 321.108 150.164 325.98ZM289.829 261.098C291.454 261.817 293.255 262.55 294.955 262.034C295.631 261.828 296.233 261.438 296.825 261.052C296.822 262.045 295.968 262.88 295.016 263.164C294.064 263.448 293.039 263.296 292.068 263.086C290.99 262.852 289.671 262.19 289.829 261.098ZM161.326 344.026C161.741 343.287 161.811 342.411 161.873 341.567L162.363 334.841C162.604 331.54 162.845 328.227 162.629 324.924C162.602 324.508 162.559 324.069 162.317 323.73C162.074 323.39 161.56 323.209 161.227 323.461C160.983 323.646 160.921 323.982 160.878 324.286C160.346 328.105 160.061 331.958 160.027 335.814C160.002 338.61 160.13 341.499 161.326 344.026ZM153.975 338.245C153.544 338.609 152.827 338.289 152.59 337.777C152.352 337.265 152.448 336.668 152.55 336.114C153.614 330.309 154.822 324.53 156.17 318.785C156.204 318.641 156.241 318.492 156.334 318.377C156.689 317.938 157.407 318.38 157.659 318.885C158.277 320.124 157.981 321.603 157.671 322.953L154.347 337.454C154.28 337.743 154.202 338.053 153.975 338.245ZM165.49 338.502C165.305 340.68 165.631 342.864 165.957 345.025C166.073 345.794 166.627 346.817 167.322 346.467L168.677 331.981C168.732 331.391 168.769 330.738 168.404 330.272C168.038 329.807 167.113 329.826 166.996 330.406L165.997 335.373C165.789 336.41 165.58 337.449 165.49 338.502ZM305.374 294.106C301.517 292.12 296.823 291.338 292.817 293.001C289.825 294.243 281.368 299.61 280.242 306.489C279.489 311.093 279.497 315.799 281.108 320.245L281.368 320.942C281.848 322.201 283.377 323.649 284.232 322.607C281.735 318.094 281.269 312.506 282.983 307.642C284.696 302.777 288.562 298.715 293.336 296.763C294.34 296.353 295.389 296.03 296.47 295.927C298.655 295.72 300.836 296.428 302.789 297.429C306.994 299.584 312.205 303.167 314.206 307.447C316.136 311.574 317.557 316.495 315.811 320.703C314.065 324.91 302.592 327.954 302.592 327.954L303.862 330.271C303.862 330.271 310.284 329.004 314.206 326.147C330.672 314.155 309.063 296.005 305.374 294.106Z" fill="#748AA1"/>
  <path fill-rule="evenodd" clip-rule="evenodd" d="M286.274 45.5365C286.766 45.1988 287.439 45.3237 287.777 45.8155C288.115 46.3073 287.99 46.9798 287.498 47.3174C286.957 47.6886 286.478 48.0311 286.056 48.3495C286.511 48.7107 286.965 49.1246 287.437 49.5957L288.393 50.566C288.814 50.9897 288.811 51.6736 288.386 52.0936C287.962 52.5135 287.278 52.5105 286.857 52.0868L285.71 50.9283C285.243 50.4739 284.805 50.0939 284.364 49.7781C283.387 50.746 283.089 51.456 283.073 52.1616L283.073 52.3426L283.068 52.4531C283.012 52.9978 282.552 53.4228 281.992 53.4228C281.395 53.4228 280.91 52.9392 280.91 52.3426L280.911 52.1302C280.931 51.0301 281.319 49.9837 282.366 48.7879C281.674 48.5823 280.896 48.4672 279.951 48.4179C279.355 48.3868 278.897 47.8786 278.928 47.2828C278.959 46.6871 279.468 46.2293 280.064 46.2605C281.704 46.346 282.978 46.619 284.114 47.1376C284.588 46.7504 285.125 46.3439 285.732 45.9137L286.274 45.5365Z" fill="white"/>
  <path fill-rule="evenodd" clip-rule="evenodd" d="M151.825 281.112L151.079 282.766L149.381 283.253C149.289 283.279 149.236 283.375 149.262 283.467C149.27 283.495 149.285 283.521 149.306 283.541L150.597 284.825L150.525 286.672C150.521 286.767 150.595 286.848 150.691 286.851C150.723 286.853 150.755 286.845 150.783 286.829L152.244 285.998C152.29 285.972 152.345 285.968 152.394 285.987L153.957 286.607C154.045 286.642 154.146 286.599 154.181 286.51C154.193 286.48 154.196 286.448 154.191 286.416L153.862 284.597L154.961 283.146C155.019 283.07 155.004 282.962 154.927 282.904C154.904 282.887 154.876 282.875 154.847 282.871L153.097 282.625L152.129 281.09C152.078 281.01 151.971 280.986 151.89 281.036C151.861 281.055 151.839 281.081 151.825 281.112Z" fill="#748AA1"/>
  <path fill-rule="evenodd" clip-rule="evenodd" d="M91.6503 49.5319C91.2524 49.8844 90.7557 50.5201 90.3171 51.2083L89.7527 50.9578L89.0854 50.6722C88.9511 50.611 88.8645 50.5631 88.8379 50.5242C88.761 50.3811 88.5837 50.3267 88.4389 50.4026C88.2982 50.4783 88.2412 50.6557 88.3181 50.7984C88.3709 50.9341 88.7457 51.3597 89.4419 51.776C89.5679 51.8515 89.7074 51.9217 89.857 51.9901C89.6004 52.4697 89.3986 52.9331 89.304 53.3047C89.1609 53.8527 89.275 54.241 89.4634 54.3774C89.6477 54.5124 90.1107 54.5375 90.8155 53.9531C90.9453 53.8545 90.9657 53.6701 90.8673 53.5421C90.7688 53.4144 90.5853 53.3908 90.4554 53.4895C90.3215 53.5883 90.1862 53.6442 90.0766 53.6847L90.13 53.4749C90.1509 53.4 90.1766 53.3218 90.2125 53.2455C90.3387 52.9696 90.4993 52.6545 90.6797 52.3309C91.2309 52.5389 91.858 52.7274 92.5352 52.8182C92.8654 52.8626 93.202 52.8712 93.5517 52.8684C93.7523 52.8816 93.9268 52.7292 93.9401 52.528C93.9534 52.3272 93.8004 52.1532 93.5998 52.14C92.7846 52.0615 92.0314 51.8559 91.3664 51.6246L91.1484 51.5463C91.5081 50.9845 91.8935 50.4742 92.2238 50.1862C92.4029 50.028 92.4211 49.7528 92.2644 49.5724C92.1036 49.3913 91.8293 49.3733 91.6503 49.5319Z" fill="#748AA1"/>
  <path fill-rule="evenodd" clip-rule="evenodd" d="M219.344 324.114C219.837 323.776 220.51 323.901 220.848 324.393C221.186 324.885 221.061 325.557 220.569 325.895C220.028 326.266 219.549 326.608 219.128 326.927C219.582 327.288 220.036 327.702 220.508 328.173L221.465 329.143C221.885 329.567 221.882 330.251 221.458 330.671C221.034 331.091 220.349 331.088 219.928 330.664L218.781 329.506C218.314 329.051 217.876 328.671 217.435 328.355C216.458 329.323 216.16 330.033 216.144 330.739L216.144 330.92L216.139 331.03C216.083 331.575 215.623 332 215.063 332C214.466 332 213.981 331.516 213.981 330.92L213.982 330.707C214.002 329.607 214.39 328.561 215.437 327.365C214.745 327.16 213.967 327.045 213.023 326.995C212.426 326.964 211.968 326.456 211.999 325.86C212.03 325.264 212.539 324.807 213.135 324.838C214.775 324.923 216.049 325.196 217.185 325.715C217.659 325.328 218.196 324.921 218.803 324.491L219.344 324.114Z" fill="#748AA1"/>
  <path fill-rule="evenodd" clip-rule="evenodd" d="M219.344 324.114C219.837 323.776 220.51 323.901 220.848 324.393C221.186 324.885 221.061 325.557 220.569 325.895C220.028 326.266 219.549 326.608 219.128 326.927C219.582 327.288 220.036 327.702 220.508 328.173L221.465 329.143C221.885 329.567 221.882 330.251 221.458 330.671C221.034 331.091 220.349 331.088 219.928 330.664L218.781 329.506C218.314 329.051 217.876 328.671 217.435 328.355C216.458 329.323 216.16 330.033 216.144 330.739L216.144 330.92L216.139 331.03C216.083 331.575 215.623 332 215.063 332C214.466 332 213.981 331.516 213.981 330.92L213.982 330.707C214.002 329.607 214.39 328.561 215.437 327.365C214.745 327.16 213.967 327.045 213.023 326.995C212.426 326.964 211.968 326.456 211.999 325.86C212.03 325.264 212.539 324.807 213.135 324.838C214.775 324.923 216.049 325.196 217.185 325.715C217.659 325.328 218.196 324.921 218.803 324.491L219.344 324.114Z" fill="white"/>
  <path fill-rule="evenodd" clip-rule="evenodd" d="M182.386 294.521L181.64 296.175L179.942 296.662C179.85 296.688 179.797 296.784 179.823 296.876C179.831 296.904 179.846 296.93 179.867 296.951L181.158 298.234L181.086 300.081C181.082 300.176 181.156 300.257 181.252 300.26C181.284 300.262 181.316 300.254 181.344 300.238L182.805 299.407C182.851 299.381 182.906 299.377 182.955 299.396L184.518 300.016C184.606 300.052 184.707 300.008 184.742 299.919C184.754 299.889 184.757 299.857 184.752 299.825L184.423 298.006L185.522 296.556C185.58 296.48 185.565 296.371 185.489 296.314C185.465 296.296 185.437 296.284 185.408 296.28L183.658 296.034L182.69 294.5C182.639 294.419 182.532 294.395 182.451 294.446C182.422 294.464 182.4 294.49 182.386 294.521Z" fill="#748AA1"/>
  <path fill-rule="evenodd" clip-rule="evenodd" d="M276.137 283.156L274.87 284.456L273.107 284.333C273.012 284.326 272.929 284.398 272.922 284.493C272.92 284.523 272.926 284.552 272.938 284.579L273.712 286.226L273.011 287.937C272.975 288.025 273.018 288.126 273.106 288.162C273.136 288.174 273.169 288.178 273.201 288.172L274.858 287.89C274.91 287.882 274.963 287.897 275.002 287.932L276.258 289.048C276.33 289.112 276.439 289.105 276.503 289.034C276.524 289.01 276.538 288.98 276.544 288.948L276.858 287.127L278.387 286.139C278.468 286.088 278.491 285.981 278.439 285.9C278.423 285.876 278.401 285.856 278.375 285.842L276.814 285.013L276.43 283.24C276.41 283.146 276.317 283.087 276.224 283.107C276.191 283.115 276.16 283.131 276.137 283.156Z" fill="#748AA1"/>
  <path fill-rule="evenodd" clip-rule="evenodd" d="M295.916 164.701L295.171 166.355L293.472 166.842C293.381 166.868 293.327 166.964 293.354 167.056C293.362 167.084 293.377 167.11 293.398 167.13L294.689 168.414L294.616 170.261C294.613 170.356 294.687 170.436 294.783 170.44C294.815 170.441 294.847 170.434 294.875 170.418L296.336 169.586C296.382 169.56 296.437 169.557 296.486 169.576L298.048 170.196C298.137 170.231 298.238 170.188 298.273 170.099C298.285 170.069 298.288 170.036 298.282 170.005L297.954 168.186L299.053 166.735C299.11 166.659 299.095 166.551 299.019 166.493C298.996 166.475 298.968 166.464 298.939 166.46L297.189 166.214L296.221 164.679C296.17 164.599 296.063 164.574 295.982 164.625C295.953 164.643 295.93 164.67 295.916 164.701Z" fill="#748AA1"/>
  <path fill-rule="evenodd" clip-rule="evenodd" d="M17.2455 164.701L16.5003 166.355L14.8015 166.842C14.7097 166.868 14.6566 166.964 14.6829 167.056C14.6911 167.084 14.7063 167.11 14.7272 167.13L16.0178 168.414L15.9455 170.261C15.9418 170.356 16.0162 170.436 16.1117 170.44C16.144 170.441 16.176 170.434 16.204 170.418L17.6652 169.586C17.7109 169.56 17.7659 169.557 17.8147 169.576L19.3774 170.196C19.4662 170.231 19.5668 170.188 19.6021 170.099C19.614 170.069 19.6173 170.036 19.6116 170.005L19.2826 168.186L20.3819 166.735C20.4396 166.659 20.4246 166.551 20.3484 166.493C20.3249 166.475 20.2973 166.464 20.2681 166.46L18.518 166.214L17.5496 164.679C17.4986 164.599 17.3918 164.574 17.311 164.625C17.2822 164.643 17.2594 164.67 17.2455 164.701Z" fill="#748AA1"/>
  <path fill-rule="evenodd" clip-rule="evenodd" d="M17.2455 288.102L16.5003 289.756L14.8015 290.243C14.7097 290.269 14.6566 290.365 14.6829 290.457C14.6911 290.485 14.7063 290.511 14.7272 290.532L16.0178 291.815L15.9455 293.662C15.9418 293.757 16.0162 293.838 16.1117 293.842C16.144 293.843 16.176 293.835 16.204 293.819L17.6652 292.988C17.7109 292.962 17.7659 292.958 17.8147 292.977L19.3774 293.597C19.4662 293.633 19.5668 293.589 19.6021 293.501C19.614 293.471 19.6173 293.438 19.6116 293.406L19.2826 291.587L20.3819 290.137C20.4396 290.061 20.4246 289.952 20.3484 289.895C20.3249 289.877 20.2973 289.865 20.2681 289.861L18.518 289.615L17.5496 288.081C17.4986 288 17.3918 287.976 17.311 288.027C17.2822 288.045 17.2594 288.071 17.2455 288.102Z" fill="#748AA1"/>
  <path fill-rule="evenodd" clip-rule="evenodd" d="M102.245 322.102L101.5 323.756L99.8015 324.243C99.7097 324.269 99.6566 324.365 99.6829 324.457C99.6911 324.485 99.7063 324.511 99.7272 324.532L101.018 325.815L100.946 327.662C100.942 327.757 101.016 327.838 101.112 327.842C101.144 327.843 101.176 327.835 101.204 327.819L102.665 326.988C102.711 326.962 102.766 326.958 102.815 326.977L104.377 327.597C104.466 327.633 104.567 327.589 104.602 327.501C104.614 327.471 104.617 327.438 104.612 327.406L104.283 325.587L105.382 324.137C105.44 324.061 105.425 323.952 105.348 323.895C105.325 323.877 105.297 323.865 105.268 323.861L103.518 323.615L102.55 322.081C102.499 322 102.392 321.976 102.311 322.027C102.282 322.045 102.259 322.071 102.245 322.102Z" fill="#748AA1"/>
  <path fill-rule="evenodd" clip-rule="evenodd" d="M296.089 166.348L295.773 167.051L295.051 167.257C295.012 167.269 294.99 167.309 295.001 167.348C295.004 167.36 295.011 167.371 295.02 167.38L295.568 167.925L295.537 168.71C295.536 168.75 295.567 168.784 295.608 168.786C295.621 168.786 295.635 168.783 295.647 168.776L296.268 168.423C296.287 168.412 296.31 168.411 296.331 168.419L296.995 168.682C297.033 168.697 297.075 168.679 297.09 168.641C297.095 168.628 297.097 168.614 297.094 168.601L296.955 167.828L297.422 167.212C297.446 167.18 297.44 167.134 297.407 167.109C297.397 167.102 297.386 167.097 297.373 167.095L296.63 166.991L296.219 166.339C296.197 166.305 296.152 166.294 296.117 166.316C296.105 166.324 296.095 166.335 296.089 166.348Z" fill="#E7EAEE"/>
  <path fill-rule="evenodd" clip-rule="evenodd" d="M17.4185 166.348L17.1019 167.051L16.3804 167.257C16.3414 167.269 16.3188 167.309 16.33 167.348C16.3335 167.36 16.3399 167.371 16.3488 167.38L16.897 167.925L16.8663 168.71C16.8647 168.75 16.8963 168.784 16.9369 168.786C16.9506 168.786 16.9642 168.783 16.9761 168.776L17.5968 168.423C17.6162 168.412 17.6395 168.411 17.6603 168.419L18.3241 168.682C18.3618 168.697 18.4045 168.679 18.4195 168.641C18.4246 168.628 18.426 168.614 18.4235 168.601L18.2838 167.828L18.7507 167.212C18.7752 167.18 18.7688 167.134 18.7365 167.109C18.7265 167.102 18.7148 167.097 18.7024 167.095L17.959 166.991L17.5477 166.339C17.526 166.305 17.4806 166.294 17.4463 166.316C17.4341 166.324 17.4244 166.335 17.4185 166.348Z" fill="#E7EAEE"/>
  <path fill-rule="evenodd" clip-rule="evenodd" d="M17.4185 289.749L17.1019 290.452L16.3804 290.659C16.3414 290.67 16.3188 290.711 16.33 290.75C16.3335 290.762 16.3399 290.773 16.3488 290.781L16.897 291.327L16.8663 292.111C16.8647 292.152 16.8963 292.186 16.9369 292.187C16.9506 292.188 16.9642 292.185 16.9761 292.178L17.5968 291.825C17.6162 291.814 17.6395 291.812 17.6603 291.82L18.3241 292.084C18.3618 292.099 18.4045 292.08 18.4195 292.042C18.4246 292.03 18.426 292.016 18.4235 292.002L18.2838 291.23L18.7507 290.614C18.7752 290.581 18.7688 290.535 18.7365 290.511C18.7265 290.503 18.7148 290.498 18.7024 290.497L17.959 290.392L17.5477 289.74C17.526 289.706 17.4806 289.696 17.4463 289.717C17.4341 289.725 17.4244 289.736 17.4185 289.749Z" fill="#E7EAEE"/>
  <path fill-rule="evenodd" clip-rule="evenodd" d="M102.418 323.749L102.102 324.452L101.38 324.659C101.341 324.67 101.319 324.711 101.33 324.75C101.333 324.762 101.34 324.773 101.349 324.781L101.897 325.327L101.866 326.111C101.865 326.152 101.896 326.186 101.937 326.187C101.951 326.188 101.964 326.185 101.976 326.178L102.597 325.825C102.616 325.814 102.64 325.812 102.66 325.82L103.324 326.084C103.362 326.099 103.405 326.08 103.419 326.042C103.425 326.03 103.426 326.016 103.424 326.002L103.284 325.23L103.751 324.614C103.775 324.581 103.769 324.535 103.736 324.511C103.727 324.503 103.715 324.498 103.702 324.497L102.959 324.392L102.548 323.74C102.526 323.706 102.481 323.696 102.446 323.717C102.434 323.725 102.424 323.736 102.418 323.749Z" fill="#E7EAEE"/>
  <path fill-rule="evenodd" clip-rule="evenodd" d="M384.504 237.274L383.759 238.928L382.06 239.415C381.968 239.441 381.915 239.537 381.942 239.629C381.95 239.657 381.965 239.683 381.986 239.704L383.277 240.987L383.204 242.834C383.201 242.929 383.275 243.01 383.37 243.013C383.403 243.015 383.435 243.007 383.463 242.991L384.924 242.16C384.97 242.134 385.025 242.13 385.073 242.149L386.636 242.769C386.725 242.804 386.826 242.761 386.861 242.672C386.873 242.642 386.876 242.61 386.87 242.578L386.541 240.759L387.641 239.309C387.698 239.232 387.683 239.124 387.607 239.066C387.584 239.049 387.556 239.037 387.527 239.033L385.777 238.787L384.808 237.253C384.757 237.172 384.651 237.148 384.57 237.199C384.541 237.217 384.518 237.243 384.504 237.274Z" fill="white"/>
  <path fill-rule="evenodd" clip-rule="evenodd" d="M49.5988 237.192L48.1709 240.307L44.9159 241.224C44.7399 241.273 44.6382 241.454 44.6887 241.626C44.7043 241.68 44.7335 241.728 44.7735 241.767L47.2465 244.184L47.108 247.662C47.1008 247.841 47.2433 247.993 47.4263 248C47.4882 248.002 47.5495 247.987 47.6033 247.957L50.4031 246.392C50.4905 246.343 50.5959 246.336 50.6895 246.372L53.6839 247.54C53.8541 247.606 54.0468 247.525 54.1144 247.358C54.1372 247.301 54.1435 247.239 54.1325 247.18L53.5022 243.755L55.6086 241.023C55.7191 240.88 55.6903 240.676 55.5443 240.568C55.4993 240.534 55.4464 240.512 55.3905 240.505L52.0371 240.041L50.1816 237.152C50.0839 237 49.8792 236.954 49.7243 237.05C49.6692 237.084 49.6255 237.134 49.5988 237.192Z" fill="white"/>
  <path fill-rule="evenodd" clip-rule="evenodd" d="M309.632 88.7435L309.091 89.1207C308.483 89.5512 306.215 91.6861 305.741 92.0735C304.607 91.5537 303.333 91.2805 301.692 91.195C301.096 91.1638 300.587 91.6216 300.556 92.2173C300.525 92.8131 300.983 93.3213 301.579 93.3524C302.524 93.4017 303.304 93.5169 303.995 93.7228C302.948 94.9193 302.559 95.9655 302.539 97.0656L302.539 97.278C302.539 97.8745 303.023 98.3581 303.62 98.3581C304.18 98.3581 304.641 97.9331 304.696 97.3884L304.702 97.278L304.702 97.0969C304.718 96.3912 305.015 95.6812 305.993 94.7131C306.433 95.0286 306.871 95.4086 307.338 95.8628L308.485 97.0213C308.906 97.445 309.59 97.448 310.015 97.0281C310.439 96.6081 310.442 95.9242 310.021 95.5005L309.065 94.5302C308.593 94.0593 308.14 93.6456 307.685 93.2845C308.483 91.4651 311.474 89.5144 311.136 89.0226C310.798 88.5308 310.124 88.4058 309.632 88.7435Z" fill="#748AA1"/>
  <path fill-rule="evenodd" clip-rule="evenodd" d="M86.7536 276.19L86.2123 276.567C85.6048 276.997 83.337 279.132 82.8627 279.52C81.7288 279 80.4542 278.727 78.8138 278.641C78.2174 278.61 77.7086 279.068 77.6775 279.664C77.6463 280.259 78.1046 280.768 78.701 280.799C79.646 280.848 80.4252 280.963 81.1168 281.169C80.0692 282.366 79.6806 283.412 79.6605 284.512L79.6603 284.724C79.6603 285.321 80.1445 285.804 80.7417 285.804C81.3016 285.804 81.7621 285.379 81.8175 284.835L81.8231 284.724L81.8231 284.543C81.8391 283.837 82.1368 283.127 83.1145 282.159C83.5548 282.475 83.9925 282.855 84.4595 283.309L85.6069 284.468C86.0274 284.891 86.7121 284.894 87.1362 284.474C87.5604 284.054 87.5634 283.37 87.143 282.947L86.1866 281.977C85.7151 281.506 85.2613 281.092 84.807 280.731C85.6048 278.911 88.5952 276.961 88.2572 276.469C87.9191 275.977 87.2459 275.852 86.7536 276.19Z" fill="#748AA1"/>
  <path fill-rule="evenodd" clip-rule="evenodd" d="M100.986 213.32L99.5122 214.38L97.7972 213.953C97.7045 213.93 97.6106 213.987 97.5875 214.079C97.5804 214.108 97.5807 214.138 97.5884 214.166L98.0637 215.922L97.0765 217.486C97.0256 217.566 97.0498 217.673 97.1306 217.724C97.1579 217.741 97.1896 217.751 97.2219 217.751L98.9033 217.761C98.9559 217.761 99.0054 217.785 99.038 217.826L100.081 219.144C100.14 219.219 100.249 219.231 100.324 219.172C100.349 219.152 100.369 219.125 100.38 219.095L101.005 217.355L102.683 216.648C102.771 216.611 102.813 216.51 102.775 216.422C102.764 216.395 102.746 216.371 102.723 216.353L101.33 215.266L101.26 213.453C101.256 213.358 101.175 213.284 101.08 213.287C101.046 213.289 101.013 213.3 100.986 213.32Z" fill="#748AA1"/>
  <path fill-rule="evenodd" clip-rule="evenodd" d="M84.0613 145.621L83.615 147.379L82.0268 148.153C81.9409 148.195 81.9052 148.298 81.9471 148.384C81.9601 148.411 81.9795 148.433 82.0037 148.45L83.4979 149.49L83.7478 151.322C83.7607 151.416 83.8479 151.483 83.9426 151.47C83.9746 151.465 84.0048 151.452 84.0296 151.431L85.3241 150.359C85.3645 150.326 85.418 150.313 85.4695 150.323L87.1163 150.663C87.2099 150.682 87.3014 150.622 87.3207 150.528C87.3272 150.497 87.3248 150.464 87.3136 150.434L86.6734 148.699L87.5039 147.08C87.5475 146.995 87.5138 146.891 87.4288 146.848C87.4026 146.834 87.3733 146.828 87.3439 146.829L85.5776 146.89L84.3572 145.547C84.293 145.476 84.1835 145.471 84.1128 145.535C84.0876 145.558 84.0697 145.588 84.0613 145.621Z" fill="#748AA1"/>
  <path fill-rule="evenodd" clip-rule="evenodd" d="M122.602 74.8579L122.156 76.6161L120.568 77.3904C120.482 77.4323 120.446 77.5358 120.488 77.6215C120.501 77.648 120.521 77.6707 120.545 77.6875L122.039 78.7276L122.289 80.5591C122.302 80.6536 122.389 80.7199 122.484 80.707C122.516 80.7026 122.546 80.6894 122.571 80.6688L123.865 79.5967C123.906 79.5632 123.959 79.5499 124.011 79.5605L125.657 79.9C125.751 79.9193 125.842 79.8592 125.862 79.7657C125.868 79.7341 125.866 79.7013 125.855 79.671L125.214 77.9367L126.045 76.3177C126.088 76.2328 126.055 76.1286 125.97 76.0851C125.944 76.0717 125.914 76.0652 125.885 76.0662L124.119 76.1274L122.898 74.7842C122.834 74.7135 122.725 74.7082 122.654 74.7724C122.629 74.7952 122.611 74.825 122.602 74.8579Z" fill="#748AA1"/>
  <path fill-rule="evenodd" clip-rule="evenodd" d="M8.74141 92.0853L8.08399 92.0267C7.34167 91.9665 6.66823 91.9328 6.05556 91.9251C5.52149 90.7988 4.72078 89.7712 3.51928 88.6524C3.08241 88.2456 2.39813 88.2696 1.99089 88.7059C1.58364 89.1423 1.60765 89.8258 2.04452 90.2326C2.73675 90.8772 3.25949 91.4657 3.65678 92.0675C2.08429 92.3114 1.11335 92.8634 0.390059 93.6931L0.253247 93.8557C-0.130652 94.3127 -0.0709761 94.9941 0.386537 95.3775C0.815455 95.737 1.44176 95.7071 1.8347 95.3254L1.91005 95.2444L2.02657 95.1057C2.49294 94.5754 3.17789 94.2226 4.5498 94.1088C4.68411 94.6332 4.77486 95.2052 4.84028 95.853L4.97376 97.4772C5.02318 98.0718 5.54575 98.5137 6.14094 98.4643C6.73613 98.4149 7.17856 97.893 7.12914 97.2984L7.02087 95.9411C6.96271 95.2776 6.88131 94.6694 6.76566 94.101C7.29272 94.1279 7.87961 94.1725 8.53314 94.2356C9.1276 94.2931 9.65613 93.8583 9.71365 93.2645C9.77116 92.6707 9.33588 92.1428 8.74141 92.0853Z" fill="#748AA1"/>
  <path fill-rule="evenodd" clip-rule="evenodd" d="M96.0648 166.651C96.2604 167.145 96.6885 167.828 97.1859 168.475L96.7572 168.919L96.2603 169.448L96.1499 169.554C96.1017 169.597 96.0638 169.623 96.0364 169.63C95.8755 169.653 95.7637 169.801 95.7855 169.963C95.8087 170.121 95.9561 170.235 96.1166 170.211C96.2623 170.208 96.7909 170.002 97.4207 169.491C97.5348 169.399 97.6485 169.292 97.764 169.175C98.1274 169.58 98.4944 169.927 98.8116 170.143C99.2782 170.465 99.6825 170.491 99.8753 170.361C100.065 170.234 100.247 169.808 99.9385 168.946C99.8902 168.791 99.7237 168.709 99.5696 168.757C99.4158 168.806 99.3309 168.97 99.3792 169.126C99.4263 169.285 99.4327 169.431 99.4333 169.548L99.2542 169.426C99.1909 169.381 99.1261 169.33 99.0666 169.27C98.8502 169.057 98.6087 168.799 98.366 168.519C98.7502 168.073 99.142 167.549 99.4591 166.944C99.6137 166.649 99.737 166.336 99.8539 166.007C99.9349 165.823 99.8513 165.607 99.6666 165.526C99.4822 165.445 99.2662 165.529 99.1852 165.713C98.8325 166.451 98.3815 167.088 97.9365 167.633L97.7882 167.811C97.3828 167.281 97.0345 166.745 96.8765 166.336C96.7889 166.114 96.5362 166.003 96.3129 166.088C96.0876 166.177 95.9768 166.428 96.0648 166.651Z" fill="#E7EAEE"/>
  <path fill-rule="evenodd" clip-rule="evenodd" d="M238.052 85.4892C237.257 84.5174 236.227 84.6623 234.921 85.4532L234.586 85.6645L233.648 86.2856C233.385 86.4537 233.272 86.5118 233.118 86.5727C232.763 86.7139 232.59 87.116 232.732 87.4707C232.873 87.8254 233.275 87.9985 233.631 87.8572L233.757 87.8052C233.997 87.7025 234.178 87.5959 234.664 87.2736L235.338 86.8256C235.449 86.7533 235.545 86.6926 235.639 86.6353C236.42 86.1623 236.774 86.1125 236.98 86.364C237.11 86.5224 237.078 86.8603 236.82 87.5528L236.538 88.2794C235.977 89.7678 235.973 90.4333 236.973 91.0013C237.834 91.4904 238.276 91.2619 239.512 90.0519L239.812 89.7551C240.604 88.9653 241.019 88.6905 241.286 88.747C241.375 88.7657 241.478 88.8286 241.605 88.9633C241.753 89.1212 241.795 89.6262 241.704 90.5222L241.565 91.6924C241.402 93.1228 241.468 93.4934 242.059 93.8885C242.873 94.4328 243.956 93.8176 245.964 92.0167C246.248 91.7616 246.272 91.3245 246.016 91.0404C245.761 90.7563 245.323 90.7329 245.039 90.988C244.181 91.7579 243.532 92.2593 243.08 92.5164L242.978 92.5715L242.894 92.6138L242.892 92.5272L242.897 92.3201C242.906 92.1504 242.927 91.9453 242.969 91.5969L243.058 90.8788C243.226 89.4225 243.173 88.6127 242.614 88.0173C242.304 87.6866 241.955 87.4751 241.572 87.3943C240.683 87.2064 240.052 87.5858 239.003 88.6098L238.473 89.13C237.903 89.6783 237.691 89.8184 237.658 89.7995C237.528 89.7258 237.548 89.4968 237.898 88.5976L238.052 88.208C238.541 86.9526 238.634 86.2008 238.052 85.4892Z" fill="white"/>
  <path fill-rule="evenodd" clip-rule="evenodd" d="M173.508 0.611625C173.861 0.250684 174.431 0.260652 174.783 0.63389C175.134 1.00713 175.133 1.6023 174.781 1.96324C174.447 2.30542 174.148 2.6226 173.881 2.91778C174.446 3.1568 175.013 3.46635 175.619 3.84852L176.54 4.43835C176.944 4.69551 177.032 5.21 176.737 5.5875C176.441 5.96499 175.874 6.06254 175.47 5.80538L174.366 5.1019C173.79 4.74926 173.27 4.48243 172.748 4.29516C171.954 5.39796 171.788 6.10473 171.889 6.7599L171.916 6.91528L171.928 7.01087C171.965 7.48634 171.652 7.91767 171.193 7.99857C170.704 8.08486 170.234 7.73976 170.144 7.22776L170.112 7.04544C169.961 6.09505 170.123 5.13748 170.805 3.95443C170.343 3.94724 169.839 3.98151 169.267 4.0545C168.769 4.11805 168.323 3.8029 168.269 3.35058C168.216 2.89825 168.576 2.48005 169.074 2.41649C170.166 2.27712 171.081 2.26123 171.918 2.37433C172.263 1.95131 172.662 1.49972 173.122 1.01358L173.508 0.611625Z" fill="white"/>
  <path fill-rule="evenodd" clip-rule="evenodd" d="M343.531 160.53L342.785 162.184L341.087 162.671C340.995 162.697 340.942 162.793 340.968 162.885C340.976 162.913 340.991 162.939 341.012 162.959L342.303 164.243L342.231 166.09C342.227 166.185 342.301 166.266 342.397 166.269C342.429 166.271 342.461 166.263 342.489 166.247L343.95 165.416C343.996 165.39 344.051 165.386 344.1 165.405L345.663 166.025C345.751 166.06 345.852 166.017 345.887 165.928C345.899 165.898 345.902 165.866 345.897 165.834L345.568 164.015L346.667 162.564C346.725 162.488 346.71 162.38 346.634 162.322C346.61 162.305 346.582 162.293 346.553 162.289L344.803 162.043L343.835 160.508C343.784 160.428 343.677 160.403 343.596 160.454C343.567 160.473 343.545 160.499 343.531 160.53Z" fill="#748AA1"/>
  <path fill-rule="evenodd" clip-rule="evenodd" d="M333.594 68.7201L332.849 70.3742L331.15 70.8612C331.058 70.8876 331.005 70.9833 331.032 71.075C331.04 71.1033 331.055 71.1291 331.076 71.1498L332.366 72.4333L332.294 74.2802C332.29 74.3756 332.365 74.456 332.46 74.4597C332.493 74.461 332.525 74.4532 332.553 74.4372L334.014 73.606C334.059 73.58 334.114 73.5762 334.163 73.5955L335.726 74.2155C335.815 74.2508 335.915 74.2074 335.951 74.1187C335.963 74.0887 335.966 74.056 335.96 74.0242L335.631 72.2052L336.731 70.7549C336.788 70.6788 336.773 70.5704 336.697 70.5128C336.674 70.495 336.646 70.4835 336.617 70.4794L334.867 70.2333L333.898 68.6988C333.847 68.6181 333.74 68.5939 333.66 68.6448C333.631 68.6629 333.608 68.6891 333.594 68.7201Z" fill="#748AA1"/>
  <path fill-rule="evenodd" clip-rule="evenodd" d="M192.982 119.354L192.982 119.355L192.982 119.355C191.341 120.497 189.753 121.602 188.074 122.547C187.635 122.793 187.2 123.054 186.764 123.314C185.761 123.914 184.758 124.515 183.717 124.945C182.962 125.258 182.298 125.733 181.634 126.208L181.634 126.208C180.579 126.963 179.526 127.716 178.115 127.815C177.799 127.837 177.519 128.136 177.227 128.447C177.005 128.682 176.778 128.925 176.522 129.062C175.987 129.347 175.481 129.681 174.974 130.014L174.973 130.014C173.941 130.694 172.906 131.375 171.625 131.658C171.202 131.751 170.853 132.12 170.495 132.499C170.222 132.788 169.943 133.082 169.622 133.264L169.466 133.352L169.466 133.352C168.414 133.948 167.301 134.578 166.149 134.752C165.016 134.923 163.649 134.741 162.65 134.212C162.143 133.944 161.838 133.298 161.532 132.65L161.532 132.65C161.391 132.35 161.25 132.05 161.088 131.787C160.906 131.49 160.714 131.199 160.522 130.907L160.522 130.907C160.14 130.328 159.759 129.75 159.456 129.132C159.191 128.592 158.974 128.028 158.756 127.463L158.756 127.463C158.503 126.806 158.25 126.149 157.922 125.531C157.721 125.154 157.42 124.828 157.119 124.504C156.795 124.154 156.471 123.805 156.276 123.393C155.945 122.693 155.469 122.12 154.996 121.549C154.704 121.198 154.413 120.847 154.157 120.468C153.744 119.857 153.378 119.21 153.013 118.565L153.013 118.565C152.489 117.637 151.965 116.712 151.304 115.896C150.252 114.596 149.099 113.378 147.946 112.16C147.232 111.405 146.517 110.65 145.826 109.875C145.168 109.137 144.54 108.371 143.912 107.606L143.912 107.606C143.34 106.909 142.769 106.212 142.174 105.535C140.506 103.638 138.8 101.771 137.063 99.9369C136.929 99.7949 136.304 99.8883 136.099 100.079C135.431 100.698 134.635 101.108 133.835 101.52C132.89 102.006 131.94 102.494 131.189 103.334C130.382 104.236 129.354 104.942 128.327 105.647L128.327 105.647L128.327 105.647C127.934 105.917 127.542 106.186 127.162 106.466C126.935 106.633 126.637 106.682 126.311 106.636C125.283 107.493 124.243 108.335 123.202 109.177L123.202 109.177C121.678 110.411 120.153 111.645 118.667 112.924C117.664 113.788 116.715 114.713 115.765 115.638C114.938 116.443 114.111 117.248 113.25 118.012C112.697 118.503 112.067 118.908 111.437 119.314C111.04 119.569 110.643 119.824 110.265 120.101C109.954 120.329 109.677 120.588 109.401 120.847C108.772 121.437 108.142 122.027 107.101 122.25C106.378 122.405 105.766 123.032 105.145 123.67C104.797 124.028 104.445 124.388 104.07 124.671C103.894 124.803 103.718 124.935 103.542 125.067L103.541 125.068C101.759 126.409 99.9728 127.753 98.0689 128.894C97.9516 128.965 97.8288 129.031 97.7018 129.099C97.3501 129.287 96.9667 129.493 96.5821 129.86C95.8707 130.281 95.1853 130.672 94.5171 131.054L94.5168 131.054C93.7715 131.48 93.0478 131.893 92.3333 132.321C92.2121 132.393 92.1442 132.545 92.0749 132.701C92.0153 132.834 91.9545 132.97 91.8578 133.061C90.8013 134.045 89.6305 134.884 88.4583 135.724L88.4582 135.724C87.6441 136.307 86.8294 136.891 86.0518 137.524C85.8245 137.709 85.5977 137.905 85.3686 138.104C84.6796 138.7 83.9692 139.315 83.157 139.701C82.7693 139.885 82.407 140.155 82.0434 140.426C81.149 141.092 80.2471 141.764 78.9422 141.174C78.8133 141.116 78.6698 141.055 78.5209 140.993L78.5208 140.993C77.8541 140.711 77.0798 140.384 77.0207 139.989C76.9935 139.808 76.9468 139.617 76.8987 139.421C76.6992 138.606 76.4776 137.701 77.5418 136.999C78.0723 136.65 78.5396 136.197 79.0052 135.747C79.5592 135.211 80.1107 134.677 80.7631 134.321C81.8471 133.73 82.7461 132.918 83.638 132.112C84.4353 131.391 85.2269 130.675 86.1398 130.128C86.6859 129.801 87.1604 129.393 87.6293 128.99C88.1673 128.527 88.6977 128.071 89.32 127.751C90.4946 127.148 91.5314 126.364 92.566 125.582C93.1869 125.112 93.8071 124.643 94.4557 124.214C95.2831 123.667 96.0947 123.099 96.9053 122.532C97.7057 121.972 98.5051 121.413 99.3175 120.875C100.125 120.34 100.918 119.785 101.709 119.231L101.709 119.231C102.574 118.624 103.437 118.019 104.317 117.443C104.827 117.109 105.324 116.743 105.821 116.378C106.793 115.662 107.761 114.949 108.81 114.489C109.343 114.255 109.756 113.833 110.167 113.415C110.839 112.73 111.505 112.052 112.678 112.206C112.81 112.223 112.949 111.992 113.108 111.726C113.262 111.47 113.434 111.183 113.637 111.057C115.765 109.74 117.609 108.082 119.452 106.425C120.586 105.406 121.719 104.387 122.918 103.447C123.067 103.33 123.386 103.324 123.665 103.386C123.665 103.191 123.69 103.005 123.749 102.84C123.806 102.681 124.087 102.625 124.397 102.563C124.656 102.511 124.937 102.455 125.122 102.33C125.624 101.995 126.106 101.623 126.587 101.252L126.587 101.252C127.338 100.673 128.087 100.095 128.912 99.6553C130.244 98.9438 131.342 97.9512 132.435 96.9636C133.245 96.2311 134.052 95.5014 134.95 94.891C135.648 94.4166 136.287 93.8656 136.922 93.3183C137.764 92.5931 138.598 91.8744 139.551 91.349C140.372 90.8958 141.05 90.2993 141.723 89.7068C142.249 89.2443 142.772 88.7842 143.358 88.3967C144.172 87.8586 144.996 87.3359 145.82 86.8131C146.807 86.1869 147.794 85.5608 148.764 84.9082C148.99 84.7554 149.155 84.5154 149.32 84.2733C149.452 84.0814 149.584 83.8883 149.749 83.7362C150.968 82.6143 152.31 81.6433 153.651 80.6738C154.336 80.1786 155.02 79.6837 155.688 79.1693C156.084 78.8634 156.46 78.5019 156.837 78.1404C157.607 77.3996 158.378 76.6586 159.327 76.3949C160.285 76.1287 160.93 75.4444 161.572 74.7624C162.355 73.9312 163.135 73.1034 164.474 73.0409C165.004 73.0162 165.509 72.5298 166.017 72.0411L166.017 72.0411C166.259 71.8085 166.501 71.5753 166.747 71.3913C167.611 70.7442 169.462 70.945 170.185 71.7718C170.675 72.3314 171.176 72.8823 171.678 73.4332C172.905 74.7805 174.132 76.128 175.18 77.6026C175.687 78.3165 176.259 78.985 176.828 79.6502C177.675 80.6387 178.515 81.6198 179.125 82.7312C179.48 83.3784 179.946 83.8981 180.406 84.4112C180.818 84.8707 181.226 85.3248 181.544 85.8604C181.727 86.1674 181.909 86.4747 182.091 86.7821L182.092 86.7828L182.092 86.7829C182.806 87.9887 183.521 89.1945 184.272 90.3773C184.377 90.543 184.562 90.6551 184.749 90.7681C184.917 90.8701 185.087 90.9728 185.2 91.1163C185.448 91.4298 185.702 91.74 185.957 92.0505C186.754 93.0211 187.552 93.9944 188.153 95.0757C188.801 96.2432 189.565 97.3111 190.331 98.3812C190.605 98.7648 190.88 99.1487 191.15 99.5375C191.849 100.547 192.444 101.628 193.039 102.709C193.425 103.413 193.812 104.117 194.229 104.801C194.46 105.183 194.748 105.53 195.035 105.878C195.327 106.231 195.619 106.584 195.853 106.973C196.315 107.741 196.705 108.579 196.963 109.436C197.051 109.729 197.045 110.06 197.039 110.387C197.032 110.783 197.025 111.174 197.187 111.484C197.92 112.892 197.323 114.021 196.727 115.148L196.726 115.151C196.673 115.249 196.621 115.348 196.57 115.447C196.195 116.171 195.716 116.842 195.186 117.584L195.185 117.585C195.071 117.745 194.954 117.908 194.836 118.076C194.206 118.503 193.591 118.931 192.982 119.354ZM170.558 129.372C171.721 129.051 172.751 128.458 173.786 127.861L173.786 127.861C174.788 127.283 175.796 126.702 176.935 126.363C177.658 126.148 178.275 125.605 178.896 125.058L178.896 125.058C179.446 124.574 180 124.087 180.635 123.819C181.546 123.435 182.385 122.935 183.227 122.435L183.227 122.435C184.23 121.838 185.236 121.239 186.369 120.832C187.549 120.408 188.559 119.511 189.568 118.614L189.568 118.614C190.008 118.223 190.448 117.832 190.901 117.48C190.997 117.406 191.086 117.31 191.175 117.214C191.332 117.043 191.487 116.875 191.668 116.845C193.732 116.5 194.617 114.621 194.913 113.213C195.423 110.788 194.467 108.513 192.84 106.352C192.454 105.839 192.034 105.349 191.612 104.856C190.547 103.613 189.468 102.352 188.875 100.664C188.515 99.6391 187.667 98.8016 186.808 97.9525C186.237 97.3879 185.661 96.8181 185.219 96.1846C184.65 95.3686 184.016 94.6033 183.382 93.8371C182.158 92.3591 180.932 90.8782 180.161 89.0249C179.78 88.1091 179.028 87.358 178.269 86.5996C177.78 86.1108 177.287 85.619 176.889 85.0781C176.27 84.237 175.714 83.3497 175.158 82.4624L175.158 82.4624C174.63 81.6192 174.101 80.7758 173.519 79.972C172.938 79.1704 172.297 78.4123 171.656 77.6539C171.091 76.9848 170.526 76.3156 170.001 75.6161C169.555 75.0212 169.124 74.8339 168.4 74.8276C167.14 74.8166 166.346 75.5037 165.49 76.2447L165.49 76.2447C165.414 76.3103 165.338 76.3762 165.261 76.4422C160.002 80.9413 154.736 85.4363 149.362 89.7959C148.792 90.2588 148.261 90.7685 147.73 91.2793C146.464 92.4954 145.193 93.7173 143.36 94.325C142.49 94.6134 141.806 95.4501 141.118 96.2912C140.784 96.6995 140.449 97.109 140.092 97.4571C139.097 98.4263 139.651 99.1536 140.328 100.002C142.286 102.453 144.401 104.772 146.516 107.092C150.045 110.962 153.574 114.832 156.371 119.312C156.697 119.835 157.069 120.331 157.44 120.827C157.918 121.465 158.394 122.102 158.774 122.793C159.072 123.335 159.269 123.933 159.467 124.53C159.661 125.117 159.855 125.705 160.145 126.24C160.484 126.868 160.914 127.447 161.344 128.027L161.344 128.027C161.718 128.532 162.093 129.037 162.409 129.576C162.589 129.882 162.664 130.247 162.74 130.613C162.813 130.962 162.886 131.312 163.048 131.611C163.208 131.905 163.672 132.064 164.075 132.202C164.132 132.222 164.188 132.241 164.241 132.26C165.491 132.704 166.326 132.06 167.164 131.414C167.677 131.018 168.191 130.62 168.803 130.472C169.197 130.376 169.549 130.114 170.002 129.776L170.002 129.776L170.003 129.776C170.171 129.65 170.354 129.514 170.558 129.372ZM136.648 96.0008C136.642 96.0507 136.637 96.1142 136.633 96.1778C136.623 96.315 136.613 96.4525 136.591 96.4544C135.31 96.5639 135.273 96.6366 135.721 97.7854C135.76 97.8838 135.702 98.0139 135.642 98.1505C135.595 98.2567 135.546 98.3669 135.54 98.4692C135.535 98.5414 135.623 98.6197 135.71 98.698C135.75 98.7337 135.79 98.7694 135.822 98.8046C135.964 98.6751 136.121 98.5526 136.277 98.43C136.646 98.1411 137.015 97.8524 137.203 97.4736C137.375 97.1266 137.01 96.512 136.648 96.0008ZM80.1515 137.933C80.0192 138.41 79.9581 138.631 80.0411 138.728C80.1123 138.811 80.2896 138.803 80.619 138.79C80.6476 138.788 80.6773 138.787 80.7082 138.786C81.3026 138.762 81.6676 138.401 82.0262 138.046C82.2466 137.828 82.4646 137.612 82.7321 137.479C83.9293 136.88 84.9685 136.069 86.0067 135.259C86.6069 134.791 87.2068 134.322 87.8368 133.896C88.255 133.612 88.6782 133.335 89.1013 133.058C90.0744 132.42 91.0474 131.783 91.9608 131.071C92.6569 130.529 93.3196 129.94 93.9817 129.352C94.9297 128.51 95.8765 127.669 96.9188 126.966C97.3628 126.667 97.7908 126.348 98.2196 126.028C99.2589 125.254 100.303 124.477 101.591 123.962C102.887 123.444 104.002 122.472 105.117 121.501C105.589 121.09 106.062 120.678 106.548 120.301C106.691 120.19 106.825 120.046 106.957 119.903C107.195 119.647 107.428 119.396 107.7 119.351C108.602 119.2 109.148 118.609 109.693 118.02C110.021 117.665 110.348 117.312 110.751 117.055C110.848 116.993 110.831 116.754 110.813 116.513L110.813 116.513C110.805 116.4 110.797 116.286 110.801 116.19C110.717 116.209 110.63 116.222 110.542 116.235L110.542 116.235C110.354 116.263 110.167 116.291 110.021 116.385C109.764 116.549 109.507 116.713 109.25 116.876L109.249 116.877C108.104 117.606 106.958 118.334 105.866 119.138C104.612 120.061 103.39 121.033 102.169 122.004C101.662 122.407 101.155 122.81 100.646 123.209C100.6 123.246 100.555 123.295 100.51 123.344C100.429 123.433 100.35 123.52 100.263 123.527C99.3656 123.593 98.7764 124.14 98.1759 124.697C97.7594 125.083 97.3373 125.475 96.8032 125.715C95.6516 126.232 94.6582 127.102 93.6644 127.971C93.2363 128.346 92.808 128.721 92.3671 129.067C92.3495 129.081 92.3334 129.097 92.3175 129.112C92.2927 129.136 92.2682 129.16 92.2391 129.176C91.883 129.374 91.523 129.567 91.1629 129.759C90.3466 130.195 89.5296 130.632 88.7557 131.133C88.4501 131.33 88.2111 131.589 87.9698 131.85C87.5039 132.354 87.0293 132.867 86.0491 132.972C85.3172 133.052 84.6648 133.737 83.9989 134.437C83.635 134.819 83.267 135.206 82.8798 135.5C82.5235 135.771 82.1194 135.978 81.7143 136.185L81.7142 136.185C81.3657 136.364 81.0166 136.542 80.6967 136.763C80.5961 136.832 80.5476 136.979 80.4833 137.174C80.4175 137.373 80.3351 137.623 80.1629 137.892L80.1515 137.933ZM117.816 110.958L118.324 110.55C118.882 110.102 119.441 109.653 119.997 109.201C120.099 109.118 120.265 108.932 120.254 108.919C120.116 108.757 119.86 108.465 119.806 108.497C118.991 108.98 118.179 109.478 117.428 110.053C117.316 110.138 117.52 110.635 117.816 110.958ZM160.731 105.507L162.87 108.793C163.623 108.317 164.353 107.988 165.06 107.808C165.777 107.621 166.565 107.639 167.424 107.863C168.439 108.112 169.425 108.316 170.382 108.476C171.349 108.63 172.293 108.652 173.214 108.541C174.145 108.425 175.042 108.085 175.906 107.523C177.105 106.743 177.963 105.828 178.482 104.777C179.017 103.73 179.202 102.596 179.036 101.375C178.881 100.148 178.375 98.8766 177.518 97.5604C176.745 96.372 175.834 95.4339 174.785 94.7463C173.736 94.0586 172.604 93.7048 171.389 93.6849C170.173 93.6649 168.94 94.0479 167.69 94.8336L170.001 98.3842C170.662 97.982 171.275 97.7856 171.84 97.7951C172.416 97.7982 172.937 97.9551 173.405 98.2658C173.883 98.5701 174.282 98.9678 174.601 99.4589C174.985 100.048 175.191 100.613 175.221 101.153C175.257 101.702 175.126 102.221 174.829 102.709C174.531 103.196 174.072 103.641 173.453 104.044C172.884 104.415 172.308 104.636 171.725 104.707C171.152 104.773 170.551 104.751 169.922 104.644C169.302 104.53 168.629 104.387 167.903 104.217C166.956 104.008 166.112 103.893 165.372 103.872C164.637 103.86 163.908 103.986 163.183 104.247C162.469 104.503 161.651 104.923 160.731 105.507ZM157.639 107.877C157.039 107.75 156.473 107.859 155.943 108.204C155.413 108.55 155.079 109.025 154.942 109.632C154.816 110.231 154.957 110.846 155.366 111.474C155.775 112.103 156.279 112.481 156.879 112.608C157.489 112.728 158.059 112.616 158.589 112.271C159.12 111.925 159.449 111.453 159.575 110.853C159.712 110.247 159.576 109.629 159.167 109.001C158.758 108.372 158.248 107.997 157.639 107.877Z" fill="#748AA1"/>
</svg>
