<svg width="13" height="13" viewBox="0 0 13 13" fill="none" xmlns="http://www.w3.org/2000/svg">
  <path d="M8.48342 0L8.22703 0.256394C7.6248 0.858617 7.53607 1.78243 7.96 2.47991L5.36621 4.23249L5.32134 4.18762C4.33176 3.19804 2.72156 3.19802 1.73198 4.18762L1.47559 4.44399L4.69746 7.66587L0.5 11.8634L0 12.9985L1.01276 12.3761L5.21023 8.17863L8.43213 11.4005L8.68852 11.1441C9.67812 10.1545 9.6781 8.54436 8.68852 7.55477L8.64365 7.50991L10.3962 4.91612C11.0937 5.34008 12.0175 5.25134 12.6197 4.64909L12.8761 4.39272L8.48342 0Z" fill="currentColor" />
    <!-- <path d="m8.483 0-.256.256A1.816 1.816 0 0 0 7.96 2.48L5.366 4.232l-.045-.044a2.54 2.54 0 0 0-3.589 0l-.256.256 3.221 3.222L.5 11.863 0 13l1.013-.623L5.21 8.18 8.432 11.4l.257-.256c.99-.99.99-2.6 0-3.59l-.045-.044 1.752-2.594a1.816 1.816 0 0 0 2.224-.267l.256-.256L8.483 0z" fill="currentColor" /> -->
</svg>
