<svg width="120" height="120" viewBox="0 0 120 120" fill="none" xmlns="http://www.w3.org/2000/svg">
    <path d="M60 119a60.005 60.005 0 0 0 55.433-37.039A60.005 60.005 0 0 0 120 59H60v60z" fill="url(#1w7mfzonoa)" fill-opacity=".5"/>
    <rect x="40" y="39" width="40" height="40" rx="20" fill="#25B2FF"/>
    <path d="M63.063 66.75H51.374A1.375 1.375 0 0 1 50 65.375v-11A1.375 1.375 0 0 1 51.375 53h11.688a1.375 1.375 0 0 1 1.374 1.375v2.791l3.727-2.66a.688.688 0 0 1 1.086.556v9.626a.688.688 0 0 1-1.086.556l-3.727-2.66v2.791a1.375 1.375 0 0 1-1.374 1.375z" fill="#fff"/>
    <defs>
        <radialGradient id="1w7mfzonoa" cx="0" cy="0" r="1" gradientUnits="userSpaceOnUse" gradientTransform="matrix(0 60 -60 0 60 59)">
            <stop offset=".399" stop-color="#748AA1"/>
            <stop offset="1" stop-color="#748AA1" stop-opacity=".3"/>
        </radialGradient>
    </defs>
</svg>
