<svg width="120" height="121" viewBox="0 0 120 121" fill="none" xmlns="http://www.w3.org/2000/svg">
    <path d="M120 60a60.005 60.005 0 0 0-17.574-42.426A59.994 59.994 0 0 0 60 0v60h60z" fill="url(#u8ptz8msaa)" fill-opacity=".5"/>
    <rect x="40" y="40" width="40" height="40" rx="20" fill="#25B2FF"/>
    <path d="M63.063 67.75H51.374A1.375 1.375 0 0 1 50 66.375v-11A1.375 1.375 0 0 1 51.375 54h11.688a1.375 1.375 0 0 1 1.374 1.375v2.791l3.727-2.66a.688.688 0 0 1 1.086.556v9.626a.688.688 0 0 1-1.086.556l-3.727-2.66v2.791a1.375 1.375 0 0 1-1.374 1.375z" fill="#fff"/>
    <defs>
        <radialGradient id="u8ptz8msaa" cx="0" cy="0" r="1" gradientUnits="userSpaceOnUse" gradientTransform="matrix(0 60 -60 0 60 60)">
            <stop offset=".399" stop-color="#748AA1"/>
            <stop offset="1" stop-color="#748AA1" stop-opacity=".3"/>
        </radialGradient>
    </defs>
</svg>
