<svg width="16" height="16" viewBox="0 0 16 16" fill="none" xmlns="http://www.w3.org/2000/svg">
  <path d="M3 2H4M13 2H12M3 14H4M13 14H12M4 2H12M4 2C4 4 4.75 5 5.5 5.75M7 8H9M7 8C7 7.6037 6.88221 7.28593 6.69331 7M7 8C7 9.81743 4.52272 9.98333 4.07043 13M4 14H12M4 14C4 13.6349 4.025 13.303 4.07043 13M12 2C12 4 11.25 5 10.5 5.75M9 8C9 7.6037 9.11779 7.28593 9.30669 7M9 8C9 9.81743 11.4773 9.98333 11.9296 13M12 14C12 13.6349 11.975 13.303 11.9296 13M10 6.229H6M10 6.229C9.73126 6.48401 9.48669 6.72755 9.30669 7M10 6.229C10.1609 6.07633 10.3304 5.91956 10.5 5.75M6 6.229C6.26874 6.48401 6.51331 6.72755 6.69331 7M6 6.229C5.83911 6.07633 5.66956 5.91956 5.5 5.75M6.69331 7H9.30669M10.5 5.75H5.5M11.9296 13H4.07043" stroke="currentColor" stroke-width="1.5" stroke-linecap="round" stroke-linejoin="round"/>
</svg>
