<svg width="24" height="24" viewBox="0 0 24 24" fill="none" xmlns="http://www.w3.org/2000/svg">
  <path d="M17 15.88C17.56 15.88 18 16.32 18 16.88C18 17.44 17.56 17.88 17 17.88C16.44 17.88 16 17.43 16 16.88C16 16.33 16.44 15.88 17 15.88ZM17 12.88C19.73 12.88 22.06 14.54 23 16.88C22.06 19.22 19.73 20.88 17 20.88C14.27 20.88 11.94 19.22 11 16.88C11.94 14.54 14.27 12.88 17 12.88ZM17 14.38C16.337 14.38 15.7011 14.6434 15.2322 15.1122C14.7634 15.5811 14.5 16.217 14.5 16.88C14.5 17.543 14.7634 18.1789 15.2322 18.6478C15.7011 19.1166 16.337 19.38 17 19.38C17.663 19.38 18.2989 19.1166 18.7678 18.6478C19.2366 18.1789 19.5 17.543 19.5 16.88C19.5 16.217 19.2366 15.5811 18.7678 15.1122C18.2989 14.6434 17.663 14.38 17 14.38ZM18 4H4C2.9 4 2 4.9 2 6V16C2 17.1 2.9 18 4 18H9.42C9.26 17.68 9.12 17.34 9 17C9.12 16.66 9.26 16.32 9.42 16H4V12H10V14.97C10.55 14.11 11.23 13.37 12 12.76V12H13.15C14.31 11.36 15.62 11 17 11C18.06 11 19.07 11.21 20 11.59V6C20 4.9 19.1 4 18 4ZM10 10H4V6H10V10ZM18 10H12V6H18V10Z" fill="currentColor"/>
</svg>
