<svg width="42" height="42" viewBox="0 0 42 42" fill="none" xmlns="http://www.w3.org/2000/svg">
    <path d="M21.126 11.301c-5.308 0-9.63 4.322-9.63 9.63 0 2.306.81 4.42 2.167 6.078l-2.907 2.906 1.386 1.386 2.906-2.907a9.554 9.554 0 0 0 6.078 2.166c5.307 0 9.629-4.322 9.629-9.63 0-5.307-4.322-9.629-9.63-9.629zm0 1.926a7.689 7.689 0 0 1 7.703 7.703 7.689 7.689 0 0 1-7.703 7.704 7.689 7.689 0 0 1-7.704-7.704 7.689 7.689 0 0 1 7.704-7.703zm-.963 3.852v2.889h-2.889v1.925h2.889v2.89h1.926v-2.89h2.888v-1.925H22.09v-2.89h-1.926z" fill="#25B2FF"/>
</svg>
