<svg width="60" height="60" viewBox="0 0 60 60" fill="none" xmlns="http://www.w3.org/2000/svg">
    <g clip-path="url(#2y0kye4jwa)">
        <path d="m49.767 45.076-2.75-1.575 2.75-1.575a2.508 2.508 0 1 0-2.5-4.35l-2.75 1.6v-3.175a2.5 2.5 0 0 0-5 0v3.175l-2.75-1.6a2.51 2.51 0 0 0-2.5 4.35l2.75 1.575-2.75 1.575a2.5 2.5 0 0 0 1.25 4.675 2.5 2.5 0 0 0 1.25-.325l2.75-1.6v3.175a2.5 2.5 0 0 0 5 0v-3.175l2.75 1.6a2.5 2.5 0 0 0 3.4-.925 2.502 2.502 0 0 0-.9-3.425zM58.766 22.575 56.016 21l2.75-1.575a2.509 2.509 0 1 0-2.5-4.35l-2.75 1.6V13.5a2.5 2.5 0 0 0-5 0v3.175l-2.75-1.6a2.508 2.508 0 1 0-2.5 4.35L46.016 21l-2.75 1.575a2.5 2.5 0 0 0 1.25 4.675 2.5 2.5 0 0 0 1.25-.325l2.75-1.6V28.5a2.5 2.5 0 0 0 5 0v-3.175l2.75 1.6a2.5 2.5 0 0 0 3.4-.925 2.499 2.499 0 0 0-.9-3.425z" fill="#E0E0E0"/>
        <path d="M38.662 8.524a26.567 26.567 0 0 0-10.501-2.608 54.034 54.034 0 0 0-14.914 2.35c-.59.198-1.078.62-1.356 1.176a2.341 2.341 0 0 0-.13 1.785c0 .141 3.94 12.243-3.54 15.98a13.614 13.614 0 0 0-5.135 3.743 13.538 13.538 0 0 0-2.865 5.657c-1.605 7.567 4.72 15.11 4.884 15.44a2.359 2.359 0 0 0 1.817.869c.368.005.732-.076 1.062-.235a2.355 2.355 0 0 0 1.12-1.1 2.34 2.34 0 0 0 .178-1.556S7.748 42.717 21.79 38.722C39.748 33.599 39.96 11.556 39.96 10.616a2.343 2.343 0 0 0-1.298-2.091z" fill="#fff"/>
    </g>
    <defs>
        <clipPath id="2y0kye4jwa">
            <path fill="#fff" d="M0 0h60v60H0z"/>
        </clipPath>
    </defs>
</svg>
