<svg width="60" height="60" viewBox="0 0 60 60" fill="none" xmlns="http://www.w3.org/2000/svg">
    <path d="M25 30H12.5a2.5 2.5 0 0 1 0-5H25a2.5 2.5 0 0 0 0-5 2.5 2.5 0 0 1 0-5 7.5 7.5 0 0 1 0 15zM25 42.5H12.5a2.5 2.5 0 0 1 0-5H25a2.5 2.5 0 0 1 0 5z" fill="#fff"/>
    <path d="M50.249 36.574 47.499 35l2.75-1.575a2.509 2.509 0 1 0-2.5-4.35l-2.75 1.6V27.5a2.5 2.5 0 1 0-5 0v3.175l-2.75-1.6a2.508 2.508 0 1 0-2.5 4.35L37.499 35l-2.75 1.575a2.5 2.5 0 0 0 1.25 4.675 2.5 2.5 0 0 0 1.25-.325l2.75-1.6V42.5a2.5 2.5 0 1 0 5 0v-3.175l2.75 1.6a2.5 2.5 0 0 0 3.4-.925 2.5 2.5 0 0 0-.9-3.425z" fill="#E0E0E0"/>
</svg>
