<svg width="60" height="60" viewBox="0 0 60 60" fill="none" xmlns="http://www.w3.org/2000/svg">
    <path d="M52.998 19.176a13.725 13.725 0 0 0-11.775-6.675h-4.4a16.523 16.523 0 0 0-2.075-2.5 17.5 17.5 0 1 0-12.275 30h18.75a13.775 13.775 0 0 0 13.75-13.75 13.4 13.4 0 0 0-1.975-7.075zM37.502 55.001h-12.5a2.5 2.5 0 1 1 0-5h12.5a2.5 2.5 0 0 1 0 5zM42.252 47.501h-22c-.73 0-1.429-.263-1.945-.732A2.39 2.39 0 0 1 17.502 45c0-.663.29-1.299.805-1.768a2.896 2.896 0 0 1 1.945-.732h22c.73 0 1.429.263 1.944.732a2.39 2.39 0 0 1 .806 1.768 2.39 2.39 0 0 1-.806 1.768 2.895 2.895 0 0 1-1.944.732z" fill="#fff"/>
</svg>
