<svg width="60" height="60" viewBox="0 0 60 60" fill="none" xmlns="http://www.w3.org/2000/svg">
    <path d="M53.024 21.676a13.724 13.724 0 0 0-11.775-6.675h-4.4a16.523 16.523 0 0 0-2.075-2.5 17.5 17.5 0 1 0-12.275 30h18.75a13.775 13.775 0 0 0 13.75-13.75 13.4 13.4 0 0 0-1.975-7.075z" fill="#fff"/>
    <path d="M22.501 40.001a2.5 2.5 0 0 1-2.5-2.5v-2.5a2.5 2.5 0 0 1 5 0v2.5a2.5 2.5 0 0 1-2.5 2.5zM30 45.001a2.5 2.5 0 0 1-2.5-2.5v-2.5a2.5 2.5 0 0 1 5 0v2.5a2.5 2.5 0 0 1-2.5 2.5z" fill="#E0E0E0"/>
    <path d="M30 55a2.5 2.5 0 0 1-2.5-2.5V50a2.5 2.5 0 0 1 5 0v2.5A2.5 2.5 0 0 1 30 55zM22.501 50a2.5 2.5 0 0 1-2.5-2.5V45a2.5 2.5 0 0 1 5 0v2.5a2.5 2.5 0 0 1-2.5 2.5z" fill="#fff"/>
    <path d="M37.501 37.502a2.5 2.5 0 0 1-2.5-2.5v-2.5a2.5 2.5 0 1 1 5 0v2.5a2.5 2.5 0 0 1-2.5 2.5z" fill="#E0E0E0"/>
    <path d="M37.501 47.5a2.5 2.5 0 0 1-2.5-2.5v-2.5a2.5 2.5 0 0 1 5 0V45a2.5 2.5 0 0 1-2.5 2.5z" fill="#fff"/>
</svg>
