<svg width="60" height="60" viewBox="0 0 60 60" fill="none" xmlns="http://www.w3.org/2000/svg">
    <path d="M52.996 19.175A13.725 13.725 0 0 0 41.221 12.5h-4.4a16.524 16.524 0 0 0-2.075-2.5 17.5 17.5 0 1 0-12.275 30h18.75a13.775 13.775 0 0 0 13.75-13.75 13.399 13.399 0 0 0-1.975-7.075zM35 55H22.5a2.5 2.5 0 0 1 0-5H35a2.5 2.5 0 0 1 0 5zM42.249 47.5h-17c-.73 0-1.429-.263-1.944-.732A2.39 2.39 0 0 1 22.498 45c0-.663.29-1.299.806-1.768a2.896 2.896 0 0 1 1.944-.732h17c.73 0 1.429.263 1.945.732A2.39 2.39 0 0 1 44.999 45a2.39 2.39 0 0 1-.805 1.768 2.896 2.896 0 0 1-1.945.732zM16.863 51.372c-.769 1.531-2.942 1.531-3.71 0l-2.921-5.82c-.698-1.392.306-3.035 1.855-3.035h5.842c1.548 0 2.553 1.643 1.855 3.035l-2.921 5.82z" fill="#fff"/>
</svg>
