<svg width="60" height="60" viewBox="0 0 60 60" fill="none" xmlns="http://www.w3.org/2000/svg">
    <g clip-path="url(#enr9ne7v8a)">
        <path d="M27.85 10.052a1.376 1.376 0 0 0-1.25.925 8.823 8.823 0 0 1-2.168 3.43 8.855 8.855 0 0 1-4.885 2.452c-1.827.272-3.661-.062-5.22-.948a7.743 7.743 0 0 1-3.402-3.957c-.647-1.68-.71-3.555-.18-5.335a1.275 1.275 0 0 0-.012-.796 1.192 1.192 0 0 0-.48-.61 1.236 1.236 0 0 0-.782-.21c-.281.019-.553.129-.774.313l-.752.736a13.7 13.7 0 0 0-3.56 5.87 12.835 12.835 0 0 0-.193 6.711 12.007 12.007 0 0 0 3.227 5.715 12.039 12.039 0 0 0 5.763 3.153 12.9 12.9 0 0 0 6.72-.272 13.731 13.731 0 0 0 5.838-3.623 13.66 13.66 0 0 0 3.356-5.981 12.765 12.765 0 0 0-.045-6.702 1.195 1.195 0 0 0-.447-.64 1.23 1.23 0 0 0-.754-.231z" fill="#FBC01F"/>
        <path d="M7.005 24.177a13.724 13.724 0 0 1 11.774-6.675h4.4c.608-.9 1.303-1.737 2.076-2.5a17.5 17.5 0 1 1 12.274 30H18.78a13.775 13.775 0 0 1-13.75-13.75 13.4 13.4 0 0 1 1.976-7.075z" fill="#fff"/>
        <path d="M22.416 59.967a2.5 2.5 0 0 1-1.768-3.062l3.883-14.49a2.5 2.5 0 1 1 4.83 1.295l-3.883 14.489a2.5 2.5 0 0 1-3.062 1.768zM29.915 59.967a2.5 2.5 0 0 1-1.768-3.062l3.883-14.49a2.5 2.5 0 1 1 4.83 1.295l-3.883 14.489a2.5 2.5 0 0 1-3.062 1.768zM37.417 59.967a2.5 2.5 0 0 1-1.768-3.062l3.883-14.49a2.5 2.5 0 1 1 4.83 1.295l-3.883 14.489a2.5 2.5 0 0 1-3.062 1.768zM14.918 59.967a2.5 2.5 0 0 1-1.768-3.062l3.883-14.49a2.5 2.5 0 1 1 4.83 1.295L17.98 58.199a2.5 2.5 0 0 1-3.062 1.768z" fill="#fff"/>
    </g>
    <defs>
        <clipPath id="enr9ne7v8a">
            <path fill="#fff" d="M0 0h60v60H0z"/>
        </clipPath>
    </defs>
</svg>
