<svg width="60" height="60" viewBox="0 0 60 60" fill="none" xmlns="http://www.w3.org/2000/svg">
    <path d="M53.024 21.673a13.725 13.725 0 0 0-11.775-6.675h-4.4a16.533 16.533 0 0 0-2.075-2.5 17.5 17.5 0 1 0-12.275 30h18.75a13.775 13.775 0 0 0 13.75-13.75 13.4 13.4 0 0 0-1.975-7.075z" fill="#fff"/>
    <path d="M22.499 42.498a2.5 2.5 0 0 1-2.5-2.5v-5a2.5 2.5 0 1 1 5 0v5a2.5 2.5 0 0 1-2.5 2.5zM37.501 39.998a2.5 2.5 0 0 1-2.5-2.5v-5a2.5 2.5 0 0 1 5 0v5a2.5 2.5 0 0 1-2.5 2.5zM30.001 47.499a2.5 2.5 0 0 1-2.5-2.5v-7.5a2.5 2.5 0 0 1 5 0v7.5a2.5 2.5 0 0 1-2.5 2.5z" fill="#E0E0E0"/>
    <path d="M30.001 54.999a2.5 2.5 0 1 0 0-5 2.5 2.5 0 0 0 0 5zM22.499 49.999a2.5 2.5 0 1 0 0-5 2.5 2.5 0 0 0 0 5zM37.501 47.5a2.5 2.5 0 1 0 0-5 2.5 2.5 0 0 0 0 5z" fill="#fff"/>
</svg>
