<svg width="60" height="60" viewBox="0 0 60 60" fill="none" xmlns="http://www.w3.org/2000/svg">
    <g clip-path="url(#zdsb5e7mta)" fill="#fff">
        <path d="M7 24.175A13.725 13.725 0 0 1 18.777 17.5h4.4c.608-.9 1.303-1.737 2.075-2.5a17.5 17.5 0 1 1 12.275 30h-18.75a13.775 13.775 0 0 1-13.75-13.75A13.4 13.4 0 0 1 7 24.175z"/>
        <path d="M22.416 59.967a2.5 2.5 0 0 1-1.768-3.062l3.883-14.49a2.5 2.5 0 1 1 4.83 1.295l-3.883 14.489a2.5 2.5 0 0 1-3.062 1.768zM29.915 59.967a2.5 2.5 0 0 1-1.768-3.062l3.883-14.49a2.5 2.5 0 1 1 4.83 1.295l-3.883 14.489a2.5 2.5 0 0 1-3.062 1.768zM37.417 59.967a2.5 2.5 0 0 1-1.768-3.062l3.883-14.49a2.5 2.5 0 1 1 4.83 1.295l-3.883 14.489a2.5 2.5 0 0 1-3.062 1.768zM14.918 59.967a2.5 2.5 0 0 1-1.768-3.062l3.883-14.49a2.5 2.5 0 1 1 4.83 1.295L17.98 58.199a2.5 2.5 0 0 1-3.062 1.768z"/>
    </g>
    <defs>
        <clipPath id="zdsb5e7mta">
            <path fill="#fff" d="M0 0h60v60H0z"/>
        </clipPath>
    </defs>
</svg>
