<svg width="60" height="60" viewBox="0 0 60 60" fill="none" xmlns="http://www.w3.org/2000/svg">
    <g clip-path="url(#etoynew2za)">
        <circle cx="17.5" cy="17.499" r="12.5" fill="#FBC01F"/>
        <path d="M7.004 24.175A13.725 13.725 0 0 1 18.779 17.5h4.4c.607-.9 1.302-1.737 2.075-2.5a17.5 17.5 0 1 1 12.274 30h-18.75a13.775 13.775 0 0 1-13.75-13.75 13.4 13.4 0 0 1 1.976-7.075z" fill="#fff"/>
        <path d="M22.414 59.967a2.5 2.5 0 0 1-1.768-3.062l3.883-14.49a2.5 2.5 0 1 1 4.83 1.295l-3.883 14.489a2.5 2.5 0 0 1-3.062 1.768zM29.913 59.967a2.5 2.5 0 0 1-1.768-3.062l3.883-14.49a2.5 2.5 0 1 1 4.83 1.295l-3.883 14.489a2.5 2.5 0 0 1-3.062 1.768zM37.415 59.967a2.5 2.5 0 0 1-1.768-3.062l3.883-14.49a2.5 2.5 0 1 1 4.83 1.295l-3.883 14.489a2.5 2.5 0 0 1-3.062 1.768zM14.916 59.967a2.5 2.5 0 0 1-1.768-3.062l3.883-14.49a2.5 2.5 0 1 1 4.83 1.295l-3.883 14.489a2.5 2.5 0 0 1-3.062 1.768z" fill="#fff"/>
    </g>
    <defs>
        <clipPath id="etoynew2za">
            <path fill="#fff" d="M0 0h60v60H0z"/>
        </clipPath>
    </defs>
</svg>
