<svg width="60" height="60" viewBox="0 0 60 60" fill="none" xmlns="http://www.w3.org/2000/svg">
    <path d="M28.25 19.078c.16.138.336.256.525.35 0 0 .175.15.275.175a2.351 2.351 0 0 0 1.9 0s.175 0 .275-.175c.189-.094.365-.212.525-.35l7.5-7.275a2.512 2.512 0 0 0-1.715-4.31 2.51 2.51 0 0 0-1.785.71l-5.75 5.6-5.75-5.6a2.51 2.51 0 1 0-3.5 3.6l7.5 7.275zM31.75 40.926a1.621 1.621 0 0 0-.375-.25 2.045 2.045 0 0 0-.425-.275 1.947 1.947 0 0 0-.525 0 2.14 2.14 0 0 0-.425 0 2.32 2.32 0 0 0-.55 0h-.375a1.9 1.9 0 0 0-.475.3c-.122.066-.24.14-.35.225l-7.5 7.275a2.51 2.51 0 1 0 3.5 3.6L30 46.2l5.75 5.6a2.51 2.51 0 0 0 3.5-3.6l-7.5-7.275z" fill="#E9F7FF"/>
    <path d="M30.001 25.001a2.5 2.5 0 0 1-2.5-2.5v-15a2.5 2.5 0 0 1 5 0v15a2.5 2.5 0 0 1-2.5 2.5zM30.001 55.001a2.5 2.5 0 0 1-2.5-2.5v-15a2.5 2.5 0 0 1 5 0v15a2.5 2.5 0 0 1-2.5 2.5zM19.703 29.525a1.328 1.328 0 0 0 0-.45 1.251 1.251 0 0 0-.275-.425 1.35 1.35 0 0 0-.25-.4l-7.275-7.5a2.547 2.547 0 0 0-3.7 3.5l5.6 5.75-5.6 5.75a2.51 2.51 0 1 0 3.6 3.5l7.275-7.5a1.35 1.35 0 0 0 .25-.4c.12-.122.213-.266.275-.425a1.328 1.328 0 0 0 0-.45 3.138 3.138 0 0 0 0-.475c.045-.156.079-.315.1-.475zM46.201 30l5.6-5.75a2.51 2.51 0 0 0-3.6-3.5l-7.275 7.5a1.35 1.35 0 0 0-.25.4 1.25 1.25 0 0 0-.275.425 1.323 1.323 0 0 0 0 .45 3.112 3.112 0 0 0 0 .475 3.112 3.112 0 0 0 0 .475 1.323 1.323 0 0 0 0 .45c.062.159.155.303.275.425.06.147.144.282.25.4l7.275 7.5a2.51 2.51 0 1 0 3.6-3.5l-5.6-5.75z" fill="#E9F7FF"/>
    <path d="M22.501 32.502h-15a2.5 2.5 0 1 1 0-5h15a2.5 2.5 0 1 1 0 5zM52.501 32.502h-15a2.5 2.5 0 1 1 0-5h15a2.5 2.5 0 1 1 0 5z" fill="#E9F7FF"/>
    <path d="M29.999 40a2.5 2.5 0 0 1-1.775-.725l-7.5-7.5a2.5 2.5 0 0 1 0-3.55l7.5-7.5a2.5 2.5 0 0 1 3.55 0l7.5 7.5a2.502 2.502 0 0 1 0 3.55l-7.5 7.5a2.5 2.5 0 0 1-1.775.725zm-3.975-10 3.975 3.975L33.974 30l-3.975-3.975L26.024 30z" fill="#E9F7FF"/>
</svg>
