<svg width="60" height="60" viewBox="0 0 60 60" fill="none" xmlns="http://www.w3.org/2000/svg">
    <circle cx="17.499" cy="17.499" r="12.5" fill="#FBC01F"/>
    <path d="M7.003 24.175A13.725 13.725 0 0 1 18.778 17.5h4.4c.607-.9 1.302-1.737 2.075-2.5a17.5 17.5 0 1 1 12.275 30h-18.75a13.775 13.775 0 0 1-13.75-13.75 13.4 13.4 0 0 1 1.975-7.075z" fill="#fff"/>
    <path d="m37.749 46.576-2.75-1.575 2.75-1.575a2.508 2.508 0 1 0-2.5-4.35l-2.75 1.6v-3.175a2.5 2.5 0 0 0-5 0v3.175l-2.75-1.6a2.509 2.509 0 0 0-2.5 4.35l2.75 1.575-2.75 1.575a2.5 2.5 0 0 0 1.25 4.675 2.5 2.5 0 0 0 1.25-.325l2.75-1.6v3.175a2.5 2.5 0 1 0 5 0v-3.175l2.75 1.6a2.5 2.5 0 0 0 3.4-.925 2.5 2.5 0 0 0-.9-3.425z" fill="#E0E0E0"/>
</svg>
