<svg width="60" height="60" viewBox="0 0 60 60" fill="none" xmlns="http://www.w3.org/2000/svg">
    <g clip-path="url(#8hb3g3l6ba)" fill="#fff">
        <path d="M7.003 24.175A13.725 13.725 0 0 1 18.778 17.5h4.4c.607-.9 1.302-1.737 2.075-2.5a17.5 17.5 0 1 1 12.275 30h-18.75a13.775 13.775 0 0 1-13.75-13.75 13.4 13.4 0 0 1 1.975-7.075z"/>
        <path d="M22.417 59.967a2.5 2.5 0 0 1-1.768-3.062l3.883-14.49a2.5 2.5 0 1 1 4.83 1.295l-3.883 14.489a2.5 2.5 0 0 1-3.062 1.768zM29.915 59.967a2.5 2.5 0 0 1-1.768-3.062l3.883-14.49a2.5 2.5 0 1 1 4.83 1.295l-3.883 14.489a2.5 2.5 0 0 1-3.062 1.768zM37.414 59.967a2.5 2.5 0 0 1-1.768-3.062l3.883-14.49a2.5 2.5 0 1 1 4.83 1.295l-3.883 14.489a2.5 2.5 0 0 1-3.062 1.768zM16.86 56.373c-.769 1.531-2.941 1.531-3.71 0l-2.921-5.82c-.698-1.392.306-3.035 1.855-3.035h5.842c1.548 0 2.553 1.643 1.855 3.035l-2.921 5.82z"/>
    </g>
    <defs>
        <clipPath id="8hb3g3l6ba">
            <path fill="#fff" d="M0 0h60v60H0z"/>
        </clipPath>
    </defs>
</svg>
