<svg width="60" height="60" viewBox="0 0 60 60" fill="none" xmlns="http://www.w3.org/2000/svg">
    <path d="M7.004 21.677a13.725 13.725 0 0 1 11.775-6.675h4.4c.607-.9 1.302-1.737 2.075-2.5a17.5 17.5 0 1 1 12.274 30h-18.75a13.775 13.775 0 0 1-13.75-13.75 13.4 13.4 0 0 1 1.976-7.075z" fill="#fff"/>
    <path d="M24.916 57.468a2.5 2.5 0 0 1-1.768-3.062l3.883-14.49a2.5 2.5 0 1 1 4.83 1.295L27.977 55.7a2.5 2.5 0 0 1-3.062 1.767zM17.418 57.468a2.5 2.5 0 0 1-1.768-3.062l3.883-14.49a2.5 2.5 0 1 1 4.83 1.295L20.48 55.7a2.5 2.5 0 0 1-3.062 1.767z" fill="#fff"/>
    <path d="M49.267 51.575 46.517 50l2.75-1.575a2.508 2.508 0 1 0-2.5-4.35l-2.75 1.6V42.5a2.5 2.5 0 0 0-5 0v3.175l-2.75-1.6a2.509 2.509 0 0 0-2.5 4.35L36.517 50l-2.75 1.575a2.5 2.5 0 0 0 1.25 4.675 2.5 2.5 0 0 0 1.25-.325l2.75-1.6V57.5a2.5 2.5 0 0 0 5 0v-3.175l2.75 1.6a2.5 2.5 0 0 0 3.4-.925 2.5 2.5 0 0 0-.9-3.425z" fill="#E0E0E0"/>
</svg>
