<svg width="60" height="60" viewBox="0 0 60 60" fill="none" xmlns="http://www.w3.org/2000/svg">
    <g clip-path="url(#jnmfx28oua)">
        <circle cx="17.499" cy="17.499" r="12.5" fill="#FBC01F"/>
        <path d="M7 24.172a13.724 13.724 0 0 1 11.776-6.675h4.4c.608-.9 1.303-1.737 2.075-2.5a17.501 17.501 0 1 1 12.275 30h-18.75a13.775 13.775 0 0 1-13.75-13.75A13.4 13.4 0 0 1 7 24.172z" fill="#fff"/>
        <path d="M22.416 59.965a2.5 2.5 0 0 1-1.768-3.062l3.883-14.49a2.5 2.5 0 0 1 4.83 1.295l-3.883 14.489a2.5 2.5 0 0 1-3.062 1.768zM32.413 54.965a2.5 2.5 0 0 1-1.767-3.062l3.882-14.49a2.5 2.5 0 0 1 4.83 1.295l-3.883 14.489a2.5 2.5 0 0 1-3.062 1.768z" fill="#fff"/>
    </g>
    <defs>
        <clipPath id="jnmfx28oua">
            <path fill="#fff" d="M0 0h60v60H0z"/>
        </clipPath>
    </defs>
</svg>
