<svg width="60" height="60" viewBox="0 0 60 60" fill="none" xmlns="http://www.w3.org/2000/svg">
    <g clip-path="url(#br90axflga)">
        <circle cx="17.499" cy="17.499" r="12.5" fill="#FBC01F"/>
        <path d="M7.003 24.172a13.725 13.725 0 0 1 11.775-6.675h4.4c.607-.9 1.302-1.737 2.075-2.5a17.501 17.501 0 1 1 12.275 30h-18.75a13.775 13.775 0 0 1-13.75-13.75 13.4 13.4 0 0 1 1.975-7.075z" fill="#fff"/>
        <path d="M22.415 59.966a2.5 2.5 0 0 1-1.768-3.062l3.883-14.49a2.5 2.5 0 0 1 4.83 1.295l-3.883 14.489a2.5 2.5 0 0 1-3.062 1.768zM29.914 59.966a2.5 2.5 0 0 1-1.768-3.062l3.883-14.49a2.5 2.5 0 0 1 4.83 1.295l-3.883 14.489a2.5 2.5 0 0 1-3.062 1.768zM37.416 59.966a2.5 2.5 0 0 1-1.768-3.062l3.883-14.49a2.5 2.5 0 0 1 4.83 1.295l-3.883 14.489a2.5 2.5 0 0 1-3.062 1.768zM14.917 59.966a2.5 2.5 0 0 1-1.768-3.062l3.883-14.49a2.5 2.5 0 0 1 4.83 1.295l-3.883 14.489a2.5 2.5 0 0 1-3.062 1.768z" fill="#fff"/>
    </g>
    <defs>
        <clipPath id="br90axflga">
            <path fill="#fff" d="M0 0h60v60H0z"/>
        </clipPath>
    </defs>
</svg>
