<svg width="60" height="60" viewBox="0 0 60 60" fill="none" xmlns="http://www.w3.org/2000/svg">
    <circle cx="17.499" cy="14.999" r="12.5" fill="#FBC01F"/>
    <path d="M7 21.676a13.724 13.724 0 0 1 11.776-6.675h4.4c.608-.9 1.303-1.737 2.075-2.5a17.5 17.5 0 1 1 12.275 30h-18.75a13.775 13.775 0 0 1-13.75-13.75A13.4 13.4 0 0 1 7 21.676z" fill="#fff"/>
    <path d="M14.916 57.466a2.5 2.5 0 0 1-1.768-3.062l3.883-14.49a2.5 2.5 0 0 1 4.83 1.295l-3.883 14.489a2.5 2.5 0 0 1-3.062 1.768zM7.415 57.466a2.5 2.5 0 0 1-1.768-3.062l3.883-14.49a2.5 2.5 0 0 1 4.83 1.295l-3.883 14.489a2.5 2.5 0 0 1-3.062 1.768z" fill="#fff"/>
    <path d="M39.267 51.575 36.517 50l2.75-1.575a2.508 2.508 0 1 0-2.5-4.35l-2.75 1.6V42.5a2.5 2.5 0 0 0-5 0v3.175l-2.75-1.6a2.509 2.509 0 0 0-2.5 4.35L26.517 50l-2.75 1.575a2.5 2.5 0 0 0 1.25 4.675 2.5 2.5 0 0 0 1.25-.325l2.75-1.6V57.5a2.5 2.5 0 0 0 5 0v-3.175l2.75 1.6a2.5 2.5 0 0 0 3.4-.925 2.5 2.5 0 0 0-.9-3.425zM56.452 50.128l-2.289-1.378 2.289-1.378c.48-.29.83-.769.975-1.33a2.294 2.294 0 0 0-.206-1.667 2.106 2.106 0 0 0-1.265-1.025 1.998 1.998 0 0 0-1.585.216l-2.288 1.4v-2.779c0-.58-.22-1.136-.61-1.546a2.03 2.03 0 0 0-1.47-.641c-.552 0-1.081.23-1.471.64-.39.41-.61.967-.61 1.547v2.779l-2.288-1.4a1.998 1.998 0 0 0-1.584-.216c-.535.151-.99.52-1.266 1.025a2.295 2.295 0 0 0-.205 1.666c.144.562.495 1.04.975 1.33l2.288 1.379-2.288 1.378c-.401.239-.715.61-.893 1.057-.178.447-.21.943-.091 1.411.119.468.382.881.748 1.175.367.294.815.451 1.276.448.364.002.723-.096 1.04-.285l2.288-1.4v2.779c0 .58.22 1.136.61 1.546.39.41.919.641 1.47.641.552 0 1.082-.23 1.472-.64.39-.41.609-.967.609-1.547v-2.779l2.288 1.4a1.99 1.99 0 0 0 1.574.209c.53-.152.981-.518 1.256-1.018a2.298 2.298 0 0 0 .217-1.662c-.07-.278-.191-.54-.357-.769a2.12 2.12 0 0 0-.61-.566z" fill="#E0E0E0"/>
</svg>
