<svg width="60" height="60" viewBox="0 0 60 60" fill="none" xmlns="http://www.w3.org/2000/svg">
    <path d="M27.85 10.053c-.272.006-.54.1-.765.265a1.377 1.377 0 0 0-.484.66 8.822 8.822 0 0 1-2.168 3.43 8.855 8.855 0 0 1-4.885 2.452c-1.827.271-3.661-.062-5.22-.948a7.743 7.743 0 0 1-3.401-3.958c-.648-1.68-.712-3.554-.182-5.334a1.275 1.275 0 0 0-.01-.796 1.193 1.193 0 0 0-.482-.611 1.236 1.236 0 0 0-.781-.21c-.281.02-.553.13-.774.314l-.752.736a13.699 13.699 0 0 0-3.56 5.87 12.834 12.834 0 0 0-.193 6.711A12.008 12.008 0 0 0 7.42 24.35a12.04 12.04 0 0 0 5.763 3.153c2.194.507 4.514.413 6.72-.272a13.732 13.732 0 0 0 5.838-3.623 13.662 13.662 0 0 0 3.356-5.981 12.766 12.766 0 0 0-.045-6.702 1.194 1.194 0 0 0-.447-.64 1.23 1.23 0 0 0-.754-.231z" fill="#FBC01F"/>
    <path d="M7.005 24.176a13.724 13.724 0 0 1 11.774-6.675h4.4c.608-.9 1.303-1.737 2.076-2.5a17.5 17.5 0 1 1 12.274 30H18.78A13.775 13.775 0 0 1 5.03 31.25a13.4 13.4 0 0 1 1.976-7.075z" fill="#fff"/>
    <path d="m26.77 46.574-2.75-1.575 2.75-1.575a2.509 2.509 0 1 0-2.5-4.35l-2.75 1.6v-3.175a2.5 2.5 0 0 0-5 0v3.175l-2.75-1.6a2.508 2.508 0 1 0-2.5 4.35l2.75 1.575-2.75 1.575a2.5 2.5 0 0 0 1.25 4.675 2.5 2.5 0 0 0 1.25-.325l2.75-1.6v3.175a2.5 2.5 0 1 0 5 0v-3.175l2.75 1.6a2.5 2.5 0 0 0 3.4-.925 2.499 2.499 0 0 0-.9-3.425zM49.27 46.574l-2.75-1.575 2.75-1.575a2.509 2.509 0 1 0-2.5-4.35l-2.75 1.6v-3.175a2.5 2.5 0 0 0-5 0v3.175l-2.75-1.6a2.508 2.508 0 1 0-2.5 4.35l2.75 1.575-2.75 1.575a2.5 2.5 0 0 0 1.25 4.675 2.5 2.5 0 0 0 1.25-.325l2.75-1.6v3.175a2.5 2.5 0 1 0 5 0v-3.175l2.75 1.6a2.5 2.5 0 0 0 3.4-.925 2.499 2.499 0 0 0-.9-3.425z" fill="#E0E0E0"/>
</svg>
