<svg width="60" height="60" viewBox="0 0 60 60" fill="none" xmlns="http://www.w3.org/2000/svg">
    <path d="M27.85 10.052a1.377 1.377 0 0 0-1.25.925 8.822 8.822 0 0 1-2.167 3.43 8.855 8.855 0 0 1-4.885 2.452c-1.827.272-3.661-.062-5.22-.948a7.743 7.743 0 0 1-3.401-3.957c-.648-1.68-.712-3.555-.182-5.335a1.275 1.275 0 0 0-.01-.796 1.193 1.193 0 0 0-.482-.61 1.236 1.236 0 0 0-.781-.21c-.281.019-.553.129-.774.313l-.752.736a13.7 13.7 0 0 0-3.56 5.87 12.834 12.834 0 0 0-.193 6.711 12.007 12.007 0 0 0 3.227 5.715 12.04 12.04 0 0 0 5.763 3.153c2.194.506 4.514.413 6.72-.272a13.731 13.731 0 0 0 5.838-3.623 13.662 13.662 0 0 0 3.356-5.981 12.766 12.766 0 0 0-.045-6.702 1.195 1.195 0 0 0-.447-.64 1.23 1.23 0 0 0-.754-.231z" fill="#FBC01F"/>
    <path d="M7 24.174a13.726 13.726 0 0 1 11.776-6.675h4.4c.608-.9 1.303-1.737 2.075-2.5a17.5 17.5 0 1 1 12.275 30h-18.75a13.775 13.775 0 0 1-13.75-13.75A13.4 13.4 0 0 1 7 24.174z" fill="#fff"/>
    <circle cx="30.001" cy="54.999" r="5" fill="#D9D9D9"/>
    <circle cx="17.5" cy="45.001" r="5" fill="#D9D9D9"/>
    <circle cx="42.499" cy="45.001" r="5" fill="#D9D9D9"/>
</svg>
