<svg width="60" height="60" viewBox="0 0 60 60" fill="none" xmlns="http://www.w3.org/2000/svg">
    <path d="M7 21.677a13.724 13.724 0 0 1 11.776-6.675h4.4c.608-.9 1.303-1.737 2.075-2.5a17.5 17.5 0 1 1 12.275 30h-18.75a13.775 13.775 0 0 1-13.75-13.75A13.4 13.4 0 0 1 7 21.677z" fill="#fff"/>
    <path d="M24.914 57.468a2.5 2.5 0 0 1-1.768-3.062l3.883-14.49a2.5 2.5 0 1 1 4.83 1.295L27.975 55.7a2.5 2.5 0 0 1-3.062 1.767zM17.415 57.468a2.5 2.5 0 0 1-1.768-3.062l3.883-14.49a2.5 2.5 0 1 1 4.83 1.295L20.476 55.7a2.5 2.5 0 0 1-3.062 1.767zM9.917 57.468a2.5 2.5 0 0 1-1.768-3.062l3.883-14.49a2.5 2.5 0 1 1 4.83 1.295L12.978 55.7a2.5 2.5 0 0 1-3.062 1.767z" fill="#fff"/>
    <path d="M49.266 51.575 46.516 50l2.75-1.575a2.509 2.509 0 1 0-2.5-4.35l-2.75 1.6V42.5a2.5 2.5 0 0 0-5 0v3.175l-2.75-1.6a2.508 2.508 0 1 0-2.5 4.35L36.516 50l-2.75 1.575a2.5 2.5 0 0 0 1.25 4.675 2.5 2.5 0 0 0 1.25-.325l2.75-1.6V57.5a2.5 2.5 0 0 0 5 0v-3.175l2.75 1.6a2.5 2.5 0 0 0 3.4-.925 2.499 2.499 0 0 0-.9-3.425z" fill="#E0E0E0"/>
</svg>
