<svg width="60" height="60" viewBox="0 0 60 60" fill="none" xmlns="http://www.w3.org/2000/svg">
    <path d="M53.023 24.175A13.725 13.725 0 0 0 41.248 17.5h-4.4a16.517 16.517 0 0 0-2.075-2.5 17.5 17.5 0 1 0-12.275 30h18.75a13.775 13.775 0 0 0 13.75-13.75 13.4 13.4 0 0 0-1.975-7.075z" fill="#fff"/>
    <path d="M42.498 55.001h-.4a2.5 2.5 0 0 1-2.1-2.5v-2.5h-2.5a2.5 2.5 0 0 1-1.975-.95 2.501 2.501 0 0 1-.45-2.15l2.5-10a2.5 2.5 0 0 1 2.425-1.9h2.5a2.5 2.5 0 0 1 2.025 1.05 2.499 2.499 0 0 1 .35 2.25l-1.4 4.2h1.525a2.5 2.5 0 0 1 2.025 1.05 2.499 2.499 0 0 1 .35 2.25l-2.5 7.5a2.5 2.5 0 0 1-2.375 1.7z" fill="#FE9517"/>
    <path d="m29.265 46.576-2.75-1.575 2.75-1.575a2.508 2.508 0 1 0-2.5-4.35l-2.75 1.6v-3.175a2.5 2.5 0 1 0-5 0v3.175l-2.75-1.6a2.509 2.509 0 0 0-2.5 4.35l2.75 1.575-2.75 1.575a2.5 2.5 0 0 0 1.25 4.675 2.5 2.5 0 0 0 1.25-.325l2.75-1.6v3.175a2.5 2.5 0 1 0 5 0v-3.175l2.75 1.6a2.5 2.5 0 0 0 3.4-.925 2.498 2.498 0 0 0-.9-3.425z" fill="#E0E0E0"/>
</svg>
