<svg width="60" height="60" viewBox="0 0 60 60" fill="none" xmlns="http://www.w3.org/2000/svg">
    <path d="M7 24.173a13.724 13.724 0 0 1 11.776-6.675h4.4c.608-.9 1.303-1.737 2.075-2.5a17.5 17.5 0 1 1 12.275 30h-18.75a13.775 13.775 0 0 1-13.75-13.75A13.4 13.4 0 0 1 7 24.173z" fill="#fff"/>
    <path d="m37.748 46.574-2.75-1.575 2.75-1.575a2.509 2.509 0 1 0-2.5-4.35l-2.75 1.6v-3.175a2.5 2.5 0 1 0-5 0v3.175l-2.75-1.6a2.508 2.508 0 1 0-2.5 4.35l2.75 1.575-2.75 1.575a2.5 2.5 0 0 0 1.25 4.675 2.5 2.5 0 0 0 1.25-.325l2.75-1.6v3.175a2.5 2.5 0 1 0 5 0v-3.175l2.75 1.6a2.5 2.5 0 0 0 3.4-.925 2.499 2.499 0 0 0-.9-3.425z" fill="#E0E0E0"/>
</svg>
