<svg width="60" height="60" viewBox="0 0 60 60" fill="none" xmlns="http://www.w3.org/2000/svg">
    <path d="M30.35 5.052a1.376 1.376 0 0 0-1.25.925 8.823 8.823 0 0 1-2.168 3.43 8.855 8.855 0 0 1-4.885 2.452c-1.827.272-3.661-.062-5.22-.948a7.743 7.743 0 0 1-3.402-3.958c-.647-1.68-.71-3.554-.18-5.334a1.275 1.275 0 0 0-.012-.796 1.192 1.192 0 0 0-.48-.61 1.236 1.236 0 0 0-.782-.21c-.281.019-.553.129-.774.313l-.752.736a13.7 13.7 0 0 0-3.56 5.87 12.835 12.835 0 0 0-.193 6.711 12.007 12.007 0 0 0 3.227 5.715 12.04 12.04 0 0 0 5.763 3.153 12.9 12.9 0 0 0 6.72-.272 13.731 13.731 0 0 0 5.838-3.623 13.66 13.66 0 0 0 3.356-5.981 12.765 12.765 0 0 0-.045-6.702 1.195 1.195 0 0 0-.447-.64 1.23 1.23 0 0 0-.754-.231z" fill="#FBC01F"/>
    <path d="M7.004 24.173a13.725 13.725 0 0 1 11.775-6.675h4.4c.607-.9 1.302-1.737 2.075-2.5a17.5 17.5 0 1 1 12.274 30h-18.75a13.775 13.775 0 0 1-13.75-13.75 13.4 13.4 0 0 1 1.976-7.075z" fill="#fff"/>
    <path d="M22.501 52.498a2.5 2.5 0 0 1-2.5-2.5v-10a2.5 2.5 0 0 1 5 0v10a2.5 2.5 0 0 1-2.5 2.5zM30 57.498a2.5 2.5 0 0 1-2.5-2.5v-15a2.5 2.5 0 0 1 5 0v15a2.5 2.5 0 0 1-2.5 2.5z" fill="#fff"/>
</svg>
