<svg width="60" height="60" viewBox="0 0 60 60" fill="none" xmlns="http://www.w3.org/2000/svg">
    <path d="M7.004 21.674a13.726 13.726 0 0 1 11.775-6.675h4.4c.607-.9 1.302-1.737 2.075-2.5a17.5 17.5 0 1 1 12.274 30h-18.75a13.775 13.775 0 0 1-13.75-13.75 13.4 13.4 0 0 1 1.976-7.075z" fill="#fff"/>
    <path d="M22.499 47.5a2.5 2.5 0 0 1-2.5-2.5V35a2.5 2.5 0 0 1 5 0v10a2.5 2.5 0 0 1-2.5 2.5zM37.501 45a2.5 2.5 0 0 1-2.5-2.5v-10a2.5 2.5 0 0 1 5 0v10a2.5 2.5 0 0 1-2.5 2.5zM30.001 55.002a2.5 2.5 0 0 1-2.5-2.5v-15a2.5 2.5 0 1 1 5 0v15a2.5 2.5 0 0 1-2.5 2.5z" fill="#fff"/>
</svg>
