<svg width="60" height="60" viewBox="0 0 60 60" fill="none" xmlns="http://www.w3.org/2000/svg">
    <path d="M50.6 13.675a8.475 8.475 0 0 0-4.35-1.175h-1.875a11 11 0 0 0-8.55-4.175A10.825 10.825 0 0 0 25 18.15a2.5 2.5 0 0 0 1.65 2.5 12.5 12.5 0 0 1 6.6 5.525 2.5 2.5 0 0 0 2.175 1.25h5.825a8.775 8.775 0 0 1 4.375 1.175c.315.177.616.377.9.6a2.5 2.5 0 0 0 1.475.475c.232.037.468.037.7 0A8.726 8.726 0 0 0 50.6 13.7v-.025z" fill="#E0E0E0"/>
    <path d="M53.024 29.175A13.725 13.725 0 0 0 41.249 22.5h-4.4a16.523 16.523 0 0 0-2.075-2.5 17.5 17.5 0 1 0-12.275 30h18.75a13.775 13.775 0 0 0 13.75-13.75 13.4 13.4 0 0 0-1.975-7.075z" fill="#fff"/>
</svg>
