<svg width="60" height="60" viewBox="0 0 60 60" fill="none" xmlns="http://www.w3.org/2000/svg">
    <path d="M42.5 7.5a12.5 12.5 0 0 0-11.85 8.525 2.5 2.5 0 0 0 .624 2.5A11.125 11.125 0 0 1 33.3 21.15a2.5 2.5 0 0 0 2.175 1.25h5.775a8.6 8.6 0 0 1 7.5 4.225 2.5 2.5 0 0 0 2.1 1.225 2.5 2.5 0 0 0 2.1-1.125A12.5 12.5 0 0 0 42.5 7.5z" fill="#FBC01F"/>
    <path d="M53.023 29.174a13.725 13.725 0 0 0-11.775-6.675h-4.4a16.522 16.522 0 0 0-2.075-2.5 17.5 17.5 0 1 0-12.275 30h18.75a13.775 13.775 0 0 0 13.75-13.75 13.4 13.4 0 0 0-1.975-7.075z" fill="#fff"/>
</svg>
