<svg width="60" height="60" viewBox="0 0 60 60" fill="none" xmlns="http://www.w3.org/2000/svg">
    <path d="M54.25 17.3a9.404 9.404 0 0 1-1.75.2A7.5 7.5 0 0 1 45 10a9.404 9.404 0 0 1 .2-1.75 2.5 2.5 0 0 0-3-2.926 12.5 12.5 0 0 0-5.45 21.55 2.5 2.5 0 0 0 1.65.625h5.35a8.6 8.6 0 0 1 4.35 1.175 2.5 2.5 0 0 0 1.25.325c.374.007.743-.08 1.076-.25a12.5 12.5 0 0 0 6.75-8.425A2.499 2.499 0 0 0 56.55 18a2.499 2.499 0 0 0-2.3-.7z" fill="#FBC01F"/>
    <path d="M53.025 29.174a13.726 13.726 0 0 0-11.775-6.675h-4.4a16.528 16.528 0 0 0-2.075-2.5 17.5 17.5 0 1 0-12.275 30h18.75A13.775 13.775 0 0 0 55 36.249a13.4 13.4 0 0 0-1.975-7.075z" fill="#fff"/>
</svg>
