<svg width="60" height="60" viewBox="0 0 60 60" fill="none" xmlns="http://www.w3.org/2000/svg">
    <path d="M53.025 21.673a13.725 13.725 0 0 0-11.775-6.675h-4.4a16.533 16.533 0 0 0-2.075-2.5 17.5 17.5 0 1 0-12.275 30h18.75A13.775 13.775 0 0 0 55 28.748a13.4 13.4 0 0 0-1.975-7.075z" fill="#fff"/>
    <path d="M22.5 47.498a2.5 2.5 0 0 1-2.5-2.5v-10a2.5 2.5 0 0 1 5 0v10a2.5 2.5 0 0 1-2.5 2.5zM37.502 44.998a2.5 2.5 0 0 1-2.5-2.5v-10a2.5 2.5 0 1 1 5 0v10a2.5 2.5 0 0 1-2.5 2.5zM29.999 54.999a2.5 2.5 0 0 1-2.5-2.5v-15a2.5 2.5 0 1 1 5 0v15a2.5 2.5 0 0 1-2.5 2.5z" fill="#fff"/>
</svg>
