<svg width="60" height="60" viewBox="0 0 60 60" fill="none" xmlns="http://www.w3.org/2000/svg">
    <path d="M42.501 5a12.5 12.5 0 0 0-11.85 8.525 2.5 2.5 0 0 0 .625 2.5c.793.73 1.475 1.573 2.025 2.5a2.5 2.5 0 0 0 2.175 1.25h5.775a8.6 8.6 0 0 1 7.5 4.225 2.5 2.5 0 0 0 2.1 1.225 2.5 2.5 0 0 0 2.1-1.125A12.5 12.5 0 0 0 42.501 5z" fill="#FBC01F"/>
    <path d="M53.024 21.675A13.725 13.725 0 0 0 41.249 15h-4.4a16.533 16.533 0 0 0-2.075-2.5 17.5 17.5 0 1 0-12.275 30h18.75a13.775 13.775 0 0 0 13.75-13.75 13.4 13.4 0 0 0-1.975-7.075z" fill="#fff"/>
    <path d="M22.5 47.5A2.5 2.5 0 0 1 20 45V35a2.5 2.5 0 0 1 5 0v10a2.5 2.5 0 0 1-2.5 2.5zM37.5 45.001a2.5 2.5 0 0 1-2.5-2.5v-10a2.5 2.5 0 0 1 5 0v10a2.5 2.5 0 0 1-2.5 2.5zM30 55a2.5 2.5 0 0 1-2.5-2.5v-15a2.5 2.5 0 0 1 5 0v15A2.5 2.5 0 0 1 30 55z" fill="#fff"/>
</svg>
