<svg width="60" height="60" viewBox="0 0 60 60" fill="none" xmlns="http://www.w3.org/2000/svg">
    <path d="M42.5 5a12.5 12.5 0 0 0-11.85 8.525 2.5 2.5 0 0 0 .624 2.5c.793.73 1.475 1.573 2.025 2.5a2.5 2.5 0 0 0 2.175 1.25h5.775A8.6 8.6 0 0 1 48.75 24a2.5 2.5 0 0 0 2.1 1.225 2.5 2.5 0 0 0 2.1-1.125A12.5 12.5 0 0 0 42.5 5z" fill="#FBC01F"/>
    <path d="M53.023 24.174A13.724 13.724 0 0 0 41.248 17.5h-4.4a16.527 16.527 0 0 0-2.075-2.5 17.5 17.5 0 1 0-12.275 30h18.75a13.775 13.775 0 0 0 13.75-13.75 13.4 13.4 0 0 0-1.975-7.075z" fill="#fff"/>
    <path d="m37.748 44.075-2.75-1.575 2.75-1.575a2.509 2.509 0 1 0-2.5-4.35l-2.75 1.6V35a2.5 2.5 0 1 0-5 0v3.175l-2.75-1.6a2.508 2.508 0 1 0-2.5 4.35l2.75 1.575-2.75 1.575a2.5 2.5 0 0 0 1.25 4.675 2.5 2.5 0 0 0 1.25-.325l2.75-1.6V50a2.5 2.5 0 0 0 5 0v-3.175l2.75 1.6a2.5 2.5 0 0 0 3.4-.925 2.499 2.499 0 0 0-.9-3.425z" fill="#E0E0E0"/>
</svg>
