<svg width="60" height="60" viewBox="0 0 60 60" fill="none" xmlns="http://www.w3.org/2000/svg">
    <path d="M56.754 12.298a9.396 9.396 0 0 1-1.75.2 7.5 7.5 0 0 1-7.5-7.5 9.404 9.404 0 0 1 .2-1.75 2.5 2.5 0 0 0-3-2.925 12.5 12.5 0 0 0-5.45 21.55 2.5 2.5 0 0 0 1.65.625h5.35a8.6 8.6 0 0 1 4.35 1.175 2.5 2.5 0 0 0 1.25.325c.373.007.742-.08 1.075-.25a12.501 12.501 0 0 0 6.75-8.425 2.501 2.501 0 0 0-.625-2.325 2.5 2.5 0 0 0-2.3-.7z" fill="#FBC01F"/>
    <path d="M53.024 21.673a13.725 13.725 0 0 0-11.775-6.675h-4.4a16.533 16.533 0 0 0-2.075-2.5 17.5 17.5 0 1 0-12.275 30h18.75a13.775 13.775 0 0 0 13.75-13.75 13.4 13.4 0 0 0-1.975-7.075z" fill="#fff"/>
    <path d="M22.5 42.498a2.5 2.5 0 0 1-2.5-2.5v-5a2.5 2.5 0 0 1 5 0v5a2.5 2.5 0 0 1-2.5 2.5zM37.502 39.999a2.5 2.5 0 0 1-2.5-2.5v-5a2.5 2.5 0 1 1 5 0v5a2.5 2.5 0 0 1-2.5 2.5zM30 47.499a2.5 2.5 0 0 1-2.5-2.5v-7.5a2.5 2.5 0 0 1 5 0v7.5a2.5 2.5 0 0 1-2.5 2.5z" fill="#E0E0E0"/>
    <path d="M30 54.998a2.5 2.5 0 1 0 0-5 2.5 2.5 0 0 0 0 5zM22.5 49.999a2.5 2.5 0 1 0 0-5 2.5 2.5 0 0 0 0 5zM37.502 47.5a2.5 2.5 0 1 0 0-5 2.5 2.5 0 0 0 0 5z" fill="#fff"/>
</svg>
