<svg width="60" height="60" viewBox="0 0 60 60" fill="none" xmlns="http://www.w3.org/2000/svg">
    <path d="M56.75 12.298a9.396 9.396 0 0 1-1.75.2 7.5 7.5 0 0 1-7.5-7.5 9.404 9.404 0 0 1 .2-1.75 2.5 2.5 0 0 0-3-2.925 12.5 12.5 0 0 0-5.45 21.55 2.5 2.5 0 0 0 1.65.625h5.35a8.6 8.6 0 0 1 4.35 1.175 2.5 2.5 0 0 0 1.25.325c.374.007.743-.08 1.076-.25a12.5 12.5 0 0 0 6.75-8.425 2.499 2.499 0 0 0-.625-2.325 2.499 2.499 0 0 0-2.3-.7z" fill="#FBC01F"/>
    <path d="M53.025 24.173a13.725 13.725 0 0 0-11.775-6.675h-4.4a16.523 16.523 0 0 0-2.075-2.5 17.5 17.5 0 1 0-12.275 30h18.75A13.775 13.775 0 0 0 55 31.248a13.4 13.4 0 0 0-1.975-7.075z" fill="#fff"/>
    <path d="m37.748 44.073-2.75-1.575 2.75-1.575a2.509 2.509 0 1 0-2.5-4.35l-2.75 1.6v-3.175a2.5 2.5 0 1 0-5 0v3.175l-2.75-1.6a2.508 2.508 0 1 0-2.5 4.35l2.75 1.575-2.75 1.575a2.5 2.5 0 0 0 1.25 4.675c.438.003.869-.109 1.25-.325l2.75-1.6v3.175a2.5 2.5 0 1 0 5 0v-3.175l2.75 1.6a2.5 2.5 0 0 0 3.4-.925 2.499 2.499 0 0 0-.9-3.425z" fill="#E0E0E0"/>
</svg>
