<svg width="60" height="60" viewBox="0 0 60 60" fill="none" xmlns="http://www.w3.org/2000/svg">
    <circle cx="17.5" cy="17.5" r="12.5" fill="#FBC01F"/>
    <path d="M7.004 24.175A13.725 13.725 0 0 1 18.779 17.5h4.4c.607-.9 1.302-1.737 2.075-2.5a17.5 17.5 0 1 1 12.274 30h-18.75a13.775 13.775 0 0 1-13.75-13.75 13.4 13.4 0 0 1 1.976-7.075z" fill="#fff"/>
    <path d="M22.499 52.502a2.5 2.5 0 0 1-2.5-2.5v-10a2.5 2.5 0 1 1 5 0v10a2.5 2.5 0 0 1-2.5 2.5zM30 57.502a2.5 2.5 0 0 1-2.5-2.5v-15a2.5 2.5 0 1 1 5 0v15a2.5 2.5 0 0 1-2.5 2.5z" fill="#fff"/>
</svg>
