<svg width="60" height="60" viewBox="0 0 60 60" fill="none" xmlns="http://www.w3.org/2000/svg">
    <path d="M56.753 12.298a9.396 9.396 0 0 1-1.75.2 7.5 7.5 0 0 1-7.5-7.5 9.396 9.396 0 0 1 .2-1.75 2.5 2.5 0 0 0-3-2.925 12.5 12.5 0 0 0-5.45 21.55 2.5 2.5 0 0 0 1.65.625h5.35a8.6 8.6 0 0 1 4.35 1.175 2.5 2.5 0 0 0 1.25.325c.373.007.742-.08 1.075-.25a12.5 12.5 0 0 0 6.75-8.425 2.501 2.501 0 0 0-.625-2.325 2.5 2.5 0 0 0-2.3-.7z" fill="#FBC01F"/>
    <path d="M53.024 21.673a13.725 13.725 0 0 0-11.775-6.675h-4.4a16.523 16.523 0 0 0-2.075-2.5 17.5 17.5 0 1 0-12.275 30h18.75a13.775 13.775 0 0 0 13.75-13.75 13.4 13.4 0 0 0-1.975-7.075z" fill="#fff"/>
    <path d="M22.501 47.498a2.5 2.5 0 0 1-2.5-2.5v-10a2.5 2.5 0 0 1 5 0v10a2.5 2.5 0 0 1-2.5 2.5zM37.501 44.999a2.5 2.5 0 0 1-2.5-2.5v-10a2.5 2.5 0 0 1 5 0v10a2.5 2.5 0 0 1-2.5 2.5zM30 54.999a2.5 2.5 0 0 1-2.5-2.5v-15a2.5 2.5 0 0 1 5 0v15a2.5 2.5 0 0 1-2.5 2.5z" fill="#fff"/>
</svg>
