<svg width="60" height="60" viewBox="0 0 60 60" fill="none" xmlns="http://www.w3.org/2000/svg">
    <path d="M25.349 5.052a1.377 1.377 0 0 0-1.25.925 8.823 8.823 0 0 1-2.168 3.43 8.856 8.856 0 0 1-4.885 2.452c-1.827.272-3.661-.062-5.22-.948a7.743 7.743 0 0 1-3.401-3.958c-.648-1.68-.712-3.554-.182-5.334a1.275 1.275 0 0 0-.01-.796 1.192 1.192 0 0 0-.482-.61 1.236 1.236 0 0 0-.781-.21c-.281.019-.553.129-.773.313l-.753.736a13.7 13.7 0 0 0-3.56 5.87 12.835 12.835 0 0 0-.193 6.711 12.007 12.007 0 0 0 3.227 5.715 12.04 12.04 0 0 0 5.763 3.153 12.9 12.9 0 0 0 6.72-.272 13.73 13.73 0 0 0 5.838-3.623 13.662 13.662 0 0 0 3.356-5.981 12.767 12.767 0 0 0-.045-6.702 1.195 1.195 0 0 0-.447-.64 1.23 1.23 0 0 0-.754-.231z" fill="#FBC01F"/>
    <path d="M7.005 24.173a13.724 13.724 0 0 1 11.774-6.675h4.4c.608-.9 1.303-1.737 2.076-2.5a17.5 17.5 0 1 1 12.274 30H18.78a13.775 13.775 0 0 1-13.75-13.75 13.4 13.4 0 0 1 1.976-7.075z" fill="#fff"/>
    <path d="M22.5 49.998a2.5 2.5 0 0 1-2.5-2.5v-10a2.5 2.5 0 0 1 5 0v10a2.5 2.5 0 0 1-2.5 2.5zM30 54.998a2.5 2.5 0 0 1-2.5-2.5v-15a2.5 2.5 0 0 1 5 0v15a2.5 2.5 0 0 1-2.5 2.5z" fill="#fff"/>
</svg>
