<svg width="60" height="60" viewBox="0 0 60 60" fill="none" xmlns="http://www.w3.org/2000/svg">
    <path d="M42.501 5a12.5 12.5 0 0 0-11.85 8.525 2.5 2.5 0 0 0 .625 2.5c.793.73 1.475 1.573 2.025 2.5a2.5 2.5 0 0 0 2.175 1.25h5.775a8.6 8.6 0 0 1 7.5 4.225 2.5 2.5 0 0 0 2.1 1.225 2.5 2.5 0 0 0 2.1-1.125A12.5 12.5 0 0 0 42.501 5z" fill="#FBC01F"/>
    <path d="M53.025 21.675A13.725 13.725 0 0 0 41.25 15h-4.4a16.533 16.533 0 0 0-2.075-2.5 17.5 17.5 0 1 0-12.275 30h18.75A13.775 13.775 0 0 0 55 28.75a13.4 13.4 0 0 0-1.975-7.075z" fill="#fff"/>
    <path d="M22.499 42.5a2.5 2.5 0 0 1-2.5-2.5v-5a2.5 2.5 0 0 1 5 0v5a2.5 2.5 0 0 1-2.5 2.5zM37.502 40.001a2.5 2.5 0 0 1-2.5-2.5v-5a2.5 2.5 0 1 1 5 0v5a2.5 2.5 0 0 1-2.5 2.5zM30 47.5a2.5 2.5 0 0 1-2.5-2.5v-7.5a2.5 2.5 0 0 1 5 0V45a2.5 2.5 0 0 1-2.5 2.5z" fill="#E0E0E0"/>
    <path d="M30 55.001a2.5 2.5 0 1 0 0-5 2.5 2.5 0 0 0 0 5zM22.5 49.999a2.5 2.5 0 1 0 0-5 2.5 2.5 0 0 0 0 5zM37.502 47.5a2.5 2.5 0 1 0 0-5 2.5 2.5 0 0 0 0 5z" fill="#fff"/>
</svg>
