<svg width="60" height="60" viewBox="0 0 60 60" fill="none" xmlns="http://www.w3.org/2000/svg">
    <path d="M27.85 10.052a1.377 1.377 0 0 0-1.25.925 8.822 8.822 0 0 1-2.167 3.43 8.855 8.855 0 0 1-4.885 2.452c-1.827.272-3.661-.062-5.22-.948a7.743 7.743 0 0 1-3.401-3.957c-.648-1.68-.712-3.555-.182-5.335a1.275 1.275 0 0 0-.01-.796 1.193 1.193 0 0 0-.482-.61 1.236 1.236 0 0 0-.781-.21c-.281.019-.553.129-.774.313l-.752.736a13.7 13.7 0 0 0-3.56 5.87 12.834 12.834 0 0 0-.193 6.711 12.007 12.007 0 0 0 3.227 5.715 12.04 12.04 0 0 0 5.763 3.153c2.194.506 4.514.413 6.72-.272a13.731 13.731 0 0 0 5.838-3.623 13.662 13.662 0 0 0 3.356-5.981 12.766 12.766 0 0 0-.045-6.702 1.195 1.195 0 0 0-.447-.64 1.23 1.23 0 0 0-.754-.231z" fill="#FBC01F"/>
    <path d="M7.004 24.172a13.725 13.725 0 0 1 11.775-6.675h4.4c.607-.9 1.302-1.737 2.075-2.5a17.502 17.502 0 0 1 28.444 5.873 17.501 17.501 0 0 1-16.17 24.127h-18.75a13.775 13.775 0 0 1-13.75-13.75 13.4 13.4 0 0 1 1.976-7.075z" fill="#fff"/>
    <path d="M26.77 46.575 24.02 45l2.75-1.575a2.509 2.509 0 1 0-2.5-4.35l-2.75 1.6V37.5a2.5 2.5 0 0 0-5 0v3.175l-2.75-1.6a2.508 2.508 0 1 0-2.5 4.35L14.02 45l-2.75 1.575a2.5 2.5 0 0 0 1.25 4.675 2.5 2.5 0 0 0 1.25-.325l2.75-1.6V52.5a2.5 2.5 0 0 0 5 0v-3.175l2.75 1.6a2.5 2.5 0 0 0 3.4-.925 2.499 2.499 0 0 0-.9-3.425zM49.27 46.575 46.52 45l2.75-1.575a2.509 2.509 0 1 0-2.5-4.35l-2.75 1.6V37.5a2.5 2.5 0 0 0-5 0v3.175l-2.75-1.6a2.508 2.508 0 1 0-2.5 4.35L36.52 45l-2.75 1.575a2.5 2.5 0 0 0 1.25 4.675 2.5 2.5 0 0 0 1.25-.325l2.75-1.6V52.5a2.5 2.5 0 0 0 5 0v-3.175l2.75 1.6a2.5 2.5 0 0 0 3.4-.925 2.499 2.499 0 0 0-.9-3.425z" fill="#E0E0E0"/>
</svg>
