<svg width="60" height="60" viewBox="0 0 60 60" fill="none" xmlns="http://www.w3.org/2000/svg">
    <path d="M30.001 42.501c6.903 0 12.5-5.596 12.5-12.5s-5.596-12.5-12.5-12.5-12.5 5.596-12.5 12.5c0 6.903 5.596 12.5 12.5 12.5z" fill="#FBC01F"/>
    <path d="M29.999 15a2.5 2.5 0 0 1-2.5-2.5v-5a2.5 2.5 0 1 1 5 0v5a2.5 2.5 0 0 1-2.5 2.5zM29.999 55a2.5 2.5 0 0 1-2.5-2.5v-5a2.5 2.5 0 0 1 5 0v5a2.5 2.5 0 0 1-2.5 2.5zM17.624 20.124a2.5 2.5 0 0 1-1.775-.725l-3.525-3.55a2.5 2.5 0 0 1 3.525-3.525l3.55 3.525a2.5 2.5 0 0 1-1.775 4.275zM45.9 48.4a2.5 2.5 0 0 1-1.75-.724L40.6 44.15a2.51 2.51 0 1 1 3.55-3.55l3.526 3.55a2.5 2.5 0 0 1 0 3.526 2.5 2.5 0 0 1-1.776.724zM12.5 32.499h-5a2.5 2.5 0 0 1 0-5h5a2.5 2.5 0 0 1 0 5zM52.5 32.499h-5a2.5 2.5 0 0 1 0-5h5a2.5 2.5 0 0 1 0 5zM14.1 48.4a2.5 2.5 0 0 1-1.774-.724 2.5 2.5 0 0 1 0-3.526l3.525-3.55a2.51 2.51 0 1 1 3.55 3.55l-3.55 3.526a2.5 2.5 0 0 1-1.75.724zM42.5 20.125a2.5 2.5 0 0 1-1.775-4.275l3.55-3.525a2.502 2.502 0 0 1 3.666-.142 2.499 2.499 0 0 1-.141 3.667l-3.65 3.55a2.5 2.5 0 0 1-1.65.725z" fill="#FE9517"/>
</svg>
