<svg width="60" height="60" viewBox="0 0 60 60" fill="none" xmlns="http://www.w3.org/2000/svg">
    <path d="M56.753 12.298a9.396 9.396 0 0 1-1.75.2 7.5 7.5 0 0 1-7.5-7.5 9.396 9.396 0 0 1 .2-1.75 2.5 2.5 0 0 0-3-2.925 12.5 12.5 0 0 0-5.45 21.55 2.5 2.5 0 0 0 1.65.625h5.35a8.6 8.6 0 0 1 4.35 1.175 2.5 2.5 0 0 0 1.25.325c.373.007.742-.08 1.075-.25a12.5 12.5 0 0 0 6.75-8.425 2.501 2.501 0 0 0-.625-2.325 2.5 2.5 0 0 0-2.3-.7z" fill="#FBC01F"/>
    <path d="M53.027 24.173a13.724 13.724 0 0 0-11.775-6.675h-4.4a16.527 16.527 0 0 0-2.075-2.5 17.5 17.5 0 1 0-12.275 30h18.75a13.775 13.775 0 0 0 13.75-13.75 13.4 13.4 0 0 0-1.975-7.075z" fill="#fff"/>
    <path d="M32.5 52.498h-.4a2.5 2.5 0 0 1-2.1-2.5v-2.5h-2.5a2.5 2.5 0 0 1-1.974-.95 2.5 2.5 0 0 1-.45-2.15l2.5-10a2.5 2.5 0 0 1 2.425-1.9h2.5a2.502 2.502 0 0 1 2.025 1.05 2.501 2.501 0 0 1 .35 2.25l-1.4 4.2H35a2.502 2.502 0 0 1 2.025 1.05 2.501 2.501 0 0 1 .35 2.25l-2.5 7.5a2.5 2.5 0 0 1-2.375 1.7z" fill="#FE9517"/>
</svg>
