<svg width="60" height="60" viewBox="0 0 60 60" fill="none" xmlns="http://www.w3.org/2000/svg">
    <path d="M42.501 7.5a12.5 12.5 0 0 0-11.85 8.525 2.5 2.5 0 0 0 .625 2.5c.793.73 1.475 1.573 2.025 2.5a2.5 2.5 0 0 0 2.175 1.25h5.775a8.6 8.6 0 0 1 7.5 4.225 2.5 2.5 0 0 0 2.1 1.225 2.5 2.5 0 0 0 2.1-1.125 12.5 12.5 0 0 0-10.45-19.1z" fill="#FBC01F"/>
    <path d="M53.024 24.174A13.725 13.725 0 0 0 41.249 17.5h-4.4a16.533 16.533 0 0 0-2.075-2.5 17.5 17.5 0 1 0-12.275 30h18.75a13.775 13.775 0 0 0 13.75-13.75 13.4 13.4 0 0 0-1.975-7.075z" fill="#fff"/>
    <path d="M32.5 52.5h-.4A2.5 2.5 0 0 1 30 50v-2.5h-2.5a2.5 2.5 0 0 1-1.975-.95 2.5 2.5 0 0 1-.45-2.15l2.5-10A2.5 2.5 0 0 1 30 32.5h2.5a2.5 2.5 0 0 1 2.025 1.05 2.5 2.5 0 0 1 .35 2.25l-1.4 4.2H35a2.5 2.5 0 0 1 2.025 1.05 2.5 2.5 0 0 1 .35 2.25l-2.5 7.5a2.5 2.5 0 0 1-2.375 1.7z" fill="#FE9517"/>
</svg>
