<svg width="60" height="60" viewBox="0 0 60 60" fill="none" xmlns="http://www.w3.org/2000/svg">
    <path d="M54.252 12.3a9.404 9.404 0 0 1-1.75.2 7.5 7.5 0 0 1-7.5-7.5 9.395 9.395 0 0 1 .2-1.75 2.5 2.5 0 0 0-3-2.925 12.5 12.5 0 0 0-5.45 21.55 2.5 2.5 0 0 0 1.65.625h5.35a8.6 8.6 0 0 1 4.35 1.175 2.5 2.5 0 0 0 1.25.325c.373.006.742-.08 1.075-.25a12.5 12.5 0 0 0 6.75-8.425A2.5 2.5 0 0 0 56.552 13a2.5 2.5 0 0 0-2.3-.7z" fill="#FBC01F"/>
    <path d="M53.024 24.174a13.726 13.726 0 0 0-11.775-6.675h-4.4a16.528 16.528 0 0 0-2.075-2.5 17.5 17.5 0 1 0-12.275 30h18.75a13.775 13.775 0 0 0 13.75-13.75 13.4 13.4 0 0 0-1.975-7.075z" fill="#fff"/>
    <path d="M37.499 54.999h-.4a2.5 2.5 0 0 1-2.1-2.5v-2.5h-2.5a2.5 2.5 0 0 1-1.975-.95 2.5 2.5 0 0 1-.45-2.15l2.5-10a2.5 2.5 0 0 1 2.425-1.9h2.5a2.5 2.5 0 0 1 2.025 1.05 2.5 2.5 0 0 1 .35 2.25l-1.4 4.2h1.525a2.5 2.5 0 0 1 2.025 1.05 2.5 2.5 0 0 1 .35 2.25l-2.5 7.5a2.5 2.5 0 0 1-2.375 1.7z" fill="#FE9517"/>
    <path d="M22.501 47.499a2.5 2.5 0 0 1-2.5-2.5v-7.5a2.5 2.5 0 0 1 5 0v7.5a2.5 2.5 0 0 1-2.5 2.5z" fill="#E0E0E0"/>
    <path d="M22.501 54.999a2.5 2.5 0 1 0 0-5 2.5 2.5 0 0 0 0 5z" fill="#fff"/>
</svg>
