<svg width="60" height="60" viewBox="0 0 60 60" fill="none" xmlns="http://www.w3.org/2000/svg">
    <path d="M7.004 24.172a13.726 13.726 0 0 1 11.775-6.675h4.4c.608-.9 1.303-1.737 2.075-2.5a17.5 17.5 0 1 1 12.275 30h-18.75a13.775 13.775 0 0 1-13.75-13.75 13.4 13.4 0 0 1 1.975-7.075z" fill="#fff"/>
    <path d="M40.591 21.873c-.931-1.501-2.266-2.705-3.968-3.573-1.691-.865-3.66-1.3-5.858-1.3-2.364 0-4.468.524-6.251 1.558-1.787 1.033-3.163 2.36-4.098 3.948C19.474 24.097 19 25.698 19 27.264c0 .838.327 1.617.971 2.319.648.705 1.455 1.063 2.396 1.063 1.602 0 2.7-1.001 3.258-2.959.508-1.623 1.134-2.859 1.858-3.678.68-.772 1.785-1.162 3.282-1.162 1.291 0 2.31.383 3.117 1.173.796.78 1.183 1.712 1.183 2.844a3.299 3.299 0 0 1-.378 1.568c-.269.51-.603.98-.993 1.393-.414.439-1.097 1.1-2.03 1.965-1.086 1.009-1.963 1.896-2.604 2.627a9.28 9.28 0 0 0-1.607 2.666c-.404 1.014-.608 2.222-.608 3.592 0 1.17.308 2.076.916 2.694.602.612 1.352.923 2.23.923 1.679 0 2.733-.972 3.046-2.79.163-.757.281-1.286.361-1.588.073-.273.178-.553.313-.833.131-.271.34-.58.618-.92a15.4 15.4 0 0 1 1.17-1.24c1.81-1.713 3.085-2.955 3.793-3.69a11.236 11.236 0 0 0 1.895-2.702c.539-1.063.813-2.31.813-3.71a9.243 9.243 0 0 0-1.412-4.944" fill="#D9D9D9"/>
    <circle cx="30.5" cy="50.5" r="3.5" fill="#D9D9D9"/>
</svg>
