<svg width="400" height="352" viewBox="0 0 400 352" fill="none" xmlns="http://www.w3.org/2000/svg">
  <path d="M131.42 171.527L126.554 180.034L98.5731 152.085C87.6242 141.148 67.1863 116.115 73.0257 103.478C78.8651 90.8397 138.719 120.085 167.916 136.287L310.252 223.78C329.311 237.957 365.726 268.012 358.914 274.817C352.101 281.622 307.413 269.551 285.921 262.665L289.571 249.298C296.464 252.134 310.738 257.076 312.685 254.159C314.631 251.243 302.142 240.792 295.653 235.932L186.164 169.097C163.455 158.565 116.821 137.26 111.955 136.287C105.872 135.072 102.223 135.072 102.223 137.503C102.223 150.14 121.687 165.452 131.42 171.527Z" fill="#D1DBE3"/>
  <path d="M197.113 88.8955C192.247 90.8398 185.353 83.2247 182.515 79.1741C176.432 79.1741 178.865 65.8072 186.164 54.8707C192.004 46.1214 196.708 45.5543 198.33 46.3644L211.712 52.4403L215.361 59.7313C221.039 65.4022 232.88 78.9311 234.826 87.6803C236.772 96.4296 230.771 103.478 227.527 105.908L198.714 87.92C198.292 88.1833 197.764 88.5053 197.113 88.8955Z" fill="#D1DBE3"/>
  <path d="M244.558 84.0348C243.585 90.8398 237.665 101.452 234.826 105.908C235.637 107.123 238.232 109.553 242.125 109.553C246.018 109.553 249.425 103.073 250.641 99.8321L261.59 109.553L268.889 98.6169L244.558 84.0348Z" fill="#D1DBE3"/>
  <path d="M269.105 99.6006C268.529 99.2611 267.786 99.4524 267.446 100.028L266.075 102.338C260.631 111.463 258.453 114.426 256.139 115.765C254.236 116.866 252.269 116.524 248.669 114.415L248.188 114.127C245.923 112.717 235.561 105.607 231.555 103.054C230.991 102.695 230.242 102.86 229.883 103.423C229.523 103.986 229.688 104.734 230.252 105.094L230.869 105.49C235.333 108.381 245.363 115.261 247.138 116.322C251.497 118.925 254.323 119.51 257.155 117.97L257.353 117.859C260.396 116.098 262.762 112.72 269.533 101.257C269.873 100.682 269.681 99.9402 269.105 99.6006Z" fill="white"/>
  <path d="M249.491 113.585C248.828 113.496 248.218 113.961 248.129 114.624C247.717 117.701 246.729 120.787 245.16 123.885C244.858 124.481 245.098 125.209 245.694 125.51C246.291 125.812 247.02 125.573 247.322 124.977C249.01 121.643 250.081 118.298 250.53 114.945C250.619 114.282 250.154 113.674 249.491 113.585Z" fill="white"/>
  <path fill-rule="evenodd" clip-rule="evenodd" d="M108.389 187.478C108.584 187.972 109.012 188.655 109.51 189.302L109.081 189.747L108.584 190.275L108.474 190.381C108.425 190.424 108.388 190.45 108.36 190.457C108.199 190.48 108.087 190.628 108.109 190.79C108.132 190.948 108.28 191.062 108.44 191.039C108.586 191.036 109.115 190.829 109.744 190.318C109.859 190.226 109.972 190.119 110.088 190.002C110.451 190.407 110.818 190.755 111.135 190.971C111.602 191.292 112.006 191.318 112.199 191.188C112.389 191.061 112.571 190.635 112.262 189.774C112.214 189.618 112.047 189.536 111.893 189.584C111.74 189.633 111.655 189.797 111.703 189.953C111.75 190.112 111.756 190.259 111.757 190.375L111.578 190.253C111.515 190.208 111.45 190.157 111.39 190.097C111.174 189.885 110.932 189.626 110.69 189.346C111.074 188.9 111.466 188.376 111.783 187.771C111.937 187.476 112.061 187.163 112.178 186.834C112.259 186.65 112.175 186.434 111.99 186.353C111.806 186.272 111.59 186.356 111.509 186.54C111.156 187.278 110.705 187.915 110.26 188.46L110.112 188.638C109.707 188.108 109.358 187.572 109.2 187.163C109.113 186.941 108.86 186.83 108.637 186.915C108.411 187.004 108.301 187.255 108.389 187.478Z" fill="white"/>
  <path fill-rule="evenodd" clip-rule="evenodd" d="M288.605 34.8535L289.344 34.7201C293.466 33.9545 296.627 33.0146 302.532 30.9698C303.209 30.7353 303.567 29.9968 303.333 29.3205C303.098 28.6441 302.358 28.2859 301.681 28.5204L300.21 29.0263C295.03 30.7919 292.124 31.6014 288.155 32.3005C274.799 34.6528 264.799 27.8036 263.981 14.7411C263.936 14.0266 263.32 13.4837 262.604 13.5284C261.889 13.5731 261.346 14.1885 261.39 14.903C262.31 29.5937 273.798 37.4616 288.605 34.8535Z" fill="#748AA1"/>
  <path fill-rule="evenodd" clip-rule="evenodd" d="M255.233 48.8425L254.488 50.4967L252.789 50.9837C252.697 51.01 252.644 51.1057 252.67 51.1975C252.678 51.2258 252.694 51.2515 252.714 51.2723L254.005 52.5557L253.933 54.4027C253.929 54.4981 254.003 54.5784 254.099 54.5821C254.131 54.5834 254.163 54.5756 254.191 54.5596L255.653 53.7284C255.698 53.7024 255.753 53.6986 255.802 53.718L257.365 54.338C257.454 54.3732 257.554 54.3298 257.589 54.2411C257.601 54.2111 257.605 54.1784 257.599 54.1466L257.27 52.3277L258.369 50.8773C258.427 50.8012 258.412 50.6928 258.336 50.6352C258.312 50.6174 258.285 50.6059 258.255 50.6018L256.505 50.3557L255.537 48.8213C255.486 48.7405 255.379 48.7163 255.298 48.7673C255.269 48.7854 255.247 48.8116 255.233 48.8425Z" fill="#748AA1"/>
  <path d="M245.016 124.152L244.317 123.897C237.709 121.529 232.133 120.483 230.717 121.923C229.475 123.185 228.368 125.471 227.319 128.824C227.119 129.462 227.475 130.14 228.113 130.34C228.752 130.539 229.431 130.184 229.631 129.546C230.538 126.646 231.464 124.695 232.34 123.73L232.376 123.692L232.407 123.694C232.573 123.66 232.821 123.643 233.138 123.649C233.836 123.662 234.79 123.785 235.93 124.011C238.273 124.475 241.236 125.338 244.178 126.422C249.097 128.234 253.195 130.364 255.459 132.287C256.29 132.994 257.807 131.026 256.347 129.899C253.72 127.872 249.735 125.89 245.016 124.152Z" fill="white"/>
  <path d="M248.342 101.296C248.342 105.331 244.069 109.701 243.16 109.949C242.515 110.126 253.631 117.36 253.631 117.36C257.647 117.888 260.006 114.497 260.006 109.445C260.006 108.777 248.342 100.628 248.342 101.296Z" fill="white"/>
  <path fill-rule="evenodd" clip-rule="evenodd" d="M261.449 103.417C260.042 103.143 259.086 101.973 259.314 100.801C259.542 99.6301 260.867 98.9021 262.274 99.1753C263.681 99.4485 264.637 100.619 264.409 101.791C264.181 102.962 262.856 103.69 261.449 103.417Z" fill="#748AA1"/>
  <path d="M61.1041 64.4987C68.0088 64.1461 73.4459 69.4727 73.5029 76.6231C73.5509 82.6475 70.1539 87.6085 65.487 88.5695C63.5998 88.9582 59.9765 88.4907 57.2893 86.9853C53.2085 84.7992 50.0891 80.305 49.6955 76.4759C49.0544 70.2373 54.1108 64.8559 61.1041 64.4987Z" fill="white"/>
  <path d="M186.221 63.2394C184.015 67.6887 180.591 77.9657 182.072 77.9163C186.186 77.779 191.691 71.4626 195.542 62.9222L195.845 62.2352C199.207 54.4812 201.221 49.6098 198.883 48.6766C196.465 47.7114 190.772 54.0563 186.221 63.2394Z" fill="white"/>
  <path fill-rule="evenodd" clip-rule="evenodd" d="M198.883 48.5796C196.465 47.6144 190.689 53.6694 186.137 62.8525C183.932 67.3018 182.436 71.57 182.045 74.6308C182.045 74.6308 189.493 58.9546 194.036 53.2128C195.782 51.0072 198.883 48.5796 198.883 48.5796Z" fill="#E7EAEE"/>
  <path d="M200.152 88.0591C199.974 87.4149 199.308 87.0363 198.663 87.2135C198.018 87.3906 197.639 88.0565 197.816 88.7008C198.044 89.5295 201.253 91.7032 208.253 96.0134L212.671 98.7143C221.394 104.018 227.214 107.412 227.942 107.412C232.757 107.412 237.097 102.874 240.265 95.7137C243.032 89.4615 244.468 82.0193 243.82 77.1423C243.617 75.6201 238.54 71.6797 230.701 66.4005L229.578 65.6488C222.642 61.0338 216.714 57.611 214.57 57.1788C213.914 57.0466 213.275 57.4705 213.143 58.1254C213.06 58.5351 232.177 74.6308 234.044 85.3139C235.309 92.5473 230.528 104.876 228.156 104.988L227.942 104.993C228.134 104.993 228.072 104.948 228.05 104.935L227.831 104.823C227.671 104.738 227.48 104.635 227.26 104.515L226.252 103.952C225.866 103.733 225.437 103.488 224.967 103.216L223.765 102.519C221.47 101.181 218.606 99.4767 215.686 97.7116L212.908 96.0246C209.53 93.9631 206.478 92.0623 204.184 90.5862L203.003 89.8194C202.271 89.3399 201.653 88.9249 201.158 88.5809L200.979 88.4553C200.706 88.2634 200.48 88.0982 200.303 87.9627C200.303 87.9627 200.104 87.8837 200.152 88.0591Z" fill="white"/>
  <path fill-rule="evenodd" clip-rule="evenodd" d="M197.751 63.9157C200.677 57.4252 201.971 51.4772 200.991 47.8752C202.762 48.4374 204.975 49.4475 207.173 50.7066C210.094 52.3806 212.412 54.2516 212.466 54.6578C213.031 58.9036 210.864 67.1636 207.262 74.5276C203.41 82.4044 198.827 87.4638 195.28 87.4638C194.94 87.4638 193.968 87.2636 192.994 86.9236C191.608 86.44 190.31 85.7355 189.246 84.8125C188.717 84.3536 188.17 83.8348 187.598 83.2559L186.909 82.5447C186.503 82.1155 186.083 81.6534 185.429 80.9213L184.518 79.9045L184.478 79.8613C189.042 78.1959 193.816 72.324 197.386 64.7091L197.751 63.9157ZM214.867 54.3391C214.491 51.5071 203.877 45.3859 199.032 44.9889C198.829 44.8616 198.611 44.7513 198.38 44.6588C194.184 42.9841 187.791 50.1577 182.663 60.2512L182.311 60.9518C179.996 65.6216 178.417 70.1274 177.987 73.4977C177.473 77.525 178.64 80.1951 181.7 80.3324C181.782 80.65 181.99 80.9156 182.265 81.0756L182.312 81.0997L182.432 81.219C182.552 81.3421 182.693 81.4949 182.911 81.7373L184.416 83.4152C184.962 84.0164 185.349 84.4242 185.874 84.9551C186.486 85.5757 187.078 86.1363 187.657 86.6391C190.002 88.6736 193.469 89.8834 195.28 89.8834C196.241 89.8834 197.212 89.66 198.186 89.2338C199.226 90.3173 202.425 92.4248 208.253 96.0131L212.671 98.7141C221.394 104.018 227.214 107.412 227.942 107.412C229.591 107.412 231.185 106.88 232.694 105.892C232.708 105.902 232.722 105.911 232.736 105.92L233.353 106.317C235.499 107.706 238.93 110.018 242.113 112.161L242.114 112.162L242.116 112.163L242.312 112.295C241.9 115.233 240.964 118.179 239.498 121.135C234.296 119.529 230.176 118.986 228.987 120.194C227.745 121.457 226.638 123.743 225.589 127.095C225.389 127.733 225.745 128.412 226.383 128.611C227.022 128.81 227.701 128.455 227.901 127.817C228.808 124.918 229.734 122.966 230.61 122.001L230.646 121.964L230.677 121.965C230.843 121.931 231.091 121.914 231.408 121.92C232.106 121.934 233.06 122.057 234.199 122.282C236.543 122.746 239.506 123.609 242.448 124.693C249.173 127.171 254.363 130.242 255.43 132.569C255.742 133.249 255.702 134.246 255.329 135.772L255.26 136.047C255.203 136.263 255.145 136.478 255.069 136.749L254.631 138.295C254.613 138.363 254.595 138.432 254.572 138.519C254.404 139.166 254.793 139.826 255.44 139.994C256.088 140.162 256.749 139.774 256.917 139.127L257.132 138.345L257.49 137.082C257.531 136.933 257.568 136.795 257.604 136.655C258.172 134.469 258.263 132.937 257.632 131.561C256.563 129.228 253.218 126.812 248.559 124.615L249.573 122.001L249.823 121.34C250.206 120.309 250.653 118.911 250.927 117.891C254.566 119.85 257.1 120.178 259.64 118.796L259.837 118.685C260.339 118.395 260.823 118.06 261.311 117.652L275.507 126.264C275.375 126.549 275.242 126.835 275.107 127.123C274.47 128.488 275.593 129.454 277.316 130.206L277.502 130.285C278.983 130.897 280.32 131.038 281.115 130.166C284.416 126.546 287.911 117.889 286.031 115.91C285.67 115.529 284.717 114.963 282.915 114.019L282.772 113.945C282.735 113.919 282.696 113.895 282.655 113.873L269.386 106.692C269.355 106.676 269.325 106.661 269.293 106.647C270.112 105.296 271.009 103.791 272 102.113C272.087 101.975 272.143 101.823 272.169 101.668C272.18 101.603 272.185 101.537 272.185 101.472C272.186 101.137 272.047 100.809 271.792 100.577C269.064 97.992 265.346 95.2969 260.682 92.3949L260.116 92.0449C258.098 90.8021 254.006 88.4704 250.528 86.4894L250.528 86.489L250.527 86.4888C247.83 84.9523 245.504 83.6268 244.803 83.1842L244.633 83.0717C244.38 82.8866 244.079 82.8142 243.79 82.8451C244.02 80.7466 244.04 78.7967 243.82 77.1421C243.618 75.6199 238.54 71.6795 230.701 66.4003L229.578 65.6486C223.007 61.2758 217.34 57.9735 214.939 57.2711C215.003 56.1882 214.982 55.2017 214.867 54.3391ZM214.673 59.7244C217.026 60.5831 222.918 64.0771 229.347 68.4065L230.376 69.104C233.27 71.0758 235.942 72.9983 237.961 74.5651L238.522 75.0046C239.423 75.7177 240.152 76.3322 240.68 76.825C240.945 77.0721 241.154 77.2836 241.302 77.452L241.405 77.5733C241.427 77.5966 241.433 77.5877 241.425 77.5115L241.419 77.4607C241.421 77.4802 241.423 77.4971 241.425 77.5115L241.457 77.7712C242.622 87.981 235.231 104.655 228.156 104.987L227.99 104.991C227.976 104.992 227.96 104.992 227.942 104.992L227.99 104.991C228.123 104.984 228.071 104.946 228.05 104.935L227.832 104.822C227.671 104.738 227.48 104.635 227.26 104.514L226.252 103.951C225.867 103.733 225.437 103.487 224.967 103.216L223.765 102.519C221.47 101.18 218.607 99.4764 215.686 97.7113L212.908 96.0243C209.53 93.9628 206.478 92.062 204.185 90.5859L203.003 89.8191C202.271 89.3396 201.653 88.9246 201.159 88.5807L200.979 88.455C200.718 88.2708 200.498 88.1113 200.325 87.9789C203.444 85.6919 206.516 81.4689 209.243 75.9874L209.439 75.5896C212.067 70.2148 213.968 64.3943 214.673 59.7244ZM243.455 85.191C244.33 85.7406 246.907 87.2107 249.775 88.8465L249.776 88.8467C253.175 90.7854 256.982 92.9568 258.845 94.1045C263.247 96.8153 266.797 99.3282 269.432 101.694L268.56 103.165C264.74 109.566 262.528 112.935 260.749 114.838C261.34 113.438 261.646 111.66 261.646 109.432C261.646 109.329 261.634 109.229 261.609 109.134C261.727 108.671 261.561 108.162 261.152 107.861L260.327 107.249C259.832 106.875 259.018 106.254 258.093 105.548C256.067 104.001 253.507 102.047 252.594 101.394C249.722 99.3387 247.605 98.1855 245.677 97.7853C244.756 97.5941 244.041 98.1383 243.833 98.9809L243.799 99.1342C243.751 99.385 243.742 99.6317 243.743 100.17L243.744 100.341C243.754 102.354 243.554 103.516 242.701 104.858C242.117 105.776 241.258 106.614 240.062 107.365C239.937 107.443 239.832 107.541 239.746 107.651C237.817 106.357 236.01 105.154 234.677 104.291C236.778 102.26 238.671 99.319 240.266 95.7134C241.752 92.3553 242.854 88.6539 243.455 85.191ZM180.39 73.8039C180.78 70.7431 182.276 66.4749 184.482 62.0256C189.034 52.8425 195.063 45.9406 197.481 46.9058C199.819 47.8389 199.208 54.4813 195.846 62.2353L195.543 62.9223C191.692 71.4627 186.187 77.7791 182.073 77.9164C180.591 77.9658 180.013 76.7574 180.39 73.8039ZM268.042 108.693C265.941 112.086 264.406 114.328 263.068 115.887L276.526 124.052C277.904 121.033 279.137 118.223 280.334 115.369L268.232 108.82C268.164 108.783 268.1 108.74 268.042 108.693ZM241.821 121.899C243.127 119.201 244.029 116.495 244.525 113.784C246.264 114.953 247.777 115.965 248.75 116.597C248.583 117.431 247.964 119.413 247.43 120.822L246.436 123.377L246.342 123.627C245.365 123.215 244.344 122.813 243.286 122.423L242.587 122.169C242.33 122.077 242.075 121.987 241.821 121.899ZM241.865 109.075C243.105 108.216 244.056 107.239 244.745 106.156C245.861 104.402 246.153 102.905 246.166 100.642L246.167 100.44L246.338 100.504C247.566 100.98 249.032 101.842 250.873 103.14L251.183 103.361C252.06 103.988 254.555 105.892 256.567 107.428L256.568 107.429C257.687 108.283 258.656 109.023 259.116 109.367L259.224 109.447C259.222 113.471 258.216 115.318 256.345 116.214L256.196 116.283C255.75 116.48 255.432 116.579 254.523 116.828C254.504 116.833 254.486 116.838 254.469 116.844C253.525 116.527 252.444 115.998 251.153 115.242L250.672 114.953C249.606 114.289 246.744 112.361 243.595 110.241L243.591 110.238C243.022 109.854 242.444 109.465 241.865 109.075ZM282.474 116.526L282.288 116.967C281.002 120.014 279.665 123.031 278.148 126.322L277.558 127.598C277.751 127.728 278.006 127.866 278.285 127.988C278.687 128.163 279.095 128.286 279.401 128.327L279.499 128.337L279.646 128.161C280.793 126.751 282.123 124.355 283.085 121.973C283.597 120.704 283.962 119.54 284.126 118.646C284.193 118.281 284.224 117.975 284.222 117.743L284.215 117.59C284.212 117.553 284.212 117.534 284.221 117.531L284.185 117.507C283.98 117.365 283.457 117.06 282.68 116.638L282.474 116.526ZM265.767 113.861C266.235 113.384 267.002 113.376 267.48 113.844C268.32 114.667 269.497 115.434 271.553 116.574L273.645 117.733C274.197 118.048 274.65 118.319 275.06 118.585C275.402 118.807 275.709 119.021 275.984 119.233C276.513 119.642 276.61 120.402 276.201 120.93C275.792 121.459 275.032 121.556 274.502 121.148C274.284 120.979 274.031 120.802 273.742 120.615C273.474 120.441 273.18 120.262 272.84 120.063L272.173 119.682L270.047 118.506C268.006 117.361 266.775 116.543 265.783 115.571C265.306 115.104 265.298 114.338 265.767 113.861Z" fill="#748AA1"/>
  <path d="M292.859 236.718C286.802 270.449 264.101 295.806 235.134 301.784C229.817 302.882 220.61 303.026 211.075 301.793C198.791 300.205 186.836 296.563 176.322 290.659C147.44 275.153 125.523 243.508 122.683 215.806C120.187 191.473 129.494 168.993 146.342 152.957C146.342 152.957 199.266 178.922 225.246 193.681C247.854 206.524 292.859 236.718 292.859 236.718Z" fill="white"/>
  <path d="M169.604 136.132C180.46 130.782 194.061 126.555 207.398 125.874C256.312 123.376 294.783 162.408 295.184 212.753C295.184 212.753 240.59 178.018 212.227 161.259C198.117 152.922 169.604 136.132 169.604 136.132Z" fill="white"/>
  <path fill-rule="evenodd" clip-rule="evenodd" d="M68.9933 110.474C69.1579 118.885 78.0688 132.885 92.3928 148.728C102.769 160.204 114.843 171.297 124.967 178.772L125.597 179.233L125.179 181.091C122.716 191.868 119.503 203.584 120.717 215.399C123.664 244.076 146.12 276.429 175.794 292.324C186.617 298.389 198.919 302.129 211.538 303.757L212.741 303.906C222.15 305.013 231.154 304.829 236.657 303.696C258.014 299.298 276.096 284.385 287.028 262.802C287.065 262.729 287.094 262.655 287.115 262.579C288.554 263.399 290.491 264.316 291.375 264.616L293.798 265.433C319.908 274.205 345.793 281.545 356.368 276.964C360.393 275.22 361.769 271.867 360.085 267.361C358.449 262.983 353.913 257.34 346.302 250.319L345.884 249.935C338.672 243.331 322.656 231.264 297.836 213.734L297.83 213.412C296.619 161.468 256.225 121.87 205.452 125.102C189.922 126.091 177.554 131.603 171.377 134.988L168.66 133.532C143.181 119.924 122.737 110.358 107.139 104.633C81.4875 95.2172 68.8017 99.6195 68.9933 110.474ZM106.304 110.212C134.987 120.741 180.318 144.42 243.432 182.509L245.35 183.668C294.496 213.385 327.039 235.962 344.247 251.718L345.095 252.5L345.899 253.253C358.816 265.444 361.106 272.274 355.404 274.744C345.642 278.972 319.427 271.844 293.755 263.433L291.375 262.649C289.085 261.891 287.567 261.456 286.627 261.255C286.586 261.226 286.541 261.199 286.494 261.176C286.173 261.013 285.814 261.007 285.503 261.13C285.436 261.142 285.392 261.163 285.369 261.192C285.16 261.305 284.982 261.481 284.867 261.709C274.254 282.661 256.767 295.429 236.168 299.672C230.82 300.773 221.799 300.934 212.412 299.774L211.848 299.703C199.52 298.113 187.512 296.116 176.959 290.203C147.961 274.669 125.99 243.015 123.126 215.152C121.903 203.244 123.464 191.555 127.616 180.676C127.959 180.916 128.299 181.15 128.636 181.38C129.274 181.814 129.036 181.111 127.922 179.27C127.863 179.03 127.731 178.812 127.54 178.647L127.197 178.105C127.077 177.916 126.951 177.719 126.819 177.514L125.383 176.305C111.853 164.875 101.456 155.141 94.1903 147.106L93.361 146.184C79.9181 131.157 71.562 117.884 71.4242 110.429C71.2729 102.25 82.0752 101.319 106.304 110.212ZM227.926 263.211C224.676 273.133 229.592 279.513 238.247 279.843C246.243 280.148 253.524 275.115 253.153 267.963C252.833 261.782 248.595 255.174 243.379 252.747C237.07 249.812 231.149 253.373 227.926 263.211ZM242.1 255.489C246.275 257.431 249.865 263.03 250.129 268.12C250.392 273.188 244.783 277.066 238.362 276.821C231.649 276.565 228.203 272.092 230.804 264.152C233.512 255.885 237.629 253.409 242.1 255.489ZM161.853 242.995C157.707 250.821 158.793 258.51 165.168 261.956L165.347 262.05L165.44 262.142C173.99 270.599 184.671 271.625 191.636 265.495L191.875 265.281C199.898 257.94 197.987 245.326 185.22 235.439C177.004 229.075 166.967 233.342 161.853 242.995ZM183.63 237.488C195.22 246.464 196.849 257.214 190.122 263.37C185.297 267.785 178.168 268.029 171.51 263.744L171.38 263.657L171.428 263.648C171.889 263.526 172.259 263.154 172.364 262.67L172.385 262.547C172.469 261.836 171.96 261.191 171.249 261.107C169.621 260.914 168.208 260.522 167.01 259.96L166.846 259.88L166.648 259.675C165.867 258.854 165.104 257.96 164.364 256.993L164.119 256.668C163.841 256.297 163.403 256.117 162.973 256.151L162.939 256.155L162.922 256.123C161.367 253.053 161.736 248.895 164.011 244.468L164.147 244.207C168.594 235.814 176.906 232.28 183.63 237.488ZM106.448 144.458C107.114 146.825 109.144 150.073 112.256 153.919C117.681 160.625 125.829 168.43 132.952 173.767L131.372 172.031C131.387 172.017 131.401 171.999 131.412 171.977L131.958 170.977C135.522 164.478 139.493 158.068 145.91 152.842C162.522 159.684 181.569 169.035 198.922 178.813L204.61 182.025C246.496 205.726 268.534 219.915 292.1 237.358C291.21 241.359 290.09 245.264 288.747 249.047C288.537 249.641 291.289 251.863 291.793 251.588C296.494 254.735 303.855 257.02 308.046 257.139C312.131 257.254 314.491 255.603 313.275 252.31C312.258 249.555 308.427 245.626 301.533 240.36L300.747 239.764L299.158 238.571C273.211 219.168 247.525 203.422 200.112 176.706L198.127 175.594C165.609 157.462 127.951 141.127 110.703 139.62C107.158 139.31 105.55 141.27 106.448 144.458ZM295.256 239.705L300.692 243.803C305.542 247.476 309.038 250.193 310.927 251.935L311.065 252.064C313.37 254.224 310.761 254.795 308.116 254.72C304.108 254.606 297.97 251.571 292.773 248.808C293.734 245.837 294.562 242.799 295.256 239.705ZM210.221 226.569C209.572 226.734 209.18 227.392 209.345 228.039C209.509 228.687 210.168 229.079 210.817 228.914C214.074 228.088 215.998 228.405 216.622 229.281C217.036 229.863 216.807 230.854 216.032 231.486C215.427 231.981 214.621 232.217 214.067 232.097C213.585 231.992 213.315 231.621 213.315 230.692C213.315 230.023 212.773 229.482 212.104 229.482C211.435 229.482 210.893 230.023 210.893 230.692C210.893 232.712 211.904 234.103 213.552 234.461C214.876 234.749 216.419 234.296 217.566 233.359C219.259 231.976 219.812 229.587 218.595 227.879C217.262 226.006 214.339 225.525 210.221 226.569ZM263.424 222.128C261.556 222.687 260.752 224.12 260.498 226.269L260.473 226.502L260.442 226.855C260.438 226.914 260.434 226.975 260.43 227.04L260.366 228.268L260.347 228.544C260.337 228.666 260.326 228.766 260.314 228.854L260.281 229.039L260.262 229.12L260.228 229.15C259.854 229.516 259.755 230.089 259.997 230.562L260.059 230.67C260.421 231.231 261.171 231.393 261.733 231.031C262.506 230.532 262.682 230.019 262.776 228.548L262.853 227.107C262.862 226.977 262.871 226.865 262.884 226.737C263.022 225.328 263.365 224.671 264.119 224.446C266.235 223.813 267.449 224.459 267.834 225.871C268.176 227.13 267.681 228.453 266.813 228.82L266.593 228.902C266.025 229.144 265.725 229.782 265.916 230.381C266.119 231.018 266.801 231.369 267.438 231.166C269.744 230.432 270.84 227.695 270.171 225.237C269.424 222.493 266.827 221.11 263.424 222.128ZM176.041 203.603C172.687 208.313 173.311 214.306 178.692 217.018C179.289 217.319 180.018 217.079 180.319 216.483C180.62 215.886 180.381 215.158 179.783 214.857C175.887 212.894 175.442 208.619 178.015 205.005C180.515 201.495 183.994 201.109 186.385 204.902C188.92 208.923 188.736 211.283 186.911 212.346C185.462 213.19 183.129 213.013 182.488 212.323L182.426 212.247C182.038 211.703 181.281 211.576 180.737 211.963C180.192 212.351 180.064 213.106 180.452 213.65C181.799 215.54 185.641 215.887 188.131 214.437C191.319 212.58 191.624 208.671 188.435 203.613C185.021 198.197 179.451 198.815 176.041 203.603ZM226.258 196.666C225.628 196.666 225.111 197.146 225.052 197.759L225.046 197.876C225.046 198.089 224.848 198.327 224.137 198.847L223.465 199.329C222.732 199.863 222.378 200.195 222.044 200.722C221.281 201.928 220.848 203.156 220.848 204.6C220.848 208.298 226.408 213.327 232.478 215.565C239.755 218.247 245.716 216.258 247.338 208.8C247.48 208.147 247.065 207.502 246.412 207.361C245.758 207.219 245.113 207.633 244.971 208.286C243.712 214.074 239.365 215.524 233.317 213.295C228.094 211.369 223.27 207.006 223.27 204.6C223.27 203.67 223.554 202.865 224.092 202.016L224.164 201.913C224.288 201.758 224.481 201.589 224.828 201.332L225.627 200.757C226.955 199.779 227.469 199.119 227.469 197.876C227.469 197.207 226.927 196.666 226.258 196.666ZM220.572 129.61L221.337 129.696C262.667 134.661 293.671 167.68 295.362 211.989L290.928 208.873C278.2 199.948 263.425 189.754 246.605 178.29L243.328 176.312C233.543 170.415 224.187 164.866 215.256 159.66C215.419 159.374 215.465 159.024 215.354 158.687C214.73 156.783 214.153 155.504 213.096 154.222C209.786 150.212 205.253 148.254 202.04 150.772C201.724 151.019 201.565 151.393 201.578 151.766L198.724 150.14C189.739 145.031 181.237 140.312 173.213 135.978L176.348 135.087C180.995 133.78 186.778 132.231 192.537 131.037C192.485 134.866 195.354 137.923 200.12 140.026C204.172 141.813 209.452 142.775 213.206 142.551C220.23 142.133 224.183 135.98 220.572 129.61ZM148.073 182.15C145.109 190.238 147.554 197.593 154.955 197.546C165.499 197.477 175.796 188.28 174.131 180.042C173.388 176.366 170.623 173.115 165.812 171.493C158.131 168.901 151.09 173.916 148.073 182.15ZM165.038 173.785C169.013 175.126 171.182 177.675 171.757 180.52C173.078 187.059 164.113 195.066 154.939 195.126C149.684 195.16 147.877 189.724 150.347 182.981C152.962 175.846 158.807 171.683 165.038 173.785ZM254.098 145.145L254.011 145.27L253.428 146.196C253.143 146.666 252.887 147.127 252.644 147.624C249.961 153.103 250.031 160.284 254.57 170.253C256.627 174.77 261.866 180.839 266.441 184.461C272.282 189.086 276.644 190.136 281.85 189.565L283.395 189.384L283.583 189.367C283.687 189.359 283.753 189.358 283.825 189.361L283.931 189.365C284.012 189.369 284.04 189.365 284.044 189.354L284.045 189.346L284.083 189.409C284.435 189.912 285.117 190.078 285.665 189.773C286.25 189.448 286.46 188.712 286.135 188.128C285.699 187.346 284.972 186.992 284.046 186.948C283.801 186.937 283.541 186.945 283.232 186.971L282.871 187.006L281.872 187.127C277.13 187.701 273.357 186.849 267.945 182.565C263.648 179.163 258.653 173.376 256.775 169.252C252.527 159.923 252.465 153.497 254.82 148.687C254.977 148.367 255.14 148.063 255.317 147.757L255.571 147.334L256.079 146.532C256.434 145.966 256.263 145.219 255.696 144.864C255.165 144.531 254.475 144.661 254.098 145.145ZM110.492 142.03C118.235 142.707 130.373 146.527 144.366 152.21L143.957 152.572C140.063 156.062 132.206 164.337 129.746 170.24L127.297 167.527C121.252 160.811 116.867 155.769 114.14 152.398L113.588 151.707C110.983 148.404 109.298 145.644 108.779 143.802L108.706 143.523C108.383 142.193 108.757 141.879 110.492 142.03ZM226.465 145.96C223.45 147.416 222.227 150.657 224.21 153.595C224.584 154.149 225.337 154.295 225.891 153.922C226.446 153.549 226.592 152.797 226.219 152.243C225.128 150.626 225.743 148.996 227.519 148.139C229.389 147.235 231.439 147.755 232.496 149.727C233.471 151.543 233.538 154.003 232.759 155.614C232.076 157.028 231.082 157.299 229.565 156.159C229.031 155.757 228.272 155.864 227.869 156.398C227.467 156.932 227.574 157.69 228.109 158.092C230.873 160.17 233.609 159.424 234.941 156.665C236.058 154.353 235.969 151.078 234.631 148.584C232.925 145.402 229.446 144.52 226.465 145.96ZM211.226 155.761C211.791 156.445 212.194 157.167 212.568 158.094C209.447 156.283 206.379 154.513 203.364 152.786L203.451 152.735L203.536 152.675C205.385 151.225 208.645 152.633 211.226 155.761ZM216.392 129.24L217.451 129.314L217.522 129.404C221.709 134.689 220.096 138.979 214.378 139.588C210.272 140.026 199.37 136.982 198.092 135.914C196.846 134.874 195.271 132.481 195.028 130.543C198.728 129.848 202.347 129.338 205.575 129.173C208.874 129.004 212.128 129.008 215.327 129.178L216.392 129.24Z" fill="#748AA1"/>
  <path d="M107.038 110.512C81.3867 101.096 81.9746 103.89 106.203 112.783C134.886 123.311 243.159 189.282 243.159 189.282C292.304 218.999 295.981 214.412 248.346 185.495L245.409 183.716C244.856 183.381 190.623 149.191 151.87 130.899C147.509 128.841 109.959 111.584 107.038 110.512Z" fill="white"/>
  <path fill-rule="evenodd" clip-rule="evenodd" d="M62.7467 63.637C70.6953 63.231 76.8997 69.401 76.964 77.4736C77.0179 84.2373 73.1334 89.9803 67.5673 91.1265C66.1009 91.4285 61.8713 91.4285 58.2025 89.3727L57.8987 89.2054C53.2726 86.589 50.1261 81.6114 49.7053 77.5167C48.9592 70.2571 54.7981 64.0429 62.7467 63.637ZM75.2339 77.4874C75.2335 77.4354 75.2328 77.3835 75.2318 77.3317C75.1823 77.3158 75.1336 77.2951 75.0862 77.2696C68.8544 73.9164 65.0071 71.361 63.4711 69.5158C62.4569 68.2974 61.9622 66.9232 62.0023 65.43C60.9558 65.5455 59.9582 65.775 59.0231 66.1035C59.0286 66.1482 59.0307 66.194 59.0291 66.2404C58.9532 68.3891 59.5266 70.1068 60.7456 71.4441C62.1466 72.9811 63.8439 74.4437 65.7735 75.8229C67.8365 77.2975 70.0517 78.5996 72.2671 79.7143C72.7839 79.9744 73.2759 80.2115 73.7373 80.4253L74.406 80.7282C74.5019 80.7707 74.5908 80.8097 74.6724 80.8451L74.8717 80.9288C75.117 79.839 75.2434 78.6842 75.2339 77.4874ZM74.3854 82.5994C73.8376 84.1169 73.0441 85.4618 72.0618 86.5571L71.5452 86.2602C63.4125 81.5571 58.3639 77.8625 56.4531 75.2562C54.521 72.6209 53.8323 70.5976 54.2645 69.2217C54.2747 69.1891 54.2829 69.1564 54.2891 69.1237C55.1402 68.2314 56.153 67.4643 57.2949 66.859C57.3435 69.1429 58.0664 71.0719 59.4662 72.6076C60.9557 74.2418 62.7437 75.7825 64.7666 77.2284C66.9085 78.7594 69.1987 80.1056 71.4887 81.2578C72.1567 81.594 72.7853 81.8935 73.3639 82.1555L74.0383 82.454L74.3854 82.5994ZM67.9087 89.2599C68.9305 88.9548 69.8823 88.454 70.7392 87.7911C62.3674 82.9543 57.1582 79.1432 55.0571 76.2773C53.7535 74.4992 52.9201 72.9003 52.5815 71.4734C52.1605 72.2591 51.8412 73.0967 51.6366 73.9719C51.6805 74.061 51.7097 74.1593 51.7206 74.2639C51.9316 76.2842 52.974 78.2894 54.8801 80.2865C56.7095 82.203 60.6576 84.9685 66.6904 88.5437L67.9087 89.2599ZM64.984 89.5395C63.1269 89.4216 60.8553 88.8776 59.0203 87.8496C55.6067 86.021 52.8658 82.5773 51.8305 79.2589C52.331 80.0083 52.9305 80.7485 53.6279 81.4791C55.5065 83.4472 59.2819 86.1227 64.984 89.5395ZM74.7306 75.1089L75.0385 75.2762C74.0566 69.5655 69.489 65.4676 63.7371 65.3491C63.676 66.4712 64.0251 67.4781 64.8015 68.4108C66.0565 69.9183 69.386 72.1748 74.7306 75.1089Z" fill="#748AA1"/>
  <path fill-rule="evenodd" clip-rule="evenodd" d="M0.290536 47.078C0.128946 47.0965 0.0165172 47.2423 0.034723 47.4024C0.0355952 47.6382 0.187542 47.7657 0.391779 47.8486C0.576059 47.9224 0.869877 47.8941 1.04105 47.9173C2.91479 48.0617 4.38737 46.6846 5.03504 44.9098C5.65754 43.2048 5.49202 41.1661 4.36204 39.9087C4.23202 39.7605 4.00684 39.7456 3.85846 39.8755C3.71007 40.0054 2.86712 40.2311 2.99714 40.3793C3.92872 41.4655 4.55905 42.1245 3.68034 44.7026C2.80164 47.2807 0.410698 47.0641 0.290536 47.078Z" fill="#E7EAEE"/>
  <path fill-rule="evenodd" clip-rule="evenodd" d="M298.597 65.5362C299.09 65.1986 299.763 65.3235 300.101 65.8153C300.439 66.3071 300.314 66.9795 299.821 67.3172C299.28 67.6883 298.802 68.0309 298.38 68.3492C298.835 68.7105 299.289 69.1243 299.761 69.5955L300.717 70.5657C301.137 70.9894 301.134 71.6733 300.71 72.0933C300.286 72.5133 299.601 72.5103 299.181 72.0866L298.033 70.9281C297.566 70.4737 297.128 70.0936 296.688 69.7778C295.711 70.7457 295.413 71.4557 295.397 72.1614L295.397 72.3424L295.391 72.4528C295.336 72.9975 294.876 73.4226 294.316 73.4226C293.718 73.4226 293.234 72.939 293.234 72.3424L293.234 72.13C293.255 71.0298 293.643 69.9834 294.689 68.7876C293.998 68.582 293.219 68.4669 292.275 68.4176C291.678 68.3865 291.22 67.8783 291.251 67.2826C291.283 66.6868 291.791 66.2291 292.388 66.2602C294.028 66.3458 295.302 66.6187 296.437 67.1374C296.911 66.7501 297.449 66.3437 298.056 65.9135L298.597 65.5362Z" fill="#748AA1"/>
  <path fill-rule="evenodd" clip-rule="evenodd" d="M136.56 302.229L135.809 302.233C131.617 302.272 128.34 302.649 122.17 303.639C121.462 303.752 120.981 304.417 121.094 305.124C121.208 305.831 121.874 306.312 122.581 306.198L124.604 305.881C129.709 305.098 132.651 304.822 136.56 304.822C150.122 304.822 158.779 313.302 157.314 326.308C157.234 327.019 157.746 327.661 158.458 327.741C159.171 327.821 159.813 327.309 159.893 326.597C161.541 311.97 151.596 302.229 136.56 302.229ZM126.057 307.463L126.183 307.352C126.305 307.246 126.494 307.261 126.597 307.384C126.704 307.507 126.687 307.692 126.565 307.797L126.434 307.908C126.312 308.013 126.128 307.999 126.021 307.876C125.918 307.753 125.931 307.568 126.057 307.463ZM149.572 310.174C150.038 309.8 150.719 309.875 151.093 310.34C152.603 312.217 153.704 314.047 154.391 315.833C155.059 317.57 155.287 320.489 155.114 324.662L155.072 325.543C155.041 326.139 154.532 326.596 153.935 326.565C153.339 326.533 152.881 326.025 152.912 325.429C153.142 321.069 152.946 318.099 152.372 316.608C151.771 315.045 150.785 313.405 149.407 311.693C149.033 311.228 149.107 310.548 149.572 310.174ZM137.77 306.601C137.24 306.326 136.587 306.533 136.313 307.063C136.038 307.593 136.245 308.245 136.775 308.519C138.972 309.656 140.649 311.561 141.818 314.277C143.073 317.192 144.1 319.794 144.898 322.08C145.095 322.643 145.712 322.941 146.276 322.744C146.84 322.547 147.137 321.932 146.941 321.368C146.124 319.031 145.079 316.383 143.805 313.424C142.446 310.266 140.431 307.978 137.77 306.601ZM131.483 306.544C131.877 306.095 132.56 306.05 133.009 306.443C134.814 308.023 136.201 309.459 137.172 310.762C138.135 312.056 139.264 313.991 140.57 316.579C140.839 317.112 140.624 317.761 140.091 318.03C139.558 318.298 138.908 318.084 138.639 317.552C137.384 315.065 136.312 313.227 135.437 312.052C134.568 310.886 133.283 309.555 131.584 308.068C131.135 307.675 131.09 306.992 131.483 306.544ZM135.431 318.742C135.881 319.135 136.564 319.09 136.957 318.642C137.351 318.193 137.306 317.51 136.857 317.117C135.158 315.63 133.873 314.299 133.004 313.133C132.128 311.958 131.057 310.12 129.802 307.634C129.533 307.101 128.883 306.887 128.35 307.155C127.816 307.424 127.602 308.073 127.871 308.606C129.177 311.194 130.305 313.129 131.269 314.423C132.24 315.726 133.626 317.163 135.431 318.742ZM143.619 307.481C144.111 307.142 144.784 307.265 145.124 307.756C147.541 311.254 149.085 313.867 149.768 315.642C150.453 317.423 150.926 319.824 151.201 322.859C151.254 323.453 150.816 323.978 150.221 324.032C149.626 324.086 149.1 323.648 149.047 323.053C148.789 320.201 148.352 317.984 147.749 316.416C147.187 314.955 145.877 312.701 143.83 309.692L143.344 308.984C143.005 308.493 143.128 307.82 143.619 307.481Z" fill="#748AA1"/>
  <path fill-rule="evenodd" clip-rule="evenodd" d="M164.149 301.111L163.403 302.765L161.705 303.252C161.613 303.279 161.56 303.375 161.586 303.466C161.594 303.495 161.609 303.52 161.63 303.541L162.921 304.824L162.849 306.671C162.845 306.767 162.919 306.847 163.015 306.851C163.047 306.852 163.079 306.844 163.107 306.828L164.568 305.997C164.614 305.971 164.669 305.967 164.718 305.987L166.281 306.607C166.369 306.642 166.47 306.599 166.505 306.51C166.517 306.48 166.52 306.447 166.515 306.415L166.186 304.596L167.285 303.146C167.343 303.07 167.328 302.962 167.251 302.904C167.228 302.886 167.2 302.875 167.171 302.871L165.421 302.625L164.453 301.09C164.402 301.009 164.295 300.985 164.214 301.036C164.185 301.054 164.162 301.08 164.149 301.111Z" fill="#748AA1"/>
  <path fill-rule="evenodd" clip-rule="evenodd" d="M103.974 69.5318C103.576 69.8843 103.079 70.52 102.641 71.2082L102.076 70.9577L101.409 70.6721C101.275 70.6108 101.188 70.5629 101.162 70.524C101.085 70.381 100.907 70.3266 100.763 70.4025C100.622 70.4782 100.565 70.6556 100.642 70.7983C100.695 70.934 101.069 71.3596 101.766 71.7759C101.892 71.8514 102.031 71.9216 102.181 71.99C101.924 72.4696 101.722 72.933 101.628 73.3046C101.485 73.8526 101.599 74.2408 101.787 74.3773C101.971 74.5122 102.434 74.5374 103.139 73.953C103.269 73.8543 103.289 73.67 103.191 73.542C103.093 73.4143 102.909 73.3907 102.779 73.4894C102.645 73.5881 102.51 73.6441 102.4 73.6845L102.454 73.4748C102.475 73.3999 102.5 73.3217 102.536 73.2454C102.662 72.9695 102.823 72.6544 103.003 72.3308C103.555 72.5388 104.182 72.7273 104.859 72.8181C105.189 72.8624 105.526 72.8711 105.875 72.8682C106.076 72.8815 106.251 72.7291 106.264 72.5279C106.277 72.3271 106.124 72.1531 105.924 72.1399C105.108 72.0614 104.355 71.8558 103.69 71.6245L103.472 71.5462C103.832 70.9844 104.217 70.4741 104.548 70.1861C104.727 70.0279 104.745 69.7526 104.588 69.5723C104.427 69.3912 104.153 69.3731 103.974 69.5318Z" fill="#748AA1"/>
  <path fill-rule="evenodd" clip-rule="evenodd" d="M231.668 344.114C232.16 343.776 232.834 343.901 233.172 344.393C233.51 344.885 233.385 345.557 232.892 345.895C232.351 346.266 231.873 346.609 231.451 346.927C231.906 347.288 232.36 347.702 232.832 348.173L233.788 349.144C234.209 349.567 234.206 350.251 233.781 350.671C233.357 351.091 232.673 351.088 232.252 350.664L231.105 349.506C230.637 349.051 230.2 348.671 229.759 348.355C228.781 349.323 228.484 350.033 228.468 350.739L228.468 350.92L228.462 351.031C228.407 351.575 227.946 352 227.386 352C226.789 352 226.305 351.517 226.305 350.92L226.305 350.708C226.325 349.608 226.714 348.561 227.76 347.365C227.069 347.16 226.29 347.045 225.346 346.996C224.75 346.964 224.292 346.456 224.323 345.86C224.354 345.265 224.863 344.807 225.459 344.838C227.099 344.924 228.373 345.197 229.508 345.715C229.982 345.328 230.52 344.921 231.127 344.491L231.668 344.114Z" fill="#748AA1"/>
  <path fill-rule="evenodd" clip-rule="evenodd" d="M231.668 344.114C232.16 343.776 232.834 343.901 233.172 344.393C233.51 344.885 233.385 345.557 232.892 345.895C232.351 346.266 231.873 346.609 231.451 346.927C231.906 347.288 232.36 347.702 232.832 348.173L233.788 349.144C234.209 349.567 234.206 350.251 233.781 350.671C233.357 351.091 232.673 351.088 232.252 350.664L231.105 349.506C230.637 349.051 230.2 348.671 229.759 348.355C228.781 349.323 228.484 350.033 228.468 350.739L228.468 350.92L228.462 351.031C228.407 351.575 227.946 352 227.386 352C226.789 352 226.305 351.517 226.305 350.92L226.305 350.708C226.325 349.608 226.714 348.561 227.76 347.365C227.069 347.16 226.29 347.045 225.346 346.996C224.75 346.964 224.292 346.456 224.323 345.86C224.354 345.265 224.863 344.807 225.459 344.838C227.099 344.924 228.373 345.197 229.508 345.715C229.982 345.328 230.52 344.921 231.127 344.491L231.668 344.114Z" fill="#748AA1"/>
  <path fill-rule="evenodd" clip-rule="evenodd" d="M194.709 314.521L193.964 316.175L192.265 316.662C192.174 316.689 192.12 316.784 192.147 316.876C192.155 316.904 192.17 316.93 192.191 316.951L193.482 318.234L193.409 320.081C193.406 320.177 193.48 320.257 193.576 320.261C193.608 320.262 193.64 320.254 193.668 320.238L195.129 319.407C195.175 319.381 195.23 319.377 195.279 319.397L196.841 320.017C196.93 320.052 197.031 320.008 197.066 319.92C197.078 319.89 197.081 319.857 197.075 319.825L196.747 318.006L197.846 316.556C197.903 316.48 197.888 316.371 197.812 316.314C197.789 316.296 197.761 316.285 197.732 316.28L195.982 316.034L195.013 314.5C194.963 314.419 194.856 314.395 194.775 314.446C194.746 314.464 194.723 314.49 194.709 314.521Z" fill="#748AA1"/>
  <path fill-rule="evenodd" clip-rule="evenodd" d="M288.46 303.155L287.194 304.455L285.43 304.332C285.335 304.326 285.252 304.398 285.246 304.493C285.244 304.522 285.249 304.552 285.262 304.578L286.035 306.225L285.335 307.936C285.299 308.024 285.341 308.125 285.429 308.161C285.459 308.174 285.492 308.177 285.524 308.172L287.182 307.89C287.233 307.881 287.286 307.896 287.326 307.931L288.582 309.048C288.653 309.111 288.763 309.105 288.826 309.033C288.848 309.009 288.862 308.98 288.867 308.948L289.181 307.126L290.711 306.139C290.791 306.087 290.814 305.98 290.762 305.9C290.746 305.875 290.724 305.855 290.698 305.841L289.138 305.012L288.753 303.239C288.733 303.146 288.641 303.087 288.548 303.107C288.514 303.114 288.484 303.131 288.46 303.155Z" fill="#748AA1"/>
  <path fill-rule="evenodd" clip-rule="evenodd" d="M308.24 184.7L307.495 186.354L305.796 186.841C305.704 186.868 305.651 186.964 305.677 187.055C305.685 187.084 305.701 187.109 305.722 187.13L307.012 188.413L306.94 190.26C306.936 190.356 307.011 190.436 307.106 190.44C307.138 190.441 307.17 190.433 307.198 190.417L308.66 189.586C308.705 189.56 308.76 189.556 308.809 189.576L310.372 190.196C310.461 190.231 310.561 190.188 310.596 190.099C310.608 190.069 310.612 190.036 310.606 190.004L310.277 188.185L311.376 186.735C311.434 186.659 311.419 186.551 311.343 186.493C311.319 186.475 311.292 186.464 311.262 186.46L309.512 186.214L308.544 184.679C308.493 184.598 308.386 184.574 308.305 184.625C308.277 184.643 308.254 184.669 308.24 184.7Z" fill="#748AA1"/>
  <path fill-rule="evenodd" clip-rule="evenodd" d="M308.413 186.348L308.097 187.051L307.375 187.257C307.336 187.269 307.313 187.309 307.325 187.348C307.328 187.36 307.335 187.371 307.343 187.38L307.892 187.925L307.861 188.71C307.859 188.75 307.891 188.784 307.932 188.786C307.945 188.786 307.959 188.783 307.971 188.776L308.591 188.423C308.611 188.412 308.634 188.411 308.655 188.419L309.319 188.682C309.356 188.697 309.399 188.679 309.414 188.641C309.419 188.628 309.421 188.614 309.418 188.601L309.278 187.828L309.745 187.212C309.77 187.18 309.763 187.134 309.731 187.109C309.721 187.102 309.709 187.097 309.697 187.095L308.954 186.991L308.542 186.339C308.521 186.305 308.475 186.294 308.441 186.316C308.429 186.324 308.419 186.335 308.413 186.348Z" fill="#E7EAEE"/>
  <path fill-rule="evenodd" clip-rule="evenodd" d="M396.828 257.274L396.083 258.928L394.385 259.415C394.293 259.442 394.24 259.537 394.266 259.629C394.274 259.657 394.289 259.683 394.31 259.704L395.601 260.987L395.529 262.834C395.525 262.93 395.599 263.01 395.695 263.014C395.727 263.015 395.759 263.007 395.787 262.991L397.248 262.16C397.294 262.134 397.349 262.13 397.398 262.15L398.96 262.77C399.049 262.805 399.15 262.761 399.185 262.673C399.197 262.643 399.2 262.61 399.195 262.578L398.866 260.759L399.965 259.309C400.023 259.233 400.008 259.124 399.931 259.067C399.908 259.049 399.88 259.038 399.851 259.033L398.101 258.787L397.133 257.253C397.082 257.172 396.975 257.148 396.894 257.199C396.865 257.217 396.842 257.243 396.828 257.274Z" fill="#748AA1"/>
  <path fill-rule="evenodd" clip-rule="evenodd" d="M321.955 108.743L321.414 109.121C320.807 109.551 318.539 111.686 318.065 112.073C316.931 111.554 315.656 111.28 314.016 111.195C313.419 111.164 312.911 111.621 312.879 112.217C312.848 112.813 313.306 113.321 313.903 113.352C314.848 113.402 315.627 113.517 316.319 113.723C315.271 114.919 314.883 115.965 314.862 117.065L314.862 117.278C314.862 117.874 315.346 118.358 315.944 118.358C316.504 118.358 316.964 117.933 317.019 117.388L317.025 117.278L317.025 117.097C317.041 116.391 317.339 115.681 318.316 114.713C318.757 115.029 319.194 115.408 319.661 115.863L320.809 117.021C321.229 117.445 321.914 117.448 322.338 117.028C322.762 116.608 322.765 115.924 322.345 115.5L321.389 114.53C320.917 114.059 320.463 113.645 320.009 113.284C320.807 111.465 323.797 109.514 323.459 109.022C323.121 108.531 322.448 108.406 321.955 108.743Z" fill="#748AA1"/>
  <path fill-rule="evenodd" clip-rule="evenodd" d="M113.309 233.32L111.836 234.38L110.121 233.953C110.028 233.93 109.934 233.987 109.911 234.079C109.904 234.108 109.904 234.138 109.912 234.166L110.387 235.922L109.4 237.486C109.349 237.566 109.373 237.673 109.454 237.724C109.482 237.741 109.513 237.75 109.546 237.751L111.227 237.761C111.28 237.761 111.329 237.785 111.362 237.826L112.405 239.144C112.464 239.218 112.573 239.231 112.648 239.172C112.673 239.152 112.692 239.125 112.703 239.095L113.329 237.355L115.007 236.648C115.095 236.611 115.136 236.51 115.099 236.422C115.088 236.395 115.069 236.371 115.046 236.353L113.654 235.266L113.583 233.453C113.58 233.358 113.499 233.283 113.404 233.287C113.37 233.288 113.337 233.3 113.309 233.32Z" fill="#748AA1"/>
  <path fill-rule="evenodd" clip-rule="evenodd" d="M96.3851 165.621L95.9388 167.379L94.3505 168.153C94.2646 168.195 94.229 168.299 94.2709 168.384C94.2838 168.411 94.3033 168.434 94.3274 168.45L95.8216 169.491L96.0715 171.322C96.0844 171.417 96.1716 171.483 96.2663 171.47C96.2983 171.466 96.3285 171.452 96.3534 171.432L97.6478 170.36C97.6883 170.326 97.7418 170.313 97.7932 170.323L99.44 170.663C99.5336 170.682 99.6251 170.622 99.6444 170.529C99.651 170.497 99.6485 170.464 99.6373 170.434L98.9972 168.7L99.8276 167.081C99.8712 166.996 99.8376 166.892 99.7525 166.848C99.7263 166.835 99.6971 166.828 99.6676 166.829L97.9014 166.89L96.6809 165.547C96.6167 165.476 96.5073 165.471 96.4365 165.535C96.4113 165.558 96.3934 165.588 96.3851 165.621Z" fill="#748AA1"/>
  <path fill-rule="evenodd" clip-rule="evenodd" d="M134.926 94.8576L134.48 96.6159L132.891 97.3902C132.806 97.432 132.77 97.5355 132.812 97.6213C132.825 97.6477 132.844 97.6705 132.868 97.6873L134.363 98.7273L134.613 100.559C134.625 100.653 134.713 100.72 134.807 100.707C134.839 100.702 134.869 100.689 134.894 100.669L136.189 99.5965C136.229 99.563 136.283 99.5497 136.334 99.5603L137.981 99.8998C138.075 99.9191 138.166 99.859 138.185 99.7655C138.192 99.7339 138.19 99.701 138.178 99.6707L137.538 97.9365L138.369 96.3175C138.412 96.2325 138.379 96.1284 138.294 96.0849C138.267 96.0714 138.238 96.0649 138.209 96.066L136.442 96.1271L135.222 94.784C135.158 94.7133 135.048 94.708 134.978 94.7721C134.952 94.795 134.934 94.8247 134.926 94.8576Z" fill="#748AA1"/>
  <path fill-rule="evenodd" clip-rule="evenodd" d="M21.0651 112.086L20.4077 112.027C19.6654 111.967 18.992 111.933 18.3793 111.925C17.8452 110.799 17.0445 109.772 15.843 108.653C15.4061 108.246 14.7219 108.27 14.3146 108.706C13.9074 109.143 13.9314 109.826 14.3682 110.233C15.0605 110.878 15.5832 111.466 15.9805 112.068C14.408 112.312 13.4371 112.864 12.7138 113.693L12.577 113.856C12.1931 114.313 12.2528 114.994 12.7103 115.378C13.1392 115.737 13.7655 115.707 14.1584 115.326L14.2338 115.245L14.3503 115.106C14.8167 114.576 15.5016 114.223 16.8735 114.109C17.0078 114.634 17.0986 115.206 17.164 115.853L17.2975 117.478C17.3469 118.072 17.8695 118.514 18.4647 118.465C19.0599 118.415 19.5023 117.893 19.4529 117.299L19.3446 115.942C19.2864 115.278 19.205 114.67 19.0894 114.101C19.6165 114.128 20.2033 114.173 20.8569 114.236C21.4513 114.293 21.9799 113.859 22.0374 113.265C22.0949 112.671 21.6596 112.143 21.0651 112.086Z" fill="#748AA1"/>
  <path fill-rule="evenodd" clip-rule="evenodd" d="M108.389 186.65C108.584 187.144 109.012 187.828 109.51 188.475L109.081 188.919L108.584 189.448L108.474 189.554C108.425 189.596 108.388 189.622 108.36 189.629C108.199 189.653 108.087 189.801 108.109 189.962C108.132 190.12 108.28 190.234 108.44 190.211C108.586 190.208 109.115 190.002 109.744 189.491C109.859 189.398 109.972 189.291 110.088 189.174C110.451 189.579 110.818 189.927 111.135 190.143C111.602 190.465 112.006 190.49 112.199 190.36C112.389 190.233 112.571 189.807 112.262 188.946C112.214 188.79 112.047 188.708 111.893 188.757C111.74 188.806 111.655 188.97 111.703 189.125C111.75 189.285 111.756 189.431 111.757 189.548L111.578 189.426C111.515 189.381 111.45 189.33 111.39 189.27C111.174 189.057 110.932 188.799 110.69 188.519C111.074 188.072 111.466 187.548 111.783 186.944C111.937 186.649 112.061 186.336 112.178 186.007C112.259 185.823 112.175 185.607 111.99 185.526C111.806 185.445 111.59 185.529 111.509 185.712C111.156 186.451 110.705 187.087 110.26 187.632L110.112 187.81C109.707 187.281 109.358 186.744 109.2 186.336C109.113 186.114 108.86 186.002 108.637 186.088C108.411 186.177 108.301 186.428 108.389 186.65Z" fill="#E7EAEE"/>
  <path d="M166.345 154.904C140.953 143.041 119.723 136.774 106.506 135.624C102.458 135.271 100.622 137.5 101.647 141.126C102.409 143.818 104.726 147.513 108.279 151.887C114.472 159.514 122.638 166.04 130.771 172.11C117.761 160.116 114.443 155.099 110.43 150.158L109.8 149.372C106.825 145.615 104.902 142.475 104.31 140.381L104.226 140.063C103.857 138.55 104.284 138.193 106.265 138.365C119.183 139.49 140.332 145.769 165.631 157.616C190.971 169.483 191.695 166.749 166.345 154.904Z" fill="white"/>
  <path d="M282.474 116.527L282.288 116.968C281.002 120.015 279.665 123.032 278.148 126.322L277.558 127.599C277.751 127.729 278.006 127.867 278.285 127.989C278.687 128.164 279.095 128.287 279.401 128.328L279.499 128.338L279.646 128.161C280.793 126.751 282.123 124.356 283.085 121.973C283.597 120.704 283.962 119.541 284.126 118.646C284.193 118.282 284.224 117.976 284.222 117.744L284.215 117.591C284.212 117.554 284.212 117.534 284.221 117.532L284.185 117.507C283.98 117.366 283.457 117.06 282.68 116.638L282.474 116.527Z" fill="white"/>
  <path fill-rule="evenodd" clip-rule="evenodd" d="M250.376 105.489C249.581 104.518 248.55 104.663 247.245 105.453L246.91 105.665L245.971 106.286C245.709 106.454 245.595 106.512 245.442 106.573C245.087 106.714 244.914 107.116 245.055 107.471C245.196 107.826 245.599 107.999 245.954 107.857L246.081 107.805C246.32 107.703 246.502 107.596 246.988 107.274L247.661 106.826C247.772 106.754 247.868 106.693 247.963 106.636C248.743 106.163 249.098 106.113 249.304 106.364C249.433 106.523 249.401 106.861 249.144 107.553L248.862 108.28C248.3 109.768 248.297 110.434 249.297 111.002C250.158 111.491 250.599 111.262 251.835 110.052L252.135 109.755C252.927 108.966 253.342 108.691 253.609 108.747C253.698 108.766 253.802 108.829 253.928 108.964C254.077 109.121 254.119 109.626 254.028 110.522L253.888 111.693C253.726 113.123 253.791 113.494 254.382 113.889C255.196 114.433 256.279 113.818 258.287 112.017C258.572 111.762 258.595 111.325 258.34 111.041C258.084 110.757 257.647 110.733 257.362 110.988C256.504 111.758 255.856 112.26 255.403 112.517L255.302 112.572L255.217 112.614L255.215 112.527L255.221 112.32C255.229 112.151 255.251 111.946 255.293 111.597L255.381 110.879C255.549 109.423 255.497 108.613 254.938 108.018C254.627 107.687 254.279 107.475 253.896 107.394C253.007 107.207 252.375 107.586 251.326 108.61L250.797 109.13C250.226 109.679 250.014 109.819 249.981 109.8C249.851 109.726 249.871 109.497 250.222 108.598L250.375 108.208C250.864 106.953 250.958 106.201 250.376 105.489Z" fill="#748AA1"/>
  <path fill-rule="evenodd" clip-rule="evenodd" d="M215.832 0.611617C216.185 0.250676 216.755 0.260645 217.107 0.633883C217.458 1.00712 217.457 1.60229 217.105 1.96323C216.771 2.30541 216.472 2.6226 216.205 2.91777C216.77 3.15679 217.336 3.46634 217.943 3.84851L218.863 4.43834C219.268 4.6955 219.356 5.20999 219.061 5.58749C218.765 5.96498 218.198 6.06253 217.794 5.80537L216.69 5.10189C216.114 4.74925 215.594 4.48243 215.072 4.29515C214.278 5.39795 214.112 6.10472 214.213 6.75989L214.24 6.91527L214.252 7.01086C214.289 7.48633 213.976 7.91767 213.517 7.99856C213.028 8.08485 212.558 7.73975 212.468 7.22775L212.436 7.04544C212.285 6.09504 212.447 5.13748 213.129 3.95443C212.667 3.94724 212.163 3.9815 211.591 4.05449C211.093 4.11805 210.646 3.80289 210.593 3.35057C210.54 2.89825 210.9 2.48004 211.398 2.41649C212.49 2.27711 213.405 2.26123 214.242 2.37432C214.587 1.9513 214.986 1.49971 215.446 1.01357L215.832 0.611617Z" fill="#E7EAEE"/>
  <path fill-rule="evenodd" clip-rule="evenodd" d="M355.854 180.529L355.109 182.184L353.41 182.671C353.319 182.697 353.265 182.793 353.292 182.884C353.3 182.913 353.315 182.938 353.336 182.959L354.627 184.243L354.554 186.09C354.551 186.185 354.625 186.265 354.721 186.269C354.753 186.27 354.785 186.262 354.813 186.247L356.274 185.415C356.32 185.389 356.375 185.385 356.424 185.405L357.986 186.025C358.075 186.06 358.176 186.017 358.211 185.928C358.223 185.898 358.226 185.865 358.22 185.834L357.892 184.015L358.991 182.564C359.048 182.488 359.033 182.38 358.957 182.322C358.934 182.304 358.906 182.293 358.877 182.289L357.127 182.043L356.158 180.508C356.108 180.427 356.001 180.403 355.92 180.454C355.891 180.472 355.868 180.498 355.854 180.529Z" fill="#748AA1"/>
  <path fill-rule="evenodd" clip-rule="evenodd" d="M345.918 88.7203L345.173 90.3745L343.474 90.8615C343.382 90.8878 343.329 90.9835 343.355 91.0753C343.363 91.1036 343.379 91.1293 343.4 91.1501L344.69 92.4335L344.618 94.2805C344.614 94.3759 344.689 94.4562 344.784 94.4599C344.816 94.4612 344.848 94.4534 344.876 94.4374L346.338 93.6062C346.383 93.5802 346.438 93.5764 346.487 93.5958L348.05 94.2158C348.139 94.251 348.239 94.2077 348.274 94.1189C348.286 94.0889 348.29 94.0562 348.284 94.0244L347.955 92.2055L349.054 90.7551C349.112 90.679 349.097 90.5706 349.021 90.513C348.997 90.4952 348.97 90.4838 348.94 90.4797L347.19 90.2335L346.222 88.6991C346.171 88.6183 346.064 88.5942 345.983 88.6451C345.955 88.6632 345.932 88.6894 345.918 88.7203Z" fill="#748AA1"/>
  <path d="M323.41 234.891C322.855 234.488 322.078 234.611 321.675 235.166C321.272 235.72 338.844 250.017 345.661 256.568L346.453 257.336C350.346 261.141 353.217 264.437 354.835 267.042C356.55 269.802 356.66 271.301 355.553 271.914C351.353 274.239 345.314 275.372 336.666 273.941L335.777 273.79C332.485 273.213 307.721 267.819 308.113 267.962L308.266 268.008C309.046 268.214 319.13 271.697 322.61 272.582L323.031 272.689C328.351 274.025 332.515 274.942 336.26 275.562C345.412 277.076 351.951 276.745 356.757 274.084C359.531 272.549 359.31 269.539 356.946 265.734C355.087 262.741 351.817 259.042 347.383 254.78C340.475 248.141 330.759 240.221 323.41 234.891Z" fill="white"/>
  <path fill-rule="evenodd" clip-rule="evenodd" d="M194.025 62.9106C193.722 62.7091 193.316 62.795 193.117 63.1025L188.633 70.0424C188.435 70.3498 188.519 70.7623 188.822 70.9638C189.125 71.1652 189.532 71.0793 189.731 70.7719L194.215 63.832C194.413 63.5246 194.329 63.112 194.025 62.9106Z" fill="#748AA1"/>
  <path fill-rule="evenodd" clip-rule="evenodd" d="M193.806 57.7832C193.459 57.5789 193 57.6816 192.781 58.0126L189.695 62.6808C189.476 63.0118 189.581 63.4457 189.928 63.65C190.275 63.8543 190.734 63.7515 190.953 63.4205L194.038 58.7524C194.257 58.4214 194.153 57.9875 193.806 57.7832Z" fill="#748AA1"/>
</svg>
