<svg width="24" height="24" viewBox="0 0 24 24" fill="none" xmlns="http://www.w3.org/2000/svg">
  <path fill-rule="evenodd" clip-rule="evenodd" d="M11.5001 1.5C10.9696 1.5 10.4609 1.71071 10.0858 2.08579C9.71077 2.46086 9.50006 2.96957 9.50006 3.5C9.50006 4.61 10.3901 5.5 11.5001 5.5C12.6101 5.5 13.5001 4.61 13.5001 3.5C13.5001 2.96957 13.2893 2.46086 12.9143 2.08579C12.5392 1.71071 12.0305 1.5 11.5001 1.5ZM8.30199 6.78L8.35986 6.73178C8.53958 6.58202 8.76611 6.5 9.00004 6.5H14C14.2334 6.5 14.4594 6.5816 14.6389 6.73065C14.6596 6.74646 14.68 6.76293 14.7 6.78L14.7093 6.78936L17.6402 9.23178C18.0328 9.55894 18.1156 10.1295 17.8321 10.5547L15.8321 13.5547C15.6396 13.8435 15.3229 13.9998 15 14.0001V21.5C15 22.0523 14.5523 22.5 14 22.5C13.4478 22.5 13 22.0523 13 21.5V17H10V21.5C10 22.0523 9.55233 22.5 9.00004 22.5C8.44776 22.5 8.00004 22.0523 8.00004 21.5V14.0001C7.67722 13.9998 7.36051 13.8435 7.16799 13.5547L5.16799 10.5547C4.88452 10.1295 4.96726 9.55894 5.35986 9.23178L8.29988 6.78177L8.30005 6.78H8.30199ZM8.02869 9.61117L7.33054 10.193L8.00004 11.1972V9.91L8.02869 9.61117ZM15 11.1972L15.6696 10.193L15 9.63504V9.91V11.1972Z" fill="currentColor"/>
</svg>
