<svg width="24" height="24" viewBox="0 0 24 24" fill="none" xmlns="http://www.w3.org/2000/svg">
  <path d="M19.8948 11.3395L18.6636 7.64589C18.485 7.10812 18.1415 6.64032 17.6818 6.30895C17.2221 5.97757 16.6697 5.79949 16.1031 5.79999H7.8969C7.33025 5.79949 6.77785 5.97757 6.3182 6.30895C5.85854 6.64032 5.515 7.10812 5.3364 7.64589L4.1052 11.3395C3.7778 11.4765 3.4982 11.7072 3.30156 12.0027C3.10492 12.2981 3 12.6451 3 13V17.5C3 18.1642 3.3636 18.7384 3.9 19.0507V21.1C3.9 21.3387 3.99482 21.5676 4.1636 21.7364C4.33239 21.9052 4.56131 22 4.8 22H5.7C5.93869 22 6.16761 21.9052 6.3364 21.7364C6.50518 21.5676 6.6 21.3387 6.6 21.1V19.3H17.4V21.1C17.4 21.3387 17.4948 21.5676 17.6636 21.7364C17.8324 21.9052 18.0613 22 18.3 22H19.2C19.4387 22 19.6676 21.9052 19.8364 21.7364C20.0052 21.5676 20.1 21.3387 20.1 21.1V19.0507C20.3731 18.8941 20.6 18.6683 20.758 18.3961C20.916 18.1238 20.9995 17.8148 21 17.5V13C21 12.6451 20.8951 12.2981 20.6984 12.0027C20.5018 11.7072 20.2222 11.4765 19.8948 11.3395ZM7.8969 7.59999H16.1022C16.4901 7.59999 16.8339 7.84659 16.9563 8.21559L17.9517 11.2H6.0483L7.0428 8.21559C7.10251 8.0363 7.21714 7.88036 7.37044 7.76987C7.52374 7.65938 7.70793 7.59994 7.8969 7.59999ZM6.15 16.6C5.97266 16.5999 5.79706 16.5649 5.63324 16.497C5.46942 16.4291 5.32058 16.3296 5.19522 16.2041C5.06986 16.0787 4.97044 15.9298 4.90262 15.7659C4.83481 15.6021 4.79994 15.4264 4.8 15.2491C4.80006 15.0717 4.83505 14.8961 4.90297 14.7323C4.97089 14.5685 5.07041 14.4197 5.19586 14.2943C5.3213 14.1689 5.4702 14.0695 5.63407 14.0017C5.79794 13.9339 5.97356 13.899 6.1509 13.8991C6.50906 13.8992 6.85251 14.0416 7.10568 14.2949C7.35885 14.5483 7.50102 14.8918 7.5009 15.25C7.50078 15.6081 7.35839 15.9516 7.10504 16.2048C6.8517 16.4579 6.50816 16.6001 6.15 16.6ZM17.85 16.6C17.6727 16.5999 17.4971 16.5649 17.3332 16.497C17.1694 16.4291 17.0206 16.3296 16.8952 16.2041C16.7699 16.0787 16.6704 15.9298 16.6026 15.7659C16.5348 15.6021 16.4999 15.4264 16.5 15.2491C16.5001 15.0717 16.535 14.8961 16.603 14.7323C16.6709 14.5685 16.7704 14.4197 16.8959 14.2943C17.0213 14.1689 17.1702 14.0695 17.3341 14.0017C17.4979 13.9339 17.6736 13.899 17.8509 13.8991C18.2091 13.8992 18.5525 14.0416 18.8057 14.2949C19.0589 14.5483 19.201 14.8918 19.2009 15.25C19.2008 15.6081 19.0584 15.9516 18.805 16.2048C18.5517 16.4579 18.2082 16.6001 17.85 16.6Z" fill="currentColor"/>
</svg>
