<svg width="24" height="24" viewBox="0 0 24 24" fill="none" xmlns="http://www.w3.org/2000/svg">
  <path fill-rule="evenodd" clip-rule="evenodd" d="M10.3852 8.33984C10.7753 8.72198 11.2487 8.91304 11.8053 8.91304C12.3618 8.91304 12.8352 8.72198 13.2253 8.33984C13.6154 7.95771 13.8105 7.4966 13.8105 6.95652C13.8105 6.41644 13.6154 5.95533 13.2253 5.5732C12.8352 5.19107 12.3618 5 11.8053 5C11.2487 5 10.7753 5.19107 10.3852 5.5732C9.99511 5.95533 9.80005 6.41644 9.80005 6.95652C9.80005 7.4966 9.99511 7.95771 10.3852 8.33984ZM17.0715 14.3913C17.3264 14.3913 17.5449 14.3021 17.7269 14.1238C17.909 13.9455 18 13.7289 18 13.4742C18 13.2194 17.9116 13.0054 17.7347 12.8322L15.5033 10.4783C14.8375 9.82609 13.6723 9.5 12.0078 9.5C10.3433 9.5 9.17815 9.82609 8.51235 10.4783L6.26528 12.8322C6.08843 13.0054 6 13.2194 6 13.4742C6 13.7289 6.09103 13.9455 6.27308 14.1238C6.45514 14.3021 6.6736 14.3913 6.92848 14.3913C7.18335 14.3913 7.40442 14.2996 7.59168 14.1162L9.5 12.2469V19C9.5 19.5523 9.94772 20 10.5 20C11.0523 20 11.5 19.5523 11.5 19V15.3913H12V19C12 19.5523 12.4477 20 13 20C13.5523 20 14 19.5523 14 19V15.3913H14.0052V11.7469L16.4083 14.1162C16.5956 14.2996 16.8166 14.3913 17.0715 14.3913Z" fill="currentColor"/>
</svg>
