<svg width="24" height="25" viewBox="0 0 24 25" fill="none" xmlns="http://www.w3.org/2000/svg">
  <path fill-rule="evenodd" clip-rule="evenodd" d="M4.91201 2.81676C6.7738 1.01587 9.29807 0.00287416 11.931 0C14.564 0.00287416 17.0883 1.01587 18.9501 2.81676C20.8118 4.61765 21.8591 7.05935 21.8621 9.60618C21.8621 12.9866 20.2591 16.5566 17.2263 19.9301C15.8693 21.445 14.3425 22.8092 12.6739 23.9978C12.4562 24.1452 12.1968 24.2243 11.931 24.2243C11.6653 24.2243 11.4059 24.1452 11.1881 23.9978C10.8129 23.7438 2 17.6835 2 9.60618C2.00297 7.05935 3.05023 4.61765 4.91201 2.81676ZM11.931 13.3651C14.2164 13.3651 16.069 11.4952 16.069 9.18853C16.069 6.88185 14.2164 5.01192 11.931 5.01192C9.64572 5.01192 7.7931 6.88185 7.7931 9.18853C7.7931 11.4952 9.64572 13.3651 11.931 13.3651Z" fill="currentColor"/>
</svg>
