<svg width="24" height="24" viewBox="0 0 24 24" fill="none" xmlns="http://www.w3.org/2000/svg">
  <path fill-rule="evenodd" clip-rule="evenodd" d="M14.84 5.787H17.1063L17.1087 5.78619H17.1103C17.3435 5.79517 17.5648 5.89189 17.7297 6.05701C17.8947 6.22213 17.9912 6.44346 18 6.6767C17.9994 6.90157 17.9098 7.11705 17.7507 7.27605C17.5917 7.43506 17.3763 7.52467 17.1514 7.52531H14.8851L14.8795 7.54626C14.6671 8.24871 14.2001 8.84652 13.5699 9.22252L13.6086 9.23219C14.7488 9.57165 16.2887 10.0465 17 11C17.6043 11.81 17.5832 12.9287 17.5635 13.9763C17.56 14.162 17.5566 14.3454 17.5566 14.5245V18.936C17.5535 19.3064 17.4049 19.6607 17.1429 19.9226C16.8809 20.1845 16.5264 20.3329 16.156 20.3358H15.0108V17.9181C15.0108 17.1194 14.6935 16.3534 14.1287 15.7886C13.5639 15.2238 12.7979 14.9065 11.9992 14.9065C11.2005 14.9065 10.4344 15.2238 9.86965 15.7886C9.30486 16.3534 8.98757 17.1194 8.98757 17.9181V20.3358H7.84158C7.47151 20.3322 7.11761 20.1836 6.85599 19.9218C6.59436 19.66 6.44591 19.3061 6.44255 18.936V14.481C6.44355 14.3091 6.44192 14.1346 6.44028 13.9591C6.4303 12.8909 6.41997 11.7851 7 11C7.70839 10.0412 9.2448 9.53832 10.4293 9.18062L10.4164 9.17336C9.79991 8.80185 9.33088 8.20871 9.1149 7.48421H6.84861C6.62354 7.48421 6.4077 7.3948 6.24855 7.23566C6.08941 7.07651 6 6.86067 6 6.6356C6 6.41054 6.08941 6.19469 6.24855 6.03555C6.4077 5.8764 6.62354 5.787 6.84861 5.787H9.07219L9.07783 5.76524C9.46788 4.54834 10.6082 3.66669 11.9557 3.66669C13.3031 3.66669 14.4443 4.54834 14.84 5.787ZM11.0128 8.08708C11.2919 8.27357 11.62 8.37311 11.9557 8.37311L11.9564 8.37234L12.0048 8.37311C12.9155 8.37311 13.6537 7.63491 13.6537 6.72425L13.6529 6.6759C13.6529 6.34022 13.5533 6.01208 13.3669 5.73298C13.1804 5.45387 12.9153 5.23633 12.6052 5.10788C12.295 4.97942 11.9538 4.94581 11.6246 5.01129C11.2953 5.07678 10.9929 5.23843 10.7556 5.47579C10.5182 5.71315 10.3566 6.01556 10.2911 6.34479C10.2256 6.67401 10.2592 7.01527 10.3877 7.32539C10.5161 7.63552 10.7336 7.90059 11.0128 8.08708ZM11.9564 8.37234L11.9565 8.37231H11.9541L11.9564 8.37234ZM10.7581 16.6772C11.076 16.3594 11.5069 16.1803 11.9565 16.179H11.9581C12.4075 16.1807 12.8381 16.3601 13.1558 16.6781C13.4734 16.996 13.6524 17.4267 13.6537 17.8762V21.3101V21.3117V21.3448C13.6537 21.7949 13.4749 22.2266 13.1566 22.5449C12.8383 22.8632 12.4066 23.042 11.9565 23.042C11.5063 23.042 11.0747 22.8632 10.7564 22.5449C10.4381 22.2266 10.2593 21.7949 10.2593 21.3448V17.8754C10.2608 17.4258 10.4401 16.9951 10.7581 16.6772Z" fill="currentColor"/>
</svg>
