<svg width="57" height="57" viewBox="0 0 57 57" fill="none" xmlns="http://www.w3.org/2000/svg">
  <path fill-rule="evenodd" clip-rule="evenodd" d="M15 15H41C41.5523 15 42 15.4477 42 16V42C42 42.5523 41.5523 43 41 43H15C14.4477 43 14 42.5523 14 42V16C14 15.4477 14.4477 15 15 15ZM11 16C11 13.7909 12.7909 12 15 12H41C43.2091 12 45 13.7909 45 16V42C45 44.2091 43.2091 46 41 46H15C12.7909 46 11 44.2091 11 42V16ZM26.2283 39.2239L32.4922 31.1605L40.5556 41.8889H15.5L21.7639 33.8483L26.2283 39.2239Z" fill="currentColor"/>
</svg>
