<svg width="24" height="24" viewBox="0 0 24 24" fill="none" xmlns="http://www.w3.org/2000/svg">
  <path d="M8 4C8 3.46957 8.21071 2.96086 8.58579 2.58579C8.96086 2.21071 9.46957 2 10 2C10.5304 2 11.0391 2.21071 11.4142 2.58579C11.7893 2.96086 12 3.46957 12 4C12 5.11 11.11 6 10 6C9.46957 6 8.96086 5.78929 8.58579 5.41421C8.21071 5.03914 8 4.53043 8 4ZM20.65 21.5L14.5 10.85C13.77 10.85 13.23 10.65 12.64 10.26C12.04 9.87 11.6 9.38 11.31 8.8L10.57 7.23C10.39 6.88 10.15 6.62 9.83 6.44C9.54 6.27 9.23 6.18 8.91 6.18C8.59 6.18 8.29 6.26 8 6.4L3.62312 8.87731C3.23805 9.09527 3 9.50353 3 9.94601V12.7C3 13.2136 3.41638 13.63 3.93 13.63C4.44362 13.63 4.86 13.2136 4.86 12.7V10.32L6.25 9.54L5.91 11.11C5.82 11.63 5.77 12.15 5.77 12.68V17.64L3.92617 20.1319C3.62321 20.5413 3.70499 21.1181 4.10982 21.4272C4.52262 21.7424 5.11338 21.6594 5.42339 21.2428L7.65 18.25L7.82 15L9.5 17.34V21.075C9.5 21.5859 9.91414 22 10.425 22C10.9359 22 11.35 21.5859 11.35 21.075V15.94L9.5 13.33V12.68C9.5 12.24 9.5 11.81 9.61 11.39L9.96 10.19C10.34 10.74 10.81 11.2 11.35 11.63C12.2 12.31 13 12.59 14.35 12.58L19.78 22L20.65 21.5Z" fill="currentColor" />
</svg>
