<svg width="24" height="24" viewBox="0 0 24 24" fill="none" xmlns="http://www.w3.org/2000/svg">
  <path d="M19.5 11.8947H4.5V5.84211H19.5V11.8947ZM17.625 19.1579C17.1277 19.1579 16.6508 18.9666 16.2992 18.6261C15.9475 18.2855 15.75 17.8237 15.75 17.3421C15.75 16.8605 15.9475 16.3987 16.2992 16.0581C16.6508 15.7176 17.1277 15.5263 17.625 15.5263C18.1223 15.5263 18.5992 15.7176 18.9508 16.0581C19.3025 16.3987 19.5 16.8605 19.5 17.3421C19.5 17.8237 19.3025 18.2855 18.9508 18.6261C18.5992 18.9666 18.1223 19.1579 17.625 19.1579ZM6.375 19.1579C5.87772 19.1579 5.40081 18.9666 5.04917 18.6261C4.69754 18.2855 4.5 17.8237 4.5 17.3421C4.5 16.8605 4.69754 16.3987 5.04917 16.0581C5.40081 15.7176 5.87772 15.5263 6.375 15.5263C6.87228 15.5263 7.34919 15.7176 7.70083 16.0581C8.05246 16.3987 8.25 16.8605 8.25 17.3421C8.25 17.8237 8.05246 18.2855 7.70083 18.6261C7.34919 18.9666 6.87228 19.1579 6.375 19.1579ZM2 17.9474C2 19.0126 2.4875 19.9689 3.25 20.6347V22.7895C3.25 23.1105 3.3817 23.4184 3.61612 23.6454C3.85054 23.8725 4.16848 24 4.5 24H5.75C6.08152 24 6.39946 23.8725 6.63388 23.6454C6.8683 23.4184 7 23.1105 7 22.7895V21.5789H17V22.7895C17 23.1105 17.1317 23.4184 17.3661 23.6454C17.6005 23.8725 17.9185 24 18.25 24H19.5C19.8315 24 20.1495 23.8725 20.3839 23.6454C20.6183 23.4184 20.75 23.1105 20.75 22.7895V20.6347C21.5125 19.9689 22 19.0126 22 17.9474V5.84211C22 1.60526 17.525 1 12 1C6.475 1 2 1.60526 2 5.84211V17.9474Z" fill="currentColor"/>
</svg>
