<svg width="24" height="24" viewBox="0 0 24 24" fill="none" xmlns="http://www.w3.org/2000/svg">
  <path d="M6 2C5.44772 2 4.99259 2.45002 5.07143 2.99665C5.40268 5.29321 6.86421 7.30463 9 8.32V22C9 22.5523 9.44772 23 10 23C10.5523 23 11 22.5523 11 22V16H13V22C13 22.5523 13.4477 23 14 23C14.5523 23 15 22.5523 15 22V8.31C17.1358 7.30338 18.5973 5.29306 18.9286 2.99665C19.0074 2.45002 18.5523 2 18 2C17.4477 2 17.0101 2.45211 16.9003 2.99338C16.7065 3.94935 16.2355 4.83554 15.5355 5.53553C15.0712 5.99983 14.52 6.36812 13.9134 6.6194C13.3068 6.87067 12.6566 7 12 7C10.6739 7 9.40215 6.47322 8.46447 5.53553C7.76447 4.83554 7.29346 3.94935 7.09965 2.99338C6.98992 2.45211 6.55228 2 6 2ZM12 2C10.89 2 10 2.89 10 4C10 5.11 10.89 6 12 6C13.11 6 14 5.11 14 4C14 2.89 13.11 2 12 2Z" fill="currentColor"/>
</svg>
