<svg width="24" height="24" viewBox="0 0 24 24" fill="none" xmlns="http://www.w3.org/2000/svg">
    <path fill-rule="evenodd" clip-rule="evenodd" d="M12 1c6.616 0 12 4.368 12 9.738 0 2.15-.832 4.085-2.573 5.991-2.517 2.898-8.146 6.428-9.427 6.968-1.245.524-1.101-.296-1.044-.62l.005-.027.17-1.027c.041-.306.083-.782-.039-1.085-.135-.334-.665-.508-1.056-.592C4.27 19.585 0 15.552 0 10.738 0 5.368 5.385 1 12 1zM7.533 12.529H5.245V8.377a.234.234 0 0 0-.232-.234H4.17a.234.234 0 0 0-.234.234v5.229c0 .062.026.12.066.16v.002l.003.003.003.003a.231.231 0 0 0 .162.065h3.363a.233.233 0 0 0 .232-.235v-.84a.234.234 0 0 0-.232-.235zm1.186-4.386h.844c.128 0 .232.105.232.234v5.229a.233.233 0 0 1-.232.232h-.844a.234.234 0 0 1-.233-.232V8.377c0-.129.104-.234.233-.234zm5.795 0h.84c.13 0 .236.105.236.234v5.229a.233.233 0 0 1-.235.232h-.841a.234.234 0 0 1-.06-.007h-.003a.231.231 0 0 1-.017-.006l-.007-.003-.01-.004a.096.096 0 0 1-.012-.006l-.005-.002-.015-.009-.002-.002a.232.232 0 0 1-.06-.058l-2.4-3.24v3.105a.232.232 0 0 1-.232.234h-.841a.234.234 0 0 1-.234-.232V8.377c0-.129.104-.234.234-.234h.85l.008.002h.008l.005.001h.009l.015.004h.003l.003.002.015.005.008.002.013.006.004.002.003.002a.166.166 0 0 1 .02.011l.005.004.007.004v.002c.003 0 .005.003.006.004a.129.129 0 0 1 .012.009l.005.005a.253.253 0 0 1 .034.038l2.397 3.239V8.377c0-.129.105-.234.234-.234zm5.723 1.075a.234.234 0 0 1-.233.235h-2.289v.885h2.288c.128 0 .232.105.232.232v.841a.234.234 0 0 1-.232.235h-2.288v.884h2.288c.128 0 .232.106.232.233v.841a.234.234 0 0 1-.232.235H16.64a.231.231 0 0 1-.166-.068l-.003-.005a.233.233 0 0 1-.066-.16V8.377c0-.063.026-.12.065-.16l.005-.005.001-.002a.232.232 0 0 1 .164-.067h3.363c.128 0 .232.105.232.234v.841h.002z" fill="currentColor"/>
</svg>
