<svg width="24" height="24" viewBox="0 0 24 24" fill="none" xmlns="http://www.w3.org/2000/svg">
    <path fill-rule="evenodd" clip-rule="evenodd" d="M24 10.738C24 5.368 18.616 1 12 1 5.385 1 0 5.368 0 10.738c0 4.814 4.269 8.847 10.037 9.608.39.084.92.258 1.055.592.122.303.08.779.04 1.085l-.171 1.027-.005.027c-.057.324-.201 1.144 1.044.62 1.281-.54 6.91-4.07 9.427-6.968C23.167 14.823 24 12.888 24 10.738zm-20.5.84c0-.15.04-.256.119-.319a.366.366 0 0 1 .23-.099h.404c.204 0 .359.124.465.372.106.248.345.372.716.372l1.188.026c.398 0 .597-.145.597-.436 0-.22-.243-.393-.73-.52a14.017 14.017 0 0 0-.719-.17 8.047 8.047 0 0 1-.784-.216 4.557 4.557 0 0 1-.712-.304 1.454 1.454 0 0 1-.53-.478 1.29 1.29 0 0 1-.2-.72c0-.509.162-.9.485-1.173.324-.275.88-.413 1.67-.413l.862.023c.463 0 .88.134 1.252.402.373.265.56.598.56.997 0 .15-.04.257-.12.323a.363.363 0 0 1-.227.098h-.403c-.204 0-.359-.123-.465-.371-.107-.25-.345-.376-.716-.376L5.42 8.573c-.398 0-.597.146-.597.437 0 .159.126.29.377.39.253.101.559.191.916.27.36.076.72.168 1.082.277.362.108.669.288.92.538.253.248.38.558.38.93 0 .508-.163.9-.489 1.175-.323.273-.878.41-1.666.41l-1.028-.023c-.463 0-.882-.133-1.255-.398-.373-.268-.56-.602-.56-1.001zm5.694 1.027V7.898c0-.103.03-.19.091-.261a.285.285 0 0 1 .224-.107h1.381c.088 0 .172.036.251.107a.52.52 0 0 1 .16.254l1 3.239 1.002-3.24a.52.52 0 0 1 .16-.253.373.373 0 0 1 .25-.107h1.381c.088 0 .162.036.22.107.062.07.092.158.092.261v4.707c0 .104-.031.191-.095.262a.29.29 0 0 1-.224.103h-.61a.3.3 0 0 1-.228-.103.387.387 0 0 1-.091-.262V8.9l-1.198 3.728a.55.55 0 0 1-.166.243.387.387 0 0 1-.251.099h-.486a.387.387 0 0 1-.25-.099.59.59 0 0 1-.167-.243L10.446 8.9v3.705c0 .104-.032.191-.095.262a.29.29 0 0 1-.224.103h-.611a.3.3 0 0 1-.227-.103.378.378 0 0 1-.095-.262zm7.027-1.346c-.08.063-.119.17-.119.319 0 .4.187.733.56 1.001.373.265.792.398 1.255.398l1.028.023c.788 0 1.343-.137 1.666-.41.326-.275.489-.667.489-1.175 0-.372-.127-.682-.38-.93a2.157 2.157 0 0 0-.92-.538 13.303 13.303 0 0 0-1.082-.277 5.917 5.917 0 0 1-.916-.27c-.251-.1-.377-.231-.377-.39 0-.291.2-.437.598-.437l1.02.023c.372 0 .61.125.717.376.106.248.261.371.465.371h.403a.363.363 0 0 0 .228-.098c.079-.066.118-.173.118-.323 0-.4-.186-.732-.56-.997a2.086 2.086 0 0 0-1.252-.402l-.861-.023c-.79 0-1.346.138-1.67.413-.323.274-.485.664-.485 1.173 0 .275.067.515.2.72.136.203.312.362.53.478.217.116.454.218.712.304.26.086.521.158.784.216.262.055.502.112.72.17.486.127.729.3.729.52 0 .29-.2.436-.597.436l-1.188-.026c-.37 0-.61-.124-.716-.372-.106-.248-.261-.372-.465-.372h-.404a.366.366 0 0 0-.23.099z" fill="currentColor"/>
</svg>
