<svg width="24" height="24" viewBox="0 0 24 24" fill="none" xmlns="http://www.w3.org/2000/svg">
  <path d="M21.5887 5.12625L17.0887 3.10125H16.1662L12.1275 4.9125L8.08872 3.10125H8.03247L7.89747 3H7.22247L2.72247 5.025C2.49802 5.111 2.30701 5.26663 2.17745 5.46908C2.04788 5.67154 1.98656 5.91016 2.00247 6.15V19.875C2.00278 20.0632 2.05032 20.2484 2.14073 20.4135C2.23115 20.5786 2.36154 20.7184 2.51997 20.82C2.70104 20.937 2.91191 20.9994 3.12747 21C3.28665 20.9993 3.44386 20.9648 3.58872 20.8988L7.62747 19.0875L11.6662 20.8988H11.7225C11.8493 20.958 11.9875 20.9887 12.1275 20.9887C12.2674 20.9887 12.4057 20.958 12.5325 20.8988H12.5887L16.6275 19.0875L20.6662 20.8988C20.8111 20.9648 20.9683 20.9993 21.1275 21C21.343 20.9994 21.5539 20.937 21.735 20.82C21.8934 20.7184 22.0238 20.5786 22.1142 20.4135C22.2046 20.2484 22.2522 20.0632 22.2525 19.875V6.15C22.252 5.93359 22.1892 5.72191 22.0714 5.54033C21.9537 5.35875 21.7861 5.21498 21.5887 5.12625ZM8.75247 5.86875L11.0025 6.87V18.12L8.75247 17.1187V5.86875ZM20.0025 18.1312L17.7525 17.13V5.88L20.0025 6.88125V18.1312Z" fill="currentColor"/>
</svg>
