<svg width="135" height="135" viewBox="0 0 135 135" fill="none" xmlns="http://www.w3.org/2000/svg">
  <g clip-path="url(#clip0_7240_499159)">
    <ellipse cx="69.4808" cy="70.6067" rx="51.2183" ry="50.272" fill="white"/>
    <ellipse rx="46.9109" ry="48.6779" transform="matrix(0.743578 0.668649 -0.67008 0.742289 67.5001 67.5)" fill="#FFEFEF"/>
    <path fill-rule="evenodd" clip-rule="evenodd" d="M67.5001 119.184C95.6309 119.184 118.435 96.4237 118.435 68.3473C118.435 58.6604 115.721 49.6062 111.009 41.9014C117.105 50.2807 120.699 60.5896 120.699 71.7364C120.699 99.8128 97.8946 122.573 69.7637 122.573C51.3386 122.573 35.1985 112.809 26.2544 98.1823C35.5118 110.909 50.5376 119.184 67.5001 119.184ZM26.2544 98.1823C20.1592 89.803 16.5647 79.4941 16.5647 68.3473C16.5647 40.2709 39.3692 17.5105 67.5001 17.5105C85.9252 17.5105 102.065 27.2747 111.009 41.9014C101.752 29.175 86.7261 20.8996 69.7637 20.8996C41.6329 20.8996 18.8284 43.66 18.8284 71.7364C18.8284 81.4233 21.543 90.4775 26.2544 98.1823Z" fill="#FB7181"/>
    <path fill-rule="evenodd" clip-rule="evenodd" d="M75.9475 42.5959L61.755 44.2248C59.6267 54.6734 59.6538 70.3146 60.2602 82.9165L69.5966 81.845C70.3578 68.0197 73.5702 51.6556 75.9475 42.5959ZM69.4359 88.5359L60.6461 89.5446C60.8704 92.8191 61.1192 95.7034 61.3533 97.9915C60.9891 98.0909 61.0208 98.1294 61.3634 98.0901L61.3533 97.9915C62.1386 97.7773 64.7648 97.2799 70.084 96.6695C69.6736 94.2751 69.4718 91.5212 69.4359 88.5359Z" fill="white"/>
    <path fill-rule="evenodd" clip-rule="evenodd" d="M77.5623 42.5959L63.3697 44.2248C61.2493 54.6347 61.2684 70.1987 61.8683 82.7763L71.2192 81.7031C71.9945 67.9079 75.193 51.6246 77.5623 42.5959ZM71.0506 88.5359L62.2609 89.5446C62.4851 92.8191 62.734 95.7034 62.968 97.9915C62.6039 98.0909 62.6356 98.1294 62.9781 98.0901L62.968 97.9915C63.7533 97.7773 66.3796 97.2799 71.6988 96.6695C71.2883 94.2751 71.0865 91.5212 71.0506 88.5359Z" fill="#FB7181"/>
  </g>
  <defs>
    <clipPath id="clip0_7240_499159">
      <rect width="135" height="135" fill="white"/>
    </clipPath>
  </defs>
</svg>
