<svg width="401" height="314" viewBox="0 0 401 314" fill="none" xmlns="http://www.w3.org/2000/svg">
  <path fill-rule="evenodd" clip-rule="evenodd" d="M205.009 235.088C205.009 235.088 207.237 233.175 204.111 226.57C200.985 219.965 194.655 221.413 190.608 218.815C184.63 214.976 187.08 211.972 179.625 211.488C170.239 210.878 169.708 220.73 165.011 220.73C164.703 220.73 157.39 217.777 156.32 225.862C155.781 229.933 165.011 236.142 165.011 236.142C165.011 236.142 168.853 239.642 169.064 241.37C169.949 248.619 168.104 256.92 188.782 260.742C191.456 261.237 195.897 259.449 198.347 256.146C200.266 253.559 207.965 255.394 208.684 246.888C209.046 242.6 205.009 235.088 205.009 235.088Z" fill="#B8C5D3"/>
  <path fill-rule="evenodd" clip-rule="evenodd" d="M252.783 0.105538L252.021 1.81824L250.284 2.32251C250.19 2.34978 250.136 2.44889 250.163 2.54389C250.171 2.57318 250.187 2.59984 250.208 2.62134L251.528 3.9502L251.454 5.86261C251.45 5.96137 251.526 6.04455 251.624 6.04841C251.657 6.04972 251.69 6.04164 251.718 6.0251L253.213 5.16445C253.259 5.13756 253.316 5.13358 253.365 5.15364L254.964 5.7956C255.054 5.83208 255.157 5.78719 255.193 5.69534C255.206 5.66427 255.209 5.63037 255.203 5.59747L254.867 3.71409L255.991 2.21238C256.05 2.13358 256.034 2.02135 255.957 1.96169C255.933 1.9433 255.904 1.93141 255.874 1.92716L254.085 1.67231L253.094 0.0835414C253.042 -6.3322e-05 252.933 -0.0251121 252.85 0.0275934C252.821 0.0463513 252.798 0.0734621 252.783 0.105538Z" fill="#748AA1"/>
  <path fill-rule="evenodd" clip-rule="evenodd" d="M71.3273 3.47695C61.2022 -0.706555 37.0193 25.5379 17.9605 65.3404C8.72618 84.6254 2.46255 103.125 0.826385 116.392C0.826385 116.392 32.0125 48.4457 51.0344 23.559C58.3413 13.9992 71.3273 3.47695 71.3273 3.47695Z" fill="#E7EAEE"/>
  <path fill-rule="evenodd" clip-rule="evenodd" d="M104.3 15.0359C122.645 22.4649 119.155 57.0678 101.683 96.3827L100.165 99.734C82.7453 137.423 58.4507 165.005 36.7403 165.74C22.5927 166.219 17.1478 154.688 19.3912 136.86C21.1827 122.623 27.7582 103.589 37.3959 83.8624L38.8599 80.9026C60.2117 38.2647 86.8308 7.96174 104.3 15.0359Z" fill="#748AA1"/>
  <path fill-rule="evenodd" clip-rule="evenodd" d="M346.177 209.007C351.346 200.909 361.548 198.968 369.269 204.355C375.738 208.868 378.484 216.569 375.684 222.821C374.947 224.469 371.991 228.631 367.472 230.854L367.101 231.04C361.38 233.827 354.448 233.563 350.261 231.213C342.836 227.046 341.008 217.104 346.177 209.007ZM368.072 206.067C368.023 206.033 367.974 205.998 367.924 205.965C367.874 206.003 367.82 206.037 367.762 206.067C360.219 209.937 355.1 211.998 352.272 212.264C350.405 212.44 348.752 211.999 347.36 210.951C346.739 212.058 346.26 213.195 345.919 214.336C345.966 214.361 346.011 214.39 346.054 214.423C348.044 215.948 350.078 216.543 352.201 216.247C354.642 215.905 357.219 215.222 359.879 214.254C362.723 213.219 365.509 211.918 368.117 210.49C368.725 210.157 369.295 209.833 369.82 209.523L370.576 209.07C370.683 209.004 370.782 208.943 370.873 208.886L371.092 208.747C370.227 207.77 369.217 206.866 368.072 206.067ZM372.34 210.354C373.401 211.917 374.125 213.607 374.48 215.313L373.837 215.621C363.682 220.45 356.64 222.925 352.827 223.046C348.971 223.168 346.566 222.48 345.559 221.126C345.535 221.094 345.51 221.063 345.483 221.035C345.229 219.595 345.208 218.08 345.43 216.547C347.636 218.041 349.975 218.632 352.414 218.291C355.009 217.929 357.723 217.209 360.512 216.194C363.464 215.12 366.345 213.775 369.041 212.299C369.827 211.868 370.551 211.452 371.205 211.059L371.96 210.597L372.34 210.354ZM374.147 221.226C374.571 220.014 374.76 218.739 374.729 217.448C364.28 222.422 357.015 224.976 352.822 225.109C350.22 225.192 348.117 224.933 346.524 224.302C346.977 225.247 347.55 226.127 348.239 226.919C348.355 226.936 348.469 226.974 348.576 227.034C350.645 228.19 353.28 228.518 356.511 227.99C359.612 227.483 365 225.465 372.616 221.941L374.147 221.226ZM372.368 224.294C370.958 226.041 368.854 227.909 366.595 229.021C362.471 231.146 357.282 231.519 353.403 230.298C354.466 230.311 355.588 230.221 356.77 230.028C359.954 229.508 365.135 227.598 372.368 224.294ZM365.459 204.958L365.835 204.767C359.718 201.877 352.628 203.606 348.495 209.188C349.52 210.007 350.721 210.343 352.151 210.209C354.462 209.991 358.934 208.238 365.459 204.958Z" fill="white"/>
  <path fill-rule="evenodd" clip-rule="evenodd" d="M346.177 209.007C351.346 200.909 361.548 198.968 369.269 204.355C375.738 208.868 378.484 216.569 375.684 222.821C374.947 224.469 371.991 228.631 367.472 230.854L367.101 231.04C361.38 233.827 354.448 233.563 350.261 231.213C342.836 227.046 341.008 217.104 346.177 209.007ZM368.072 206.067C368.023 206.033 367.974 205.998 367.924 205.965C367.874 206.003 367.82 206.037 367.762 206.067C360.219 209.937 355.1 211.998 352.272 212.264C350.405 212.44 348.752 211.999 347.36 210.951C346.739 212.058 346.26 213.195 345.919 214.336C345.966 214.361 346.011 214.39 346.054 214.423C348.044 215.948 350.078 216.543 352.201 216.247C354.642 215.905 357.219 215.222 359.879 214.254C362.723 213.219 365.509 211.918 368.117 210.49C368.725 210.157 369.295 209.833 369.82 209.523L370.576 209.07C370.683 209.004 370.782 208.943 370.873 208.886L371.092 208.747C370.227 207.77 369.217 206.866 368.072 206.067ZM372.34 210.354C373.401 211.917 374.125 213.607 374.48 215.313L373.837 215.621C363.682 220.45 356.64 222.925 352.827 223.046C348.971 223.168 346.566 222.48 345.559 221.126C345.535 221.094 345.51 221.063 345.483 221.035C345.229 219.595 345.208 218.08 345.43 216.547C347.636 218.041 349.975 218.632 352.414 218.291C355.009 217.929 357.723 217.209 360.512 216.194C363.464 215.12 366.345 213.775 369.041 212.299C369.827 211.868 370.551 211.452 371.205 211.059L371.96 210.597L372.34 210.354ZM374.147 221.226C374.571 220.014 374.76 218.739 374.729 217.448C364.28 222.422 357.015 224.976 352.822 225.109C350.22 225.192 348.117 224.933 346.524 224.302C346.977 225.247 347.55 226.127 348.239 226.919C348.355 226.936 348.469 226.974 348.576 227.034C350.645 228.19 353.28 228.518 356.511 227.99C359.612 227.483 365 225.465 372.616 221.941L374.147 221.226ZM372.368 224.294C370.958 226.041 368.854 227.909 366.595 229.021C362.471 231.146 357.282 231.519 353.403 230.298C354.466 230.311 355.588 230.221 356.77 230.028C359.954 229.508 365.135 227.598 372.368 224.294ZM365.459 204.958L365.835 204.767C359.718 201.877 352.628 203.606 348.495 209.188C349.52 210.007 350.721 210.343 352.151 210.209C354.462 209.991 358.934 208.238 365.459 204.958Z" fill="#9EADBD"/>
  <path fill-rule="evenodd" clip-rule="evenodd" d="M141.402 4.01961C149.531 3.59928 155.875 9.98776 155.941 18.3463C155.996 25.3495 152.024 31.2959 146.332 32.4827C144.832 32.7954 140.507 32.7954 136.755 30.6668L136.445 30.4936C131.714 27.7844 128.496 22.6306 128.066 18.3909C127.303 10.8742 133.274 4.43993 141.402 4.01961ZM154.172 18.3599C154.171 18.3065 154.171 18.2532 154.17 18.1999C154.119 18.1834 154.068 18.1619 154.02 18.1353C147.647 14.6633 143.712 12.0173 142.142 10.1068C141.104 8.8451 140.598 7.42201 140.64 5.87573C139.57 5.99534 138.55 6.23288 137.594 6.57283C137.6 6.61921 137.602 6.66664 137.601 6.71482C137.523 8.93959 138.109 10.7181 139.356 12.1028C140.789 13.6942 142.524 15.2086 144.498 16.6367C146.607 18.1635 148.873 19.5117 151.138 20.6659C151.667 20.9352 152.17 21.1807 152.642 21.402L153.325 21.7157C153.424 21.7597 153.514 21.8 153.598 21.8367L153.801 21.9233C154.052 20.7949 154.182 19.5991 154.172 18.3599ZM153.304 23.6531C152.744 25.2245 151.932 26.6172 150.928 27.7514L150.4 27.4442C142.083 22.5745 136.92 18.7492 134.966 16.0505C132.99 13.3219 132.286 11.2269 132.728 9.80226C132.738 9.76831 132.747 9.7342 132.753 9.70007C133.623 8.77614 134.659 7.98187 135.827 7.35502C135.877 9.71998 136.616 11.7174 138.048 13.3075C139.571 14.9996 141.399 16.5949 143.468 18.0919C145.658 19.6771 148 21.071 150.342 22.2641C151.025 22.6121 151.668 22.9222 152.26 23.1936L152.949 23.5026L153.304 23.6531ZM146.68 30.5497C147.725 30.2338 148.698 29.7154 149.575 29.0291C141.014 24.0211 135.687 20.0751 133.538 17.1078C132.205 15.2666 131.353 13.6109 131.007 12.1334C130.576 12.9469 130.25 13.8143 130.04 14.7204C130.086 14.8128 130.115 14.9148 130.127 15.0232C130.342 17.115 131.408 19.1913 133.358 21.2591C135.228 23.2435 139.266 26.1069 145.435 29.8088L146.68 30.5497ZM143.689 30.8388C141.79 30.7165 139.467 30.1533 137.591 29.0891C134.101 27.196 131.298 23.6311 130.239 20.1955C130.751 20.9714 131.364 21.7376 132.077 22.4939C133.998 24.5316 137.858 27.3014 143.689 30.8388ZM153.656 15.8981L153.972 16.0721C152.969 10.1579 148.297 5.91392 142.414 5.79176C142.351 6.95393 142.708 7.99673 143.502 8.96269C144.786 10.5236 148.19 12.86 153.656 15.8981Z" fill="#748AA1"/>
  <path fill-rule="evenodd" clip-rule="evenodd" d="M297.127 17.3902C297.631 17.0406 298.319 17.17 298.665 17.6792C299.011 18.1884 298.883 18.8847 298.379 19.2343C297.827 19.618 297.338 19.9723 296.907 20.3015C297.372 20.6756 297.836 21.1041 298.319 21.592L299.297 22.5966C299.727 23.0353 299.724 23.7435 299.29 24.1783C298.856 24.6132 298.156 24.6101 297.726 24.1714L296.553 22.9718C296.075 22.5012 295.627 22.1076 295.176 21.7806C294.176 22.7835 293.871 23.519 293.855 24.25L293.855 24.4374L293.849 24.5518C293.792 25.1158 293.321 25.5559 292.749 25.5559C292.138 25.5559 291.643 25.0551 291.643 24.4374L291.643 24.2175C291.664 23.078 292.061 21.9941 293.132 20.7554C292.426 20.5426 291.629 20.4235 290.664 20.3725C290.054 20.3402 289.585 19.8141 289.617 19.1972C289.649 18.5804 290.169 18.1064 290.779 18.1386C292.456 18.2272 293.759 18.5098 294.92 19.0468C295.405 18.6462 295.954 18.2258 296.574 17.7808L297.127 17.3902Z" fill="#748AA1"/>
  <path fill-rule="evenodd" clip-rule="evenodd" d="M131.424 262.466L130.657 262.47C126.369 262.51 123.019 262.901 116.709 263.926C115.985 264.043 115.493 264.732 115.609 265.463C115.725 266.195 116.406 266.693 117.13 266.576L119.198 266.247C124.419 265.436 127.428 265.151 131.424 265.151C145.293 265.151 154.146 273.931 152.648 287.397C152.566 288.134 153.09 288.798 153.819 288.881C154.547 288.964 155.204 288.434 155.286 287.697C156.971 272.552 146.801 262.466 131.424 262.466ZM120.684 267.885L120.814 267.769C120.939 267.661 121.132 267.676 121.237 267.803C121.347 267.931 121.33 268.122 121.205 268.231L121.071 268.346C120.946 268.455 120.757 268.44 120.648 268.313C120.542 268.185 120.555 267.993 120.684 267.885ZM144.731 270.692C145.207 270.305 145.903 270.382 146.286 270.863C147.831 272.807 148.957 274.702 149.659 276.551C150.342 278.35 150.575 281.372 150.398 285.693L150.355 286.605C150.323 287.222 149.803 287.696 149.193 287.663C148.583 287.631 148.115 287.104 148.147 286.488C148.381 281.973 148.181 278.898 147.595 277.353C146.98 275.735 145.971 274.038 144.562 272.265C144.179 271.783 144.255 271.079 144.731 270.692ZM132.662 266.992C132.12 266.708 131.452 266.923 131.171 267.471C130.89 268.019 131.102 268.694 131.645 268.979C133.891 270.155 135.606 272.128 136.802 274.941C138.085 277.959 139.135 280.653 139.952 283.02C140.153 283.603 140.783 283.911 141.36 283.707C141.937 283.504 142.241 282.866 142.04 282.283C141.205 279.863 140.136 277.121 138.834 274.057C137.444 270.788 135.383 268.418 132.662 266.992ZM126.233 266.933C126.635 266.469 127.334 266.422 127.793 266.829C129.639 268.465 131.058 269.952 132.05 271.302C133.036 272.641 134.19 274.644 135.525 277.324C135.8 277.876 135.581 278.549 135.036 278.827C134.49 279.105 133.825 278.883 133.55 278.331C132.267 275.756 131.171 273.854 130.276 272.637C129.388 271.43 128.073 270.051 126.336 268.512C125.877 268.105 125.83 267.398 126.233 266.933ZM130.271 279.564C130.73 279.971 131.429 279.924 131.831 279.46C132.234 278.995 132.188 278.289 131.728 277.881C129.991 276.342 128.677 274.964 127.788 273.756C126.893 272.539 125.797 270.637 124.514 268.062C124.239 267.51 123.574 267.289 123.029 267.567C122.483 267.845 122.264 268.517 122.539 269.069C123.874 271.749 125.028 273.752 126.014 275.092C127.007 276.441 128.425 277.928 130.271 279.564ZM138.643 267.904C139.146 267.553 139.835 267.681 140.182 268.189C142.654 271.81 144.233 274.515 144.931 276.353C145.631 278.198 146.115 280.684 146.396 283.826C146.451 284.442 146.003 284.985 145.394 285.041C144.786 285.097 144.248 284.643 144.193 284.028C143.929 281.074 143.483 278.778 142.866 277.155C142.291 275.642 140.952 273.309 138.858 270.193L138.362 269.46C138.015 268.952 138.141 268.255 138.643 267.904Z" fill="#748AA1"/>
  <path fill-rule="evenodd" clip-rule="evenodd" d="M159.637 261.309L158.875 263.021L157.138 263.526C157.044 263.553 156.99 263.652 157.017 263.747C157.025 263.776 157.041 263.803 157.062 263.824L158.382 265.153L158.308 267.066C158.304 267.164 158.38 267.248 158.478 267.251C158.511 267.253 158.544 267.245 158.572 267.228L160.067 266.367C160.113 266.341 160.17 266.337 160.22 266.357L161.818 266.999C161.908 267.035 162.011 266.99 162.047 266.898C162.06 266.867 162.063 266.833 162.057 266.8L161.721 264.917L162.845 263.415C162.904 263.337 162.889 263.224 162.811 263.165C162.787 263.146 162.758 263.134 162.728 263.13L160.939 262.875L159.948 261.287C159.896 261.203 159.787 261.178 159.704 261.231C159.675 261.249 159.652 261.276 159.637 261.309Z" fill="#748AA1"/>
  <path fill-rule="evenodd" clip-rule="evenodd" d="M98.101 21.5276C97.6941 21.8926 97.1862 22.5508 96.7377 23.2633L96.1605 23.004L95.4781 22.7082C95.3408 22.6448 95.2522 22.5952 95.225 22.555C95.1464 22.4068 94.965 22.3505 94.8169 22.4291C94.673 22.5075 94.6148 22.6912 94.6935 22.8389C94.7474 22.9794 95.1307 23.4201 95.8427 23.8512C95.9715 23.9293 96.1142 24.002 96.2671 24.0728C96.0047 24.5694 95.7984 25.0492 95.7016 25.434C95.5553 26.0014 95.672 26.4034 95.8646 26.5447C96.0531 26.6844 96.5266 26.7105 97.2473 26.1053C97.3801 26.0032 97.401 25.8124 97.3003 25.6798C97.1996 25.5476 97.012 25.5231 96.8791 25.6253C96.7421 25.7276 96.6038 25.7855 96.4917 25.8274L96.5463 25.6102C96.5677 25.5326 96.594 25.4517 96.6307 25.3727C96.7598 25.087 96.924 24.7607 97.1085 24.4257C97.6722 24.641 98.3134 24.8362 99.006 24.9302C99.3436 24.9762 99.6878 24.9851 100.045 24.9822C100.251 24.9959 100.429 24.8381 100.443 24.6297C100.456 24.4218 100.3 24.2417 100.095 24.228C99.261 24.1467 98.4907 23.9339 97.8107 23.6944L97.5878 23.6133C97.9557 23.0316 98.3497 22.5033 98.6875 22.2051C98.8706 22.0412 98.8892 21.7562 98.729 21.5695C98.5646 21.382 98.2841 21.3633 98.101 21.5276Z" fill="#748AA1"/>
  <path fill-rule="evenodd" clip-rule="evenodd" d="M228.686 305.834C229.189 305.485 229.878 305.614 230.223 306.123C230.569 306.633 230.441 307.329 229.938 307.679C229.385 308.063 228.896 308.417 228.465 308.746C228.929 309.12 229.393 309.549 229.875 310.036L230.853 311.041C231.283 311.48 231.28 312.188 230.847 312.623C230.413 313.057 229.713 313.054 229.283 312.616L228.109 311.416C227.632 310.946 227.184 310.552 226.734 310.226C225.734 311.228 225.429 311.963 225.413 312.694L225.413 312.882L225.407 312.996C225.351 313.56 224.88 314 224.307 314C223.696 314 223.201 313.499 223.201 312.882L223.201 312.662C223.222 311.522 223.62 310.439 224.69 309.2C223.983 308.987 223.187 308.868 222.22 308.817C221.611 308.784 221.142 308.258 221.174 307.641C221.206 307.025 221.726 306.551 222.336 306.583C224.013 306.671 225.317 306.954 226.478 307.491C226.963 307.091 227.512 306.67 228.132 306.225L228.686 305.834Z" fill="#748AA1"/>
  <path fill-rule="evenodd" clip-rule="evenodd" d="M228.686 305.834C229.189 305.485 229.878 305.614 230.223 306.123C230.569 306.633 230.441 307.329 229.938 307.679C229.385 308.063 228.896 308.417 228.465 308.746C228.929 309.12 229.393 309.549 229.875 310.036L230.853 311.041C231.283 311.48 231.28 312.188 230.847 312.623C230.413 313.057 229.713 313.054 229.283 312.616L228.109 311.416C227.632 310.946 227.184 310.552 226.734 310.226C225.734 311.228 225.429 311.963 225.413 312.694L225.413 312.882L225.407 312.996C225.351 313.56 224.88 314 224.307 314C223.696 314 223.201 313.499 223.201 312.882L223.201 312.662C223.222 311.522 223.62 310.439 224.69 309.2C223.983 308.987 223.187 308.868 222.22 308.817C221.611 308.784 221.142 308.258 221.174 307.641C221.206 307.025 221.726 306.551 222.336 306.583C224.013 306.671 225.317 306.954 226.478 307.491C226.963 307.091 227.512 306.67 228.132 306.225L228.686 305.834Z" fill="#748AA1"/>
  <path fill-rule="evenodd" clip-rule="evenodd" d="M190.89 275.194L190.128 276.906L188.391 277.411C188.297 277.438 188.242 277.537 188.269 277.632C188.278 277.661 188.293 277.688 188.315 277.709L189.635 279.038L189.561 280.951C189.557 281.049 189.633 281.133 189.73 281.137C189.764 281.138 189.796 281.13 189.825 281.113L191.319 280.253C191.366 280.226 191.422 280.222 191.472 280.242L193.07 280.884C193.161 280.92 193.264 280.875 193.3 280.783C193.312 280.752 193.315 280.719 193.31 280.686L192.973 278.802L194.097 277.301C194.156 277.222 194.141 277.109 194.063 277.05C194.039 277.031 194.011 277.02 193.981 277.015L192.191 276.76L191.201 275.172C191.149 275.088 191.04 275.063 190.957 275.116C190.928 275.134 190.904 275.162 190.89 275.194Z" fill="#748AA1"/>
  <path fill-rule="evenodd" clip-rule="evenodd" d="M286.763 263.425L285.468 264.771L283.665 264.644C283.567 264.637 283.483 264.711 283.476 264.81C283.474 264.84 283.479 264.871 283.492 264.898L284.283 266.603L283.567 268.375C283.53 268.466 283.573 268.571 283.664 268.608C283.694 268.621 283.728 268.625 283.76 268.619L285.455 268.327C285.508 268.318 285.563 268.334 285.603 268.37L286.887 269.526C286.96 269.592 287.072 269.585 287.137 269.511C287.159 269.486 287.174 269.456 287.179 269.423L287.5 267.536L289.064 266.514C289.147 266.461 289.17 266.35 289.117 266.267C289.101 266.241 289.078 266.22 289.052 266.206L287.456 265.347L287.063 263.512C287.042 263.415 286.948 263.354 286.852 263.375C286.818 263.382 286.787 263.4 286.763 263.425Z" fill="#748AA1"/>
  <path fill-rule="evenodd" clip-rule="evenodd" d="M306.99 140.775L306.228 142.487L304.491 142.992C304.397 143.019 304.342 143.118 304.369 143.213C304.378 143.242 304.393 143.269 304.415 143.29L305.735 144.619L305.661 146.532C305.657 146.63 305.733 146.714 305.83 146.717C305.864 146.719 305.896 146.711 305.925 146.694L307.419 145.834C307.466 145.807 307.522 145.803 307.572 145.823L309.17 146.465C309.261 146.501 309.364 146.456 309.4 146.364C309.412 146.333 309.415 146.299 309.41 146.267L309.073 144.383L310.197 142.881C310.256 142.803 310.241 142.69 310.163 142.631C310.139 142.612 310.111 142.6 310.081 142.596L308.291 142.341L307.301 140.753C307.249 140.669 307.14 140.644 307.057 140.697C307.028 140.715 307.004 140.743 306.99 140.775Z" fill="#748AA1"/>
  <path fill-rule="evenodd" clip-rule="evenodd" d="M307.167 142.481L306.843 143.208L306.105 143.422C306.065 143.434 306.042 143.476 306.054 143.516C306.057 143.529 306.064 143.54 306.073 143.549L306.634 144.114L306.602 144.926C306.601 144.968 306.633 145.003 306.674 145.005C306.688 145.005 306.702 145.002 306.715 144.995L307.349 144.629C307.369 144.618 307.393 144.616 307.414 144.625L308.093 144.898C308.132 144.913 308.175 144.894 308.191 144.855C308.196 144.842 308.197 144.827 308.195 144.813L308.052 144.013L308.529 143.376C308.554 143.342 308.548 143.294 308.515 143.269C308.505 143.261 308.493 143.256 308.48 143.254L307.72 143.146L307.299 142.471C307.277 142.436 307.23 142.425 307.195 142.448C307.183 142.455 307.173 142.467 307.167 142.481Z" fill="#E7EAEE"/>
  <path fill-rule="evenodd" clip-rule="evenodd" d="M397.583 215.919L396.821 217.631L395.084 218.136C394.99 218.163 394.936 218.262 394.963 218.357C394.971 218.386 394.986 218.413 395.008 218.435L396.328 219.763L396.254 221.676C396.25 221.775 396.326 221.858 396.424 221.862C396.457 221.863 396.489 221.855 396.518 221.838L398.012 220.978C398.059 220.951 398.115 220.947 398.165 220.967L399.763 221.609C399.854 221.645 399.957 221.6 399.993 221.509C400.005 221.478 400.009 221.444 400.003 221.411L399.666 219.527L400.79 218.026C400.849 217.947 400.834 217.835 400.756 217.775C400.732 217.757 400.704 217.745 400.674 217.74L398.884 217.486L397.894 215.897C397.842 215.813 397.733 215.788 397.65 215.841C397.621 215.86 397.597 215.887 397.583 215.919Z" fill="#748AA1"/>
  <path fill-rule="evenodd" clip-rule="evenodd" d="M321.016 62.1278L320.462 62.5184C319.841 62.9641 317.522 65.1746 317.037 65.5757C315.877 65.0375 314.574 64.7547 312.896 64.6661C312.286 64.6338 311.766 65.1078 311.734 65.7246C311.702 66.3415 312.171 66.8677 312.781 66.8999C313.747 66.9509 314.544 67.0703 315.251 67.2834C314.18 68.5223 313.783 69.6056 313.762 70.7446L313.762 70.9645C313.762 71.5822 314.257 72.0829 314.868 72.0829C315.44 72.0829 315.911 71.6428 315.968 71.0788L315.974 70.9645L315.974 70.777C315.99 70.0463 316.294 69.3111 317.294 68.3088C317.744 68.6355 318.192 69.0289 318.67 69.4992L319.843 70.6988C320.273 71.1375 320.973 71.1406 321.407 70.7058C321.841 70.2709 321.844 69.5628 321.414 69.1241L320.436 68.1195C319.954 67.6318 319.49 67.2035 319.025 66.8296C319.841 64.9458 322.899 62.926 322.553 62.4167C322.207 61.9075 321.519 61.7782 321.016 62.1278Z" fill="#748AA1"/>
  <path fill-rule="evenodd" clip-rule="evenodd" d="M107.648 191.116L106.141 192.214L104.387 191.772C104.293 191.748 104.197 191.806 104.173 191.902C104.166 191.932 104.166 191.963 104.174 191.992L104.66 193.81L103.65 195.429C103.598 195.513 103.623 195.623 103.706 195.676C103.734 195.694 103.766 195.703 103.799 195.704L105.519 195.714C105.572 195.714 105.623 195.739 105.656 195.782L106.723 197.146C106.784 197.223 106.895 197.237 106.972 197.175C106.997 197.155 107.017 197.127 107.028 197.095L107.668 195.294L109.384 194.562C109.474 194.524 109.516 194.419 109.478 194.328C109.467 194.3 109.448 194.275 109.424 194.256L108 193.131L107.928 191.254C107.924 191.155 107.842 191.078 107.744 191.082C107.71 191.083 107.676 191.095 107.648 191.116Z" fill="#748AA1"/>
  <path fill-rule="evenodd" clip-rule="evenodd" d="M90.3405 121.019L89.8841 122.84L88.2599 123.642C88.172 123.685 88.1356 123.792 88.1785 123.881C88.1917 123.908 88.2116 123.932 88.2363 123.949L89.7643 125.026L90.0198 126.922C90.033 127.02 90.1222 127.089 90.219 127.076C90.2518 127.071 90.2826 127.057 90.3081 127.036L91.6318 125.926C91.6732 125.891 91.7279 125.878 91.7805 125.889L93.4646 126.24C93.5603 126.26 93.6539 126.198 93.6736 126.101C93.6803 126.068 93.6778 126.034 93.6663 126.003L93.0117 124.207L93.8609 122.531C93.9055 122.443 93.8711 122.335 93.7841 122.29C93.7573 122.276 93.7274 122.269 93.6973 122.27L91.8911 122.334L90.643 120.943C90.5773 120.87 90.4654 120.864 90.3931 120.931C90.3673 120.954 90.349 120.985 90.3405 121.019Z" fill="#748AA1"/>
  <path fill-rule="evenodd" clip-rule="evenodd" d="M129.754 47.7506L129.297 49.5711L127.673 50.3728C127.585 50.4161 127.549 50.5233 127.592 50.6121C127.605 50.6395 127.625 50.663 127.65 50.6804L129.178 51.7573L129.433 53.6536C129.446 53.7516 129.535 53.8201 129.632 53.8068C129.665 53.8023 129.696 53.7886 129.721 53.7672L131.045 52.6572C131.086 52.6226 131.141 52.6088 131.194 52.6197L132.878 52.9713C132.974 52.9913 133.067 52.929 133.087 52.8322C133.094 52.7995 133.091 52.7655 133.08 52.7341L132.425 50.9384L133.274 49.2621C133.319 49.1742 133.284 49.0663 133.197 49.0212C133.171 49.0074 133.141 49.0006 133.111 49.0017L131.304 49.065L130.056 47.6743C129.991 47.6011 129.879 47.5956 129.806 47.662C129.781 47.6857 129.762 47.7165 129.754 47.7506Z" fill="#748AA1"/>
  <path fill-rule="evenodd" clip-rule="evenodd" d="M168.844 158.64L168.172 158.579C167.413 158.517 166.724 158.482 166.098 158.474C165.552 157.308 164.733 156.244 163.504 155.085C163.057 154.664 162.357 154.689 161.941 155.141C161.525 155.593 161.549 156.3 161.996 156.722C162.704 157.389 163.238 157.998 163.645 158.621C162.037 158.874 161.044 159.446 160.304 160.305L160.164 160.473C159.771 160.946 159.832 161.652 160.3 162.049C160.739 162.421 161.379 162.39 161.781 161.995L161.858 161.911L161.977 161.767C162.454 161.218 163.155 160.853 164.558 160.735C164.695 161.278 164.788 161.87 164.855 162.541L164.991 164.223C165.042 164.838 165.576 165.296 166.185 165.245C166.794 165.194 167.246 164.653 167.196 164.038L167.085 162.632C167.025 161.945 166.942 161.315 166.824 160.727C167.363 160.755 167.963 160.801 168.631 160.866C169.239 160.926 169.78 160.476 169.839 159.861C169.897 159.246 169.452 158.699 168.844 158.64Z" fill="#748AA1"/>
  <path fill-rule="evenodd" clip-rule="evenodd" d="M102.615 142.794C102.815 143.306 103.253 144.013 103.762 144.683L103.323 145.143L102.815 145.691L102.702 145.8C102.653 145.844 102.614 145.871 102.586 145.879C102.422 145.903 102.307 146.056 102.33 146.223C102.353 146.387 102.504 146.505 102.668 146.481C102.817 146.478 103.358 146.264 104.002 145.735C104.119 145.639 104.235 145.529 104.353 145.407C104.725 145.827 105.1 146.187 105.424 146.41C105.901 146.744 106.315 146.77 106.512 146.635C106.706 146.504 106.893 146.063 106.577 145.171C106.527 145.01 106.357 144.925 106.199 144.975C106.042 145.026 105.955 145.196 106.005 145.357C106.053 145.522 106.06 145.673 106.06 145.794L105.877 145.668C105.812 145.621 105.746 145.568 105.685 145.506C105.464 145.286 105.217 145.018 104.969 144.728C105.362 144.266 105.762 143.724 106.086 143.098C106.245 142.793 106.371 142.468 106.49 142.128C106.573 141.937 106.488 141.714 106.299 141.63C106.11 141.546 105.889 141.633 105.806 141.823C105.446 142.587 104.984 143.247 104.529 143.811L104.378 143.995C103.963 143.447 103.607 142.891 103.445 142.468C103.356 142.238 103.097 142.123 102.869 142.211C102.639 142.304 102.525 142.564 102.615 142.794Z" fill="#E7EAEE"/>
  <path fill-rule="evenodd" clip-rule="evenodd" d="M192.772 27.7057C193.284 27.1749 194.113 27.1897 194.623 27.7388C195.134 28.2878 195.133 29.1631 194.621 29.6938C194.136 30.1971 193.702 30.6636 193.314 31.0977C194.134 31.4492 194.957 31.9044 195.838 32.4664L197.175 33.3339C197.762 33.7121 197.89 34.4688 197.461 35.0241C197.032 35.5793 196.208 35.7227 195.621 35.3445L194.018 34.3098C193.181 33.7913 192.427 33.399 191.668 33.1235C190.515 34.7448 190.274 35.7841 190.421 36.7475L190.461 36.9761L190.478 37.1167C190.532 37.8159 190.078 38.4502 189.411 38.5691C188.7 38.6959 188.017 38.1882 187.886 37.4352L187.84 37.167C187.621 35.7695 187.855 34.3615 188.846 32.6222C188.174 32.6115 187.441 32.6619 186.611 32.7693C185.887 32.8628 185.239 32.3993 185.161 31.734C185.084 31.0687 185.607 30.4536 186.33 30.3601C187.916 30.1551 189.246 30.1318 190.462 30.2981C190.962 29.676 191.542 29.0118 192.211 28.2967L192.772 27.7057Z" fill="#E7EAEE"/>
  <path fill-rule="evenodd" clip-rule="evenodd" d="M355.682 136.456L354.92 138.169L353.183 138.673C353.089 138.7 353.034 138.799 353.061 138.894C353.07 138.924 353.085 138.95 353.107 138.972L354.426 140.301L354.352 142.213C354.349 142.312 354.425 142.395 354.522 142.399C354.555 142.4 354.588 142.392 354.617 142.376L356.111 141.515C356.158 141.488 356.214 141.484 356.264 141.504L357.862 142.146C357.953 142.183 358.056 142.138 358.092 142.046C358.104 142.015 358.107 141.981 358.101 141.948L357.765 140.065L358.889 138.563C358.948 138.484 358.933 138.372 358.855 138.312C358.831 138.294 358.803 138.282 358.773 138.278L356.983 138.023L355.993 136.434C355.941 136.35 355.831 136.325 355.749 136.378C355.719 136.397 355.696 136.424 355.682 136.456Z" fill="#748AA1"/>
  <path fill-rule="evenodd" clip-rule="evenodd" d="M345.52 41.3955L344.758 43.1082L343.021 43.6124C342.927 43.6397 342.873 43.7388 342.9 43.8338C342.908 43.8631 342.924 43.8898 342.945 43.9113L344.265 45.2401L344.191 47.1525C344.187 47.2513 344.263 47.3345 344.361 47.3383C344.394 47.3396 344.427 47.3316 344.455 47.315L345.95 46.4544C345.996 46.4275 346.052 46.4235 346.102 46.4436L347.701 47.0855C347.791 47.122 347.894 47.0771 347.93 46.9853C347.942 46.9542 347.946 46.9203 347.94 46.8874L347.604 45.004L348.728 43.5023C348.787 43.4235 348.771 43.3113 348.693 43.2516C348.669 43.2332 348.641 43.2213 348.611 43.2171L346.822 42.9622L345.831 41.3735C345.779 41.2899 345.67 41.2648 345.587 41.3175C345.558 41.3363 345.535 41.3634 345.52 41.3955Z" fill="#748AA1"/>
  <path d="M169.141 102.884L166.871 106.901L153.819 93.7009C148.712 88.5357 139.179 76.7131 141.902 70.7444C144.626 64.7758 172.545 78.5879 186.165 86.2401L252.558 127.562C261.448 134.257 278.434 148.452 275.256 151.666C272.078 154.88 251.234 149.179 241.208 145.927L242.911 139.614C246.126 140.953 252.785 143.287 253.693 141.909C254.601 140.532 248.775 135.596 245.748 133.301L194.677 101.736C184.084 96.7618 162.331 86.6992 160.061 86.2401C157.224 85.6662 155.522 85.6662 155.522 86.814C155.522 92.7827 164.601 100.014 169.141 102.884Z" fill="#D1DBE3"/>
  <path fill-rule="evenodd" clip-rule="evenodd" d="M140.021 74.0489C140.098 78.0216 144.255 84.6336 150.936 92.1158C155.776 97.5359 161.408 102.775 166.13 106.305L166.424 106.523L166.229 107.4C165.081 112.491 163.582 118.024 164.148 123.604C165.523 137.147 175.997 152.427 189.839 159.935C194.887 162.799 200.626 164.565 206.512 165.334L207.073 165.404C211.462 165.927 215.662 165.84 218.229 165.305C228.191 163.228 236.626 156.185 241.725 145.991C241.742 145.957 241.755 145.922 241.765 145.886C242.437 146.274 243.34 146.707 243.752 146.848L244.882 147.234C257.062 151.377 269.136 154.844 274.068 152.68C275.946 151.857 276.588 150.273 275.803 148.145C275.04 146.077 272.924 143.412 269.373 140.096L269.178 139.915C265.814 136.796 258.344 131.097 246.766 122.817L246.763 122.665C246.199 98.1329 227.357 79.431 203.673 80.9577C196.429 81.4247 190.66 84.0282 187.779 85.6269L186.511 84.9393C174.627 78.5122 165.091 73.9944 157.815 71.2904C145.849 66.8434 139.932 68.9226 140.021 74.0489ZM157.425 73.9246C170.804 78.8971 191.949 90.0804 221.389 108.07L222.284 108.617C245.208 122.652 260.388 133.315 268.415 140.756L268.81 141.126L269.185 141.481C275.211 147.239 276.279 150.464 273.619 151.631C269.065 153.628 256.837 150.261 244.862 146.289L243.752 145.919C242.684 145.561 241.976 145.355 241.538 145.26C241.519 145.246 241.498 145.234 241.476 145.223C241.326 145.146 241.158 145.143 241.014 145.201C240.982 145.207 240.962 145.217 240.951 145.231C240.853 145.284 240.771 145.367 240.717 145.475C235.766 155.37 227.609 161.4 218.001 163.404C215.506 163.924 211.298 164 206.92 163.452L206.657 163.419C200.906 162.668 195.305 161.725 190.382 158.932C176.856 151.596 166.608 136.646 165.272 123.486C164.701 117.862 165.43 112.342 167.366 107.204C167.526 107.317 167.685 107.428 167.842 107.536C168.139 107.741 168.028 107.409 167.509 106.54C167.482 106.427 167.42 106.323 167.331 106.246L167.171 105.989C167.115 105.9 167.056 105.807 166.994 105.711L166.325 105.139C160.014 99.741 155.164 95.1442 151.775 91.349L151.388 90.9135C145.117 83.8167 141.22 77.548 141.155 74.027C141.085 70.1644 146.124 69.7245 157.425 73.9246ZM214.156 146.185C212.64 150.871 214.933 153.884 218.97 154.04C222.7 154.184 226.097 151.807 225.924 148.429C225.774 145.51 223.798 142.389 221.364 141.243C218.421 139.857 215.66 141.538 214.156 146.185ZM220.768 142.538C222.715 143.455 224.39 146.099 224.513 148.503C224.636 150.897 222.019 152.728 219.024 152.613C215.893 152.492 214.285 150.379 215.499 146.629C216.762 142.725 218.682 141.556 220.768 142.538ZM183.336 136.637C181.402 140.333 181.909 143.964 184.883 145.592L184.966 145.636L185.009 145.68C188.997 149.674 193.98 150.159 197.229 147.264L197.34 147.162C201.083 143.695 200.191 137.738 194.236 133.068C190.403 130.063 185.722 132.078 183.336 136.637ZM193.494 134.036C198.9 138.275 199.66 143.352 196.522 146.259C194.272 148.345 190.946 148.46 187.84 146.436L187.78 146.395L187.802 146.391C188.017 146.333 188.19 146.158 188.239 145.929L188.248 145.871C188.288 145.535 188.051 145.231 187.719 145.191C186.959 145.1 186.3 144.914 185.741 144.649L185.665 144.611L185.573 144.514C185.208 144.126 184.852 143.704 184.507 143.248L184.393 143.094C184.263 142.919 184.059 142.834 183.858 142.85L183.843 142.852L183.835 142.837C183.109 141.387 183.281 139.423 184.343 137.332L184.406 137.209C186.48 133.245 190.358 131.576 193.494 134.036ZM157.492 90.0989C157.803 91.2168 158.75 92.7508 160.202 94.5675C162.732 97.7344 166.533 101.421 169.855 103.941L169.118 103.121C169.126 103.115 169.132 103.106 169.137 103.096L169.391 102.624C171.054 99.5544 172.906 96.5268 175.9 94.0588C183.648 97.2899 192.533 101.707 200.627 106.325L203.28 107.841C222.819 119.035 233.098 125.736 244.091 133.974C243.676 135.864 243.153 137.708 242.527 139.495C242.429 139.775 243.712 140.825 243.947 140.695C246.14 142.181 249.574 143.261 251.529 143.317C253.434 143.371 254.535 142.591 253.968 141.036C253.494 139.735 251.707 137.879 248.491 135.392L248.124 135.111L247.383 134.548C235.28 125.384 223.298 117.947 201.182 105.329L200.257 104.804C185.088 96.2407 167.523 88.526 159.477 87.8141C157.824 87.6678 157.073 88.5934 157.492 90.0989ZM245.562 135.083L248.098 137.018C250.36 138.753 251.991 140.036 252.872 140.859L252.937 140.92C254.012 141.94 252.795 142.21 251.561 142.174C249.692 142.121 246.828 140.687 244.404 139.382C244.852 137.979 245.239 136.544 245.562 135.083ZM205.898 128.879C205.595 128.957 205.412 129.268 205.489 129.574C205.566 129.88 205.873 130.065 206.176 129.987C207.695 129.597 208.592 129.747 208.883 130.16C209.077 130.435 208.97 130.903 208.608 131.202C208.326 131.435 207.95 131.547 207.692 131.49C207.467 131.44 207.341 131.265 207.341 130.826C207.341 130.511 207.088 130.255 206.776 130.255C206.464 130.255 206.211 130.511 206.211 130.826C206.211 131.78 206.683 132.437 207.451 132.607C208.069 132.743 208.789 132.529 209.324 132.086C210.114 131.433 210.372 130.304 209.804 129.498C209.182 128.614 207.819 128.386 205.898 128.879ZM230.714 126.782C229.843 127.046 229.468 127.722 229.35 128.738L229.338 128.848L229.323 129.015C229.321 129.042 229.319 129.071 229.318 129.102L229.288 129.681L229.279 129.812C229.274 129.87 229.269 129.917 229.264 129.958L229.248 130.046L229.239 130.084L229.224 130.098C229.049 130.271 229.003 130.542 229.116 130.765L229.145 130.816C229.314 131.081 229.663 131.157 229.926 130.986C230.286 130.751 230.368 130.509 230.412 129.814L230.448 129.134C230.452 129.072 230.457 129.019 230.462 128.959C230.527 128.293 230.687 127.983 231.039 127.876C232.026 127.577 232.592 127.883 232.771 128.55C232.931 129.144 232.7 129.769 232.295 129.943L232.192 129.981C231.928 130.095 231.788 130.397 231.877 130.68C231.972 130.98 232.289 131.146 232.587 131.051C233.663 130.704 234.174 129.411 233.862 128.25C233.513 126.954 232.302 126.301 230.714 126.782ZM189.954 118.033C188.39 120.257 188.681 123.088 191.191 124.369C191.47 124.511 191.809 124.397 191.95 124.116C192.09 123.834 191.979 123.49 191.7 123.348C189.883 122.421 189.675 120.402 190.875 118.695C192.041 117.037 193.664 116.855 194.779 118.646C195.962 120.545 195.876 121.66 195.025 122.162C194.349 122.561 193.261 122.477 192.961 122.151L192.932 122.115C192.751 121.858 192.399 121.798 192.145 121.981C191.89 122.164 191.831 122.521 192.012 122.778C192.64 123.67 194.432 123.834 195.594 123.149C197.081 122.273 197.223 120.427 195.736 118.038C194.143 115.48 191.545 115.771 189.954 118.033ZM213.378 114.756C213.084 114.756 212.843 114.983 212.816 115.273L212.813 115.328C212.813 115.428 212.721 115.541 212.389 115.787L212.075 116.014C211.733 116.266 211.568 116.423 211.413 116.672C211.056 117.242 210.854 117.822 210.854 118.504C210.854 120.25 213.448 122.625 216.28 123.682C219.674 124.949 222.454 124.009 223.211 120.487C223.277 120.179 223.084 119.874 222.779 119.807C222.474 119.74 222.173 119.936 222.107 120.244C221.52 122.978 219.492 123.663 216.671 122.61C214.235 121.7 211.984 119.64 211.984 118.504C211.984 118.064 212.117 117.684 212.368 117.283L212.402 117.235C212.459 117.161 212.549 117.082 212.711 116.96L213.084 116.689C213.703 116.227 213.943 115.915 213.943 115.328C213.943 115.012 213.69 114.756 213.378 114.756ZM210.726 83.0868L211.083 83.1274C230.361 85.4721 244.823 101.067 245.612 121.993L243.544 120.521C237.607 116.306 230.715 111.492 222.869 106.078L221.34 105.143C216.776 102.358 212.412 99.7374 208.246 97.2787C208.322 97.1438 208.344 96.9783 208.292 96.8193C208.001 95.92 207.732 95.3159 207.238 94.7107C205.695 92.8168 203.58 91.8918 202.082 93.0809C201.934 93.198 201.86 93.3745 201.866 93.5506L200.535 92.7825C196.344 90.3696 192.378 88.1411 188.635 86.094L190.097 85.6733C192.265 85.0562 194.962 84.3242 197.649 83.7607C197.624 85.5689 198.963 87.0127 201.186 88.0058C203.076 88.85 205.539 89.3042 207.29 89.1987C210.566 89.0011 212.41 86.095 210.726 83.0868ZM176.908 107.901C175.526 111.721 176.667 115.194 180.119 115.172C185.037 115.139 189.84 110.796 189.064 106.905C188.717 105.169 187.427 103.634 185.183 102.867C181.6 101.644 178.316 104.012 176.908 107.901ZM184.822 103.95C186.676 104.583 187.688 105.788 187.956 107.131C188.572 110.219 184.391 114.001 180.111 114.029C177.66 114.045 176.817 111.478 177.969 108.293C179.189 104.924 181.915 102.958 184.822 103.95ZM226.364 90.4237L226.324 90.4826L226.052 90.9199C225.919 91.142 225.8 91.3598 225.686 91.5946C224.435 94.182 224.467 97.5739 226.585 102.282C227.544 104.415 229.988 107.282 232.122 108.992C234.847 111.176 236.881 111.672 239.309 111.403L240.03 111.317L240.118 111.309C240.166 111.305 240.197 111.305 240.231 111.306L240.28 111.308C240.318 111.31 240.331 111.308 240.333 111.303L240.333 111.299L240.351 111.329C240.515 111.567 240.833 111.645 241.089 111.501C241.362 111.348 241.46 111 241.308 110.724C241.105 110.355 240.766 110.188 240.334 110.167C240.219 110.161 240.098 110.165 239.954 110.178L239.786 110.194L239.32 110.251C237.108 110.523 235.348 110.12 232.823 108.097C230.819 106.49 228.489 103.757 227.613 101.809C225.631 97.403 225.603 94.3681 226.701 92.0967C226.774 91.9454 226.85 91.8018 226.933 91.6575L227.051 91.4575L227.288 91.0787C227.454 90.8114 227.374 90.4588 227.11 90.2911C226.862 90.1339 226.54 90.1952 226.364 90.4237ZM159.379 88.9527C162.99 89.2722 168.652 91.0766 175.179 93.7605L174.988 93.9312C173.172 95.5795 169.507 99.488 168.36 102.276L167.217 100.994C164.398 97.8228 162.352 95.4412 161.08 93.8494L160.823 93.523C159.607 91.9629 158.822 90.6593 158.58 89.7895L158.545 89.6575C158.394 89.0296 158.569 88.881 159.379 88.9527ZM213.475 90.8088C212.069 91.4963 211.498 93.0269 212.423 94.4146C212.597 94.6763 212.949 94.7454 213.207 94.569C213.466 94.3926 213.534 94.0375 213.36 93.7759C212.851 93.0125 213.138 92.2427 213.967 91.8376C214.839 91.411 215.795 91.6563 216.288 92.5876C216.743 93.4456 216.774 94.6073 216.411 95.3682C216.092 96.0361 215.629 96.1641 214.921 95.6254C214.672 95.4356 214.318 95.4862 214.13 95.7383C213.942 95.9904 213.992 96.3486 214.242 96.5384C215.531 97.52 216.807 97.1678 217.429 95.8647C217.95 94.7725 217.908 93.2257 217.284 92.0479C216.488 90.5453 214.865 90.1288 213.475 90.8088ZM206.367 95.4375C206.63 95.7606 206.818 96.1017 206.993 96.5394C205.537 95.684 204.106 94.8482 202.699 94.0325L202.74 94.0083L202.779 93.9798C203.642 93.2952 205.163 93.9603 206.367 95.4375ZM208.776 82.9118L209.27 82.9469L209.303 82.9892C211.256 85.4853 210.504 87.5114 207.837 87.799C205.921 88.0056 200.836 86.5684 200.24 86.0639C199.659 85.5726 198.924 84.4426 198.811 83.5273C200.537 83.1991 202.225 82.9578 203.731 82.88C205.27 82.8004 206.787 82.8023 208.279 82.8823L208.776 82.9118Z" fill="#748AA1"/>
  <path d="M157.768 74.0669C145.802 69.62 146.077 70.9393 157.378 75.1395C170.757 80.112 221.262 111.269 221.262 111.269C244.186 125.304 245.901 123.138 223.681 109.48L222.312 108.64C222.054 108.482 196.756 92.3347 178.68 83.6957C176.645 82.7236 159.13 74.5732 157.768 74.0669Z" fill="white"/>
  <path d="M185.431 95.0329C173.587 89.4299 163.684 86.4703 157.519 85.9269C155.631 85.7605 154.775 86.8132 155.253 88.5255C155.608 89.7971 156.689 91.5419 158.346 93.6081C161.235 97.2101 165.044 100.292 168.838 103.159C162.769 97.4945 161.221 95.1248 159.35 92.7912L159.056 92.42C157.668 90.6455 156.771 89.1628 156.495 88.1735L156.455 88.0233C156.283 87.3092 156.483 87.1402 157.407 87.2217C163.433 87.7528 173.298 90.7183 185.098 96.3137C196.918 101.918 197.256 100.627 185.431 95.0329Z" fill="white"/>
  <path d="M258.695 132.809C258.436 132.619 258.073 132.677 257.885 132.939C257.697 133.201 265.894 139.953 269.074 143.047L269.443 143.41C271.259 145.207 272.599 146.763 273.353 147.994C274.153 149.297 274.204 150.005 273.688 150.295C271.729 151.393 268.912 151.928 264.878 151.252L264.464 151.181C262.928 150.908 251.377 148.361 251.56 148.428L251.631 148.45C251.995 148.548 256.698 150.193 258.322 150.61L258.518 150.661C261 151.292 262.942 151.725 264.689 152.018C268.958 152.733 272.008 152.576 274.25 151.32C275.543 150.595 275.44 149.173 274.338 147.376C273.471 145.962 271.946 144.216 269.877 142.203C266.655 139.067 262.123 135.327 258.695 132.809Z" fill="white"/>
  <path fill-rule="evenodd" clip-rule="evenodd" d="M294.619 171.047C293.471 171.685 293.19 170.595 292.878 169.807C292.253 168.219 291.416 167.791 290.057 168.522C289.12 169.026 287.998 169.339 287.195 168.254C286.764 167.674 286.286 166.482 286.496 165.998C286.894 165.079 287.739 164.42 288.465 163.762C288.754 163.499 289.216 163.469 289.605 163.43C290.917 163.297 290.675 162.459 290.351 161.376C289.928 159.964 289.59 158.471 290.724 157.237C291.638 156.242 293.125 156.456 293.685 157.744C293.986 158.434 294.177 159.244 294.25 160.023C294.458 162.244 294.526 162.32 296.416 162.378C297.291 162.405 298.351 161.879 298.939 163.137C299.122 163.528 299.169 164.4 298.97 164.609C298.171 165.445 297.184 166.017 296.396 166.867C295.96 167.34 295.606 168.142 295.53 168.846C295.437 169.725 295.6 170.616 294.619 171.047Z" fill="#B8C5D3"/>
  <path fill-rule="evenodd" clip-rule="evenodd" d="M384.062 112.649C384.72 111.479 385.357 110.544 386.759 110.372C387.256 110.312 387.815 109.516 388.067 108.931C388.53 107.855 389.036 107.148 390.366 107.262C391.677 107.375 392.162 108.04 392.535 109.254C392.699 109.794 393.756 110.387 394.396 110.372C395.673 110.342 396.654 110.832 396.713 111.96C396.766 112.946 395.952 113.55 394.681 113.658C392.488 113.844 392.457 114.009 392.472 116.362C392.479 117.425 391.919 118.262 391.115 118.218C390.499 118.185 389.605 117.293 389.415 116.616C389.058 115.331 388.679 114.931 387.337 115.424C385.687 116.029 384.189 114.734 384.062 112.649Z" fill="#B8C5D3"/>
  <path fill-rule="evenodd" clip-rule="evenodd" d="M57.912 226.88C58.4895 227.214 58.9875 227.498 59.5069 227.72C60.8288 228.285 60.6665 229.971 59.8439 230.826C59.4593 231.229 58.9956 231.676 58.8557 232.197C58.6119 233.109 58.1063 233.602 57.3877 233.321C56.0983 232.822 54.8738 232.107 53.6371 231.448C53.4602 231.354 53.2542 231.07 53.2508 230.867C53.219 228.953 54.2305 227.592 55.4116 226.461C56.1727 225.731 57.0846 226.177 57.912 226.88Z" fill="#B8C5D3"/>
  <path d="M106.748 165.183L100.725 133.177L39.622 146.13L37.0523 133.731L46.4177 67.8723C51.4424 57.8877 53.8818 55.1453 61.3848 44.176L53.8818 127.698L54.0857 128.682L97.7063 118.613L90.4318 64.8887L102.497 62.3311L113.468 115.272L125.841 112.238L128.941 127.195L116.487 129.836L123.289 161.677L106.748 165.183Z" fill="#B8C5D3"/>
  <path d="M283.037 208.586L283.542 208.653L283.594 208.146L284.212 202.165L284.264 201.664L283.764 201.611L272.821 200.433L273.234 196.429L273.286 195.932L272.789 195.875L267.424 195.265L266.911 195.206L266.874 195.721L266.587 199.726L248.111 197.622L247.614 197.565L247.563 198.063L247.112 202.426L247.064 202.889L247.523 202.974L265.923 206.39L264.659 221.215L233.725 207.044L233.176 206.793L233.035 207.377L231.663 213.059L231.565 213.463L231.945 213.636L264.751 228.621L264.824 228.654L264.903 228.663L269.35 229.17L269.847 229.226L269.898 228.729L272.128 207.139L283.037 208.586Z" fill="#748AA1" stroke="#748AA1"/>
</svg>
