<svg width="135" height="135" viewBox="0 0 135 135" fill="none" xmlns="http://www.w3.org/2000/svg">
  <ellipse cx="69.3463" cy="70.6069" rx="51.1192" ry="50.272" fill="white"/>
  <ellipse cx="67.3695" cy="67.5" rx="46.8607" ry="48.6357" transform="rotate(42.018 67.3695 67.5)" fill="#E9F7FF"/>
  <path fill-rule="evenodd" clip-rule="evenodd" d="M67.3695 119.184C95.4459 119.184 118.206 96.424 118.206 68.3476C118.206 58.6601 115.497 49.6055 110.794 41.9003C116.878 50.2799 120.466 60.5893 120.466 71.7367C120.466 99.8131 97.7055 122.574 69.6291 122.574C51.2401 122.574 35.1317 112.81 26.2047 98.184C35.4443 110.91 50.4406 119.184 67.3695 119.184ZM26.2047 98.184C20.1207 89.8044 16.5327 79.495 16.5327 68.3476C16.5327 40.2712 39.2931 17.5107 67.3695 17.5107C85.7584 17.5107 101.867 27.2743 110.794 41.9003C101.554 29.1747 86.558 20.8999 69.6291 20.8999C41.5527 20.8999 18.7922 43.6603 18.7922 71.7367C18.7922 81.4242 21.5019 90.4788 26.2047 98.184Z" fill="#25B2FF"/>
  <g clip-path="url(#clip0_8712_478712)">
    <path d="M96.1771 48.2422C87.7929 55.6824 77.7319 68.2504 65.994 85.9461L60.209 94.9448C55.3797 88.9122 47.5992 80.5335 36.8674 69.8088L42.2501 64.4297L56.6373 76.9977C61.6678 71.9705 66.3462 67.4209 70.6724 63.3489C74.9986 59.2769 78.4445 56.1349 81.0101 53.9229C83.5756 51.7109 85.7807 49.8509 87.6252 48.3427C89.4697 46.8345 90.7609 45.8459 91.4987 45.3767L92.5551 44.6729C92.6892 44.6729 92.8737 44.7064 93.1084 44.7734C93.3432 44.8404 93.7792 45.1672 94.4164 45.7537C95.0536 46.3402 95.6405 47.1697 96.1771 48.2422Z" fill="white"/>
    <path d="M97.8716 46.5478C89.4875 53.9881 79.4265 66.5561 67.6886 84.2518L61.9035 93.2505C57.0743 87.2178 49.2937 78.8392 38.562 68.1145L43.9446 62.7354L58.3319 75.3034C63.3624 70.2762 68.0408 65.7266 72.367 61.6545C76.6932 57.5825 80.1391 54.4405 82.7047 52.2286C85.2702 50.0166 87.4753 48.1565 89.3198 46.6484C91.1643 45.1402 92.4555 44.1515 93.1933 43.6823L94.2497 42.9785C94.3838 42.9785 94.5683 43.012 94.803 43.0791C95.0378 43.1461 95.4738 43.4729 96.111 44.0594C96.7482 44.6459 97.335 45.4754 97.8716 46.5478Z" fill="#25B2FF"/>
  </g>
  <defs>
    <clipPath id="clip0_8712_478712">
      <rect width="61.0042" height="52.5314" fill="white" transform="translate(36.8674 42.9287)"/>
    </clipPath>
  </defs>
</svg>
