<svg width="24" height="24" viewBox="0 0 24 24" fill="none" xmlns="http://www.w3.org/2000/svg">
  <path fill-rule="evenodd" clip-rule="evenodd" d="M12.8996 6.5001C12.8996 6.00304 12.4967 5.6001 11.9996 5.6001C11.5026 5.6001 11.0996 6.00304 11.0996 6.5001V12.0001C11.0996 12.2388 11.1944 12.4677 11.3632 12.6365L14.3632 15.6365C14.7147 15.988 15.2845 15.988 15.636 15.6365C15.9875 15.285 15.9875 14.7152 15.636 14.3637L12.8996 11.6273V6.5001Z" fill="currentColor"/>
  <path fill-rule="evenodd" clip-rule="evenodd" d="M12 24C18.6274 24 24 18.6274 24 12C24 5.37258 18.6274 0 12 0C5.37258 0 0 5.37258 0 12C0 13.0836 0.143628 14.1337 0.412886 15.1322C0.895862 14.56 1.48396 14.0794 2.14739 13.7202C2.0505 13.1613 2 12.5866 2 12C2 6.47715 6.47715 2 12 2C17.5228 2 22 6.47715 22 12C22 17.5228 17.5228 22 12 22C11.4134 22 10.8387 21.9495 10.2798 21.8526C9.92062 22.516 9.44002 23.1041 8.86781 23.5871C9.86633 23.8564 10.9164 24 12 24Z" fill="currentColor"/>
  <path d="M8.60375 19.43C8.63375 19.14 8.64375 18.85 8.61375 18.57L9.68375 17.72C9.78375 17.64 9.80375 17.51 9.74375 17.4L8.71375 15.61C8.65375 15.5 8.52375 15.46 8.40375 15.5L7.12375 16C6.89229 15.8292 6.64033 15.6881 6.37375 15.58L6.17375 14.22C6.16659 14.1589 6.1371 14.1027 6.09094 14.0621C6.04478 14.0215 5.98523 13.9993 5.92375 14H3.85375C3.73375 14 3.62375 14.09 3.60375 14.21L3.40375 15.57C3.14375 15.68 2.89375 15.83 2.66375 15.99L1.38375 15.49C1.26375 15.44 1.13375 15.49 1.07375 15.6L0.0437494 17.39C-0.0162506 17.5 0.00374986 17.63 0.10375 17.71L1.17375 18.57C1.14375 18.86 1.13375 19.15 1.16375 19.43L0.0937496 20.28C-0.00625037 20.36 -0.0262498 20.49 0.0337502 20.6L1.06375 22.39C1.12375 22.5 1.25375 22.54 1.37375 22.5L2.64375 22C2.87375 22.17 3.12375 22.31 3.39375 22.42L3.59375 23.78C3.61375 23.9 3.71375 23.99 3.84375 23.99H5.91375C6.03375 23.99 6.14375 23.9 6.16375 23.78L6.36375 22.42C6.62375 22.31 6.87375 22.16 7.10375 22L8.38375 22.5C8.50375 22.55 8.63375 22.5 8.69375 22.39L9.72375 20.6C9.78375 20.49 9.76375 20.36 9.66375 20.28L8.60375 19.43ZM4.89375 20.5C4.06375 20.5 3.39375 19.83 3.39375 19C3.39375 18.17 4.06375 17.5 4.89375 17.5C5.72375 17.5 6.39375 18.17 6.39375 19C6.39375 19.83 5.72375 20.5 4.89375 20.5Z" fill="currentColor"/>
</svg>
