<svg width="400" height="73" viewBox="0 0 400 73" fill="none" xmlns="http://www.w3.org/2000/svg">
  <g clip-path="url(#clip0)">
    <path d="M36.6351 20.1114L38.7904 18.9448L49.5932 13.3053V9.51737L37.6982 3.30908L25.2124 9.80539V21.3966L36.6351 27.3871V20.1114Z" fill="url(#paint0_linear)"/>
    <path d="M50.6708 14.9365L38.8243 21.0456L38.8025 36.294C46.8732 36.4846 54.729 38.9322 61.4785 43.3591V20.6075L50.6708 14.9365Z" fill="url(#paint1_linear)"/>
    <path d="M37.6789 46.7259C45.8655 46.6981 53.806 49.5225 60.1345 54.7131C61.8353 52.7706 63.4279 50.736 64.9051 48.6186C58.6231 43.0985 50.8065 39.6241 42.4979 38.6587C42.1928 38.6249 41.8852 38.591 41.5777 38.5643L41.4179 38.5498C41.1563 38.5256 40.8924 38.5038 40.6284 38.4869C40.5219 38.4869 40.4153 38.4724 40.3088 38.4675C40.0932 38.453 39.8801 38.4385 39.6646 38.4288L39.1488 38.4094L38.6839 38.3949C38.3521 38.3949 38.0228 38.3828 37.691 38.3828C37.3592 38.3828 37.0275 38.3828 36.6981 38.3949C36.5456 38.3949 36.3954 38.3949 36.2429 38.4094L35.7174 38.4288C35.5091 38.4288 35.3009 38.453 35.0926 38.4651L34.7536 38.4845L33.9811 38.5547L33.7971 38.5692C33.5 38.5982 33.2021 38.6297 32.9035 38.6636H32.8672C24.5744 39.6237 16.7702 43.0832 10.4915 48.5823C11.9671 50.7025 13.559 52.7395 15.2596 54.6841C21.5823 49.5114 29.5083 46.698 37.6789 46.7259Z" fill="url(#paint2_linear)"/>
    <path d="M36.6763 29.4612L24.2171 22.9746L13.0293 28.8247V43.9569C19.991 39.1439 28.2135 36.4802 36.6763 36.2964V29.4612Z" fill="url(#paint3_linear)"/>
    <path d="M18.1899 57.8356C20.1285 59.7978 22.1807 61.6446 24.336 63.3662C28.2313 60.5769 32.9037 59.0786 37.6955 59.0821C42.4874 59.0855 47.1575 60.5906 51.0488 63.3855C53.2056 61.6673 55.2594 59.8238 57.1997 57.8646C51.8781 52.9864 44.9213 50.2776 37.7005 50.2722C30.4796 50.2668 23.5188 52.9653 18.1899 57.8356Z" fill="url(#paint4_linear)"/>
    <path d="M37.6982 71.7599C41.122 70.1178 44.4061 68.1993 47.5178 66.0236C44.6285 64.0341 41.2034 62.9674 37.6948 62.9644C34.1862 62.9613 30.7592 64.0221 27.8665 66.0066C30.9817 68.1885 34.2698 70.1126 37.6982 71.7599Z" fill="url(#paint5_linear)"/>
    <path d="M118.861 25.6299C117.693 24.1128 116.167 22.9087 114.42 22.1252C112.68 21.3187 110.785 20.9 108.867 20.898C106.683 20.8655 104.518 21.3151 102.527 22.2147C100.68 23.0611 99.03 24.2846 97.6841 25.8066C96.3108 27.3726 95.2496 29.1866 94.5578 31.1508C93.8057 33.2594 93.4295 35.4836 93.4462 37.7221C93.4343 39.8312 93.79 41.9263 94.4972 43.9135C95.1677 45.8069 96.1999 47.552 97.5363 49.0519C98.8841 50.5505 100.535 51.7459 102.38 52.5591C104.426 53.4431 106.638 53.8804 108.867 53.8419C111.243 53.8419 113.328 53.3578 115.12 52.3897C116.935 51.3965 118.495 49.9974 119.68 48.3016L124.411 51.8669C123.907 52.5147 123.361 53.1292 122.777 53.7063C121.843 54.6254 120.804 55.4298 119.68 56.1025C118.218 56.9811 116.658 57.6861 115.032 58.2034C113.001 58.8393 110.88 59.1449 108.751 59.1086C105.477 59.1086 102.526 58.4858 99.8974 57.2401C96.1954 55.4927 93.0642 52.7329 90.8665 49.2804C88.6688 45.8279 87.4944 41.8238 87.4794 37.7318C87.4474 34.7065 87.9821 31.7019 89.0558 28.8732C90.0435 26.2628 91.5436 23.8763 93.468 21.8541C95.3899 19.8606 97.71 18.2937 100.278 17.2554C103.068 16.1466 106.049 15.5988 109.051 15.6434C111.806 15.649 114.533 16.184 117.086 17.2191C119.64 18.2135 121.872 19.8875 123.542 22.0598L118.861 25.6299Z" fill="#303030"/>
    <path d="M244.858 26.564C243.688 25.0487 242.161 23.8463 240.414 23.0641C238.675 22.2577 236.781 21.839 234.864 21.837C232.678 21.8047 230.513 22.2543 228.521 23.1537C226.675 24.0013 225.025 25.2246 223.678 26.7455C222.306 28.3122 221.245 30.126 220.552 32.0898C219.802 34.1988 219.426 36.4228 219.443 38.6611C219.429 40.7682 219.782 42.8615 220.486 44.8476C221.157 46.741 222.189 48.4862 223.526 49.9861C224.873 51.4846 226.524 52.68 228.369 53.4932C230.415 54.3772 232.627 54.8146 234.856 54.776C237.233 54.776 239.317 54.2919 241.109 53.3238C242.923 52.3306 244.483 50.9314 245.666 49.2358L250.401 52.7986C249.896 53.4469 249.349 54.0614 248.764 54.638C247.83 55.5571 246.79 56.3615 245.666 57.0342C244.207 57.9097 242.651 58.6123 241.029 59.1279C238.997 59.7637 236.876 60.0694 234.747 60.0331C231.473 60.0331 228.521 59.4102 225.891 58.1645C222.19 56.4159 219.06 53.6559 216.862 50.2037C214.665 46.7514 213.49 42.748 213.473 38.6563C213.442 35.634 213.978 32.6326 215.052 29.8073C216.044 27.1989 217.548 24.8155 219.477 22.7979C221.398 20.8049 223.717 19.2381 226.284 18.1992C229.07 17.0841 232.049 16.5289 235.05 16.5654C237.805 16.5708 240.534 17.1058 243.087 18.1411C245.641 19.1355 247.874 20.8096 249.543 22.9818L244.858 26.564Z" fill="#303030"/>
    <path d="M255.023 21.37C255.015 20.4687 255.32 19.5925 255.887 18.8912C256.453 18.1898 257.246 17.7069 258.129 17.5249C259.012 17.343 259.931 17.4732 260.729 17.8934C261.527 18.3137 262.154 18.9978 262.503 19.8289C262.852 20.66 262.901 21.5864 262.643 22.4499C262.384 23.3134 261.834 24.0603 261.085 24.5629C260.336 25.0656 259.437 25.2928 258.539 25.2058C257.641 25.1187 256.802 24.7228 256.164 24.0857C255.798 23.7348 255.509 23.3128 255.313 22.8458C255.116 22.3787 255.018 21.8765 255.023 21.37ZM256.251 31.2936H261.511V58.9827H256.251V31.2936Z" fill="#303030"/>
    <path d="M284.713 35.8534H277.172V48.4103C277.172 49.1897 277.191 49.957 277.232 50.717C277.257 51.4191 277.405 52.1115 277.67 52.7622C277.912 53.3483 278.317 53.8525 278.838 54.2144C279.362 54.5839 280.132 54.7687 281.145 54.7687C281.795 54.767 282.443 54.7087 283.083 54.5944C283.72 54.4875 284.333 54.2696 284.894 53.9506V58.7405C284.139 59.1308 283.318 59.377 282.473 59.4666C281.708 59.5836 280.936 59.6523 280.162 59.6724C278.138 59.6724 276.569 59.39 275.457 58.8252C274.444 58.3482 273.592 57.5872 273.004 56.6348C272.471 55.7147 272.151 54.6865 272.069 53.6263C271.972 52.5161 271.924 51.3963 271.924 50.2668V35.8413H265.846V31.2934H271.924V23.5264H277.181V31.2934H284.722L284.713 35.8534Z" fill="#303030"/>
    <path d="M287.681 31.2935H293.759L301.964 52.9051H302.08L309.948 31.2935H315.559L302.409 64.9368C301.981 66.0602 301.496 67.1613 300.956 68.2358C300.492 69.1721 299.883 70.0297 299.152 70.7772C298.431 71.4914 297.57 72.0478 296.622 72.4109C295.458 72.8299 294.226 73.0285 292.989 72.9967C292.201 72.9952 291.413 72.9459 290.631 72.849C289.84 72.7537 289.066 72.5476 288.333 72.2367L288.972 67.4467C289.969 67.8666 291.038 68.0854 292.12 68.0905C292.821 68.1078 293.519 67.9988 294.181 67.7686C294.726 67.5642 295.221 67.2456 295.634 66.8344C296.048 66.4154 296.391 65.9324 296.651 65.4039C296.922 64.8569 297.193 64.2349 297.464 63.533L299.16 59.1521L287.681 31.2935Z" fill="#303030"/>
    <path d="M342.737 60.0331C339.749 60.0674 336.784 59.502 334.019 58.3703C331.459 57.318 329.143 55.7529 327.212 53.7716C325.295 51.7859 323.786 49.444 322.771 46.8783C321.692 44.1525 321.154 41.2435 321.184 38.3126C321.158 35.3737 321.704 32.4578 322.792 29.7275C323.809 27.1577 325.32 24.8117 327.238 22.8221C329.169 20.8408 331.486 19.2757 334.046 18.2234C339.638 16.0063 345.867 16.0063 351.459 18.2234C354.019 19.2763 356.336 20.8413 358.269 22.8221C360.183 24.8099 361.692 27.1512 362.71 29.7154C363.797 32.4461 364.343 35.3617 364.318 38.3005C364.343 41.2392 363.797 44.1549 362.71 46.8856C361.693 49.4503 360.184 51.7919 358.269 53.7788C356.336 55.7597 354.019 57.3246 351.459 58.3776C348.692 59.5077 345.726 60.0707 342.737 60.0331ZM342.737 54.776C344.861 54.8151 346.97 54.4039 348.925 53.5695C350.879 52.7351 352.634 51.4966 354.075 49.9353C355.458 48.4164 356.528 46.6398 357.223 44.7072C358.702 40.5723 358.702 36.0529 357.223 31.9179C356.528 29.9853 355.458 28.2088 354.075 26.6899C352.624 25.1345 350.869 23.8942 348.919 23.0462C346.968 22.1981 344.864 21.7604 342.737 21.7604C340.61 21.7604 338.505 22.1981 336.555 23.0462C334.604 23.8942 332.849 25.1345 331.399 26.6899C330.014 28.2075 328.944 29.9845 328.251 31.9179C326.769 36.0523 326.769 40.5728 328.251 44.7072C328.944 46.6407 330.014 48.4176 331.399 49.9353C332.84 51.4962 334.595 52.7342 336.549 53.5677C338.503 54.4013 340.612 54.8114 342.737 54.7712V54.776Z" fill="#303030"/>
    <path d="M374.702 50.3373C375.65 51.8009 376.993 52.9658 378.576 53.6968C380.105 54.4065 381.77 54.7748 383.456 54.7763C384.427 54.7711 385.392 54.6235 386.321 54.3382C387.278 54.0572 388.179 53.6125 388.985 53.024C389.778 52.4458 390.444 51.7109 390.941 50.865C391.461 49.9592 391.724 48.9292 391.702 47.8855C391.702 46.288 391.195 45.0714 390.181 44.2355C389.05 43.3309 387.777 42.6202 386.413 42.1322C384.911 41.5675 383.275 41.0221 381.504 40.496C379.776 39.9912 378.125 39.2543 376.596 38.3056C375.071 37.3486 373.783 36.0605 372.825 34.5371C371.813 32.9606 371.306 30.829 371.304 28.1424C371.368 25.2827 372.542 22.5598 374.578 20.5497C375.837 19.3352 377.316 18.3731 378.937 17.7154C380.713 16.9554 382.846 16.5762 385.335 16.5778C387.532 16.5692 389.718 16.884 391.823 17.5121C393.889 18.1333 395.701 19.3984 397.257 21.3072L392.699 25.4558C391.961 24.3298 390.937 23.4208 389.73 22.8224C388.371 22.1431 386.867 21.8018 385.347 21.8276C383.791 21.8276 382.499 22.0325 381.473 22.4424C380.537 22.7877 379.686 23.33 378.978 24.0326C378.391 24.6162 377.941 25.3242 377.664 26.1044C377.425 26.7606 377.297 27.4517 377.283 28.1497C377.283 29.902 377.79 31.2453 378.804 32.1796C379.907 33.1631 381.185 33.93 382.572 34.4402C384.177 35.0595 385.816 35.5864 387.481 36.0183C389.193 36.4608 390.842 37.1179 392.389 37.974C393.884 38.8071 395.173 39.9651 396.16 41.3625C397.172 42.7841 397.678 44.7406 397.678 47.232C397.706 49.0857 397.317 50.922 396.54 52.6052C395.818 54.1532 394.771 55.5282 393.472 56.6376C392.128 57.7594 390.581 58.6116 388.914 59.1475C387.104 59.7412 385.209 60.0371 383.303 60.0237C380.725 60.0371 378.167 59.5616 375.765 58.6223C373.495 57.7702 371.525 56.2704 370.101 54.3092L374.702 50.3373Z" fill="#303030"/>
    <path d="M160.711 16.5776V34.474H135.292V16.5776H130.03V34.474V39.0315V59.0989H135.292V39.0315H160.711V59.0989H165.971V39.0315V34.474V16.5776H160.711Z" fill="#303030"/>
    <path d="M207.596 16.5776H192.255H186.995H171.655V21.1328H186.995V59.0989H192.255V21.1328H207.596V16.5776Z" fill="#303030"/>
  </g>
  <defs>
    <linearGradient id="paint0_linear" x1="28.4792" y1="6.53787" x2="42.9797" y2="21.0458" gradientUnits="userSpaceOnUse">
      <stop stop-color="#098FC6"/>
      <stop offset="1" stop-color="#205DA0"/>
    </linearGradient>
    <linearGradient id="paint1_linear" x1="40.7785" y1="19.0972" x2="63.2615" y2="41.5891" gradientUnits="userSpaceOnUse">
      <stop stop-color="#8FC31F"/>
      <stop offset="1" stop-color="#006934"/>
    </linearGradient>
    <linearGradient id="paint2_linear" x1="119.319" y1="3076.15" x2="12346.1" y2="3076.15" gradientUnits="userSpaceOnUse">
      <stop stop-color="#098FC6"/>
      <stop offset="1" stop-color="#205DA0"/>
    </linearGradient>
    <linearGradient id="paint3_linear" x1="18.4803" y1="25.6782" x2="27.6222" y2="41.5212" gradientUnits="userSpaceOnUse">
      <stop stop-color="#F8CB2D"/>
      <stop offset="1" stop-color="#DE8A2E"/>
    </linearGradient>
    <linearGradient id="paint4_linear" x1="1336.33" y1="3046.66" x2="7620.41" y2="3046.66" gradientUnits="userSpaceOnUse">
      <stop stop-color="#098FC6"/>
      <stop offset="1" stop-color="#205DA0"/>
    </linearGradient>
    <linearGradient id="paint5_linear" x1="1477.16" y1="2455.53" x2="3071.87" y2="2455.53" gradientUnits="userSpaceOnUse">
      <stop stop-color="#098FC6"/>
      <stop offset="1" stop-color="#205DA0"/>
    </linearGradient>
    <clipPath id="clip0">
      <rect width="399.675" height="73" fill="white"/>
    </clipPath>
  </defs>
</svg>
