<svg viewBox="0 0 73 73" xmlns="http://www.w3.org/2000/svg">
  <g>
    <path d="M36.6351 20.1114L38.7904 18.9448L49.5932 13.3053V9.51737L37.6982 3.30908L25.2124 9.80539V21.3966L36.6351 27.3871V20.1114Z" fill="url(#paint0_linear)"/>
    <path d="M50.6708 14.9365L38.8243 21.0456L38.8025 36.294C46.8732 36.4846 54.729 38.9322 61.4785 43.3591V20.6075L50.6708 14.9365Z" fill="url(#paint1_linear)"/>
    <path d="M37.6789 46.7259C45.8655 46.6981 53.806 49.5225 60.1345 54.7131C61.8353 52.7706 63.4279 50.736 64.9051 48.6186C58.6231 43.0985 50.8065 39.6241 42.4979 38.6587C42.1928 38.6249 41.8852 38.591 41.5777 38.5643L41.4179 38.5498C41.1563 38.5256 40.8924 38.5038 40.6284 38.4869C40.5219 38.4869 40.4153 38.4724 40.3088 38.4675C40.0932 38.453 39.8801 38.4385 39.6646 38.4288L39.1488 38.4094L38.6839 38.3949C38.3521 38.3949 38.0228 38.3828 37.691 38.3828C37.3592 38.3828 37.0275 38.3828 36.6981 38.3949C36.5456 38.3949 36.3954 38.3949 36.2429 38.4094L35.7174 38.4288C35.5091 38.4288 35.3009 38.453 35.0926 38.4651L34.7536 38.4845L33.9811 38.5547L33.7971 38.5692C33.5 38.5982 33.2021 38.6297 32.9035 38.6636H32.8672C24.5744 39.6237 16.7702 43.0832 10.4915 48.5823C11.9671 50.7025 13.559 52.7395 15.2596 54.6841C21.5823 49.5114 29.5083 46.698 37.6789 46.7259Z" fill="url(#paint2_linear)"/>
    <path d="M36.6763 29.4612L24.2171 22.9746L13.0293 28.8247V43.9569C19.991 39.1439 28.2135 36.4802 36.6763 36.2964V29.4612Z" fill="url(#paint3_linear)"/>
    <path d="M18.1899 57.8356C20.1285 59.7978 22.1807 61.6446 24.336 63.3662C28.2313 60.5769 32.9037 59.0786 37.6955 59.0821C42.4874 59.0855 47.1575 60.5906 51.0488 63.3855C53.2056 61.6673 55.2594 59.8238 57.1997 57.8646C51.8781 52.9864 44.9213 50.2776 37.7005 50.2722C30.4796 50.2668 23.5188 52.9653 18.1899 57.8356Z" fill="url(#paint4_linear)"/>
    <path d="M37.6982 71.7599C41.122 70.1178 44.4061 68.1993 47.5178 66.0236C44.6285 64.0341 41.2034 62.9674 37.6948 62.9644C34.1862 62.9613 30.7592 64.0221 27.8665 66.0066C30.9817 68.1885 34.2698 70.1126 37.6982 71.7599Z" fill="url(#paint5_linear)"/>
  </g>
  <defs>
    <linearGradient id="paint0_linear" x1="28.4792" y1="6.53787" x2="42.9797" y2="21.0458" gradientUnits="userSpaceOnUse">
      <stop stop-color="#098FC6"/>
      <stop offset="1" stop-color="#205DA0"/>
    </linearGradient>
    <linearGradient id="paint1_linear" x1="40.7785" y1="19.0972" x2="63.2615" y2="41.5891" gradientUnits="userSpaceOnUse">
      <stop stop-color="#8FC31F"/>
      <stop offset="1" stop-color="#006934"/>
    </linearGradient>
    <linearGradient id="paint2_linear" x1="119.319" y1="3076.15" x2="12346.1" y2="3076.15" gradientUnits="userSpaceOnUse">
      <stop stop-color="#098FC6"/>
      <stop offset="1" stop-color="#205DA0"/>
    </linearGradient>
    <linearGradient id="paint3_linear" x1="18.4803" y1="25.6782" x2="27.6222" y2="41.5212" gradientUnits="userSpaceOnUse">
      <stop stop-color="#F8CB2D"/>
      <stop offset="1" stop-color="#DE8A2E"/>
    </linearGradient>
    <linearGradient id="paint4_linear" x1="1336.33" y1="3046.66" x2="7620.41" y2="3046.66" gradientUnits="userSpaceOnUse">
      <stop stop-color="#098FC6"/>
      <stop offset="1" stop-color="#205DA0"/>
    </linearGradient>
    <linearGradient id="paint5_linear" x1="1477.16" y1="2455.53" x2="3071.87" y2="2455.53" gradientUnits="userSpaceOnUse">
      <stop stop-color="#098FC6"/>
      <stop offset="1" stop-color="#205DA0"/>
    </linearGradient>
  </defs>
</svg>
