<svg width="24" height="24" viewBox="0 0 24 24" fill="none" xmlns="http://www.w3.org/2000/svg">
  <g id="Clock" transform="translate(0.000000, 1.000000)">
    <path d="M12.8996,5.49998 C12.8996,5.00292 12.4967,4.59998 11.9996,4.59998 C11.5026,4.59998 11.0996,5.00292 11.0996,5.49998 L11.0996,11 C11.0996,11.2387 11.1944,11.4676 11.3632,11.6364 L14.3632,14.6364 C14.7147,14.9878 15.2845,14.9878 15.636,14.6364 C15.9875,14.2849 15.9875,13.7151 15.636,13.3636 L12.8996,10.6272 L12.8996,5.49998 Z" id="Path" fill="currentColor"></path>
    <path d="M7.00382855,20.802537 C8.50302679,21.5681782 10.2010847,22 12,22 C18.0751322,22 23,17.0751322 23,11 C23,4.92486775 18.0751322,0 12,0 C5.92486775,0 1,4.92486775 1,11 C1,12.7788034 1.4222202,14.458992 2.1719087,15.9458139" id="Path" stroke="currentColor" stroke-width="2"></path>
    <path d="M5,13 C7.76142375,13 10,15.2385763 10,18 C10,20.7614237 7.76142375,23 5,23 C2.23857625,23 0,20.7614237 0,18 C0,15.2385763 2.23857625,13 5,13 Z M5.08371,14 C4.66949,14 4.33371,14.3358 4.33371,14.75 L4.33371,17 L1.75,17 C1.33579,17 1,17.3358 1,17.75 C1,18.1642 1.33579,18.5 1.75,18.5 L4.33371,18.5 L4.33371,21.25 C4.33371,21.6642 4.66949,22 5.08371,22 C5.49792,22 5.83371,21.6642 5.83371,21.25 L5.83371,18.5 L8.25,18.5 C8.66421,18.5 9,18.1642 9,17.75 C9,17.3358 8.66421,17 8.25,17 L5.83371,17 L5.83371,14.75 C5.83371,14.3358 5.49792,14 5.08371,14 Z" id="Combined-Shape" fill="currentColor" fill-rule="nonzero"></path>
  </g>
</svg>
