<svg width="24" height="24" viewBox="0 0 24 24" fill="none" xmlns="http://www.w3.org/2000/svg">
  <path d="M14.8714 6.3947C15.1143 6.16821 15.4375 6.043 15.7729 6.04549C16.1082 6.04797 16.4295 6.17796 16.6689 6.40802C16.9082 6.63809 17.047 6.95023 17.0559 7.27859C17.0647 7.60695 16.943 7.92583 16.7164 8.16796L9.83639 16.5952C9.71808 16.72 9.5753 16.8201 9.41657 16.8897C9.25784 16.9592 9.08643 16.9966 8.91259 16.9998C8.73874 17.0029 8.56604 16.9717 8.40479 16.908C8.24354 16.8443 8.09707 16.7494 7.97413 16.629L3.41161 12.1603C3.28455 12.0444 3.18264 11.9045 3.11195 11.7492C3.04127 11.5938 3.00326 11.4261 3.0002 11.256C2.99714 11.0859 3.02908 10.917 3.09412 10.7593C3.15917 10.6016 3.25598 10.4583 3.37878 10.338C3.50158 10.2178 3.64786 10.1229 3.80889 10.0592C3.96992 9.99553 4.1424 9.96425 4.31605 9.96725C4.48969 9.97025 4.66094 10.0075 4.81957 10.0767C4.97821 10.1459 5.12098 10.2457 5.23938 10.3702L8.85008 13.9049L14.8369 6.43186C14.8476 6.41882 14.8591 6.40641 14.8714 6.3947ZM13.285 15.0752L14.8714 16.629C14.9943 16.7491 15.1406 16.8438 15.3017 16.9074C15.4628 16.9709 15.6353 17.0021 15.809 16.9989C15.9826 16.9958 16.1538 16.9584 16.3124 16.889C16.4709 16.8197 16.6136 16.7197 16.7319 16.5952L23.6153 8.16796C23.739 8.0484 23.8368 7.90565 23.9029 7.74825C23.9689 7.59085 24.0019 7.42202 23.9999 7.25185C23.9979 7.08167 23.9609 6.91365 23.8911 6.7578C23.8213 6.60195 23.7201 6.46147 23.5936 6.34476C23.4672 6.22805 23.318 6.1375 23.155 6.07851C22.992 6.01953 22.8186 5.99332 22.645 6.00145C22.4714 6.00958 22.3013 6.05188 22.1448 6.12583C21.9883 6.19978 21.8486 6.30386 21.7341 6.43186L15.7456 13.9049L14.9093 13.0841L13.2833 15.0752H13.285Z" fill="currentColor"/>
</svg>
