<svg width="24" height="24" viewBox="0 0 24 24" fill="none" xmlns="http://www.w3.org/2000/svg">
  <path fill-rule="evenodd" clip-rule="evenodd" d="M12.4389 6.739C12.4389 6.32601 12.1041 5.99121 11.6911 5.99121C11.2782 5.99121 10.9434 6.32601 10.9434 6.739V11.3088C10.9434 11.5071 11.0221 11.6973 11.1624 11.8376L13.655 14.3302C13.947 14.6222 14.4205 14.6222 14.7125 14.3302C15.0046 14.0381 15.0046 13.5647 14.7125 13.2726L12.4389 10.9991V6.739Z" fill="currentColor"/>
  <path fill-rule="evenodd" clip-rule="evenodd" d="M4.38272 11.3087C4.38272 7.27223 7.65495 4 11.6914 4C15.7279 4 19.0002 7.27223 19.0002 11.3087C19.0002 15.3452 15.7279 18.6174 11.6914 18.6174C11.0504 18.6174 10.4286 18.5349 9.83618 18.3799C10.2883 16.949 9.9471 15.3216 8.81264 14.1872C7.67824 13.0528 6.05102 12.7116 4.62016 13.1636C4.46521 12.5712 4.38272 11.9496 4.38272 11.3087ZM2.86188 14.2647C2.55109 13.336 2.38272 12.342 2.38272 11.3087C2.38272 6.16766 6.55038 2 11.6914 2C16.8325 2 21.0002 6.16766 21.0002 11.3087C21.0002 16.4498 16.8325 20.6174 11.6914 20.6174C10.6579 20.6174 9.66377 20.449 8.73489 20.1381C7.10729 21.6843 4.5342 21.659 2.93749 20.0623C1.34072 18.4656 1.31551 15.8923 2.86188 14.2647ZM7.2591 19.1461C7.46491 19.3519 7.79859 19.3519 8.0044 19.1461C8.21021 18.9402 8.21021 18.6066 8.0044 18.4008L6.63807 17.0344L7.83875 15.8337C8.04456 15.6279 8.04456 15.2942 7.83875 15.0884C7.63294 14.8826 7.29925 14.8826 7.09344 15.0884L5.89276 16.2891L4.77474 15.1711C4.56892 14.9653 4.23524 14.9653 4.02943 15.1711C3.82362 15.3769 3.82362 15.7106 4.02943 15.9164L5.14745 17.0344L3.86377 18.3181C3.65796 18.5239 3.65796 18.8576 3.86377 19.0634C4.06958 19.2692 4.40327 19.2692 4.60908 19.0634L5.89276 17.7797L7.2591 19.1461Z" fill="currentColor"/>
</svg>
