<svg width="24" height="24" viewBox="0 0 24 24" fill="none" xmlns="http://www.w3.org/2000/svg">
  <path fill-rule="evenodd" clip-rule="evenodd" d="M4.5 5.5L3 10H4L3 13V13.5V20H2C1.73478 20 1.48043 19.8946 1.29289 19.7071C1.10536 19.5196 1 19.2652 1 19V11L3.08 5C3.28 4.42 3.84 4 4.5 4H15.5C16.16 4 16.72 4.42 16.92 5L17.0933 5.5H15.5H5.5H4.5Z" fill="currentColor"/>
  <path d="M6 12L7.5 7.5H18.5L20 12H6ZM18.5 17C18.1022 17 17.7206 16.842 17.4393 16.5607C17.158 16.2794 17 15.8978 17 15.5C17 15.1022 17.158 14.7206 17.4393 14.4393C17.7206 14.158 18.1022 14 18.5 14C18.8978 14 19.2794 14.158 19.5607 14.4393C19.842 14.7206 20 15.1022 20 15.5C20 15.8978 19.842 16.2794 19.5607 16.5607C19.2794 16.842 18.8978 17 18.5 17ZM7.5 17C7.10218 17 6.72064 16.842 6.43934 16.5607C6.15804 16.2794 6 15.8978 6 15.5C6 15.1022 6.15804 14.7206 6.43934 14.4393C6.72064 14.158 7.10218 14 7.5 14C7.89782 14 8.27936 14.158 8.56066 14.4393C8.84196 14.7206 9 15.1022 9 15.5C9 15.8978 8.84196 16.2794 8.56066 16.5607C8.27936 16.842 7.89782 17 7.5 17ZM19.92 7C19.72 6.42 19.16 6 18.5 6H7.5C6.84 6 6.28 6.42 6.08 7L4 13V21C4 21.2652 4.10536 21.5196 4.29289 21.7071C4.48043 21.8946 4.73478 22 5 22H6C6.26522 22 6.51957 21.8946 6.70711 21.7071C6.89464 21.5196 7 21.2652 7 21V20H19V21C19 21.2652 19.1054 21.5196 19.2929 21.7071C19.4804 21.8946 19.7348 22 20 22H21C21.2652 22 21.5196 21.8946 21.7071 21.7071C21.8946 21.5196 22 21.2652 22 21V13L19.92 7Z" fill="currentColor"/>
</svg>
