<svg width="20" height="20" viewBox="0 0 20 20" fill="none" xmlns="http://www.w3.org/2000/svg">
  <path d="M11 10C11.5304 10 12.0391 10.2107 12.4142 10.5858C12.7893 10.9609 13 11.4696 13 12V13.5C13 15.554 10.912 17 7.5 17C4.088 17 2 15.554 2 13.5V12C2 11.4696 2.21071 10.9609 2.58579 10.5858C2.96086 10.2107 3.46957 10 4 10H11ZM16 10C16.5304 10 17.0391 10.2107 17.4142 10.5858C17.7893 10.9609 18 11.4696 18 12V12.5C18 14.589 16.432 16 13.5 16C13.359 16 13.22 15.997 13.086 15.99C13.625 15.363 13.944 14.604 13.993 13.739L14 13.5V12C14 11.308 13.766 10.67 13.372 10.163L13.235 10H16ZM7.5 2C7.95963 2 8.41475 2.09053 8.83939 2.26642C9.26403 2.44231 9.64987 2.70012 9.97487 3.02513C10.2999 3.35013 10.5577 3.73597 10.7336 4.16061C10.9095 4.58525 11 5.04037 11 5.5C11 5.95963 10.9095 6.41475 10.7336 6.83939C10.5577 7.26403 10.2999 7.64987 9.97487 7.97487C9.64987 8.29988 9.26403 8.55769 8.83939 8.73358C8.41475 8.90947 7.95963 9 7.5 9C6.57174 9 5.6815 8.63125 5.02513 7.97487C4.36875 7.3185 4 6.42826 4 5.5C4 4.57174 4.36875 3.6815 5.02513 3.02513C5.6815 2.36875 6.57174 2 7.5 2ZM14.5 4C15.163 4 15.7989 4.26339 16.2678 4.73223C16.7366 5.20107 17 5.83696 17 6.5C17 7.16304 16.7366 7.79893 16.2678 8.26777C15.7989 8.73661 15.163 9 14.5 9C13.837 9 13.2011 8.73661 12.7322 8.26777C12.2634 7.79893 12 7.16304 12 6.5C12 5.83696 12.2634 5.20107 12.7322 4.73223C13.2011 4.26339 13.837 4 14.5 4Z" fill="currentColor"/>
</svg>
