<svg width="30" height="30" viewBox="0 0 30 30" fill="none" xmlns="http://www.w3.org/2000/svg">
  <path fill-rule="evenodd" clip-rule="evenodd" d="M8.75067 8.75C10.8217 8.75 12.5007 7.07107 12.5007 5C12.5007 2.92893 10.8217 1.25 8.75067 1.25C6.6796 1.25 5.00067 2.92893 5.00067 5C5.00067 7.07107 6.6796 8.75 8.75067 8.75ZM21.2507 8.75C23.3217 8.75 25.0007 7.07107 25.0007 5C25.0007 2.92893 23.3217 1.25 21.2507 1.25C19.1796 1.25 17.5007 2.92893 17.5007 5C17.5007 7.07107 19.1796 8.75 21.2507 8.75ZM15.5829 13.4932C15.2781 11.6646 16.6882 10 18.5421 10H24.9701C26.9023 10 28.3307 11.8 27.8916 13.6817L24.9166 26.4317C24.5998 27.7895 23.3893 28.75 21.9951 28.75H20.6671C19.2005 28.75 17.949 27.6898 17.7079 26.2432L15.5829 13.4932ZM12.656 28.75C14.5277 28.75 15.9425 27.0549 15.6076 25.2133L13.2895 12.4633C13.0301 11.0369 11.7877 10 10.3379 10H7.75761C6.34718 10 5.12722 10.9825 4.82656 12.3605L2.04474 25.1105C1.63663 26.981 3.06129 28.75 4.97579 28.75H12.656Z" fill="currentColor"/>
</svg>
