<svg width="20" height="20" viewBox="0 0 20 20" fill="none" xmlns="http://www.w3.org/2000/svg">
    <path fill-rule="evenodd" clip-rule="evenodd"
        d="M4.948 16c1.299 1.278 2.871 1.916 4.719 1.916 1.847 0 3.42-.638 4.719-1.916 1.298-1.278 1.947-2.827 1.947-4.646a6.24 6.24 0 0 0-.52-2.553 6.869 6.869 0 0 0-1.438-2.093l-4.008-3.937a1 1 0 0 0-1.401 0L4.958 6.708a6.869 6.869 0 0 0-1.437 2.093A6.239 6.239 0 0 0 3 11.354c0 1.82.65 3.368 1.948 4.646zm3.442-1.652 3.125-5-.69-.348L7.7 14.001l.69.347zM5.7 10.661v-.338c0-.243.053-.465.158-.664.106-.199.264-.359.475-.479.21-.12.473-.18.787-.18.322 0 .588.06.8.18.21.12.367.28.47.48.105.198.158.42.158.663v.338c0 .238-.053.456-.158.655-.103.2-.26.359-.47.479-.209.12-.47.18-.787.18-.32 0-.585-.06-.796-.18-.21-.12-.37-.28-.479-.479a1.378 1.378 0 0 1-.158-.655zm.95-.338v.338a.61.61 0 0 0 .052.25c.035.08.088.144.158.194.074.047.163.07.268.07a.452.452 0 0 0 .264-.07.444.444 0 0 0 .15-.193.61.61 0 0 0 .052-.25v-.34a.631.631 0 0 0-.053-.258.406.406 0 0 0-.153-.19.453.453 0 0 0-.268-.074.437.437 0 0 0-.418.264.631.631 0 0 0-.053.259zm4.05 2v.338c0 .238.053.456.158.655.109.2.268.359.48.479.21.12.476.18.795.18.316 0 .578-.06.786-.18.211-.12.368-.28.47-.479.106-.2.159-.418.159-.655v-.338c0-.243-.053-.465-.158-.664-.103-.199-.26-.359-.47-.479-.211-.12-.478-.18-.8-.18-.314 0-.576.06-.787.18-.21.12-.37.28-.475.48-.105.198-.158.42-.158.663zm.95.338v-.338c0-.094.017-.18.052-.26a.437.437 0 0 1 .418-.264c.108 0 .197.026.268.076.07.046.121.11.153.189a.63.63 0 0 1 .053.259v.338a.61.61 0 0 1-.053.25.444.444 0 0 1-.149.194.452.452 0 0 1-.264.07.487.487 0 0 1-.268-.07.463.463 0 0 1-.158-.193.61.61 0 0 1-.053-.25z"
        fill="currentColor" />
</svg>