<svg width="20" height="20" viewBox="0 0 20 20" fill="none" xmlns="http://www.w3.org/2000/svg">
    <path
        d="M8.125 16.75h-2.5a1.252 1.252 0 0 1-1.25-1.25v-4h1.25v4h2.5v-4h1.25v4a1.252 1.252 0 0 1-1.25 1.25zm7.5-5.25h-1.094l-1.406 4.644-1.38-4.644h-1.12l1.563 5.25h1.874l1.563-5.25zm-6.25-9.625a.625.625 0 1 1 1.25 0V3.75a.625.625 0 1 1-1.25 0V1.875zm4.622 4.13a.625.625 0 0 1 0-.884l1.307-1.308a.625.625 0 1 1 .884.884l-1.307 1.307a.625.625 0 0 1-.884 0zM15.625 10c0-.345.28-.625.625-.625h1.875a.625.625 0 1 1 0 1.25H16.25a.625.625 0 0 1-.625-.625zM1.25 10c0-.345.28-.625.625-.625H3.75a.625.625 0 1 1 0 1.25H1.875A.625.625 0 0 1 1.25 10zm2.564-5.303a.625.625 0 0 1 .884-.884L6.005 5.12a.625.625 0 1 1-.884.884L3.814 4.697zm9.936 5.928h-7.5V10a3.75 3.75 0 0 1 7.5 0v.625z"
        fill="currentColor" />
</svg>