<svg width="24" height="24" viewBox="0 0 41 40" fill="none" xmlns="http://www.w3.org/2000/svg">
  <path d="M38 23.75H33V18.75H30.5V30H10.5V10H21.75V7.5H16.75V2.5H14.25V7.5H10.5C9.83716 7.50066 9.20166 7.76427 8.73296 8.23296C8.26427 8.70166 8.00066 9.33716 8 10V13.75H3V16.25H8V23.75H3V26.25H8V30C8.00066 30.6628 8.26427 31.2983 8.73296 31.767C9.20166 32.2357 9.83716 32.4993 10.5 32.5H14.25V37.5H16.75V32.5H24.25V37.5H26.75V32.5H30.5C31.1627 32.499 31.798 32.2353 32.2667 31.7667C32.7353 31.298 32.999 30.6627 33 30V26.25H38V23.75Z" fill="#25B2FF"/>
  <path d="M26.75 26.25H14.25V13.75H26.75V26.25ZM16.75 23.75H24.25V16.25H16.75V23.75Z" fill="#25B2FF"/>
  <path d="M39.25 16.25H36.75C36.746 12.936 35.4278 9.75889 33.0844 7.41555C30.7411 5.0722 27.564 3.75397 24.25 3.75V1.25C28.2269 1.2543 32.0397 2.83604 34.8519 5.64815C37.664 8.46026 39.2457 12.2731 39.25 16.25Z" fill="#25B2FF"/>
  <path d="M33 16.25H30.5C30.498 14.593 29.8389 13.0044 28.6672 11.8328C27.4956 10.6611 25.907 10.002 24.25 10V7.5C26.5698 7.50265 28.7939 8.42537 30.4343 10.0657C32.0746 11.7061 32.9974 13.9302 33 16.25Z" fill="#25B2FF"/>
</svg>
