<svg width="24" height="24" viewBox="0 0 41 40" fill="none" xmlns="http://www.w3.org/2000/svg">
  <path d="M22.6932 2.50489L19.9232 17.3386L30.003 17.3777L16.3068 37.4951L19.0768 21.1742L8.99697 21.135L22.6932 2.50489ZM22.6932 0H22.5009C22.2957 0.0260926 22.1161 0.0717547 21.9622 0.136986C21.8084 0.202218 21.6352 0.300065 21.4429 0.430528C21.2505 0.560992 21.0774 0.717547 20.9235 0.900196C20.8978 0.926288 20.8786 0.952381 20.8658 0.978474C20.853 1.00457 20.8337 1.03066 20.8081 1.05675L6.99639 19.6086C6.40648 20.4436 6.34236 21.3177 6.80403 22.2309C6.88097 22.3875 6.97715 22.5375 7.09257 22.681C7.20799 22.8245 7.33623 22.955 7.4773 23.0724C7.61837 23.1898 7.77226 23.2877 7.93897 23.3659C8.10569 23.4442 8.27881 23.5029 8.45835 23.5421C8.63789 23.5812 8.81743 23.6008 8.99697 23.6008L16.1144 23.6399L13.8445 37.0646C13.7419 37.6386 13.8317 38.18 14.1138 38.6888C14.396 39.1977 14.7935 39.5695 15.3065 39.8043C15.4604 39.8826 15.6207 39.9348 15.7874 39.9609C15.9541 39.987 16.1272 40 16.3068 40C17.0506 40 17.679 39.6608 18.1919 38.9824L32.0036 18.865C32.5935 18.03 32.6576 17.1559 32.196 16.2427C31.7343 15.3294 31.0033 14.8728 30.003 14.8728H22.8856L25.117 3.09198C25.1427 2.98761 25.1619 2.88976 25.1747 2.79843C25.1875 2.70711 25.194 2.60926 25.194 2.50489C25.194 2.27006 25.1619 2.04827 25.0978 1.83953C25.0336 1.63079 24.9503 1.43509 24.8477 1.25245C24.7451 1.0698 24.6233 0.900196 24.4822 0.74364C24.3411 0.587084 24.1808 0.456621 24.0013 0.35225C23.8218 0.24788 23.6294 0.163079 23.4242 0.0978474C23.219 0.0326158 23.0138 0 22.8086 0H22.6932Z" fill="#FBC01F"/>
</svg>
