<svg width="20" height="20" viewBox="0 0 20 20" fill="none" xmlns="http://www.w3.org/2000/svg">
  <path fill-rule="evenodd" clip-rule="evenodd" d="M4.16797 4.16699C2.78726 4.16699 1.66797 5.28628 1.66797 6.66699V13.3337C1.66797 14.7144 2.78726 15.8337 4.16797 15.8337H15.8346C17.2153 15.8337 18.3346 14.7144 18.3346 13.3337V6.66699C18.3346 5.28628 17.2153 4.16699 15.8346 4.16699H4.16797ZM4.58132 5.94342C4.18172 5.71507 3.67267 5.8539 3.44433 6.2535C3.21599 6.6531 3.35482 7.16215 3.75442 7.39049L9.58775 10.7238C9.84394 10.8702 10.1585 10.8702 10.4146 10.7238L16.248 7.39049C16.6476 7.16215 16.7864 6.6531 16.5581 6.2535C16.3297 5.8539 15.8207 5.71507 15.4211 5.94342L10.4973 8.75698C10.1899 8.93266 9.81249 8.93266 9.50506 8.75698L4.58132 5.94342Z" fill="#25B2FF"/>
</svg>
