<svg width="24" height="24" viewBox="0 0 41 40" fill="none" xmlns="http://www.w3.org/2000/svg">
  <path d="M34.2157 23.6343L24.2486 7.69681C23.8455 7.0889 23.2902 6.58861 22.6339 6.24206C21.9776 5.89551 21.2413 5.71387 20.493 5.71387C19.7447 5.71387 19.0084 5.89551 18.3521 6.24206C17.6958 6.58861 17.1405 7.0889 16.7374 7.69681L6.77026 23.6343C6.41816 24.2002 6.22679 24.8455 6.21539 25.5053C6.20398 26.1651 6.37294 26.8162 6.70528 27.3931C7.08952 28.0425 7.64568 28.5819 8.31693 28.9561C8.98817 29.3303 9.75044 29.526 10.5258 29.5231H30.4602C31.2305 29.5311 31.9893 29.343 32.6601 28.9778C33.3309 28.6126 33.8899 28.0833 34.2807 27.4433C34.6228 26.8604 34.7972 26.1999 34.7857 25.5303C34.7743 24.8606 34.5775 24.206 34.2157 23.6343ZM20.493 24.5114C20.236 24.5114 19.9847 24.4379 19.771 24.3002C19.5573 24.1625 19.3908 23.9668 19.2924 23.7379C19.1941 23.5089 19.1683 23.257 19.2185 23.014C19.2686 22.7709 19.3924 22.5477 19.5741 22.3724C19.7558 22.1972 19.9874 22.0779 20.2395 22.0295C20.4916 21.9812 20.7528 22.006 20.9903 22.1008C21.2277 22.1957 21.4307 22.3563 21.5735 22.5623C21.7163 22.7684 21.7925 23.0106 21.7925 23.2584C21.7925 23.5907 21.6556 23.9094 21.4119 24.1444C21.1682 24.3794 20.8376 24.5114 20.493 24.5114ZM21.7925 19.4996C21.7925 19.8319 21.6556 20.1506 21.4119 20.3855C21.1682 20.6205 20.8376 20.7525 20.493 20.7525C20.1483 20.7525 19.8178 20.6205 19.5741 20.3855C19.3304 20.1506 19.1935 19.8319 19.1935 19.4996V14.4878C19.1935 14.1555 19.3304 13.8368 19.5741 13.6018C19.8178 13.3668 20.1483 13.2348 20.493 13.2348C20.8376 13.2348 21.1682 13.3668 21.4119 13.6018C21.6556 13.8368 21.7925 14.1555 21.7925 14.4878V19.4996Z" fill="currentColor"/>
</svg>
