<svg width="24" height="24" viewBox="0 0 24 24" fill="none" xmlns="http://www.w3.org/2000/svg">
  <path d="M20.6866 18.9372L17.171 10.4216C17.106 10.2643 16.9959 10.1298 16.8545 10.0352C16.7131 9.94064 16.5468 9.89014 16.3766 9.89014C16.2065 9.89014 16.0402 9.94064 15.8988 10.0352C15.7574 10.1298 15.6472 10.2643 15.5823 10.4216L12.0667 18.9372C12.0229 19.0416 12.0003 19.1536 12 19.2669C11.9997 19.3801 12.0218 19.4922 12.065 19.5969C12.1082 19.7015 12.1716 19.7966 12.2517 19.8767C12.3317 19.9567 12.4268 20.0202 12.5314 20.0634C12.6361 20.1066 12.7482 20.1287 12.8614 20.1284C12.9747 20.1281 13.0867 20.1055 13.1911 20.0618C13.2956 20.0181 13.3903 19.9542 13.47 19.8737C13.5497 19.7933 13.6126 19.6979 13.6553 19.593L14.3713 17.8591H18.3819L19.0979 19.593C19.1628 19.7504 19.273 19.8849 19.4144 19.9795C19.5559 20.0742 19.7222 20.1247 19.8924 20.1247C20.0336 20.1246 20.1727 20.0897 20.2972 20.0231C20.4217 19.9565 20.5279 19.8603 20.6064 19.7429C20.6849 19.6255 20.7332 19.4905 20.7471 19.35C20.761 19.2095 20.7401 19.0677 20.6862 18.9372H20.6866ZM15.0811 16.1403L16.3768 13.0016L17.6725 16.1403H15.0811Z" fill="#25B2FF"/>
  <path d="M12.4625 15.3953C12.596 15.2109 12.6509 14.981 12.6151 14.7562C12.5793 14.5313 12.4557 14.3299 12.2715 14.1961C12.2637 14.1902 11.6855 13.7613 10.8461 12.8395C12.3949 10.7426 13.2723 8.35703 13.6301 7.23438H14.8906C15.1185 7.23438 15.3371 7.14383 15.4983 6.98267C15.6595 6.82151 15.75 6.60292 15.75 6.375C15.75 6.14708 15.6595 5.92849 15.4983 5.76733C15.3371 5.60617 15.1185 5.51562 14.8906 5.51562H10.3594V4.73438C10.3594 4.50645 10.2688 4.28787 10.1077 4.12671C9.94651 3.96554 9.72792 3.875 9.5 3.875C9.27208 3.875 9.05349 3.96554 8.89233 4.12671C8.73117 4.28787 8.64062 4.50645 8.64062 4.73438V5.51562H4.10938C3.88145 5.51562 3.66287 5.60617 3.50171 5.76733C3.34054 5.92849 3.25 6.14708 3.25 6.375C3.25 6.60292 3.34054 6.82151 3.50171 6.98267C3.66287 7.14383 3.88145 7.23438 4.10938 7.23438H11.8145C11.4426 8.28711 10.7578 9.94922 9.71328 11.4672C8.48633 9.83906 8.03047 8.78555 8.02695 8.77695C7.93713 8.56937 7.76909 8.40557 7.55928 8.32107C7.34947 8.23658 7.11481 8.23821 6.9062 8.3256C6.69758 8.413 6.53183 8.57911 6.44489 8.78792C6.35795 8.99673 6.35684 9.23139 6.4418 9.44102C6.46445 9.49492 7.01016 10.7781 8.50664 12.7195C8.54258 12.766 8.57812 12.8113 8.61367 12.8566C7.08086 14.5891 5.57695 15.6637 4.94766 16.0105C4.74755 16.1197 4.599 16.3039 4.53468 16.5225C4.47036 16.7412 4.49554 16.9765 4.60469 17.1766C4.71383 17.3767 4.89799 17.5252 5.11666 17.5895C5.33533 17.6539 5.5706 17.6287 5.7707 17.5195C5.85508 17.4734 7.66914 16.4691 9.74063 14.1762C10.6203 15.1168 11.225 15.5605 11.2613 15.5863C11.3527 15.6527 11.4563 15.7004 11.5662 15.7268C11.6761 15.7531 11.79 15.7575 11.9016 15.7397C12.0132 15.7219 12.1201 15.6823 12.2164 15.6231C12.3126 15.564 12.3963 15.4864 12.4625 15.3949V15.3953Z" fill="#25B2FF"/>
</svg>
