<svg width="24" height="24" viewBox="0 0 24 24" fill="none" xmlns="http://www.w3.org/2000/svg">
  <path d="M19.3636 5H4.63636C4.20237 5 3.78616 5.16857 3.47928 5.46863C3.1724 5.76869 3 6.17565 3 6.6V16.2C3 16.6243 3.1724 17.0313 3.47928 17.3314C3.78616 17.6314 4.20237 17.8 4.63636 17.8H10.3636V19.4H8.72727V21H15.2727V19.4H13.6364V17.8H19.3636C19.7976 17.8 20.2138 17.6314 20.5207 17.3314C20.8276 17.0313 21 16.6243 21 16.2V6.6C21 6.17565 20.8276 5.76869 20.5207 5.46863C20.2138 5.16857 19.7976 5 19.3636 5ZM19.3636 10.6H13.6364V12.2H19.3636V16.2H4.63636V12.2H8.72727V14.6L12 11.4L8.72727 8.2V10.6H4.63636V6.6H19.3636V10.6Z" fill="#25B2FF"/>
</svg>
