<svg width="24" height="24" viewBox="0 0 41 40" fill="none" xmlns="http://www.w3.org/2000/svg">
  <g clip-path="url(#clip0)">
    <path d="M37.2629 24.3917C38.0913 24.4936 38.8892 24.7681 39.605 25.1976H39.6679C40.4115 21.6824 40.1452 18.0285 38.8998 14.6582C38.7837 14.3466 38.549 14.0937 38.2471 13.9545C37.9451 13.8153 37.6004 13.8012 37.2881 13.9153C36.9765 14.0314 36.7236 14.2661 36.5844 14.568C36.4452 14.87 36.4311 15.2147 36.5451 15.527C37.5858 18.3617 37.8339 21.4265 37.2629 24.3917Z" fill="#5C61F4"/>
    <path d="M31.5617 34.0117C29.3675 35.8422 26.7324 37.0664 23.9184 37.5626C23.5845 37.591 23.2755 37.7509 23.0594 38.0071C22.8433 38.2633 22.7379 38.5949 22.7663 38.9289C22.7946 39.2628 22.9545 39.5718 23.2108 39.7879C23.467 40.004 23.7985 40.1094 24.1325 40.081H24.3591C27.7131 39.4894 30.8477 38.0112 33.4379 35.7998V35.7116C32.6965 35.2879 32.0562 34.7079 31.5617 34.0117Z" fill="#5C61F4"/>
    <path d="M18.0741 37.4875C16.1689 37.1321 14.3407 36.4459 12.6721 35.4602C11.9589 35.0385 11.2733 34.5717 10.6197 34.0625C10.1396 34.7677 9.51237 35.3605 8.78125 35.8002C9.59891 36.49 10.4705 37.1132 11.3878 37.6638C13.311 38.7967 15.4154 39.589 17.6082 40.0059H17.8474C18.1814 40.0359 18.5136 39.9321 18.771 39.7172C19.0284 39.5023 19.1899 39.194 19.2199 38.86C19.25 38.526 19.1461 38.1938 18.9313 37.9364C18.7164 37.679 18.408 37.5175 18.0741 37.4875Z" fill="#5C61F4"/>
    <path d="M4.14729 24.6565C4.40156 24.6372 4.65407 24.5993 4.9028 24.5431C4.30255 21.574 4.53793 18.4966 5.58276 15.6533C5.69798 15.3393 5.68377 14.9925 5.54326 14.6891C5.40276 14.3856 5.14747 14.1504 4.83355 14.0352C4.51963 13.92 4.17279 13.9342 3.86935 14.0747C3.5659 14.2152 3.3307 14.4705 3.21549 14.7844C1.96825 18.1821 1.7235 21.8666 2.51034 25.3994C3.01563 25.071 3.56746 24.8206 4.14729 24.6565Z" fill="#5C61F4"/>
    <path d="M38.5737 26.9858C38.124 26.6997 37.622 26.5056 37.0967 26.4148C36.5715 26.324 36.0335 26.3384 35.5138 26.457C34.8551 26.6294 34.2494 26.9626 33.751 27.4266L28.8779 24.606C29.6454 22.7099 29.7161 20.6031 29.0776 18.6598C28.439 16.7165 27.1325 15.0623 25.39 13.991L25.2514 13.9029C24.3117 13.3679 23.2766 13.0214 22.2042 12.8829V8.09801C23.2076 7.7978 24.056 7.12094 24.5715 6.20922C25.1277 5.26755 25.2903 4.14454 25.0239 3.08378C24.7576 2.02302 24.0837 1.11004 23.1486 0.542876C22.693 0.276346 22.1888 0.103419 21.6656 0.0342289C21.1423 -0.0349615 20.6105 0.000975967 20.1014 0.139935C19.5764 0.27377 19.0833 0.510832 18.6509 0.837284C18.2185 1.16374 17.8555 1.57304 17.583 2.04131C17.0424 2.97843 16.8886 4.08943 17.1543 5.13815C17.4201 6.18688 18.0843 7.09062 19.0059 7.65729C19.2937 7.84812 19.6075 7.99654 19.9377 8.09801V12.8829C18.6695 13.057 17.4583 13.5199 16.3973 14.2359C15.3363 14.952 14.4538 15.9021 13.818 17.0131C13.1609 18.1492 12.7717 19.4202 12.68 20.7295C12.5884 22.0387 12.7967 23.3516 13.2892 24.5682L8.2524 27.4517C8.07441 27.2952 7.88501 27.152 7.68576 27.0236C7.22692 26.7597 6.72059 26.5889 6.19569 26.5207C5.67079 26.4526 5.13761 26.4885 4.62661 26.6265C4.11561 26.7645 3.6368 27.0018 3.21753 27.3249C2.79827 27.648 2.44677 28.0505 2.18311 28.5095C1.63916 29.4421 1.47956 30.5498 1.73809 31.598C1.99663 32.6462 2.653 33.5527 3.56822 34.1254C4.19552 34.5031 4.91364 34.7033 5.64588 34.7047C5.97744 34.707 6.3078 34.6647 6.62804 34.5787C7.16526 34.4416 7.66889 34.1965 8.10819 33.8582C8.54749 33.52 8.91323 33.0957 9.18309 32.6114C9.45295 32.1271 9.62126 31.5928 9.67774 31.0413C9.73421 30.4897 9.67768 29.9324 9.51159 29.4035L14.3972 26.5829C15.0533 27.4391 15.8598 28.1687 16.7771 28.7361C18.5375 29.8461 20.655 30.2426 22.6978 29.8448C24.7405 29.4471 26.5546 28.2849 27.7698 26.5955L32.5925 29.3783C32.3652 30.2371 32.42 31.1462 32.7487 31.9715C33.0775 32.7967 33.6628 33.4945 34.4183 33.9617C35.0404 34.3408 35.7549 34.5412 36.4834 34.541C37.1878 34.5436 37.8804 34.3597 38.4908 34.0081C39.1012 33.6565 39.6077 33.1496 39.9588 32.5389C40.4835 31.6121 40.6323 30.5192 40.3746 29.4859C40.1168 28.4525 39.4722 27.5576 38.5737 26.9858ZM7.21986 31.5441C7.09408 31.7496 6.9275 31.9271 6.73042 32.0657C6.53334 32.2044 6.30993 32.3011 6.074 32.35C5.84469 32.4158 5.60415 32.4331 5.36779 32.4005C5.13143 32.368 4.90448 32.2865 4.70149 32.1611C4.28969 31.9056 3.99363 31.4997 3.87609 31.0296C3.75856 30.5594 3.82879 30.062 4.07189 29.6427C4.19091 29.4366 4.35045 29.2566 4.54089 29.1138C4.73134 28.971 4.94873 28.8682 5.17998 28.8117C5.31936 28.7722 5.46327 28.7511 5.6081 28.7487C5.94281 28.7495 6.27038 28.8456 6.55249 29.0257C6.97067 29.2751 7.27464 29.6783 7.39936 30.1489C7.52408 30.6196 7.45965 31.1203 7.21986 31.5441ZM19.5347 3.17458C19.6537 2.96842 19.8133 2.78849 20.0037 2.64566C20.1942 2.50283 20.4116 2.40005 20.6428 2.34352C20.7822 2.3041 20.9261 2.28294 21.0709 2.28056C21.3902 2.28205 21.7032 2.36901 21.9776 2.53239C22.3893 2.78791 22.6854 3.19378 22.8029 3.66393C22.9205 4.13409 22.8502 4.63153 22.6071 5.05077C22.4881 5.25694 22.3286 5.43686 22.1381 5.57969C21.9477 5.72252 21.7303 5.8253 21.4991 5.88183C21.2754 5.94229 21.0417 5.95672 20.8123 5.92425C20.5829 5.89179 20.3624 5.8131 20.1643 5.69296C19.7525 5.43744 19.4565 5.03157 19.3389 4.56142C19.2214 4.09126 19.2916 3.59382 19.5347 3.17458ZM22.5694 27.5021C21.7907 27.7035 20.9796 27.747 20.1838 27.6302C19.388 27.5135 18.6236 27.2387 17.9356 26.8221C16.515 25.95 15.4918 24.5569 15.0847 22.9404C14.6777 21.324 14.919 19.6124 15.7572 18.1715C16.2974 17.2409 17.0726 16.4684 18.0051 15.9314C18.9376 15.3945 19.9948 15.1118 21.0709 15.1117C22.1606 15.1091 23.2307 15.4006 24.1685 15.9553C25.5891 16.8274 26.6123 18.2206 27.0193 19.837C27.4264 21.4535 27.1851 23.1651 26.3469 24.606C25.9427 25.3166 25.4001 25.9389 24.7513 26.4364C24.1025 26.9338 23.3606 27.2962 22.5694 27.5021ZM37.9944 31.3804C37.751 31.797 37.3527 32.1003 36.8863 32.2241C36.6618 32.2827 36.4277 32.295 36.1983 32.2604C35.9688 32.2257 35.7488 32.1448 35.5516 32.0226C35.1398 31.7671 34.8438 31.3612 34.7262 30.891C34.6087 30.4209 34.6789 29.9234 34.922 29.5042C35.0351 29.2808 35.1947 29.0843 35.3902 28.9279C35.5857 28.7715 35.8125 28.6589 36.0553 28.5976C36.1977 28.585 36.341 28.585 36.4834 28.5976C36.7896 28.5952 37.0905 28.678 37.3522 28.8368C37.7729 29.0906 38.0764 29.5001 38.1967 29.9765C38.317 30.4528 38.2443 30.9574 37.9944 31.3804Z" fill="#5C61F4"/>
    <path d="M8.54109 10.6164C10.3451 8.48536 12.6641 6.85119 15.2778 5.86922C15.0247 5.02494 14.9518 4.13694 15.0637 3.2627C11.7894 4.3574 8.87363 6.32013 6.62713 8.94164C6.40505 9.19544 6.29289 9.52708 6.31532 9.86358C6.33775 10.2001 6.49294 10.5139 6.74675 10.736C7.00056 10.9581 7.33219 11.0702 7.6687 11.0478C8.0052 11.0254 8.31901 10.8702 8.54109 10.6164Z" fill="#5C61F4"/>
    <path d="M29.4698 7.12851C31.0199 8.05856 32.4066 9.2369 33.5748 10.6165C33.6822 10.7421 33.8134 10.8454 33.9608 10.9204C34.1082 10.9954 34.2689 11.0406 34.4338 11.0534C34.5987 11.0663 34.7644 11.0465 34.9217 10.9953C35.0789 10.9441 35.2245 10.8625 35.3502 10.755C35.4759 10.6475 35.5792 10.5163 35.6541 10.3689C35.7291 10.2215 35.7743 10.0608 35.7872 9.89593C35.8 9.73106 35.7803 9.56528 35.7291 9.40804C35.6779 9.2508 35.5962 9.10519 35.4887 8.97951C34.1439 7.38408 32.5441 6.02251 30.7542 4.95011C29.5803 4.26754 28.3399 3.7064 27.0522 3.27539C27.1786 4.14348 27.1141 5.0287 26.8633 5.86932C27.7649 6.2174 28.6367 6.63853 29.4698 7.12851Z" fill="#5C61F4"/>
  </g>
  <defs>
    <clipPath id="clip0">
      <rect width="40" height="40" fill="white" transform="translate(0.5)"/>
    </clipPath>
  </defs>
</svg>
