<svg width="20" height="20" viewBox="0 0 20 20" fill="none" xmlns="http://www.w3.org/2000/svg">
  <path fill-rule="evenodd" clip-rule="evenodd" d="M10.0013 18.3337C14.6037 18.3337 18.3346 14.6027 18.3346 10.0003C18.3346 5.39795 14.6037 1.66699 10.0013 1.66699C5.39893 1.66699 1.66797 5.39795 1.66797 10.0003C1.66797 14.6027 5.39893 18.3337 10.0013 18.3337ZM13.9205 12.017L12.9303 11.0248C12.6003 10.6941 11.9402 10.6941 11.6102 11.0248L11.3035 11.3322C11.0811 11.5551 10.7618 11.6709 10.4677 11.5583C9.60103 11.2268 8.76568 10.3788 8.43785 9.52152C8.32559 9.22798 8.44048 8.90945 8.66246 8.68699L8.96997 8.37881C9.3 8.04806 9.30002 7.38654 8.96997 7.05581L7.97394 6.10156C7.64386 5.7708 6.98987 5.73277 6.6598 6.06356C5.99974 6.72506 5.83464 7.22126 5.83464 7.88271C5.83464 8.875 5.99983 10.0324 7.98001 12.0169C9.96019 14.0014 10.7851 14.167 12.1052 14.167C12.4433 14.167 13.2819 13.98 13.9204 13.3401C14.2505 13.0093 14.2505 12.3478 13.9205 12.017Z" fill="#25B2FF"/>
</svg>
