<svg width="24" height="24" viewBox="0 0 24 24" fill="none" xmlns="http://www.w3.org/2000/svg">
  <path d="M20.3 12.43C20.048 12.3515 19.7752 12.3757 19.5411 12.4975C19.3069 12.6192 19.1304 12.8286 19.05 13.08C18.5776 14.5245 17.6566 15.7805 16.421 16.6654C15.1854 17.5503 13.6997 18.0178 12.18 18C10.3003 18.0214 8.48894 17.2965 7.14297 15.9842C5.79701 14.672 5.02635 12.8796 5 11C5.02635 9.12041 5.79701 7.32798 7.14297 6.01576C8.48894 4.70354 10.3003 3.97863 12.18 4C13.8776 3.9959 15.5229 4.5868 16.83 5.67L14.66 5.31C14.5299 5.2886 14.3969 5.29312 14.2686 5.3233C14.1403 5.35348 14.0193 5.40873 13.9124 5.48586C13.8055 5.563 13.715 5.6605 13.6459 5.77276C13.5768 5.88502 13.5307 6.00982 13.51 6.14C13.4886 6.27005 13.4931 6.40305 13.5233 6.53135C13.5535 6.65965 13.6087 6.78072 13.6859 6.88759C13.763 6.99446 13.8605 7.08503 13.9728 7.15409C14.085 7.22315 14.2098 7.26934 14.34 7.29L18.58 7.99H18.75C18.866 7.98986 18.981 7.96956 19.09 7.93C19.1266 7.91609 19.1605 7.89577 19.19 7.87C19.2617 7.84334 19.3291 7.80627 19.39 7.76L19.48 7.65C19.48 7.6 19.57 7.56 19.61 7.5C19.65 7.44 19.61 7.4 19.66 7.36C19.6876 7.30176 19.711 7.2416 19.73 7.18L20.48 3.18C20.505 3.04867 20.5038 2.91372 20.4766 2.78285C20.4494 2.65198 20.3967 2.52774 20.3215 2.41724C20.2462 2.30674 20.15 2.21213 20.0382 2.13883C19.9264 2.06552 19.8013 2.01495 19.67 1.99C19.5387 1.96505 19.4037 1.9662 19.2729 1.99341C19.142 2.02061 19.0177 2.07332 18.9072 2.14854C18.6841 2.30044 18.5304 2.53478 18.48 2.8L18.21 4.25C16.536 2.79924 14.3952 2.00043 12.18 2C9.76993 1.97866 7.44984 2.91429 5.7288 4.60158C4.00777 6.28886 3.02639 8.58998 3 11C3.02639 13.41 4.00777 15.7111 5.7288 17.3984C7.44984 19.0857 9.76993 20.0213 12.18 20C14.1331 20.03 16.0443 19.4321 17.6321 18.2944C19.2199 17.1566 20.4005 15.5391 21 13.68C21.0379 13.552 21.0498 13.4176 21.035 13.2849C21.0202 13.1522 20.9789 13.0238 20.9137 12.9073C20.8485 12.7908 20.7605 12.6886 20.6551 12.6066C20.5497 12.5246 20.429 12.4646 20.3 12.43Z" fill="currentColor"/>
</svg>
