<svg width="20" height="20" viewBox="0 0 20 20" fill="none" xmlns="http://www.w3.org/2000/svg">
  <path fill-rule="evenodd" clip-rule="evenodd" d="M10.3333 3.66667C6.65143 3.66667 3.66667 6.65143 3.66667 10.3333C3.66667 14.0152 6.65143 17 10.3333 17C14.0152 17 17 14.0152 17 10.3333C17 6.65143 14.0152 3.66667 10.3333 3.66667ZM2 10.3333C2 5.73096 5.73096 2 10.3333 2C14.9357 2 18.6667 5.73096 18.6667 10.3333C18.6667 14.9357 14.9357 18.6667 10.3333 18.6667C5.73096 18.6667 2 14.9357 2 10.3333Z" fill="#25B2FF"/>
  <path fill-rule="evenodd" clip-rule="evenodd" d="M17.8333 11.1667H2.83333V9.5H17.8333V11.1667Z" fill="#25B2FF"/>
  <path fill-rule="evenodd" clip-rule="evenodd" d="M9.74376 17.2444C9.74391 17.2442 9.74408 17.2441 10.3333 17.8333C10.9226 18.4226 10.9228 18.4224 10.923 18.4222L10.9246 18.4205L10.9279 18.4172L10.938 18.407C10.9463 18.3985 10.9577 18.3868 10.9719 18.372C11.0004 18.3423 11.0405 18.2999 11.0904 18.2455C11.1903 18.1368 11.33 17.9795 11.4962 17.7787C11.828 17.3778 12.2687 16.7993 12.7097 16.0826C13.5845 14.661 14.5 12.6318 14.5 10.3333C14.5 8.03487 13.5845 6.00566 12.7097 4.58409C12.2687 3.86738 11.828 3.28888 11.4962 2.88796C11.33 2.68715 11.1903 2.52991 11.0904 2.42114C11.0405 2.36673 11.0004 2.32437 10.9719 2.29468C10.9577 2.27983 10.9463 2.26813 10.938 2.25968L10.9279 2.24943L10.9246 2.24614L10.9235 2.24495C10.9233 2.24475 10.9226 2.24408 10.3333 2.83333C9.74408 3.42259 9.74391 3.42242 9.74376 3.42227L9.74779 3.42637L9.76961 3.44889C9.78993 3.47006 9.82149 3.50339 9.86269 3.54826C9.94512 3.63806 10.0659 3.77379 10.2122 3.95058C10.5054 4.30487 10.898 4.82012 11.2903 5.45758C12.0821 6.74434 12.8333 8.46513 12.8333 10.3333C12.8333 12.2015 12.0821 13.9223 11.2903 15.2091C10.898 15.8465 10.5054 16.3618 10.2122 16.7161C10.0659 16.8929 9.94513 17.0286 9.86269 17.1184C9.82149 17.1633 9.78993 17.1966 9.76961 17.2178L9.74779 17.2403L9.74376 17.2444Z" fill="#25B2FF"/>
  <path fill-rule="evenodd" clip-rule="evenodd" d="M10.9229 17.2444C10.9228 17.2442 10.9226 17.2441 10.3333 17.8333C9.74408 18.4226 9.74389 18.4224 9.74368 18.4222L9.74203 18.4205L9.73876 18.4172L9.72866 18.407C9.72038 18.3985 9.709 18.3868 9.69474 18.372C9.66623 18.3423 9.62618 18.2999 9.57623 18.2455C9.47637 18.1368 9.3367 17.9795 9.17051 17.7787C8.83871 17.3778 8.398 16.7993 7.95695 16.0826C7.08213 14.661 6.16667 12.6318 6.16667 10.3333C6.16667 8.03487 7.08213 6.00566 7.95695 4.58409C8.398 3.86738 8.83871 3.28888 9.1705 2.88796C9.33669 2.68715 9.47637 2.52991 9.57623 2.42114C9.62618 2.36673 9.66623 2.32437 9.69474 2.29468C9.709 2.27983 9.72038 2.26813 9.72866 2.25968L9.73876 2.24943L9.74203 2.24614L9.7432 2.24495C9.74341 2.24475 9.74408 2.24408 10.3333 2.83333C10.9226 3.42259 10.9228 3.42242 10.9229 3.42227L10.9189 3.42637L10.8971 3.44889C10.8767 3.47006 10.8452 3.50339 10.804 3.54826C10.7215 3.63806 10.6008 3.77379 10.4545 3.95058C10.1613 4.30487 9.76867 4.82012 9.37638 5.45758C8.58453 6.74434 7.83333 8.46513 7.83333 10.3333C7.83333 12.2015 8.58453 13.9223 9.37638 15.2091C9.76867 15.8465 10.1613 16.3618 10.4545 16.7161C10.6008 16.8929 10.7215 17.0286 10.804 17.1184C10.8452 17.1633 10.8767 17.1966 10.8971 17.2178L10.9189 17.2403L10.9229 17.2444Z" fill="#25B2FF"/>
</svg>
