<svg width="24" height="24" viewBox="0 0 41 40" fill="none" xmlns="http://www.w3.org/2000/svg">
  <path d="M14.4544 21.3391H16.7231L15.5887 18.0723L14.4544 21.3391ZM26.3923 20.357C25.5802 20.357 24.9191 21.0181 24.9191 21.8302C24.9191 22.6423 25.5802 23.3034 26.3923 23.3034C27.2044 23.3034 27.8655 22.6423 27.8655 21.8302C27.8655 21.0181 27.2044 20.357 26.3923 20.357ZM33.2673 8.57129H7.73159C6.10491 8.57129 4.78516 9.89104 4.78516 11.5177V29.1963C4.78516 30.823 6.10491 32.1427 7.73159 32.1427H33.2673C34.894 32.1427 36.2137 30.823 36.2137 29.1963V11.5177C36.2137 9.89104 34.894 8.57129 33.2673 8.57129ZM20.1667 26.2499H19.1269C18.7089 26.2499 18.3363 25.9847 18.1988 25.59L17.7464 24.2856H13.4317L12.9787 25.59C12.9117 25.7828 12.7864 25.9499 12.62 26.0682C12.4537 26.1864 12.2546 26.2499 12.0506 26.2499H11.0107C10.3349 26.2499 9.86099 25.5838 10.0826 24.9455L13.3789 15.4537C13.4793 15.1646 13.6673 14.914 13.9167 14.7367C14.1661 14.5593 14.4645 14.4641 14.7705 14.4641H16.407C16.7131 14.4641 17.0116 14.5594 17.261 14.7369C17.5104 14.9143 17.6983 15.1651 17.7985 15.4543L21.0943 24.9455C21.3158 25.5838 20.842 26.2499 20.1667 26.2499ZM30.8119 25.2677C30.8119 25.8104 30.3724 26.2499 29.8298 26.2499H28.8477C28.5499 26.2499 28.2927 26.1105 28.1123 25.9012C27.5831 26.1259 27.0018 26.2499 26.3923 26.2499C23.9554 26.2499 21.9727 24.2672 21.9727 21.8302C21.9727 19.3933 23.9554 17.4106 26.3923 17.4106C26.9116 17.4106 27.4027 17.5168 27.8655 17.6819V15.4463C27.8655 14.9037 28.305 14.4641 28.8477 14.4641H29.8298C30.3724 14.4641 30.8119 14.9037 30.8119 15.4463V25.2677Z" fill="currentColor"/>
</svg>
