<svg width="24" height="24" viewBox="0 0 24 24" fill="none" xmlns="http://www.w3.org/2000/svg">
  <path fill-rule="evenodd" clip-rule="evenodd" d="M6.53357 6.27766C5.54473 7.25784 4.82954 8.47967 4.45903 9.82178C4.13174 11.3748 4.03781 12.0748 3.95618 12.683C3.92332 12.9279 3.89245 13.1579 3.84916 13.4227C3.69453 13.5749 3.48621 13.6603 3.26919 13.6603C3.05217 13.6603 2.84386 13.5749 2.68922 13.4227L0.240796 10.9757C0.164509 10.9003 0.103946 10.8104 0.0626142 10.7114C0.0212819 10.6123 0 10.5061 0 10.3988C0 10.2914 0.0212819 10.1852 0.0626142 10.0862C0.103946 9.98712 0.164509 9.89726 0.240796 9.82178H2.4112C2.80407 8.03435 3.68135 6.38954 4.9469 5.06756C6.21246 3.74558 7.81747 2.79744 9.58607 2.32703C11.5688 1.808 13.663 1.90868 15.5868 2.61552C17.5106 3.32235 19.1718 4.60143 20.3469 6.28068L18.7146 7.40475C17.7744 6.05861 16.4441 5.03302 14.903 4.46615C13.362 3.89928 11.6842 3.81838 10.0958 4.23435C8.75047 4.59305 7.5224 5.29748 6.53357 6.27766ZM21.2243 10.7635L23.5591 13.3016C23.6351 13.3773 23.6954 13.4673 23.7365 13.5663C23.7776 13.6654 23.7987 13.7716 23.7986 13.8789C23.7984 13.9862 23.7771 14.0923 23.7357 14.1913C23.6944 14.2903 23.6339 14.3801 23.5576 14.4556H21.6967C21.3156 16.2597 20.4413 17.9227 19.1711 19.2593C17.9009 20.596 16.2847 21.554 14.5024 22.0266C12.5206 22.5455 10.4274 22.4451 8.50435 21.7388C6.58133 21.0325 4.92076 19.7542 3.74602 18.0759L5.37681 16.9533C6.31829 18.2984 7.64904 19.3229 9.19013 19.8892C10.7312 20.4554 12.4087 20.5362 13.9971 20.1207C15.3563 19.7586 16.5958 19.044 17.5903 18.0493C18.5848 17.0545 19.299 15.8148 19.6608 14.4556C20.0644 12.5 20.0644 12 20.0644 10.7635C20.219 10.6112 20.4273 10.5259 20.6443 10.5259C20.8614 10.5259 21.0697 10.6112 21.2243 10.7635Z" fill="currentColor"/>
  <path fill-rule="evenodd" clip-rule="evenodd" d="M12 18C15.3137 18 18 15.3137 18 12C18 8.68629 15.3137 6 12 6C8.68629 6 6 8.68629 6 12C6 15.3137 8.68629 18 12 18ZM11.0894 14.2197H13.2432L13.6621 15.8203H15.3486L12.8887 8H11.4438L9 15.8203H10.6704L11.0894 14.2197ZM12.894 12.9038H11.4331L12.1636 10.1162L12.894 12.9038Z" fill="currentColor"/>
</svg>
