<svg width="24" height="24" viewBox="0 0 24 24" fill="none" xmlns="http://www.w3.org/2000/svg">
  <path fill-rule="evenodd" clip-rule="evenodd" d="M9.75 5V6.25H14.25V5H15.75V6.25H18C18.9665 6.25 19.75 7.0335 19.75 8V18C19.75 18.9665 18.9665 19.75 18 19.75H6C5.0335 19.75 4.25 18.9665 4.25 18V8C4.25 7.0335 5.0335 6.25 6 6.25H8.25V5H9.75ZM14.25 7.75H9.75L9.75 10.25H14.25L14.25 7.75ZM15.75 10.25L15.75 7.75H18C18.1381 7.75 18.25 7.86193 18.25 8V10.25H15.75ZM6 7.75H8.25L8.25 10.25H5.75V8C5.75 7.86193 5.86193 7.75 6 7.75ZM5.75 11.75V18C5.75 18.1381 5.86193 18.25 6 18.25H18C18.1381 18.25 18.25 18.1381 18.25 18V11.75H5.75Z" fill="currentColor" />
  <path d="M9.85 5V4.9H9.75H8.25H8.15V5V6.15H6C4.97827 6.15 4.15 6.97827 4.15 8V18C4.15 19.0217 4.97827 19.85 6 19.85H18C19.0217 19.85 19.85 19.0217 19.85 18V8C19.85 6.97827 19.0217 6.15 18 6.15H15.85V5V4.9H15.75H14.25H14.15V5V6.15H9.85V5ZM9.85 10.15L9.85 7.85H14.15L14.15 10.15H9.85ZM15.85 10.15L15.85 7.85H18C18.0828 7.85 18.15 7.91716 18.15 8V10.15H15.85ZM6 7.85H8.15L8.15 10.15H5.85V8C5.85 7.91716 5.91716 7.85 6 7.85ZM5.85 18V11.85H18.15V18C18.15 18.0828 18.0828 18.15 18 18.15H6C5.91716 18.15 5.85 18.0828 5.85 18Z" stroke="currentColor" stroke-width="0.2"/>
</svg>
