<svg width="57" height="57" viewBox="0 0 57 57" fill="none" xmlns="http://www.w3.org/2000/svg">
  <path fill-rule="evenodd" clip-rule="evenodd" d="M23.7276 30.8489L29.0312 36.1525L31.1525 34.0312L25.8489 28.7276L31.1522 23.4243L29.0309 21.303L23.7276 26.6063L18.4246 21.3033L16.3033 23.4246L21.6063 28.7276L16.303 34.0309L18.4243 36.1522L23.7276 30.8489Z" fill="currentColor" fill-opacity="0.12"/>
  <path d="M40.9825 23.3149L50.079 16.7369C50.0792 16.7368 50.0793 16.7366 50.0795 16.7365C50.1432 16.6907 50.2166 16.6644 50.2915 16.6589C50.3667 16.6534 50.4425 16.6688 50.5112 16.7044C50.58 16.7402 50.64 16.7955 50.6829 16.8663C50.7257 16.9367 50.7493 17.0189 50.75 17.1039V40.8961C50.7493 40.9811 50.7257 41.0633 50.683 41.1337L51.7517 41.782L50.6829 41.1337C50.64 41.2045 50.58 41.2598 50.5112 41.2956C50.4425 41.3312 50.3667 41.3466 50.2916 41.3411C50.2164 41.3355 50.1428 41.3092 50.079 41.2631L40.9825 34.6851L39 33.2515V35.698V42.6C39 43.1753 38.7742 43.7239 38.3772 44.1259C37.9808 44.5274 37.4466 44.75 36.8929 44.75H8.35714C7.80345 44.75 7.26918 44.5274 6.87276 44.1259L5.98481 45.0027L6.87276 44.1259C6.4758 43.7239 6.25 43.1753 6.25 42.6V15.4C6.25 14.8247 6.4758 14.2761 6.87276 13.8741C7.26918 13.4726 7.80345 13.25 8.35714 13.25H36.8929C37.4466 13.25 37.9808 13.4726 38.3772 13.8741C38.7742 14.2761 39 14.8247 39 15.4V22.302V24.7485L40.9825 23.3149Z" stroke="currentColor" stroke-opacity="0.12" stroke-width="2.5"/>
</svg>
