<svg width="57" height="57" viewBox="0 0 57 57" fill="none" xmlns="http://www.w3.org/2000/svg">
  <path d="M40.9825 23.3149L50.079 16.7369C50.0792 16.7368 50.0793 16.7366 50.0795 16.7365C50.1432 16.6907 50.2166 16.6644 50.2915 16.6589C50.3667 16.6534 50.4425 16.6688 50.5112 16.7044C50.58 16.7402 50.64 16.7955 50.6829 16.8663C50.7257 16.9367 50.7493 17.0189 50.75 17.1039V40.8961C50.7493 40.9811 50.7257 41.0633 50.683 41.1337L51.7517 41.782L50.6829 41.1337C50.64 41.2045 50.58 41.2598 50.5112 41.2956C50.4425 41.3312 50.3667 41.3466 50.2916 41.3411C50.2164 41.3355 50.1428 41.3092 50.079 41.2631L40.9825 34.6851L39 33.2515V35.698V42.6C39 43.1753 38.7742 43.7239 38.3772 44.1259C37.9808 44.5274 37.4466 44.75 36.8929 44.75H8.35714C7.80345 44.75 7.26918 44.5274 6.87276 44.1259L5.98481 45.0027L6.87276 44.1259C6.4758 43.7239 6.25 43.1753 6.25 42.6V15.4C6.25 14.8247 6.4758 14.2761 6.87276 13.8741C7.26918 13.4726 7.80345 13.25 8.35714 13.25H36.8929C37.4466 13.25 37.9808 13.4726 38.3772 13.8741C38.7742 14.2761 39 14.8247 39 15.4V22.302V24.7485L40.9825 23.3149Z" stroke="currentColor" stroke-opacity="0.12" stroke-width="2.5"/>
  <path d="M20.7441 33.0684C20.7441 31.7923 20.8991 30.776 21.209 30.0195C21.5189 29.263 22.084 28.5202 22.9043 27.791C23.7337 27.0527 24.2852 26.4557 24.5586 26C24.832 25.5352 24.9688 25.0475 24.9688 24.5371C24.9688 22.9967 24.2578 22.2266 22.8359 22.2266C22.1615 22.2266 21.6191 22.4362 21.209 22.8555C20.8079 23.2656 20.5983 23.8353 20.5801 24.5645H16.6152C16.6335 22.8236 17.194 21.4609 18.2969 20.4766C19.4089 19.4922 20.9219 19 22.8359 19C24.7682 19 26.2676 19.4694 27.334 20.4082C28.4004 21.3379 28.9336 22.6549 28.9336 24.3594C28.9336 25.1341 28.7604 25.8678 28.4141 26.5605C28.0677 27.2441 27.4616 28.0052 26.5957 28.8438L25.4883 29.8965C24.7956 30.5618 24.3991 31.3411 24.2988 32.2344L24.2441 33.0684H20.7441ZM20.3477 37.2656C20.3477 36.6549 20.5527 36.1536 20.9629 35.7617C21.3822 35.3607 21.9154 35.1602 22.5625 35.1602C23.2096 35.1602 23.7383 35.3607 24.1484 35.7617C24.5677 36.1536 24.7773 36.6549 24.7773 37.2656C24.7773 37.8672 24.5723 38.3639 24.1621 38.7559C23.7611 39.1478 23.2279 39.3438 22.5625 39.3438C21.8971 39.3438 21.3594 39.1478 20.9492 38.7559C20.5482 38.3639 20.3477 37.8672 20.3477 37.2656Z" fill="currentColor" fill-opacity="0.12"/>
</svg>
