<svg width="24" height="24" viewBox="0 0 41 40" fill="none" xmlns="http://www.w3.org/2000/svg">
  <path d="M24.8756 29.6429H8.17913C7.65817 29.6429 7.15854 29.4359 6.79017 29.0675C6.42179 28.6992 6.21484 28.1995 6.21484 27.6786V11.9643C6.21484 11.4433 6.42179 10.9437 6.79017 10.5753C7.15854 10.207 7.65817 10 8.17913 10H24.8756C25.3965 10 25.8961 10.207 26.2645 10.5753C26.6329 10.9437 26.8398 11.4433 26.8398 11.9643V15.9518L32.1631 12.1509C32.3096 12.0465 32.4821 11.9844 32.6616 11.9714C32.841 11.9584 33.0206 11.9949 33.1808 12.077C33.3409 12.1591 33.4754 12.2836 33.5696 12.4369C33.6638 12.5902 33.714 12.7665 33.7148 12.9464V26.6964C33.714 26.8764 33.6638 27.0526 33.5696 27.206C33.4754 27.3593 33.3409 27.4838 33.1808 27.5659C33.0206 27.648 32.841 27.6845 32.6616 27.6715C32.4821 27.6584 32.3096 27.5963 32.1631 27.492L26.8398 23.6911V27.6786C26.8398 28.1995 26.6329 28.6992 26.2645 29.0675C25.8961 29.4359 25.3965 29.6429 24.8756 29.6429Z" fill="currentColor"/>
</svg>
