<svg width="24" height="24" viewBox="0 0 41 40" fill="none" xmlns="http://www.w3.org/2000/svg">
  <path d="M32.8102 12.114L32.8302 12.0897L27.116 7.46115L25.316 9.68115L28.2688 12.0726C27.5363 12.5177 26.9546 13.1729 26.5995 13.9531C26.2443 14.7332 26.1321 15.6021 26.2774 16.4469C26.4917 17.7311 27.376 18.8411 28.5202 19.4626C29.7988 20.1583 30.9202 20.094 31.9174 19.7397L31.896 28.5711C31.8977 28.8077 31.8404 29.0409 31.7293 29.2498C31.6182 29.4586 31.4568 29.6365 31.2596 29.7672C31.0625 29.898 30.8359 29.9775 30.6003 29.9987C30.3647 30.0198 30.1275 29.9819 29.9102 29.8883C29.7401 29.8155 29.5858 29.7102 29.456 29.5783C29.3239 29.446 29.2192 29.2889 29.1479 29.1161C29.0765 28.9433 29.04 28.7581 29.0402 28.5711L29.0731 25.714C29.0745 25.1517 28.9646 24.5947 28.7495 24.0751C28.5345 23.5555 28.2186 23.0837 27.8202 22.6869C27.4223 22.288 26.9495 21.9716 26.4291 21.7556C25.9087 21.5396 25.3508 21.4284 24.7874 21.4283H23.3588V9.99972C23.3588 9.24196 23.0578 8.51523 22.522 7.97942C21.9862 7.4436 21.2594 7.14258 20.5017 7.14258H10.5017C9.74391 7.14258 9.01719 7.4436 8.48137 7.97942C7.94555 8.51523 7.64453 9.24196 7.64453 9.99972V29.9997C7.64453 30.7575 7.94555 31.4842 8.48137 32.02C9.01719 32.5558 9.74391 32.8569 10.5017 32.8569H20.5017C21.2594 32.8569 21.9862 32.5558 22.522 32.02C23.0578 31.4842 23.3588 30.7575 23.3588 29.9997V24.2854H24.7874C24.9817 24.2854 25.1688 24.324 25.346 24.3969C25.6859 24.5457 25.957 24.8177 26.1045 25.1583C26.1786 25.3342 26.2165 25.5232 26.216 25.714L26.1817 28.5711C26.1817 29.1511 26.2945 29.7126 26.5188 30.2397C26.7345 30.7526 27.0445 31.2111 27.4345 31.5983C27.8311 31.9991 28.3035 32.3168 28.8243 32.5329C29.345 32.749 29.9036 32.8591 30.4674 32.8569C31.0474 32.8569 31.6074 32.7454 32.136 32.5197C32.6474 32.3054 33.1074 31.9954 33.4945 31.604C33.8945 31.2068 34.2116 30.7343 34.4277 30.2137C34.6437 29.6931 34.7543 29.1348 34.7531 28.5711L34.7874 15.714C34.786 14.9963 34.6042 14.2905 34.2587 13.6614C33.9132 13.0324 33.4151 12.5003 32.8102 12.114ZM13.3588 28.5711L14.7874 21.4283H10.5017L17.6445 11.4283L16.216 18.5711H20.5017L13.3588 28.5711ZM30.5017 17.1426C30.1228 17.1426 29.7594 16.9921 29.4915 16.7242C29.2236 16.4562 29.0731 16.0929 29.0731 15.714C29.0731 15.3351 29.2236 14.9718 29.4915 14.7039C29.7594 14.4359 30.1228 14.2854 30.5017 14.2854C30.8806 14.2854 31.2439 14.4359 31.5118 14.7039C31.7797 14.9718 31.9302 15.3351 31.9302 15.714C31.9302 16.0929 31.7797 16.4562 31.5118 16.7242C31.2439 16.9921 30.8806 17.1426 30.5017 17.1426Z" fill="currentColor"/>
</svg>
