<svg width="24" height="24" viewBox="0 0 24 24" fill="none" xmlns="http://www.w3.org/2000/svg">
    <path fill-rule="evenodd" clip-rule="evenodd" d="M12 4.615c-1.067 0-1.334.871-1.334 1.307v2.614H8V5.922C8 3.83 9.333 2.002 12 2h2.666v2.615H12zM0 22v-1.765h24V22H0zM13.8 9.059H6v10.588h7.8V9.06zm-1.934 4.443c.663 0 1.2-.527 1.2-1.176 0-.65-.537-1.177-1.2-1.177-.662 0-1.2.527-1.2 1.177s.538 1.176 1.2 1.176zm1.334 2.615c0 .65-.537 1.177-1.2 1.177-.663 0-1.2-.527-1.2-1.177s.537-1.176 1.2-1.176c.663 0 1.2.526 1.2 1.176zM0 12.981c0-.65.537-1.177 1.2-1.177h2.933c.663 0 1.2.527 1.2 1.177v6.666H0v-6.666zm1.333.784H4v1.307H1.333v-1.307zM4 16.38H1.333v1.307H4V16.38zm11.866-5.882c-.662 0-1.2.527-1.2 1.176v7.974H24v-7.974c0-.65-.538-1.176-1.2-1.176h-6.934zm4.8 5.882a.66.66 0 0 0-.666.653.66.66 0 0 0 .666.654H22a.66.66 0 0 0 .666-.654.66.66 0 0 0-.666-.653h-1.334zM20 12.457h2.666v2.615H20v-2.615z" fill="currentColor"/>
</svg>
