<svg width="24" height="24" viewBox="0 0 24 24" fill="none" xmlns="http://www.w3.org/2000/svg">
  <path fill-rule="evenodd" clip-rule="evenodd" d="M11 2.1001C9.39835 2.1001 8.09998 3.39847 8.09998 5.0001V5.1001H4.99998H3.99998C3.50292 5.1001 3.09998 5.50304 3.09998 6.0001C3.09998 6.49715 3.50292 6.9001 3.99998 6.9001H4.99998H5.30882L6.13423 19.1716L6.13435 19.1736C6.22588 20.622 7.42735 21.7501 8.87888 21.7501H15.1211C16.5726 21.7501 17.774 20.622 17.8656 19.1737L17.8657 19.1716L18.6911 6.9001H19H20C20.497 6.9001 20.9 6.49715 20.9 6.0001C20.9 5.50304 20.497 5.1001 20 5.1001H19H15.9V5.0001C15.9 3.39847 14.6016 2.1001 13 2.1001H11ZM14.1 5.1001H9.89998V5.0001C9.89998 4.39258 10.3925 3.9001 11 3.9001H13C13.6075 3.9001 14.1 4.39258 14.1 5.0001V5.1001ZM10.5991 9.96156C10.5779 9.46496 10.158 9.07964 9.66144 9.10092C9.16484 9.12221 8.77952 9.54203 8.8008 10.0386L9.1008 17.0386C9.12208 17.5352 9.54191 17.9206 10.0385 17.8993C10.5351 17.878 10.9204 17.4582 10.8991 16.9616L10.5991 9.96156ZM15.1992 10.0386C15.2204 9.54203 14.8351 9.12221 14.3385 9.10092C13.8419 9.07964 13.4221 9.46496 13.4008 9.96156L13.1008 16.9616C13.0795 17.4582 13.4648 17.878 13.9614 17.8993C14.458 17.9206 14.8779 17.5352 14.8992 17.0386L15.1992 10.0386Z" fill="currentColor"/>
</svg>
