<svg width="24" height="24" viewBox="0 0 24 24" fill="none" xmlns="http://www.w3.org/2000/svg">
    <path fill-rule="evenodd" clip-rule="evenodd" d="M0 2.983c0-.78.632-1.411 1.412-1.411h21.176c.78 0 1.412.632 1.412 1.411v17.748c0 .78-.632 1.412-1.412 1.412H1.412c-.78 0-1.412-.632-1.412-1.412V2.983zM3.429 5h12v6.857h-12V5zm.857 10.286a.857.857 0 1 0 0-1.714.857.857 0 0 0 0 1.714zm4.285-.857a.857.857 0 1 1-1.714 0 .857.857 0 0 1 1.714 0zm2.572.857a.857.857 0 1 0 0-1.714.857.857 0 0 0 0 1.714zm4.286-.857a.857.857 0 1 1-1.715 0 .857.857 0 0 1 1.715 0zm4.758-9.242a.644.644 0 0 0-.77.25l-1.563 2.4a.706.706 0 0 0 .591 1.09h1.274l-1.514 1.744a.623.623 0 1 0 .941.818l2.125-2.447a.706.706 0 0 0-.533-1.169h-1.372l1.13-1.734a.644.644 0 0 0-.309-.952zM5.143 17v2.824H3.429V17h1.714zm3.428 2.118V17H6.857v2.118H8.57zM12 17v2.824h-1.714V17H12zm3.429 0h-1.715v2.118h1.715V17zm4.285-3.428a.857.857 0 0 1 0 1.714H18a.857.857 0 1 1 0-1.714h1.714zm-.857 6.857a1.714 1.714 0 1 0 0-3.429 1.714 1.714 0 0 0 0 3.429z" fill="currentColor"/>
</svg>
