<svg width="24" height="24" viewBox="0 0 24 24" fill="none" xmlns="http://www.w3.org/2000/svg">
  <path d="M11.3919 14.9819H3.34125C3.03875 14.0188 2.88875 13.0125 2.89188 12C2.89188 10.9581 3.04188 9.95939 3.34125 9.01814H16.5581C18.2081 9.01126 19.5463 10.35 19.5431 12C19.5525 13.6406 18.225 14.9781 16.5838 14.9819H11.3919ZM11.0169 15.9844H3.70938C4.4775 17.7488 5.75 19.2494 7.3675 20.3013C8.98563 21.3756 10.89 21.9488 12.8331 21.9419C16.29 21.9419 19.3175 20.1744 21.1081 17.5244C20.1575 16.5413 18.8525 15.9813 17.4813 15.975L11.0169 15.9844ZM17.4819 8.02501C18.9013 8.02501 20.19 7.42689 21.1088 6.48251C19.0838 3.46501 15.5744 1.78814 11.9513 2.10751C8.33188 2.43001 5.17125 4.69501 3.70938 8.02501H17.4819Z" fill="currentColor"/>
</svg>
