<svg width="24" height="24" viewBox="0 0 28 28" fill="none" xmlns="http://www.w3.org/2000/svg">
  <path d="M14.7623 10.7875C17.7203 10.7875 19.3979 12.6763 19.6415 14.9563H19.7159C21.6191 14.9563 23.1623 16.4407 23.1623 18.2719C23.1623 20.1031 21.6191 21.5875 19.7159 21.5875H9.80867C7.90547 21.5875 6.36227 20.1031 6.36227 18.2719C6.36227 16.4407 7.90547 14.9563 9.80867 14.9563H9.88307C10.1291 12.6607 11.8043 10.7875 14.7623 10.7875ZM6.12587 14.0275C6.17211 14.1604 6.17015 14.3053 6.12036 14.4369C6.07057 14.5685 5.9761 14.6785 5.85347 14.7475L5.75387 14.7907L4.79267 15.1219C4.65134 15.1698 4.49722 15.1633 4.3604 15.1037C4.22358 15.0441 4.11388 14.9357 4.05271 14.7996C3.99155 14.6634 3.9833 14.5094 4.0296 14.3675C4.07589 14.2257 4.17339 14.1061 4.30307 14.0323L4.40147 13.9879L5.36387 13.6567C5.51425 13.6051 5.67897 13.6153 5.82184 13.685C5.96472 13.7548 6.07406 13.8784 6.12587 14.0287V14.0275ZM12.2663 8.98747C12.6647 9.18187 13.0163 9.43507 13.3139 9.73147C11.1995 10.1683 9.67787 11.5711 9.06227 13.5187L8.98427 13.7875L8.92907 14.0119L8.73107 14.0479C8.19873 14.1575 7.69056 14.3624 7.23107 14.6527C6.76724 13.9302 6.55238 13.0758 6.61922 12.2199C6.68607 11.3639 7.03096 10.5533 7.60133 9.91153C8.1717 9.26979 8.93626 8.83216 9.77847 8.66533C10.6207 8.4985 11.4943 8.61163 12.2663 8.98747ZM5.06267 9.19147L5.16227 9.22987L6.07667 9.67507C6.21147 9.7406 6.31687 9.85421 6.37211 9.99354C6.42735 10.1329 6.42845 10.2878 6.37518 10.4279C6.32191 10.568 6.21813 10.6831 6.08427 10.7505C5.95041 10.818 5.79616 10.8329 5.65187 10.7923L5.55107 10.7539L4.63667 10.3087C4.50187 10.2431 4.39648 10.1295 4.34123 9.9902C4.28599 9.85087 4.2849 9.69591 4.33817 9.55581C4.39144 9.41571 4.49521 9.30062 4.62908 9.23319C4.76294 9.16577 4.91719 9.15088 5.06147 9.19147H5.06267ZM13.5503 6.34147C13.6768 6.40292 13.7778 6.50688 13.8355 6.6352C13.8932 6.76352 13.9039 6.90803 13.8659 7.04347L13.8263 7.14427L13.3811 8.05867C13.3155 8.19347 13.2019 8.29887 13.0626 8.35411C12.9233 8.40935 12.7683 8.41045 12.6282 8.35718C12.4881 8.30391 12.373 8.20013 12.3056 8.06627C12.2382 7.93241 12.2233 7.77816 12.2639 7.63387L12.3023 7.53187L12.7487 6.61867C12.8185 6.47587 12.9421 6.36661 13.0924 6.31486C13.2427 6.26312 13.4074 6.27312 13.5503 6.34267V6.34147ZM9.00227 6.30307L9.04667 6.40147L9.37787 7.36387C9.42751 7.50572 9.42211 7.66103 9.36274 7.79909C9.30336 7.93715 9.19434 8.0479 9.05724 8.10944C8.92013 8.17098 8.76493 8.17882 8.62231 8.13143C8.4797 8.08403 8.36007 7.98484 8.28707 7.85347L8.24387 7.75387L7.91267 6.79267C7.86475 6.65134 7.87122 6.49722 7.93081 6.3604C7.99041 6.22358 8.09885 6.11388 8.23498 6.05271C8.3711 5.99155 8.52514 5.9833 8.66701 6.0296C8.80889 6.07589 8.92842 6.17339 9.00227 6.30307Z" fill="none"/>
  <path d="M14.7623 10.7875C17.7203 10.7875 19.3979 12.6763 19.6415 14.9563H19.7159C21.6191 14.9563 23.1623 16.4407 23.1623 18.2719C23.1623 20.1031 21.6191 21.5875 19.7159 21.5875H9.80867C7.90547 21.5875 6.36227 20.1031 6.36227 18.2719C6.36227 16.4407 7.90547 14.9563 9.80867 14.9563H9.88307C10.1291 12.6607 11.8043 10.7875 14.7623 10.7875ZM6.12587 14.0275C6.17211 14.1604 6.17015 14.3053 6.12036 14.4369C6.07057 14.5685 5.9761 14.6785 5.85347 14.7475L5.75387 14.7907L4.79267 15.1219C4.65134 15.1698 4.49722 15.1633 4.3604 15.1037C4.22358 15.0441 4.11388 14.9357 4.05271 14.7996C3.99155 14.6634 3.9833 14.5094 4.0296 14.3675C4.07589 14.2257 4.17339 14.1061 4.30307 14.0323L4.40147 13.9879L5.36387 13.6567C5.51425 13.6051 5.67897 13.6153 5.82184 13.685C5.96472 13.7548 6.07406 13.8784 6.12587 14.0287V14.0275ZM12.2663 8.98747C12.6647 9.18187 13.0163 9.43507 13.3139 9.73147C11.1995 10.1683 9.67787 11.5711 9.06227 13.5187L8.98427 13.7875L8.92907 14.0119L8.73107 14.0479C8.19873 14.1575 7.69056 14.3624 7.23107 14.6527C6.76724 13.9302 6.55238 13.0758 6.61922 12.2199C6.68607 11.3639 7.03096 10.5533 7.60133 9.91153C8.1717 9.26979 8.93626 8.83216 9.77847 8.66533C10.6207 8.4985 11.4943 8.61163 12.2663 8.98747ZM5.06267 9.19147L5.16227 9.22987L6.07667 9.67507C6.21147 9.7406 6.31687 9.85421 6.37211 9.99354C6.42735 10.1329 6.42845 10.2878 6.37518 10.4279C6.32191 10.568 6.21813 10.6831 6.08427 10.7505C5.95041 10.818 5.79616 10.8329 5.65187 10.7923L5.55107 10.7539L4.63667 10.3087C4.50187 10.2431 4.39648 10.1295 4.34123 9.9902C4.28599 9.85087 4.2849 9.69591 4.33817 9.55581C4.39144 9.41571 4.49521 9.30062 4.62908 9.23319C4.76294 9.16577 4.91719 9.15088 5.06147 9.19147H5.06267ZM13.5503 6.34147C13.6768 6.40292 13.7778 6.50688 13.8355 6.6352C13.8932 6.76352 13.9039 6.90803 13.8659 7.04347L13.8263 7.14427L13.3811 8.05867C13.3155 8.19347 13.2019 8.29887 13.0626 8.35411C12.9233 8.40935 12.7683 8.41045 12.6282 8.35718C12.4881 8.30391 12.373 8.20013 12.3056 8.06627C12.2382 7.93241 12.2233 7.77816 12.2639 7.63387L12.3023 7.53187L12.7487 6.61867C12.8185 6.47587 12.9421 6.36661 13.0924 6.31486C13.2427 6.26312 13.4074 6.27312 13.5503 6.34267V6.34147ZM9.00227 6.30307L9.04667 6.40147L9.37787 7.36387C9.42751 7.50572 9.42211 7.66103 9.36274 7.79909C9.30336 7.93715 9.19434 8.0479 9.05724 8.10944C8.92013 8.17098 8.76493 8.17882 8.62231 8.13143C8.4797 8.08403 8.36007 7.98484 8.28707 7.85347L8.24387 7.75387L7.91267 6.79267C7.86475 6.65134 7.87122 6.49722 7.93081 6.3604C7.99041 6.22358 8.09885 6.11388 8.23498 6.05271C8.3711 5.99155 8.52514 5.9833 8.66701 6.0296C8.80889 6.07589 8.92842 6.17339 9.00227 6.30307Z" fill="currentColor"/>
</svg>
