<svg width="24" height="24" viewBox="0 0 24 24" fill="none" xmlns="http://www.w3.org/2000/svg">
  <path fill-rule="evenodd" clip-rule="evenodd" d="M12 3C10.76 2.99876 9.56384 3.45828 8.64364 4.28938C7.72344 5.12047 7.14487 6.26383 7.02026 7.49751C6.89565 8.73118 7.23387 9.96715 7.96928 10.9655C8.70469 11.9638 9.78482 12.6533 11 12.9V15H7.99997V17H11V21H13V17H16V15H13V12.9C14.2113 12.6491 15.2867 11.9582 16.0185 10.9607C16.7502 9.9633 17.0864 8.73009 16.9621 7.49929C16.8377 6.26848 16.2617 5.12741 15.3453 4.29645C14.4289 3.4655 13.237 3.00361 12 3V3ZM8.99997 8C8.99997 8.79565 9.31604 9.55871 9.87865 10.1213C10.4413 10.6839 11.2043 11 12 11C12.7956 11 13.5587 10.6839 14.1213 10.1213C14.6839 9.55871 15 8.79565 15 8C15 7.20435 14.6839 6.44129 14.1213 5.87868C13.5587 5.31607 12.7956 5 12 5C11.2043 5 10.4413 5.31607 9.87865 5.87868C9.31604 6.44129 8.99997 7.20435 8.99997 8V8Z" fill="currentColor"/>
</svg>
