<svg width="24" height="25" viewBox="0 0 24 25" fill="none" xmlns="http://www.w3.org/2000/svg">
    <path d="M11.705.946a.745.745 0 0 0-.744.745v1.717a.745.745 0 1 0 1.49 0V1.69a.745.745 0 0 0-.746-.745zM3.184 5.215a.745.745 0 0 1 1.29-.745l.858 1.487a.745.745 0 0 1-1.29.744l-.858-1.486zM19.954 4.298a.745.745 0 0 0-1.017.272l-.859 1.487a.745.745 0 1 0 1.29.745l.859-1.487a.745.745 0 0 0-.273-1.017z" fill="currentColor"/>
    <path fill-rule="evenodd" clip-rule="evenodd" d="M17.706 11.372c0-2.468-2.668-4.468-5.958-4.468s-5.958 2-5.958 4.468v8.663h11.916v-8.663zm-7.15-1.638h2.384l-.596 5.958h-1.192l-.596-5.958zm1.788 7.15h-1.192v1.192h1.192v-1.192z" fill="currentColor"/>
    <path d="M4.301 23.537a2.482 2.482 0 0 1 2.482-2.483h9.93a2.482 2.482 0 0 1 2.482 2.483.496.496 0 0 1-.496.496H4.798a.496.496 0 0 1-.497-.496zM23.062 10.076a.745.745 0 1 1 .386 1.438l-1.658.445a.745.745 0 0 1-.386-1.439l1.658-.444zM.026 10.602a.745.745 0 0 0 .526.912l1.658.444a.745.745 0 0 0 .386-1.438l-1.658-.445a.745.745 0 0 0-.912.527z" fill="currentColor"/>
</svg>
