<svg width="24" height="24" viewBox="0 0 24 24" fill="none" xmlns="http://www.w3.org/2000/svg">
    <mask id="5bbzevtqja" fill="#fff">
        <path d="M10.55 1.5 3.006 7.158A2.53 2.53 0 0 0 2 9.169v11.316A2.522 2.522 0 0 0 4.515 23h15.087a2.522 2.522 0 0 0 2.515-2.515V9.17c0-.792-.377-1.533-1.006-2.011L13.567 1.5a2.527 2.527 0 0 0-3.017 0z"/>
    </mask>
    <path d="M10.55 1.5 8.759-.907l-.01.007 1.8 2.4zM3.006 7.158l-1.8-2.4-.008.005-.007.006 1.815 2.389zm18.105 0 1.816-2.389-.008-.006-.008-.005-1.8 2.4zM13.567 1.5l1.8-2.4-.009-.007-1.79 2.407zM12.06 1v3-3zM8.749-.9 1.207 4.758l3.6 4.8L12.35 3.9 8.75-.9zM1.192 4.77A5.53 5.53 0 0 0-1 9.17h6a.47.47 0 0 1-.179.376L1.191 4.77zM-1 9.17v11.315h6V9.17h-6zm0 11.315A5.522 5.522 0 0 0 4.515 26v-6c.273 0 .485.212.485.485h-6zM4.515 26h15.087v-6H4.515v6zm15.087 0a5.522 5.522 0 0 0 5.515-5.515h-6c0-.273.212-.485.485-.485v6zm5.515-5.515V9.17h-6v11.316h6zm0-11.316a5.53 5.53 0 0 0-2.19-4.4l-3.631 4.777a.47.47 0 0 1-.179-.377h6zm-2.206-4.411L15.367-.9l-3.6 4.8 7.544 5.658 3.6-4.8zM15.358-.907A5.527 5.527 0 0 0 12.058-2v6a.473.473 0 0 1-.282-.094l3.582-4.813zM12.058-2a5.527 5.527 0 0 0-3.3 1.093l3.583 4.813a.473.473 0 0 1-.282.094v-6z" fill="currentColor" mask="url(#5bbzevtqja)"/>
</svg>
