<svg width="24" height="24" viewBox="0 0 24 24" fill="none" xmlns="http://www.w3.org/2000/svg">
    <path d="M8.127 19.523c0 .27.08.534.23.76l.735 1.103a1.374 1.374 0 0 0 1.145.614h2.651a1.374 1.374 0 0 0 1.145-.614l.734-1.103c.15-.226.23-.49.23-.76L15 17.875H8.125l.002 1.648zM4 7.563a7.52 7.52 0 0 0 1.872 4.974c.71.81 1.82 2.502 2.243 3.93l.005.033h6.885l.005-.033c.423-1.428 1.533-3.12 2.243-3.93a7.52 7.52 0 0 0 1.872-4.975A7.562 7.562 0 0 0 11.539 0C7.156.013 4 3.565 4 7.562zm7.562-3.438a3.441 3.441 0 0 0-3.437 3.437.687.687 0 1 1-1.375 0 4.818 4.818 0 0 1 4.812-4.812.687.687 0 1 1 0 1.375z" fill="currentColor"/>
</svg>
