<svg width="32" height="32" viewBox="0 0 32 32" fill="none" xmlns="http://www.w3.org/2000/svg">
  <rect width="32" height="32" rx="8" fill="#07B53B"/>
  <path fill-rule="evenodd" clip-rule="evenodd" d="M16 5.73328C22.0651 5.73328 27 9.73728 27 14.6598C27 16.6302 26.2369 18.4039 24.6419 20.1515C22.3346 22.808 17.1742 26.0434 16 26.5384C14.8588 27.0197 14.9908 26.2675 15.043 25.9705L15.0471 25.9458L15.2039 25.0039C15.241 24.7234 15.2795 24.2875 15.1681 24.0098C15.0444 23.7032 14.5576 23.5437 14.2001 23.4667C8.91325 22.7695 5 19.0722 5 14.6598C5 9.73728 9.93625 5.73328 16 5.73328ZM11.9052 16.3015H9.80837V12.4955C9.80838 12.4389 9.78597 12.3845 9.74604 12.3443C9.70611 12.3041 9.6519 12.2814 9.59525 12.281H8.8225C8.79433 12.281 8.76644 12.2866 8.74041 12.2974C8.71439 12.3081 8.69074 12.3239 8.67083 12.3439C8.65091 12.3638 8.63511 12.3874 8.62433 12.4134C8.61355 12.4395 8.608 12.4674 8.608 12.4955V17.2888C8.608 17.3452 8.63138 17.3988 8.6685 17.4359V17.4373L8.67125 17.44L8.674 17.4428C8.71388 17.4811 8.76718 17.5023 8.8225 17.5019H11.9052C12.0235 17.5019 12.1184 17.4057 12.1184 17.2874V16.5174C12.1186 16.4892 12.1132 16.4613 12.1026 16.4352C12.092 16.4091 12.0763 16.3854 12.0565 16.3653C12.0367 16.3453 12.0132 16.3293 11.9872 16.3184C11.9613 16.3074 11.9334 16.3017 11.9052 16.3015ZM12.9929 12.281H13.7656C13.8839 12.281 13.9788 12.3773 13.9788 12.4955V17.2888C13.9788 17.407 13.8825 17.5019 13.7656 17.5019H12.9929C12.9362 17.5019 12.8819 17.4795 12.8417 17.4396C12.8015 17.3996 12.7787 17.3454 12.7784 17.2888V12.4955C12.7784 12.3773 12.8746 12.281 12.9929 12.281ZM18.3045 12.281H19.0745C19.1941 12.281 19.2904 12.3773 19.2904 12.4955V17.2888C19.2904 17.407 19.1941 17.5019 19.0759 17.5019H18.3045C18.2859 17.502 18.2675 17.4997 18.2495 17.495H18.2467C18.2416 17.4934 18.2366 17.4915 18.2316 17.4895L18.2248 17.4868L18.2151 17.4827C18.2113 17.4811 18.2077 17.4792 18.2041 17.4772L18.2 17.4758L18.1863 17.4675L18.1849 17.4662C18.1634 17.4518 18.1448 17.4336 18.1299 17.4125L15.9299 14.4425V17.2888C15.9301 17.3169 15.9247 17.3447 15.914 17.3708C15.9034 17.3968 15.8877 17.4204 15.8679 17.4404C15.8481 17.4603 15.8246 17.4761 15.7986 17.4869C15.7727 17.4977 15.7449 17.5033 15.7168 17.5033H14.9454C14.8887 17.5033 14.8344 17.4809 14.7942 17.4409C14.754 17.401 14.7312 17.3468 14.7309 17.2902V12.4955C14.7309 12.3773 14.8271 12.281 14.9454 12.281H15.725L15.7319 12.2824H15.7401L15.7443 12.2838H15.7525L15.7662 12.2879H15.769L15.7718 12.2893L15.7855 12.2934L15.7924 12.2962C15.7966 12.2978 15.8007 12.2996 15.8047 12.3017L15.8089 12.303L15.8116 12.3044C15.8178 12.3077 15.8238 12.3113 15.8295 12.3154L15.8336 12.3182L15.8405 12.3223V12.3237C15.8432 12.3237 15.8446 12.3264 15.846 12.3278C15.8498 12.3303 15.8535 12.3331 15.857 12.336L15.8611 12.3402C15.8729 12.351 15.8835 12.3629 15.8927 12.3759L18.09 15.3445V12.4955C18.09 12.3773 18.1862 12.281 18.3045 12.281ZM23.5501 13.2669C23.5501 13.3852 23.4539 13.4814 23.337 13.4814H21.2388V14.2927H23.3356C23.4539 14.2927 23.5487 14.3889 23.5487 14.5058V15.2772C23.5487 15.3954 23.4525 15.4917 23.3356 15.4917H21.2388V16.3029H23.3356C23.4539 16.3029 23.5487 16.3992 23.5487 16.516V17.2874C23.5487 17.4057 23.4525 17.5019 23.3356 17.5019H20.2529C20.2248 17.502 20.197 17.4967 20.1711 17.486C20.1451 17.4754 20.1215 17.4598 20.1016 17.44L20.0989 17.4359C20.0605 17.3965 20.0388 17.3438 20.0384 17.2888V12.4955C20.0384 12.4378 20.0617 12.3855 20.0975 12.3484L20.1016 12.3443L20.103 12.3429C20.1429 12.3033 20.1967 12.2811 20.2529 12.281H23.3356C23.4539 12.281 23.5487 12.3773 23.5487 12.4955V13.2669H23.5501Z" fill="white"/>
</svg>
