<svg width="24" height="24" viewBox="0 0 24 24" fill="none" xmlns="http://www.w3.org/2000/svg">
  <path fill-rule="evenodd" clip-rule="evenodd" d="M12.189 7L12.191 5L19.191 5.007L19.183 12.007L17.183 12.005L17.187 8.417L14.143 11.461C14.8351 12.4916 15.1192 13.7428 14.94 14.9712C14.7609 16.1997 14.1314 17.3176 13.1738 18.1077C12.2162 18.8978 10.9991 19.3036 9.75898 19.2462C8.51886 19.1888 7.34442 18.6722 6.46398 17.797C5.58923 16.9243 5.06861 15.7586 5.00252 14.5248C4.93643 13.2909 5.32956 12.0763 6.10608 11.1151C6.88259 10.154 7.9875 9.51441 9.2077 9.31976C10.4279 9.12511 11.677 9.38916 12.714 10.061L15.772 7.004L12.189 7ZM7.87898 12.14C8.44177 11.5775 9.20497 11.2616 10.0007 11.2617C10.3947 11.2618 10.7848 11.3395 11.1488 11.4904C11.5127 11.6413 11.8434 11.8623 12.122 12.141C12.4005 12.4197 12.6214 12.7505 12.7721 13.1145C12.9228 13.4785 13.0003 13.8687 13.0002 14.2627C13.0001 14.6567 12.9224 15.0468 12.7716 15.4108C12.6207 15.7748 12.3996 16.1055 12.121 16.384C11.5566 16.9388 10.7959 17.2482 10.0045 17.2447C9.21306 17.2412 8.45509 16.9251 7.89567 16.3653C7.33625 15.8055 7.0207 15.0473 7.01776 14.2559C7.01482 13.4645 7.32473 12.704 7.87998 12.14H7.87898Z" fill="currentColor"/>
</svg>
