<svg width="24" height="24" viewBox="0 0 24 24" fill="none" xmlns="http://www.w3.org/2000/svg">
  <g clip-path="url(#clip0)">
    <path d="M6.40313 6.50565C5.93234 6.63872 5.50124 6.8849 5.14739 7.22273C4.79354 7.56057 4.52768 7.97982 4.37297 8.44394L0 21.5624L0.688594 22.251L7.725 15.2146C7.58484 14.9211 7.5 14.5967 7.5 14.2499C7.5 13.0072 8.50734 11.9999 9.75 11.9999C10.9927 11.9999 12 13.0072 12 14.2499C12 15.4925 10.9927 16.4999 9.75 16.4999C9.40312 16.4999 9.07875 16.415 8.78531 16.2749L1.74891 23.3113L2.4375 23.9999L15.5559 19.6269C16.0201 19.4722 16.4393 19.2063 16.7771 18.8525C17.115 18.4986 17.3612 18.0675 17.4942 17.5967L19.5 10.4999L13.5 4.49987L6.40313 6.50565ZM23.3409 3.47659L20.5233 0.658936C19.6444 -0.219971 18.2189 -0.219971 17.34 0.658936L14.6892 3.30972L20.6902 9.31065L23.3409 6.65987C24.2198 5.78097 24.2198 4.35597 23.3409 3.47659Z" fill="white"/>
  </g>
  <defs>
    <clipPath id="clip0">
      <rect width="24" height="24" fill="white"/>
    </clipPath>
  </defs>
</svg>
