<svg width="24" height="24" viewBox="0 0 41 40" fill="none" xmlns="http://www.w3.org/2000/svg">
  <path fill-rule="evenodd" clip-rule="evenodd" d="M9.07031 3.10308C9.07031 2.17835 9.81941 1.42871 10.7435 1.42871H21.117C24.8749 1.42871 27.9212 4.47725 27.9212 8.23781V35.1393H30.8214V37.5951H21.2286V35.1393H24.5749V8.23781C24.5749 6.50118 23.2965 5.06335 21.6302 4.81528C21.2595 7.37204 18.6242 9.35406 15.4283 9.35406C11.9785 9.35406 9.18186 7.04454 9.18186 4.1956C9.18186 4.04246 9.18994 3.89883 9.20577 3.76413C9.1186 3.56133 9.07031 3.33785 9.07031 3.10308ZM10.5799 4.76955C10.9271 6.45026 12.7673 8.01456 15.4283 8.01456C18.0851 8.01456 19.9238 6.45515 20.2751 4.77745H10.7435C10.6883 4.77745 10.6337 4.77477 10.5799 4.76955Z" fill="currentColor"/>
</svg>
