<svg width="24" height="24" viewBox="0 0 24 24" fill="none" xmlns="http://www.w3.org/2000/svg">
  <path fill-rule="evenodd" clip-rule="evenodd" d="M11 2.09961C9.39835 2.09961 8.09998 3.39798 8.09998 4.99961V5.09961H4.99998H3.99998C3.50292 5.09961 3.09998 5.50255 3.09998 5.99961C3.09998 6.49667 3.50292 6.89961 3.99998 6.89961H4.99998H5.30882L6.13423 19.1711L6.13435 19.1731C6.22588 20.6215 7.42735 21.7496 8.87888 21.7496H15.1211C16.5726 21.7496 17.774 20.6215 17.8656 19.1732L17.8657 19.1711L18.6911 6.89961H19H20C20.497 6.89961 20.9 6.49667 20.9 5.99961C20.9 5.50255 20.497 5.09961 20 5.09961H19H15.9V4.99961C15.9 3.39798 14.6016 2.09961 13 2.09961H11ZM14.1 5.09961H9.89998V4.99961C9.89998 4.3921 10.3925 3.89961 11 3.89961H13C13.6075 3.89961 14.1 4.3921 14.1 4.99961V5.09961ZM10.5991 9.96107C10.5779 9.46447 10.158 9.07915 9.66144 9.10043C9.16484 9.12172 8.77952 9.54154 8.8008 10.0381L9.1008 17.0381C9.12208 17.5347 9.54191 17.9201 10.0385 17.8988C10.5351 17.8775 10.9204 17.4577 10.8991 16.9611L10.5991 9.96107ZM15.1992 10.0381C15.2204 9.54154 14.8351 9.12172 14.3385 9.10043C13.8419 9.07915 13.4221 9.46447 13.4008 9.96107L13.1008 16.9611C13.0795 17.4577 13.4648 17.8775 13.9614 17.8988C14.458 17.9201 14.8779 17.5347 14.8992 17.0381L15.1992 10.0381Z" fill="currentColor"/>
</svg>
