<svg width="24" height="24" viewBox="0 0 24 24" fill="none" xmlns="http://www.w3.org/2000/svg">
  <path fill-rule="evenodd" clip-rule="evenodd" d="M6.49996 1.09155C5.0318 1.09155 3.84163 2.28173 3.84163 3.74989V15.6666C3.84163 17.1347 5.03181 18.3249 6.49996 18.3249H12C12.4556 18.3249 12.825 17.9555 12.825 17.4999C12.825 17.0443 12.4556 16.6749 12 16.6749H6.49996C5.94307 16.6749 5.49163 16.2234 5.49163 15.6666V3.74989C5.49163 3.193 5.94307 2.74155 6.49996 2.74155H16.5833C17.1402 2.74155 17.5916 3.193 17.5916 3.74989V6.04155C17.5916 6.49719 17.961 6.86655 18.4166 6.86655C18.8723 6.86655 19.2416 6.49719 19.2416 6.04155V3.74989C19.2416 2.28173 18.0514 1.09155 16.5833 1.09155H6.49996ZM18.4166 14.2916C19.9354 14.2916 21.1666 13.0603 21.1666 11.5416C21.1666 10.0228 19.9354 8.79155 18.4166 8.79155C16.8978 8.79155 15.6666 10.0228 15.6666 11.5416C15.6666 13.0603 16.8978 14.2916 18.4166 14.2916ZM18.4167 16.5832C16.2548 16.5832 15.3676 17.8578 15.0035 18.904C14.7539 19.6212 15.3656 20.2499 16.125 20.2499H20.7083C21.4677 20.2499 22.0795 19.6212 21.8299 18.904C21.4657 17.8578 20.5785 16.5832 18.4167 16.5832ZM8.33337 4.75824C7.87774 4.75824 7.50837 5.1276 7.50837 5.58324C7.50837 6.03887 7.87774 6.40824 8.33337 6.40824H14.75C15.2057 6.40824 15.575 6.03887 15.575 5.58324C15.575 5.1276 15.2057 4.75824 14.75 4.75824H8.33337ZM7.50825 8.79155C7.50825 8.33592 7.87762 7.96655 8.33325 7.96655H11.9999C12.4556 7.96655 12.8249 8.33592 12.8249 8.79155C12.8249 9.24719 12.4556 9.61655 11.9999 9.61655L8.33325 9.61655C7.87762 9.61655 7.50825 9.24719 7.50825 8.79155ZM2.83333 4.66656C2.83333 4.1603 2.42293 3.7499 1.91667 3.7499C1.41041 3.7499 1 4.1603 1 4.66656V16.1249C1 18.9093 3.25723 21.1666 6.04167 21.1666H12.4583C12.9646 21.1666 13.375 20.7562 13.375 20.2499C13.375 19.7436 12.9646 19.3332 12.4583 19.3332H6.04167C4.26975 19.3332 2.83333 17.8968 2.83333 16.1249V4.66656Z" fill="currentColor"/>
</svg>
