<svg width="20" height="19" viewBox="0 0 20 19" fill="none" xmlns="http://www.w3.org/2000/svg">
  <path d="M8.47 9V19H6.47V11H4.47V9H8.47ZM16.47 11V17C16.47 18.11 15.58 19 14.47 19H12.47C11.9396 19 11.4309 18.7893 11.0558 18.4142C10.6807 18.0391 10.47 17.5304 10.47 17V11C10.47 10.4696 10.6807 9.96086 11.0558 9.58579C11.4309 9.21071 11.9396 9 12.47 9H14.47C15.0004 9 15.5091 9.21071 15.8842 9.58579C16.2593 9.96086 16.47 10.4696 16.47 11ZM12.47 11V17H14.47V11H12.47ZM9.97 0C12.62 0 15.02 1 16.87 2.6L19.47 0V7H12.47L15.09 4.38C13.7 3.22 11.93 2.5 9.97 2.5C6.43 2.5 3.42 4.81 2.37 8L0 7.22C1.39 3.03 5.32 0 9.97 0Z" fill="currentColor"/>
</svg>
