<svg width="20" height="19" viewBox="0 0 20 19" fill="none" xmlns="http://www.w3.org/2000/svg">
  <path fill-rule="evenodd" clip-rule="evenodd" d="M2.6 2.6C4.45 1 6.85 0 9.5 0C14.15 0 18.08 3.03 19.47 7.22L17.1 8C16.05 4.81 13.04 2.5 9.5 2.5C7.54 2.5 5.77 3.22 4.38 4.38L7 7H0V0L2.6 2.6ZM8.47 19V9H4.47V11H6.47V19H8.47ZM16.47 17V11C16.47 10.4696 16.2593 9.96086 15.8842 9.58579C15.5091 9.21071 15.0004 9 14.47 9H12.47C11.9396 9 11.4309 9.21071 11.0558 9.58579C10.6807 9.96086 10.47 10.4696 10.47 11V17C10.47 17.5304 10.6807 18.0391 11.0558 18.4142C11.4309 18.7893 11.9396 19 12.47 19H14.47C15.58 19 16.47 18.11 16.47 17ZM12.47 17V11H14.47V17H12.47Z" fill="currentColor"/>
</svg>
