<svg width="24" height="24" viewBox="0 0 24 24" fill="none" xmlns="http://www.w3.org/2000/svg">
  <path fill-rule="evenodd" clip-rule="evenodd" d="M0.607792 23.4359C0.779599 23.6025 0.981223 23.7386 1.20388 23.8353L1.23442 23.8482C1.47024 23.946 1.72882 24 2 24H8.5C8.5 23.1716 7.82843 22.5 7 22.5H2C1.92944 22.5 1.86588 22.4862 1.809 22.4627C1.74184 22.4348 1.6738 22.4122 1.60536 22.3946C1.5878 22.3262 1.5652 22.2582 1.53735 22.191C1.51377 22.1341 1.5 22.0706 1.5 22V17C1.5 16.1716 0.828427 15.5 0 15.5V22C0 22.2712 0.0539723 22.5298 0.151761 22.7656L0.16473 22.7961C0.261449 23.0188 0.397505 23.2204 0.564117 23.3922C0.578453 23.407 0.59301 23.4215 0.607792 23.4359ZM1.5 7C1.5 7.82843 0.828427 8.5 0 8.5V2C0 1.72882 0.0539723 1.47024 0.151761 1.23442L0.164729 1.20387C0.261449 0.981218 0.397501 0.7796 0.564117 0.607791C0.578451 0.59301 0.593011 0.57845 0.607791 0.564116C0.779601 0.397501 0.981218 0.261449 1.20388 0.164729L1.23442 0.151761C1.47024 0.0539722 1.72882 0 2 0H8.5C8.5 0.828427 7.82843 1.5 7 1.5H2C1.92944 1.5 1.86588 1.51377 1.80901 1.53735C1.74184 1.5652 1.67381 1.58781 1.60537 1.60537C1.58781 1.67381 1.5652 1.74184 1.53735 1.809C1.51377 1.86588 1.5 1.92944 1.5 2V7ZM17 1.5C16.1716 1.5 15.5 0.828427 15.5 0H22C22.2712 0 22.5298 0.0539722 22.7656 0.151761L22.7961 0.16473C23.0188 0.261449 23.2204 0.397505 23.3922 0.564117C23.407 0.578453 23.4215 0.59301 23.4359 0.607792C23.6025 0.779599 23.7386 0.981223 23.8353 1.20388L23.8482 1.23442C23.946 1.47024 24 1.72882 24 2V8.5C23.1716 8.5 22.5 7.82843 22.5 7V2C22.5 1.92944 22.4862 1.86588 22.4627 1.80901C22.4348 1.74184 22.4122 1.67382 22.3946 1.60537C22.3262 1.58781 22.2582 1.5652 22.191 1.53735C22.1341 1.51377 22.0706 1.5 22 1.5H17ZM22.5 17C22.5 16.1716 23.1716 15.5 24 15.5V22C24 22.2712 23.946 22.5298 23.8482 22.7656L23.8353 22.7961C23.7386 23.0188 23.6025 23.2204 23.4359 23.3922C23.4215 23.407 23.407 23.4215 23.3922 23.4359C23.2204 23.6025 23.0188 23.7386 22.7961 23.8353L22.7656 23.8482C22.5298 23.946 22.2712 24 22 24H15.5C15.5 23.1716 16.1716 22.5 17 22.5H22C22.0706 22.5 22.1341 22.4862 22.191 22.4627C22.2582 22.4348 22.3262 22.4122 22.3946 22.3946C22.4122 22.3262 22.4348 22.2582 22.4627 22.191C22.4862 22.1341 22.5 22.0706 22.5 22V17ZM17.897 7.6495H16.0441L14.1046 5.70994C14.0381 5.64327 13.9592 5.5904 13.8723 5.55437C13.7853 5.51834 13.6921 5.49987 13.598 5.5H10.732C10.6379 5.49987 10.5447 5.51834 10.4577 5.55437C10.3708 5.5904 10.2919 5.64327 10.2254 5.70994L8.28587 7.6495H6.433C5.6427 7.6495 5 8.2922 5 9.0825V16.964C5 17.7543 5.6427 18.397 6.433 18.397H17.897C18.6873 18.397 19.33 17.7543 19.33 16.964V9.0825C19.33 8.2922 18.6873 7.6495 17.897 7.6495ZM12.165 16.2475C10.2233 16.2475 8.5825 14.6067 8.5825 12.665C8.5825 10.7233 10.2233 9.0825 12.165 9.0825C14.1067 9.0825 15.7475 10.7233 15.7475 12.665C15.7475 14.6067 14.1067 16.2475 12.165 16.2475ZM12.1648 10.5155C10.9998 10.5155 10.0153 11.5 10.0153 12.665C10.0153 13.8301 10.9998 14.8145 12.1648 14.8145C13.3299 14.8145 14.3143 13.8301 14.3143 12.665C14.3143 11.5 13.3299 10.5155 12.1648 10.5155Z" fill="currentColor"/>
</svg>
