<svg width="24" height="24" viewBox="0 0 24 24" fill="none" xmlns="http://www.w3.org/2000/svg">
    <path fill-rule="evenodd" clip-rule="evenodd" d="M12.976 4.006c.058-.004.112-.006.161-.006h.003c.433 0 1.67 0 2.765 1.096 1.08 1.08 1.869 3.065 1.869 6.631 0 3.567-.79 5.553-1.869 6.632-1.095 1.096-2.332 1.096-2.764 1.096h-.004c-.05 0-.103-.002-.161-.007a.668.668 0 0 1-.093.007h-.087a2.66 2.66 0 0 1-.842-.137l-3.63-1.21a2.662 2.662 0 0 1-1.041-.643l-2.647-2.647h-1.08v5.177a1.005 1.005 0 1 1-2.01 0v-5.42A2.662 2.662 0 0 1 0 12.156V11.3a2.662 2.662 0 0 1 2.662-2.662h1.974L7.283 5.99a2.662 2.662 0 0 1 1.04-.643l3.631-1.21c.271-.09.556-.137.842-.137h.088c.03 0 .062.002.092.006zM11.49 6.45c-.521.58-1.064 1.57-1.309 3.255a1.932 1.932 0 0 1 2.956 1.638v.773a1.932 1.932 0 0 1-2.956 1.638c.246 1.683.788 2.674 1.309 3.253.71.788 1.46.903 1.647.903.344 0 1.035-.003 1.675-.643.66-.659 1.416-2.15 1.416-5.539 0-3.388-.756-4.88-1.416-5.539-.64-.64-1.331-.643-1.675-.643-.188 0-.937.115-1.647.904zm10.68-1.903a.773.773 0 0 0-1.094 0l-1.639 1.64a.773.773 0 1 0 1.093 1.092l1.64-1.639a.773.773 0 0 0 0-1.093zm-.346 13.35a.773.773 0 0 1-1.092 1.093l-1.64-1.64a.773.773 0 1 1 1.093-1.092l1.64 1.64zm2.131-6.05a.773.773 0 0 0-.772-.772h-2.318a.773.773 0 0 0 0 1.545h2.318a.773.773 0 0 0 .773-.773z" fill="currentColor"/>
</svg>
