<svg width="24" height="25" viewBox="0 0 24 25" fill="none" xmlns="http://www.w3.org/2000/svg">
  <path d="M12.38 12.14V12.3471L12.5264 12.4936L16.1518 16.1189C16.1527 16.12 16.153 16.1206 16.1532 16.1211C16.1535 16.1219 16.1538 16.1233 16.1538 16.125C16.1538 16.1256 16.1538 16.1262 16.1537 16.1267C16.1536 16.1276 16.1534 16.1284 16.1532 16.1289C16.153 16.1294 16.1527 16.13 16.1518 16.1311L15.6311 16.6518C15.63 16.6527 15.6294 16.653 15.6289 16.6532C15.6281 16.6535 15.6267 16.6538 15.625 16.6538C15.6233 16.6538 15.6219 16.6535 15.6211 16.6532C15.6206 16.653 15.62 16.6527 15.6189 16.6518L11.6273 12.6602C11.6234 12.6559 11.6209 12.6505 11.62 12.6449V7H12.38V12.14ZM2.5 12.5C2.5 7.25329 6.75329 3 12 3C14.5196 3 16.9359 4.00089 18.7175 5.78249C20.4991 7.56408 21.5 9.98044 21.5 12.5C21.5 17.7467 17.2467 22 12 22C6.75329 22 2.5 17.7467 2.5 12.5ZM3.5 12.5C3.5 17.1944 7.30558 21 12 21C14.2543 21 16.4163 20.1045 18.0104 18.5104C19.6045 16.9163 20.5 14.7543 20.5 12.5C20.5 7.80558 16.6944 4 12 4C7.30558 4 3.5 7.80558 3.5 12.5Z" fill="white" stroke="currentColor"/>
</svg>
