<svg width="24" height="24" viewBox="0 0 24 24" fill="none" xmlns="http://www.w3.org/2000/svg">
  <path fill="currentColor" fill-rule="evenodd" d="M10.5 21S9 21 9 19.5s1.5-6 7.5-6 7.5 4.5 7.5 6-1.5 1.5-1.5 1.5h-12zm6-9c1.194 0 2.338-.474 3.182-1.318C20.526 9.838 21 8.693 21 7.5c0-1.193-.474-2.338-1.318-3.182C18.838 3.474 17.694 3 16.5 3s-2.338.474-3.182 1.318C12.474 5.162 12 6.307 12 7.5c0 1.193.474 2.338 1.318 3.182.844.844 1.989 1.318 3.182 1.318zm-8.676 9c-.222-.468-.333-.982-.324-1.5 0-2.032 1.02-4.125 2.904-5.58-.94-.29-1.92-.431-2.904-.42-6 0-7.5 4.5-7.5 6S1.5 21 1.5 21h6.324zM6.75 12c.995 0 1.948-.395 2.652-1.098.703-.704 1.098-1.657 1.098-2.652 0-.995-.395-1.948-1.098-2.652C8.698 4.895 7.745 4.5 6.75 4.5c-.995 0-1.948.395-2.652 1.098C3.395 6.302 3 7.255 3 8.25c0 .995.395 1.948 1.098 2.652C4.802 11.605 5.755 12 6.75 12z" clip-rule="evenodd"/>
</svg>
