<svg width="24" height="24" viewBox="0 0 41 40" fill="none" xmlns="http://www.w3.org/2000/svg">
  <g clip-path="url(#clip0)">
    <path fill-rule="evenodd" clip-rule="evenodd" d="M5.5 0C2.73858 0 0.5 2.23858 0.5 5V35C0.5 37.7614 2.73858 40 5.5 40H35.5C38.2614 40 40.5 37.7614 40.5 35V5C40.5 2.23858 38.2614 0 35.5 0H5.5ZM12.7729 22.0173C12.233 21.7066 11.7499 21.4286 11 21.4286C10.257 21.4286 9.76661 21.7061 9.21805 22.0165C8.52197 22.4103 7.73228 22.8571 6.21429 22.8571V20C7.00018 20 7.47678 19.7188 8.00709 19.406C8.67211 19.0136 9.4216 18.5714 10.9714 18.5714C12.4963 18.5714 13.2717 19.0176 13.9557 19.4113C14.4956 19.722 14.9786 20 15.7286 20C16.5145 20 16.9911 19.7188 17.5214 19.406C18.1864 19.0136 18.9359 18.5714 20.4857 18.5714C22.0106 18.5714 22.7859 19.0176 23.47 19.4113C24.0099 19.722 24.4929 20 25.2429 20C26.0288 20 26.5054 19.7188 27.0357 19.406C27.7007 19.0136 28.4502 18.5714 30 18.5714C31.5249 18.5714 32.3002 19.0176 32.9843 19.4113C33.5242 19.722 34.0072 20 34.7571 20V22.8571C33.2384 22.8412 32.4721 22.4005 31.7979 22.0127C31.2609 21.7038 30.7823 21.4286 30.0286 21.4286C29.2427 21.4286 28.7661 21.7098 28.2358 22.0226C27.5707 22.415 26.8213 22.8571 25.2714 22.8571C23.7465 22.8571 22.9712 22.4109 22.2872 22.0173C21.7473 21.7066 21.2642 21.4286 20.5143 21.4286C19.7284 21.4286 19.2518 21.7098 18.7215 22.0226C18.0565 22.415 17.307 22.8571 15.7571 22.8571C14.2322 22.8571 13.4569 22.4109 12.7729 22.0173ZM27.0642 25.1202C27.7293 24.7279 28.4787 24.2857 30.0286 24.2857C31.5784 24.2857 32.3279 24.7279 32.9929 25.1202C33.5232 25.4331 33.9998 25.7143 34.7857 25.7143V28.5714C33.2608 28.5714 32.4855 28.1252 31.8015 27.7316C31.2615 27.4209 30.7785 27.1429 30.0286 27.1429C29.2416 27.1429 28.7619 27.4248 28.2288 27.7382C27.562 28.1303 26.8116 28.5714 25.2714 28.5714C23.7465 28.5714 22.9712 28.1252 22.2872 27.7316C21.7473 27.4209 21.2642 27.1429 20.5143 27.1429C19.7284 27.1429 19.249 27.424 18.7155 27.7369C18.0466 28.1292 17.2927 28.5714 15.7429 28.5714C14.193 28.5714 13.4435 28.1292 12.7785 27.7369C12.2482 27.424 11.7716 27.1429 10.9857 27.1429C10.2079 27.1429 9.72962 27.4228 9.19647 27.7348C8.52517 28.1277 7.7669 28.5714 6.21429 28.5714V25.7143C7.00018 25.7143 7.47959 25.4331 8.01303 25.1202C8.68197 24.7279 9.43588 24.2857 10.9857 24.2857C12.5355 24.2857 13.285 24.7279 13.9501 25.1202C14.4804 25.4331 14.957 25.7143 15.7429 25.7143C16.5288 25.7143 17.0082 25.4331 17.5416 25.1202C18.2105 24.7279 18.9645 24.2857 20.5143 24.2857C22.0392 24.2857 22.8145 24.7319 23.4985 25.1256C24.0385 25.4363 24.5215 25.7143 25.2714 25.7143C26.0573 25.7143 26.5339 25.4331 27.0642 25.1202ZM12.7729 16.303C12.233 15.9923 11.7499 15.7143 11 15.7143C10.257 15.7143 9.76661 15.9918 9.21805 16.3022C8.52197 16.696 7.73228 17.1429 6.21429 17.1429V14.2857C7.00018 14.2857 7.47678 14.0045 8.00709 13.6917C8.67211 13.2993 9.4216 12.8571 10.9714 12.8571C12.4963 12.8571 13.2717 13.3033 13.9557 13.697C14.4956 14.0077 14.9786 14.2857 15.7286 14.2857C16.5145 14.2857 16.9911 14.0045 17.5214 13.6917C18.1864 13.2993 18.9359 12.8571 20.4857 12.8571C22.0106 12.8571 22.7859 13.3033 23.47 13.697C24.0099 14.0077 24.4929 14.2857 25.2429 14.2857C26.0288 14.2857 26.5054 14.0045 27.0357 13.6917C27.7007 13.2993 28.4502 12.8571 30 12.8571C31.5249 12.8571 32.3002 13.3033 32.9843 13.697C33.5242 14.0077 34.0072 14.2857 34.7571 14.2857V17.1429C33.2384 17.127 32.4721 16.6862 31.7979 16.2984C31.2609 15.9895 30.7823 15.7143 30.0286 15.7143C29.2427 15.7143 28.7661 15.9955 28.2358 16.3083C27.5707 16.7007 26.8213 17.1429 25.2714 17.1429C23.7465 17.1429 22.9712 16.6967 22.2872 16.303C21.7473 15.9923 21.2642 15.7143 20.5143 15.7143C19.7284 15.7143 19.2518 15.9955 18.7215 16.3083C18.0565 16.7007 17.307 17.1429 15.7571 17.1429C14.2322 17.1429 13.4569 16.6967 12.7729 16.303Z" fill="currentColor"/>
  </g>
  <defs>
    <clipPath id="clip0">
      <rect x="3.35547" y="2.85742" width="34.2857" height="34.2857" rx="8" fill="white"/>
    </clipPath>
  </defs>
</svg>
