<svg width="24" height="24" viewBox="0 0 41 40" fill="none" xmlns="http://www.w3.org/2000/svg">
  <path d="M4.78516 15.0749L7.6423 17.932C14.7423 10.832 26.2566 10.832 33.3566 17.932L36.2137 15.0749C27.5423 6.40343 13.4709 6.40343 4.78516 15.0749ZM16.2137 26.5034L20.4994 30.7891L24.7852 26.5034C24.2229 25.9397 23.5549 25.4924 22.8195 25.1872C22.0841 24.882 21.2957 24.7249 20.4994 24.7249C19.7032 24.7249 18.9148 24.882 18.1794 25.1872C17.444 25.4924 16.776 25.9397 16.2137 26.5034ZM10.4994 20.7891L13.3566 23.6463C15.2515 21.7529 17.8207 20.6894 20.4994 20.6894C23.1782 20.6894 25.7474 21.7529 27.6423 23.6463L30.4994 20.7891C24.9852 15.2749 16.028 15.2749 10.4994 20.7891Z" fill="currentColor"/>
</svg>
